<svg xmlns="http://www.w3.org/2000/svg">
<defs>
<font id="Nefelibata-Extras" horiz-adv-x="600" >
  <font-face 
    font-family="Nefelibata Extras"
    font-weight="400"
    font-stretch="normal"
    units-per-em="1000"
    panose-1="0 0 5 0 0 0 0 0 0 0"
    ascent="800"
    descent="-200"
    x-height="519"
    cap-height="612"
    bbox="-12.5714 -200 2705.52 782.926"
    underline-thickness="50"
    underline-position="-200"
    unicode-range="U+0020-0451"
  />
<missing-glyph horiz-adv-x="516" 
d="M133 24q-45 0 -64 13.5t-19 50.5q0 20 3.5 242t3.5 274q-1 31 8.5 42t35.5 11q12 0 136 -5.5t160 -5.5q16 0 26.5 -4t15.5 -8.5t7.5 -15t2.5 -17t-0.5 -22t-0.5 -22.5q0 -33 7.5 -233.5t9.5 -240.5q2 -35 -5 -45.5t-31 -13.5q-13 -2 -71.5 -2t-134 1t-90.5 1zM356 570
q10 0 13 8q2 7 -2.5 12t-10.5 5q-5 0 -9 -4.5t-4 -10.5q0 -10 13 -10zM160 573q15 -3 64 -3.5t88 3.5q8 0 8 8l-1 3q-33 -3 -84.5 1t-63.5 7q-8 3 -13 -11q-3 -8 2 -8zM304 456q0 -1 8 0h7q24 4 34 14q12 11 9.5 30t-16.5 26q-28 17 -58 -3q-6 -4 -18 -16t-22 -18.5
t-22 -6.5q-3 -1 -20 1q-10 4 -12 17q0 11 8 15q4 2 8.5 2.5t10.5 0.5h9q10 0 10 10t-10 11q-19 2 -35 -7q-15 -11 -17 -29q0 -16 6 -24q9 -11 27 -14.5t32 2.5q16 7 33 22q22 22 33 26q5 2 22 0q9 -2 14 -10q1 -3 1 -11q0 -12 -17 -17h-19q-10 0 -12 -9q-2 -3 0 -7t6 -5z
M355 343q9 0 11 7t-3 12q-1 3 -15 3q-26 0 -37 -1q0 5 -2 11q-12 31 -43.5 47.5t-61.5 3.5q-28 -14 -28 -44q1 -3 1.5 -11.5t1.5 -13.5t5 -9q3 -3 17 -3h125q15 -2 29 -2zM195 363q-3 14 0 29q9 24 41 22q4 0 5 -1q15 -1 29.5 -14t19.5 -29q1 -2 1 -6q-31 -1 -96 -1z
M266 214q50 0 74 11q34 21 23 49q-5 17 -28 26q-14 6 -39 10q-36 6 -74 -5q-17 -3 -29 -15l-1 -1l-6 -3q-9 -11 -7.5 -24.5t10.5 -24.5q20 -21 77 -23zM248 233q-26 4 -38 10q-15 7 -14 17v7q3 4 8 8h2q2 1 4 3.5t3 3.5q14 6 16 6q19 7 37 7q21 0 37 -5q26 -2 38 -13
q8 -7 7 -15q-2 -14 -24 -24q-29 -11 -76 -5zM266 86q52 0 74 12q13 8 21 21.5t2 27.5q-5 15 -28 25q-5 2 -39 12q-42 3 -74 -6q-14 -2 -29 -14l-1 -1l-6 -6q-9 -11 -7.5 -24t10.5 -23q23 -24 77 -24zM248 105q-21 2 -38 10q-15 9 -14 18v7q4 5 8 8h2l7 7q14 5 16 7

<glyph glyph-name=".notdef" horiz-adv-x="516" 
d="M133 24q-45 0 -64 13.5t-19 50.5q0 20 3.5 242t3.5 274q-1 31 8.5 42t35.5 11q12 0 136 -5.5t160 -5.5q16 0 26.5 -4t15.5 -8.5t7.5 -15t2.5 -17t-0.5 -22t-0.5 -22.5q0 -33 7.5 -233.5t9.5 -240.5q2 -35 -5 -45.5t-31 -13.5q-13 -2 -71.5 -2t-134 1t-90.5 1zM356 570
q10 0 13 8q2 7 -2.5 12t-10.5 5q-5 0 -9 -4.5t-4 -10.5q0 -10 13 -10zM160 573q15 -3 64 -3.5t88 3.5q8 0 8 8l-1 3q-33 -3 -84.5 1t-63.5 7q-8 3 -13 -11q-3 -8 2 -8zM304 456q0 -1 8 0h7q24 4 34 14q12 11 9.5 30t-16.5 26q-28 17 -58 -3q-6 -4 -18 -16t-22 -18.5
t-22 -6.5q-3 -1 -20 1q-10 4 -12 17q0 11 8 15q4 2 8.5 2.5t10.5 0.5h9q10 0 10 10t-10 11q-19 2 -35 -7q-15 -11 -17 -29q0 -16 6 -24q9 -11 27 -14.5t32 2.5q16 7 33 22q22 22 33 26q5 2 22 0q9 -2 14 -10q1 -3 1 -11q0 -12 -17 -17h-19q-10 0 -12 -9q-2 -3 0 -7t6 -5z
M355 343q9 0 11 7t-3 12q-1 3 -15 3q-26 0 -37 -1q0 5 -2 11q-12 31 -43.5 47.5t-61.5 3.5q-28 -14 -28 -44q1 -3 1.5 -11.5t1.5 -13.5t5 -9q3 -3 17 -3h125q15 -2 29 -2zM195 363q-3 14 0 29q9 24 41 22q4 0 5 -1q15 -1 29.5 -14t19.5 -29q1 -2 1 -6q-31 -1 -96 -1z
M266 214q50 0 74 11q34 21 23 49q-5 17 -28 26q-14 6 -39 10q-36 6 -74 -5q-17 -3 -29 -15l-1 -1l-6 -3q-9 -11 -7.5 -24.5t10.5 -24.5q20 -21 77 -23zM248 233q-26 4 -38 10q-15 7 -14 17v7q3 4 8 8h2q2 1 4 3.5t3 3.5q14 6 16 6q19 7 37 7q21 0 37 -5q26 -2 38 -13
q8 -7 7 -15q-2 -14 -24 -24q-29 -11 -76 -5zM266 86q52 0 74 12q13 8 21 21.5t2 27.5q-5 15 -28 25q-5 2 -39 12q-42 3 -74 -6q-14 -2 -29 -14l-1 -1l-6 -6q-9 -11 -7.5 -24t10.5 -23q23 -24 77 -24zM248 105q-21 2 -38 10q-15 9 -14 18v7q4 5 8 8h2l7 7q14 5 16 7
q15 4 37 4q12 2 37 -2q26 -4 38 -15q9 -5 7 -15q-3 -16 -24 -24q-30 -9 -76 -5z" />
    <glyph glyph-name=".null" horiz-adv-x="0" 
 />
    <glyph glyph-name="nonmarkingreturn" horiz-adv-x="333" 
 />
    <glyph glyph-name="space" unicode=" " 
 />
    <glyph glyph-name="exclam" unicode="!" horiz-adv-x="1008" 
d="M90 230q3 -28 29 -42q15 -6 15 3q-2 21 8 38.5t32 22.5q38 8 117.5 -7t159 -36t176.5 -35t165 -5q73 9 109 48.5t24 101.5q-7 42 -36 70q-13 10 -13 1q4 -36 -24.5 -60.5t-74.5 -30.5q-59 -8 -276.5 22.5t-309.5 17.5q-52 -7 -79.5 -36.5t-21.5 -72.5z" />
    <glyph glyph-name="numbersign" unicode="#" horiz-adv-x="1666" 
d="M866 371q21 -23 69 -25.5t110.5 9.5t128 27t139.5 24t128 2q72 -9 107.5 -48t25.5 -102q-7 -42 -36 -70q-13 -10 -13 -1q4 36 -24.5 60.5t-74.5 30.5q-68 9 -242 -12t-222 -21q-40 0 -66.5 10t-36.5 20.5t-26 33.5q-21 -34 -48 -49t-83 -15q-46 0 -219.5 21t-242.5 12
q-46 -6 -74.5 -30.5t-24.5 -60.5q1 -11 -12 1q-29 25 -37 67v3q-12 62 24 101.5t109 48.5q54 7 127.5 -4t138 -28t126.5 -30t108.5 -8t67.5 35q-32 43 -34 92q-1 32 20 51t51 19q29 0 48 -18.5t18 -49.5q0 -49 -30 -96zM830 417q32 68 0 68q-11 0 -15 -8t-0.5 -24t15.5 -36z
" />
    <glyph glyph-name="parenleft" unicode="(" horiz-adv-x="531" 
d="M157 245q-32 3 -54.5 24t-22.5 52q0 36 27 48q14 6 14 -2q-5 -24 8 -41.5t40 -19.5q30 -3 114 17t112 20q27 0 46.5 -12.5t19.5 -30.5t-18 -18q-10 0 -10 4q0 26 -33 26q-23 0 -108 -35.5t-135 -31.5zM228 175q-18 0 -29.5 10t-11.5 22t5.5 19.5t11 7.5t6.5 -1
q5 -20 31 -20q23 0 74 36.5t75 36.5q11 0 20 -5.5t9 -13.5q-1 -9 -12 -7q-2 12 -11 12q-12 0 -42 -24t-65.5 -48.5t-60.5 -24.5z" />
    <glyph glyph-name="parenright" unicode=")" horiz-adv-x="531" 
d="M384 245q-50 -4 -135 31.5t-108 35.5q-33 0 -33 -26q0 -6 -13 -4q-14 4 -15 18q0 18 19.5 30.5t46.5 12.5q28 0 112 -20t114 -17q27 2 40 19.5t8 41.5q-1 4 4 4q15 2 28 -17q9 -15 9 -33q0 -31 -22.5 -52t-54.5 -24zM313 175q-25 0 -60.5 24.5t-65.5 48.5t-42 24
q-9 0 -11 -12h-7q-4 3 -5 7q0 8 9 13.5t20 5.5q24 0 75 -36.5t74 -36.5q26 0 31 20q1 1 6.5 1t11 -7.5t5.5 -19.5t-11.5 -22t-29.5 -10z" />
    <glyph glyph-name="asterisk" unicode="*" horiz-adv-x="1020" 
d="M191 178q91 -13 309 15.5t278 19.5q46 -6 74 -31t24 -60q-1 -11 13 1q30 27 37 68q13 63 -23 102.5t-109 49.5q-68 10 -165 -3t-177 -33.5t-159.5 -34.5t-117.5 -6q-22 5 -32 23t-7 38q1 6 -5 6q-16 0 -30 -21q-8 -12 -10 -24q-6 -43 21 -73t79 -37z" />
    <glyph glyph-name="comma" unicode="," horiz-adv-x="1010" 
d="M929 279q-3 29 -29 43q-15 7 -15 -2q2 -21 -8.5 -38.5t-32.5 -21.5q-38 -7 -117.5 9.5t-158.5 39.5t-175.5 39t-164.5 9q-73 -8 -110 -46.5t-27 -101.5q6 -42 35 -69q12 -10 12 -2q-2 36 27 60t74 29q53 6 164 -11.5t230 -34.5t192 -9q52 6 80 35t24 72z" />
    <glyph glyph-name="period" unicode="." horiz-adv-x="533" 
d="M462 483q-5 3 -8 8q-1 1 -0.5 2.5t1.5 2.5q8 6 13 9q4 0 4 -3q1 -2 1 -6v-5q-1 -5 -6 -8q-2 -2 -5 0zM373 419q-3 0 -4 1q-2 13 -10 21q-2 2 -2 8v12q-1 8 7 13q16 12 21 14q7 3 15 0l6 -3q3 -1 7 -7q2 -4 4.5 -11.5l3.5 -10.5v-2q0 -1 -1 -2q-2 -3 -5.5 -8.5t-5.5 -7.5
q-3 -4 -7 -7q-3 -3 -5 -3t-8.5 -3t-10.5 -2q-3 0 -5 -2zM323 471q-3 0 -3 2q-1 1 -1 3l1 1h2q2 -1 2 -5zM292 466l-2 1q0 2 3 2q2 0 2 -2q-2 -2 -3 -1zM166 350q-5 -2 -8 1l-7 6q-4 4 -2 10q1 3 5 9q2 5 7 5q1 1 4 1l4 1q1 1 3 0q7 -4 11 -11q1 -1 1 -4q-2 -6 -4 -8
q-2 -4 -6 -6q-2 -2 -8 -4zM248 289q-3 0 -9 4q-6 6 -7 12q0 1 -2 5q-2 3 0 6q7 15 19 22q2 1 4 6q0 3 2 5l6 9q5 9 16 14q3 1 7 0q9 -4 13 -9l10 -10l2 -3q2 -14 -7 -25q0 -2 -3 -2q-1 -1 -4 -2.5t-4 -2.5l-9 -3l-5 -9q-9 -17 -29 -17zM383 342l-4 4q-1 0 -1 2q3 5 8 8h2
q4 -4 4 -7q0 -7 -7 -7h-2zM393 241q-3 0 -4 1q-8 0 -8 7v2v9q0 12 2 15q1 1 1 4q-1 7 9 27q3 8 11 11q1 1 7 4q1 0 5 2.5t6 1.5l6 -3t5 -3q2 0 2 -3q1 -2 2.5 -5.5t2.5 -6.5t1 -6q0 -10 -4 -15l-9 -15q-2 -2 -4 -3q-7 -4 -18 -17q-2 -7 -13 -7zM286 217l-6 3q-8 10 -7 21
q0 7 3 10q2 1 3.5 3t4 4.5l3.5 3.5q5 5 13 3l10 -4q8 -12 7 -18q-5 -16 -16 -22q-10 -4 -15 -4zM94 117q-9 -1 -16 10q-3 7 0 13q7 11 21 17h2q1 0 2 -1q10 -4 12 -11q2 -6 2 -10q0 -3 -2 -5l-8 -9q-4 -4 -11 -4h-2zM331 65q-6 0 -6 7q0 6 6 6t6 -7q0 -6 -6 -6zM69 -6h-1
l-2 1q-5 3 -5 8q0 3 -1 6q1 1 1.5 3t0.5 3q4 7 9 10q5 2 8 -1q4 -2 8 -8q1 -1 1 -4l-3 -7q-2 -5 -9 -8zM119 11q-2 0 -4 2t-1 5q0 3 4 3h4l1 -1q1 -2 1 -4q-3 -4 -5 -5z" />
    <glyph glyph-name="slash" unicode="/" horiz-adv-x="1341" 
d="M1261 232q0 30 -24 46q-15 10 -15 -1q0 -21 -12.5 -37t-34.5 -17q-76 -3 -190.5 26.5t-218 67t-240.5 69t-250 31.5q-100 0 -149.5 -47t-46.5 -117q2 -43 28 -73q12 -14 13 -3q1 41 43 69t123 28q102 0 222 -21.5t212.5 -47t204.5 -47t200 -21.5q66 0 100.5 25.5
t34.5 69.5z" />
    <glyph glyph-name="zero" unicode="0" horiz-adv-x="1816" 
d="M1393 547q-3 -1 -6.5 0.5t-3.5 3.5v12q0 4 6 4q3 1 8.5 -3t5.5 -7q-2 -6 -10 -10zM689 539q-2 0 -5.5 4.5t-2.5 5.5q0 3 4 6.5t6 3.5q5 -1 7 -6t-1 -6q-3 -5 -8 -8zM279 487q-6 0 -8 4q0 6 2 8l4 -2q1 -1 3 -4t3 -4q-2 -2 -4 -2zM1024 471q-6 0 -6 4q-2 2 2 6q2 0 2 -2
l6 -6q-2 -2 -4 -2zM1742 426l-6 3q-14 3 -9 18q0 5 4 5q14 8 23 7q6 0 14 -3q3 -1 6.5 -1.5t6.5 0t7 -0.5q2 0 8 -6v-5l-6 -6q-9 0 -17 -5t-17 -5q-3 0 -6 -1q-3 -2 -8 0zM244 437q-8 -4 -8 2l2 4q6 0 8 -4zM1247 426q-1 -1 -4.5 2.5t-3.5 5.5q0 3 4 6.5t6 1.5q3 -2 5 -5.5
t1 -4.5q-6 -6 -8 -6zM1532 419v4q0 3 5.5 7.5t8.5 4.5q8 -3 12 -10v-4q-9 -19 -26 -2zM993 425q-4 -2 -6 2q0 2 2 2q2 2 6 -2q0 -2 -2 -2zM521 393q-7 1 -10 9.5t2 14.5q2 2 6 2q11 -3 14 -12q1 -3 -2 -7.5t-8 -6.5q-2 -2 -2 0zM1644 366q-14 -4 -24 4q-1 1 -3 4t-3 4
q-6 4 -6 16q-1 10 6 17t16 5q13 0 22 -12q5 -11 0 -24v-6q0 -4 -2 -4q-4 -4 -6 -4zM1198 384q-6 3 -8 10t2 12q2 2 6 2q9 0 12 -10q2 -3 -1 -8t-7 -6h-4zM21 284q-2 0 -2 2q0 10 8 10q4 0 4 -4q0 -8 -10 -8zM580 278l-2 2q-3 10 6 10q4 0 4 -4q0 -8 -8 -8zM352 237
q-13 0 -20 10q-4 8 0 12q1 1 3 4t3 4q8 10 28 10q8 -2 16 -10q2 -2 2 -8q-5 -12 -22 -22h-10zM164 262q-6 0 -6 4q0 2 4 6q6 6 12 -2q0 -2 2 -2q0 -2 -4 -6h-8zM1669 227q-11 7 -14 16q-2 4 -2 10q2 9 16 20h4q1 0 6 -3t7.5 -5.5t4.5 -7.5q6 -17 4 -20q0 -9 -2 -10
q-12 -8 -24 0zM819 260l-4 2q0 1 1 3t1 3q6 6 12 -2q0 -2 2 -2q0 -4 -4 -4q-3 -3 -8 0zM1119 228l-2 2q0 3 5.5 7t8.5 3q6 0 10 -8v-4q-9 -16 -22 0zM1029 202q-10 0 -10 4v12q1 1 3 2t3 2q3 1 8.5 -3t5.5 -7q-3 -7 -10 -10zM606 165q-3 -3 -8 2q-18 12 -4 26l12 12
q4 2 10 2q8 0 8 -6v-8q3 -12 -6 -18q-2 -2 -6 -5t-6 -5zM53 159q-7 -3 -12 2q-18 12 -4 30q2 2 7 6t7 6q4 2 12 2q2 0 5 -2.5t3 -5.5v-6q2 -12 -8 -22zM1313 150q-13 0 -20 10q-3 7 0 10q1 1 3 4t3 4q11 11 26 8q6 0 14 -8q2 -2 2 -8q-5 -11 -20 -18z" />
    <glyph glyph-name="one" unicode="1" horiz-adv-x="960" 
d="M545 699q-3 0 -4 2q0 3 1 4l2 -1l3 -4q-1 -1 -2 -1zM790 651q-1 0 -3 2t-1 3q0 1 2 3t3 2q2 -1 3.5 -3t-0.5 -3q-1 -3 -4 -4zM510 647q-4 -2 -4 1l1 2q3 0 4 -2zM738 608q-4 1 -5 5t1 7q1 1 3 1q5 -1 7 -6t-5 -7q-1 -1 -1 0zM290 496q-1 0 -1 1q0 5 4 5q2 0 2 -2
q0 -4 -5 -4zM433 474q-3 0 -3 2q0 1 2 3q3 3 6 -1q0 -1 1 -1q0 -1 -2 -3h-4zM654 430v2q0 1 2.5 3.5t4.5 2.5q4 -1 6 -5v-2q-5 -9 -13 -1zM550 407q-1 -1 -3 0t-2 2v6q0 2 3 2q1 1 4 -1t3 -4q-1 -3 -5 -5zM319 379q-3 -2 -6 1q-9 6 -2 15l7 6q2 1 6 1t4 -4v-3q1 -6 -4 -11z
M864 354q-7 0 -10 5q-2 4 0 6l3 4q4 5 14 5q4 -1 8 -5q1 -1 1 -4q-2 -6 -11 -11h-5zM395 156q-2 0 -4 1q-1 0 -1 1t1 2q1 2 5.5 4t5.5 3q1 0 3 -2q3 -3 1 -5q-4 -5 -11 -4zM202 84q-3 0 -5 2q-6 4 -10 10q-1 1 -3 5v12q0 7 7 11q3 1 8 3.5l7 3.5q4 2 13 0q11 -4 19 -14
q4 -5 2 -13q-1 -6 -5 -11q-1 -2 -5 -4q-10 -6 -18 -5h-3h-7zM84 92l-3 3q-2 7 1 11l1 1l2 1q9 0 11 -8t-7 -8h-5zM469 82q-9 3 -9 11q0 3 2 7l6 6q1 1 4 0q5 -3 8 -8v-6q-1 -6 -9 -10h-2zM284 -16l-2 1q-9 6 -12 16v1q0 1 1.5 5t3.5 6q3 3 7 3h6q8 -2 8 -8q0 -1 0.5 -3
t0.5 -3q0 -10 -11 -17zM658 -1l-1 1q-2 1 -3 2q5 9 6 10l4 2q6 2 7 -4l1 -1q0 -3 -1 -4l-6 -6q-2 -2 -7 0zM143 -93l-7 3q-10 3 -13 14q-2 2 -2 5q-2 2 0 4q4 7 12 13q1 1 4 0q1 0 3.5 -1t3.5 -1q2 0 8 -2q8 -2 12 -14v-2q0 -3 -1 -4q-5 -8 -12 -12q-1 0 -8 -3zM382 -83
q-6 -4 -9 2l-4 7q0 4 1 5l3 6q1 3 6 3h3q3 0 6 -3q3 -6 3 -7q2 -2 0 -4q-3 -6 -9 -9zM680 -100q-5 2 -3 6q3 6 10 6q1 0 5 -2q2 -5 -1 -8q-1 0 -3 -2h-4h-4z" />
    <glyph glyph-name="two" unicode="2" horiz-adv-x="677" 
d="M224 689q-3 0 -5 5q0 1 1 3q1 0 2 1h2h2l2 -1q2 -2 1 -3q0 -3 -4 -5h-1zM565 493q-1 0 -1 1q-10 4 -15 7q-3 1 -3 5v1q0 6 -4 10q-4 3 -1 6q3 4 1 9q0 5 4 8l3 8q0 2 2 2q3 0 5.5 1t5 2.5t4.5 2.5q3 2 6 -1q7 -5 10 -5q4 -1 8 -7l6 -12q2 -5 0 -9l-3 -6t-3.5 -7.5
t-3.5 -6.5q-3 -3 -5 -3q-7 1 -12 -4q0 -1 -1 -1l-2 -1h-1zM128 427q-10 -1 -12 2q-6 4 -10 10q-1 1 -1 4q2 4 1 6q0 3 4 11q2 4 6 6l2 2q7 5 13 4q8 1 17 -6l4 -4q3 -3 3 -7q2 -4 2 -5q1 -1 1 -2t-1 -1q-5 -9 -6 -10l-8 -8q-2 -2 -5 -2h-10zM336 368q-5 6 -12 5h-4
q-5 0 -6 4q-2 3 -5 5q-1 0 -3 2q-1 1 -1 2l-6 12v21q0 3 3 5q4 2 6 6q0 2 5 6q1 3 6 3h11q7 1 16 -6q4 -2 6 -4q1 -1 2 -3t2 -3q2 -1 2.5 -3t1 -4.5t1.5 -3.5q1 -3 0 -7q-1 -1 -1 -4q0 -5 -4 -9l-12 -12q-3 -1 -1 -5q2 -2 0 -4q-1 -3 -4 -3h-3zM119 226q-2 0 -4 2t-2 6.5
t2 6.5l4 3h9q9 -2 5 -11l-2 -4q-1 -3 -4 -3h-8zM242 194q-1 0 -3 1t-3 1q-8 3 -9 11q0 5 -1 7q-2 2 0 3q2 2 5.5 6.5t4.5 6.5q2 5 8 5q1 0 3 1t3 1q1 1 4 1q2 -2 6.5 -3t6.5 -2q5 -3 6 -6l4 -4q1 -3 0 -6l-1 -1q2 -6 -4 -12q-1 -2 -5 -6q-2 -2 -5 -2q-1 0 -3 -1t-3 -1
q-7 -3 -14 0zM577 226l-3 1q-1 1 -1 3l3 3q1 1 2 0q3 -1 3 -3l-1 -1zM567 223q-3 0 -3 3q0 2 2 2q1 1 2 0t1 -2q1 -1 0 -2t-2 -1zM355 157q-4 2 -5 3q-3 2 -3 4v4q0 5 8 7q2 -1 3 -1q3 -2 7 -6q1 -1 0.5 -4t-2.5 -4q-4 -2 -5 -3h-3zM158 124q-4 0 -6 1l-4 2q-5 0 -11 8
q-2 2 -3.5 7.5t-2.5 7.5v1q1 1 1 3q4 9 6.5 11t11.5 6l4 1q14 2 23 -8q2 -3 6 -7q8 -6 3 -14q-2 -11 -12 -14q-4 -2 -6 -4q-4 -1 -10 -1zM93 76q-10 6 -10 7q-4 4 -3 9q0 3 1 4q8 10 15 12q4 2 9 0l7 -3q4 -4 4 -8v-1q1 -5 -3 -11q-1 -2 -3 -4q-2 -1 -7 -2t-7 -3h-3zM179 57
q-5 0 -8 4q-2 3 1 6q3 4 7 3t6 -6q2 -6 -4 -6q-1 -1 -2 -1zM230 -138q-9 0 -13 1q-2 2 -6 4t-7 4.5t-4 5.5v1l-1 2q-7 5 -5 13q2 9 7 13q1 3 4 4q2 3 10 3q3 1 5 -1q1 0 5.5 -1.5t6.5 -3.5q0 -1 2 -2t3 -1q3 -2 5 -5l5 -10q3 -6 1 -11q-2 -8 -4 -12q-2 -5 -7 -3q-2 2 -4 0
q-1 0 -3 -1z" />
    <glyph glyph-name="three" unicode="3" horiz-adv-x="460" 
d="M300 331v1l-1 2v6q3 2 4 1t1 -2v-2l-2 -4zM198 148q-1 0 -1 2l1 1v2q2 3 1 4l-4 4q-1 1 -4 1l-4 2l-7 11q-1 2 -1 6q-2 5 -3 5q-3 1 -3 5v6q0 3 1 4l5 5q4 4 2 7v2l-2 -1q-9 -7 -11 -11q-1 -2 -6 -2q-6 0 -9 -4q-1 -1 -4 -2l-3 -1q-2 -2 -3 1t-5 3q-5 -1 -9 3l-7 7
q-2 2 -5 2h-8q-4 -2 -5 -2q-1 -1 -3 1q0 2 2 4q7 0 10 1h1q0 1 -1 2q-3 2 -3 5v8q0 2 -2 6q-1 1 -1 4q2 2 3 6q0 2 1 4t-2 5l-4 2v1l1 1h9l4 2q3 2 1 4q-12 12 -16 13q-2 3 -6 7q0 2 1 3q2 1 2 0q1 -1 3.5 -3t4.5 -3t6 -4l1.5 -1.5t1.5 -0.5l4 -4q2 -2 15 -2q1 0 3 1
q1 0 3 5v5l1 1l1 -1q2 -4 4 -6q0 -3 1 -3l1 1h2h1l2 1q2 -1 5 -4t5 -4q1 -4 5 -2q2 1 4 -1q4 -7 10 -23q0 -2 4 -8q2 -2 -1 -3t-3 -6l-2 -1v-1l2 2q4 3 15 3q2 1 1 3l-1 4q1 3 4 4q1 1 3 1q9 -2 11 -6q2 -3 4 -1q1 1 4 0q4 -2 6 3q0 2 -1 3l-2 1h-5q-2 0 -1 3t0 4q-2 4 -4 4
q-6 1 -11 5l-9 2l-3 3q-6 4 1 6h2q3 1 2 3q-2 6 0 9q1 2 0 2q0 4 1 6q1 3 5 7q3 4 0 10l-2 2q0 2 1 3h6v-1l1 -1l1 1l-2 1v3q0 2 2 2l7 1q4 0 7 3q5 5 8 7q4 2 5 2h4q1 0 7 3l5 3l9 3q2 0 2 -1q6 -3 14 -1l4 2q2 0 2 -1q2 0 4 -2q3 -3 5 -3q4 0 6 -2l5 -5q5 -4 10 1q4 4 7 5
q1 0 4.5 3t5.5 4h1q2 -1 0 -3l-4 -6l-1 -1q-1 -2 -2 -2q-7 0 -7 -6v-3q7 -15 8 -19q2 -3 0 -10q-1 -3 -1 -10q1 -7 -4 -12q-3 -3 -1 -6q3 -3 -2 -7l-3 -3q-1 -2 -5 -2q-6 0 -9 -5q-1 -4 -5 -4l-7 -3q-1 0 -3 -1l-2 -1l-1 -1l-5 -2q-5 3 -8 0q-4 -3 -7 0t-5 -1q-2 -3 -5 -3v2
q-1 7 -8 7h-9q-2 0 -6 -4q-2 -2 0 -4q3 -3 5 -3q1 2 3 0q1 -1 2 -3l1 -2q5 -5 6 -5v-9q0 -4 1 -6q3 -4 0 -10l-3 -6q-1 -2 2 -5l3 -3q0 -2 -1 -3l-1 -2q-2 -2 -3 0l-3 5q-2 3 -4 1q-2 -4 -5 -8q-1 -1 -3 -1q-8 -3 -9 -4h-5h-9q-5 0 -8 -6l-3 -4q-1 -1 -2 -1zM168 317
q-2 0 -4 0.5t-3 0.5t-1 1t-1 1q1 0 1 0.5t1 0.5t3 -0.5t4 -0.5q1 0 1 -2zM192 307q0 1 -6 7v3q0 1 1 1h2q3 -3 11 -3q1 0 4 -3q2 -2 -1 -3l-8 -2h-3zM82 298q-2 0 -2 3q2 2 4 1q1 0 1 -3q0 -1 -1 -1.5t-2 0.5zM92 291q-2 0 -2 1v1q3 1 3 -1zM182 261l-2 2l1 1h1q3 0 4 -1v-1
q-1 -1 -4 -1zM366 219q-4 0 -4 4v7q0 4 4 4h3q7 0 10 -4q3 -5 -2 -8q-6 -4 -11 -3zM290 223q-2 0 -2 1q-1 1 -1 4q1 0 4 -3q2 -2 0 -2q-1 -1 -1 0zM251 210v3q-1 5 6 9q1 0 1 -2t1 -2q1 -3 -1 -5q-3 -3 -7 -3zM172 157l-1 1q-1 1 -1 4q1 1 1 2l3 -2q2 -2 -1 -4zM220 145
l-1 1q-2 2 0 5q0 3 2 1l2 -1q1 -4 -3 -6z" />
    <glyph glyph-name="four" unicode="4" horiz-adv-x="1068" 
d="M963 679q-8 4 -11 7q-5 5 -3 11q0 3 1 4q9 11 17 13q5 2 9 0l8 -3q4 -3 4 -9v-1q1 -5 -3 -13l-3 -3q-3 -2 -8.5 -3.5t-7.5 -2.5h-3zM81 693l-1 1q-1 1 1 3l1 -1q0 -3 -1 -3zM378 606q-4 0 -4 2q-1 1 2 4q3 0 3 -2q1 -2 -1 -4zM448 472q-1 0 -2 1q0 2 1 2h2q0 -1 -1 -3z
M471 461l-4 3q-2 2 0 5q0 1 1.5 2.5t2.5 0.5q2 -1 4 -3q0 -1 1 -1q0 -7 -5 -7zM679 458l-3 3q-3 3 3 5q4 0 4 -4t-4 -4zM482 441q-3 1 -3 5q0 2 3 4q2 0 3 -2q0 -2 1 -3q-1 -1 -1 -3q-1 -1 -3 -1zM673 405q-1 -1 -6 1q-1 1 -2.5 4t-2.5 4q0 2 1 3t2 2.5t2 2.5q1 2 3 0
q6 -2 9 -8l1 -1v-1l-1 -1zM921 387l-4 2q2 8 6 11h2q3 2 6 -1q1 -2 1 -6q-1 -3 -6 -5q-2 -1 -5 -1zM854 378q-7 0 -7 5v4q2 4 6.5 4.5t7.5 -3.5v-2v-1q0 -1 -2 -5q-1 -2 -5 -2zM345 341q-5 1 -7 6q-1 1 -2 4t-2 5q-3 8 3 14l6 5q4 4 11 2q6 -2 9 -4q2 -2 3 -4l3 -10v-3
l-2 -5q-7 -11 -15 -10h-7zM583 333l-1 1q0 4 4 3q1 0 1 -1q0 -3 -4 -3zM551 269q-5 -1 -10 2q-5 4 -1 10q4 7 14 10h3q4 -3 7 -7q2 -2 0 -4q-3 -5 -9 -10zM763 258q-4 4 -2 6l4 1h2q2 0 3 -2.5t-1 -3.5l-1 -1q-3 -3 -5 0zM205 244h-1l-2 1l-3 2q1 1 3 4h2q2 -1 4 -5
q0 -1 -1 -2q0 -2 -2 0zM683 237q-1 -1 -3 1t-2 3q2 4 7 4l2 -2q1 -1 -0.5 -3.5t-3.5 -2.5zM397 10q-1 1 -7 4q-3 1 -8 6q-2 4 -2 5q0 5 -3 11q-2 5 1 11q0 1 1 2t1 2q6 14 15 17q1 0 3.5 2.5t4.5 2.5q2 -2 4 -2q3 -1 9 -1q2 -3 4 -3v-3q0 -1 1 -2h1q2 2 0 3l-2 2q-2 3 -4 3
q0 3 -3 3h-10q0 1 -3 4q-4 1 -2 3l4 4q5 4 10 -1q0 -1 1 -2l1 -2q0 -3 3 -1q2 0 2 1q0 4 2 8q1 1 -1 3q-5 2 -10 5v2l1 1q5 0 8 1l2 -1q1 -1 2 -1q2 -1 4 -5q2 -2 3 -1q2 0 2 2q1 2 1 7v6q0 1 3 4h10q3 3 3 4q0 4 1 6q0 1 1.5 2t2.5 0q7 -2 9 -2l1 1v2q-2 2 -4 3h-13
q-4 2 -5 4q-9 12 -10 13t-2 4l-1 3q-3 5 1 9q4 3 1 7l-1 1v1q0 4 2 5q2 2 3 2q2 1 4.5 3t3.5 3q3 3 5 4l1 -1q2 -1 3 0q6 4 15 0q1 -1 5 -3q3 -1 6 2q0 1 0.5 1t0.5 1q0 2 -1 3t-2 5.5t-3 6.5l-2 2q-1 3 1 5q2 0 4 2h4.5t3.5 1q1 1 2.5 3.5t2.5 3.5q2 2 3 4q0 2 -1 3
q-2 6 -2 8q2 4 5 3q1 -1 2.5 -2t2.5 -2q6 -4 8 2l3 7q0 1 1 1.5t2 -0.5q2 0 3 -1q6 -7 13 -1q2 2 6 2h3l3 -3q4 -4 10 -2q2 2 3 2q5 2 7 -1q1 -1 5 -3t6 -4q3 -4 10 -1q6 2 6 -4q1 -6 8 -6h3q3 -3 2 -5l-1 -1v-2q-3 -4 -1 -9q1 -4 5 -10q4 -4 9 -2q9 7 9 14q0 1 1.5 1.5
t2.5 -0.5t4.5 -2.5t5.5 -3.5t-1 -4q-2 -2 -4 -2l-18 -12v-1q1 0 2 -1h6q1 0 2.5 -1.5t2.5 -1.5q2 -2 0 -4l-4 -2q-1 0 -4.5 -1.5t-5.5 -1.5q-8 -3 -10 -5q0 -1 -2 -2t-3 -2q-2 0 -2 -3v-8q0 -3 -3 -4q-10 -1 -18 -9q-1 -1 -2 -1t-1 1h-7q-1 -1 -4.5 -1.5t-5.5 -2.5
q-4 -5 -12 -3q-6 3 -18 3q-3 0 -6 4q-2 7 -9 5q-7 0 -10 7l-2 3h-2q-5 2 -6 -4q0 -6 -6 -9q-3 -1 -9 -7q-1 -1 2 -4t6 1q1 0 1 2q3 3 6 0q2 -2 3 -4q0 -2 8 -7h3q5 3 9 -1q3 0 3 -3q1 -1 1 -4q0 -5 4 -8q2 -2 4 -3q0 -1 2 -2t2 -2t1.5 -5t0.5 -6q0 -2 1 -3q2 -3 4 -1
q0 1 1 3q1 1 3 1q2 -2 3 -2v-4q0 -1 -1 -2l-1 -2q-2 -7 -5 -8q-2 -1 -1 -4v-3q-1 -2 -5.5 -8.5t-7.5 -8.5q-1 -1 -1 -3q4 -6 5 -9q0 -3 1 -5q-5 0 -7 1q-2 2 -6 2q-6 0 -8 -2l-6 -6q-4 -2 -6 -2h-5q-5 1 -11 -3q-2 0 -3 -1q-5 -4 -14 -2q-2 0 -3 1l-10 10q-1 5 -8 5
q-1 1 -1 4q0 2 -2 2q-7 2 -9 -5q-1 -9 -12 -16q-10 -8 -18 -2zM741 190q-2 0 -3 1q-2 3 0 9q0 1 1 1l1 -1q0 -1 0.5 -4t1.5 -4q2 -2 -1 -2zM769 193q-3 3 -1 4q0 3 4 1q1 0 1 -3q-1 -2 -4 -2zM767 186q-3 0 -5 1q-1 1 -1 2q-2 2 1 2h1q3 -3 4 -5zM774 61l-2 2q-5 5 -12 2
q-2 0 -3 1l-3 3q-1 2 -3 4q-8 3 -11 12q-2 5 -10 5q0 6 1 8q2 4 0 6q-1 5 -5 8q-2 3 1 6t2 4q-2 4 -2 11q-1 3 -4 4l-1 1h1l1 1q2 1 7 1q6 0 6 7v7q0 7 4 12q1 1 4 6q3 4 6 2q3 -4 9 -6q3 -2 3 2v4q-1 3 4 12l2 -2q1 -2 0 -3q0 -1 -1 -3t0 -5q2 -2 2 -4q3 -3 4 -3q7 0 10 -2
q2 0 2 2v7.5t1 6.5l1 1q5 -3 5 -9q0 -4 1 -6q0 -2 2 -2q2 -2 3 0t3 4q1 1 4 -1v-3q1 -5 2 -6.5t2.5 -2.5t5.5 -2l1 -1h2q5 -5 2 -10q0 -2 2 -2t6 4q2 2 4 2l3 -2v-2l-2 -2q-3 -4 -9 -10v-3q1 -1 1.5 -4t0.5 -4q0 -2 4 -2q2 -1 6 -1q2 0 2 -3q0 -2 -1 -2q-3 -1 -7 -1
q-4 -1 -4 -4l-1 -7q0 -6 -6 -9l-2 -1l-2 -1q-2 -2 -1 -6q1 -3 -2 -5h-4t-4 -2q-2 -2 -4 -6l-1 -2l-1 -1q-1 -2 -4 -2t-5 1q-4 3 -7 0l-4 -4q-2 -2 -5 0zM725 160q-1 -1 -2 -0.5t-1 1.5l1 1q1 1 3 -1q0 -1 -1 -1zM711 73l-3 2q-2 1 -5 4q-1 0 -3 -1t-3 -1t-3.5 -0.5
t-3.5 -1.5q-2 -2 -6 0q-2 1 -3 0q-5 -3 -8 2q-4 2 -6 1h-1q-8 5 -12 11q-1 3 -6 5q-3 3 -7 1q-1 -1 -3 0q-2 4 -3 4q-9 4 -12 14q-2 4 -2 7v10q0 2 -3 3q0 5 4 5q16 5 18 5q6 0 10 3h3q4 -4 11 1q1 1 5 3.5t6 4.5t4 0q9 -4 15 2q1 3 4 0l2 -2q4 -2 5 -2t4 -1.5t5 -0.5
q3 1 3 -2q0 -7 -1 -9q-2 -2 0 -3l3 -8q2 -2 2 -6v-10q0 -1 1.5 -4t1.5 -5t1.5 -6t2.5 -6l1 -1l1 -1q0 -3 -4 -3q-2 0 -4.5 1t-3.5 1q-5 2 -7 -2q-5 -5 -1 -10v-2t1 -2zM828 151l-1 1q0 3 2 4q2 0 3 -1q0 -2 -1 -2q-2 -2 -3 -2zM841 147v1q3 5 8 8h1l1 -1q0 -6 -8 -8h-2z
M863 153q-2 0 -2 2q0 1 1 1h1l1 -1q0 -2 -1 -2zM615 128q-2 -1 -3 1v1q0 2 2 2q1 1 4 1q0 -2 -3 -5zM542 107q-2 0 -2 1q-2 4 -1 5q0 3 3 3q3 1 5 -1q1 -1 1 -3q-2 -4 -6 -5zM712 68l-1 1v5q2 -2 2 -3q1 -1 -1 -3zM742 65q-2 2 -1 3q0 1 1 1t1 -2zM553 52v3q0 1 2 3
q4 4 8 -1l1 -1q0 -2 -2 -2q-1 -1 -5 -1q-1 0 -3 -1h-1zM226 58q-3 -2 -3 1q0 1 1 1q2 0 2 -1v-1zM570 18l-3 2q-2 2 0 4q5 4 7 2v-1q1 -1 1 -2v-3q-2 -4 -5 -2zM532 18q-2 0 -3 1q-2 1 -4 5q6 0 8 -1q3 0 1 -4q0 -1 -2 -1zM518 4q-3 1 -4 4q-2 5 3 5q2 0 3.5 -2.5t0.5 -4.5
q0 -2 -3 -2zM570 3q-8 4 -11 7v1l1 2l9 -3q3 0 5 -4q2 -2 0 -3q0 -2 -2 0h-2zM205 -19q-3 1 -3 4q1 2 4 2h3q1 0 1 -1t1 -1q0 -3 -2 -3q-1 -1 -4 -1zM417 -85q-5 0 -7 3q0 1 -2 2.5t-2 2.5q-3 4 -3 11v5q5 5 6 5h2q10 -8 14 -14q3 -5 0 -11q-3 -4 -8 -4zM508 -84q-2 0 -2 4
v1q0 1 3 3q3 0 3 -3t-1 -4q0 -3 -3 -1zM866 -160q-1 1 -5.5 2t-6.5 3q-2 3 -7 1q-2 0 -3 1t-1 2q-1 2 -3 4q-5 5 -9 11q0 2 -2 6q-3 3 -3 11v7v8q0 4 4 6t6 6q3 6 8 7q8 4 11 7q1 1 6 0q3 0 5 -1q6 -3 10 2q2 1 3 0q4 -3 12 -11q5 -2 5 -5l3 -6q5 -11 7 -19v-2q1 -5 0 -6
q-4 -4 -4 -10q0 -4 -3 -5q-4 -3 -7 -7q0 -3 -3 -3l-7 -4q-4 0 -8 -2q-1 0 -3.5 -2t-4.5 -1zM284 -100l-3 3q-4 4 -4 10q2 4 3 4l3 2q2 1 5 0q8 -2 6 -8v-2v-3q0 -2 -2 -4l-5 -2q-1 -2 -3 0zM336 -111q-2 2 -2 4q2 2 3 1h1l2 -1v-2q-1 -2 -4 -2z" />
    <glyph glyph-name="five" unicode="5" horiz-adv-x="1099" 
d="M578 543l-1 2q-1 1 0 3l1 1l1 -1v-3q-1 -1 -1 -2zM546 437q-1 1 -3 -1q-6 -2 -7 2q-2 2 -5.5 4.5t-4.5 3.5q-2 0 -2 1h-2q-1 0 -3 2q-1 8 -13 14h-2h-3.5t-4 0.5t-4 1.5t-4.5 1v1q0 1 1 1h2q7 1 14 -2h3q2 0 2 3q1 2 0 2q-3 7 2 11q1 1 1 4q0 2 2 7t2 8t2 3h6l3 3
q2 1 0 3v2l-1 2l2 3q2 1 5 1t4 2l9 5q1 1 5 1q2 0 6 2q3 1 6 -2q1 -1 2 -3.5t2 -3.5q2 0 3 1q0 2 2 2q1 1 2 0t4 -6l5 -5q3 -1 5 1q0 2 3 2h2q1 -1 1 -3q0 -1 -2 -3v-3q2 -7 5 -9l3 -2q2 -2 1 -4t-1 -8q0 -5 4 -6q2 -2 0 -4l-1 -1q-3 -1 -3 -4v-9q0 -1 -2 -3l-7 -3
q-5 -3 -5 -8q0 -1 -2 -3h-4q-6 0 -8 -2q-8 -4 -13 -4l-2 -1h-2q-1 -1 -4 0zM603 521q-2 0 -2 3l2 2l2 2l2 -3l-2 -3q0 -1 -2 -1zM486 510q-2 0 -2 2t2 2q1 1 1.5 0.5t0.5 -2.5t-2 -2zM509 502q-3 0 -3 4q2 2 3 2q1 1 2.5 -0.5t1.5 -2.5q0 -3 -4 -3zM485 506h3q0 -2 -2 -2
q-1 0 -1 2zM483 476h2v-1q-1 0 -3 -1q-2 2 1 2zM501 452q1 -2 0 -3q-3 -3 -8 0v1q0 2 1 3t2 1t1 -1zM717 389q1 0 1 -3q0 -12 -2 -15v-4t-1 -5q-1 -1 -4 -7q-1 -1 -1 -4q0 -2 -2 -2q-2 -1 -6 -5t-7 -5q-2 0 0 -4t1 -6v-1h-1q-2 0 -4 2q-3 3 -7 1q-2 -1 -5 0h-3q-4 0 -6 1
q-1 2 -6 2t-6 4l-4 2h-2q-1 -1 -2 -1q-2 -1 -3.5 0.5t-0.5 3.5q0 2 -1 2q-6 2 -6 5q0 2 -1.5 5.5t-1.5 5.5q1 5 -6 7q-1 1 -1 3l1 1q3 3 3 4v4q-3 4 0 8q1 0 1 2v3v7q0 2 1 2q4 2 2 5q1 2 5 4q2 1 1 2q0 3 1 4q10 2 11 2q4 0 7 1q2 0 3 2.5t0 4.5q0 1 -0.5 1t-0.5 1v2l1 1h1
h2l1 -1q0 -6 8 -10q3 -1 6 0q4 1 5 -1l2 -4q2 -2 4 1l2 2q1 -1 2 -1l1 -1v-3t0.5 -4t2.5 -3t5 -1.5t4 -1.5q2 0 2 1l3 3l1 2h3l1 -2q-3 -7 -9 -8q-1 -1 -1.5 -3.5t0.5 -3.5l2 -1q2 -1 4 -3zM566 430l2 2h2v-1q1 -1 1 -2l-1 -3h-1q-1 1 -2 1q0 1 -1 3zM503 430l1 -1
q0 -1 -2 -1q-1 0 -1 1q1 1 2 1zM626 407q-2 4 -2 5l-1 1q0 2 2 4t4 2q2 -2 2 -3q-2 -5 -1 -6q0 -1 -1 -2q-1 -3 -3 -1zM610 409q-3 0 -3 2q0 1 1 2q1 0 1 -1l2 -2zM730 397q0 3 2 3l2 -1q0 -1 -0.5 -1t-0.5 -1q-1 -1 -2 -1t-1 1zM1018 351q2 -4 -1 -5q-3 -4 -4 -9
q0 -1 -2 -3q-1 -1 -2 -3.5t-2 -3.5l-6 -3q-1 -3 -4 -4q0 -1 -2 -1q-2 2 -4 0q-3 -1 -16 -1q-2 0 -2 2l-7 4q-6 3 -9 9q-1 2 -3 4l-3 2q-2 1 -2 4q1 1 1 4l-1 2l-3 7l1 2l1 2q2 4 1 6q1 1 2 1q2 2 2 3q1 2 1 4v3l1 1q2 1 5 3.5t4 2.5h3q1 0 3 3q1 2 4 1q5 -2 8 0q1 1 3 1
q3 -3 7 -2q2 0 5.5 -2t5.5 -2t2 -2q0 -3 1 -4q1 -2 5 -4q3 0 4 -1q4 -2 2 -5l-1 -4q-2 -2 -1 -5q1 -1 1.5 -3.5t1.5 -3.5zM637 317l6 -7q1 0 1 -2t1 -2v-16q0 -3 -2 -5q-9 -9 -12 -11l-3 -3l-2 -2q-2 0 -7 -1.5t-7 -1.5q-6 0 -8 -1q-2 -2 -6 0q-2 1 -8 1q-5 0 -6 4
q-3 7 -15 10h-1q-2 1 -3 1q-2 4 -1 6v1l1 2v2q-1 1 -4.5 5t-4.5 6q0 1 -2 1q-1 1 -3 2t-3 2q-5 3 -3 6q0 2 -1 2q-2 3 0 6q2 4 2 7q0 8 6 10q6 3 7 3t3.5 1t3.5 1q1 1 2 0l5 -5q1 -1 4 0q0 2 2 2l2 1q8 -4 17 1h3q2 0 5.5 -1.5t5.5 -1.5q1 0 2 -1l2 -1q1 -3 4 -4q2 -2 3 -2
q7 0 10 -7q1 -1 1.5 -4t2.5 -4zM770 238q-3 1 -4 0h-2q-1 -1 -2 -1q-2 0 -2 2q1 6 -1 7l-7 14q-1 2 1 4q0 1 -1.5 4t0.5 4q3 2 3 6v2l-1 1l-2 2q-4 4 -4 9q1 2 -1 8q-3 6 -1 13q2 6 4 8l1 1q1 1 5 2t5 2q2 2 5 0q4 0 10 -4l5 -5q5 -4 2 -11q-2 -6 -2 -8q0 -3 -4 -5l-2 -2
q-2 0 0 -2h2l2 1q3 1 4 0q3 -5 7 -4q3 0 6 -3t5 -4q2 -4 2 -6q2 -4 2 -5q1 -2 1 -4q-2 -3 -3 -7.5t-2 -6.5q-3 -4 -6 -6q-2 -2 -3 -2q-2 -1 -5.5 -2.5t-4.5 -1.5t-3 -2.5t-4 -1.5t-5 4zM728 305q2 -1 6 -7q0 -1 -1 -2l-4 -4q-2 -2 -5 0q0 1 -2 2.5t-2 2.5q-5 5 2 8h1
q1 1 5 0zM402 278q8 -3 8 -13q0 -6 -3 -8q-2 -2 -2 -4q-1 -2 -3 -3t-3 -2h-2q-2 1 -4.5 0t-4.5 -1q0 1 -2 1l-5 5q-7 7 -2 17l1 2v2q6 6 13 6q6 0 9 -2zM656 278q0 -1 -1 0h-1q0 1 1 2q2 0 2 -2h-1zM448 262q7 -5 1 -9q-1 -3 -4 -4q0 -1 -1 -1h-1l-5 5q-3 3 1 9q5 3 9 0z
M531 254q1 0 1 -2q0 -1 -1 -1q-1 1 -1 2zM427 247q6 0 4 -5q0 -4 -4 -2l-3 3q-2 2 2 4h1zM829 203q1 -1 1 -3t1 -2q2 -5 -1 -10l-11 -11l-2 -1h-15q-2 0 -4 -3v-2q-3 -8 -9 -11q-3 0 -5 -2q-5 -2 -8 0q-2 2 -3 0q-2 -2 -4 -3q-1 -1 -4 1q-3 3 -1 6q2 6 0 11q-2 3 0 7
q4 10 16 12q1 0 3.5 1t3.5 1q2 0 2 -1l2 -2q0 1 1 3v2q0 4 -2 5q-3 0 -3 3q0 4 -3 7q-3 2 -3 7q0 2 1.5 5.5t1.5 5.5q1 1 2 1t2.5 2t2.5 3q4 2 6 2l2 2q2 0 3 -1q1 0 2.5 -2t2.5 -2q3 -4 8 -6q2 -2 2 -5v-8q0 -3 2 -3q2 -1 10 -9zM745 190q2 3 5 0q1 -1 1 -3t-1 -2h-4
q-4 0 -2 4q0 1 1 1zM163 166q-2 0 0 2q2 0 2 -1v-1h-2zM172 157q-4 0 -4 4q0 1 1 1q3 0 5 -3q0 -2 -2 -2zM209 152l-1 1q0 3 1 4q2 0 4 -2v-1q0 -3 -1 -4zM181 147q-2 -1 -4 1t-1 5q0 1 1 1t2 -1q1 0 1 -1t1 -2l1 -2zM299 150l-1 -1q-1 0 -2 1t-1 2h3q1 0 1 -2zM229 132
l2 -4q2 -5 1 -8l1 -2q1 -2 1 -3l-3 -9q-2 -2 -4.5 -6t-3.5 -6q-3 -3 -6 -1t-5 0l-15 -6q-2 0 -3 2v2q-2 3 -4 3h-3q-1 0 -10 -2h-4l2 2l1 1l5 2q1 1 0 3q-5 5 -8 5q-2 0 -4 2q-3 2 -2 6q0 1 1 2h1l3 -3h2q0 1 1 2q0 1 -1 3t-1 3q-1 4 -5 4q-3 0 -4 1q-5 2 -14 2q-1 1 -1 2h1
q1 0 5 0.5t6 1.5q3 2 10 -1q3 0 3 2q3 3 4 3q4 4 5 6q3 5 8 5q3 0 7 2q3 2 6 0q2 -1 5.5 -2t5.5 -2q3 -2 7 1q1 0 2 -1q0 -5 2 -6zM82 140h1q4 -2 8 -2v-1l-1 -2h-5q-3 0 -4 1t-1 3q1 1 2 1zM139 135q3 0 5 -4l-1 -1q-3 0 -5 3v1zM699 129q1 1 3 -0.5t2 -2.5t-2 -3
q-2 -1 -3 0q0 1 -2 3q-1 1 0 2t2 1zM705 116q0 3 3.5 5t5.5 0l2 -3q0 -6 -5 -7h-1q-5 0 -5 5zM155 116q1 0 3 -2q0 -2 -1 -3q-3 0 -4 1q-1 0 -1 1q-1 2 0 2q1 1 2 1h1zM688 112q3 -3 5 -4q2 -4 0 -8q-4 -5 -11 -4q-1 0 -1 -2q-1 -1 -1 -5t-3 -7q-2 -3 -5 -5q-2 -2 -4 -2
q-4 -1 -4 -5q0 -3 -1 -4q0 -1 -1 -1q-4 -4 -9 1q-3 3 -2 6q3 3 0 6q-3 2 -4 7q-3 3 -1 7q1 9 5 13l1 1q5 5 11 5q2 0 6 -2q1 0 2.5 -0.5t2.5 -1.5q3 -1 4 0q4 4 6 5q2 2 4 0zM219 85q0 2 1 2q1 -1 1 -2t-1 -1zM836 42q0 2 2 2v-3q-2 0 -2 1zM597 35q4 -2 4 -8q0 -2 -2.5 -3
t-4.5 0q-9 4 -2 11q1 1 4 0h1z" />
    <glyph glyph-name="six" unicode="6" horiz-adv-x="1454" 
d="M394 608q-13 0 -20 10q-4 8 0 12q1 1 3 4t3 4q8 10 28 10q8 -2 16 -10q2 -2 2 -8q-5 -12 -22 -22h-10zM279 487q-6 0 -8 4q0 6 2 8l4 -2q1 -1 3 -4t3 -4q-2 -2 -4 -2zM762 464q-6 0 -6 4q-2 2 2 6q2 0 2 -2l6 -6q-2 -2 -4 -2zM522 437q-2 0 -5.5 4.5t-2.5 5.5q0 3 4 6.5
t6 3.5q4 -1 6.5 -6t-0.5 -6q-3 -5 -8 -8zM244 437q-8 -4 -8 2l2 4q6 0 8 -4zM985 419q-1 -1 -4.5 2.5t-3.5 5.5q0 3 4 6.5t6 1.5q3 -2 5 -5.5t1 -4.5q-6 -6 -8 -6zM731 418q-4 -2 -6 2q0 2 2 2q2 2 6 -2q0 -2 -2 -2zM470 393q-7 1 -10 9.5t2 14.5q2 2 6 2q11 -3 14 -12
q1 -3 -2 -7.5t-8 -6.5q-2 -2 -2 0zM1382 359q-14 -3 -24 4q-1 1 -3 4t-3 4q-6 4 -6 16q-1 10 6 17t16 5q13 0 22 -12q5 -11 0 -24v-6q0 -4 -2 -4q-4 -4 -6 -4zM936 377q-6 3 -8 10t2 12q2 2 6 2q9 0 12 -10q2 -3 -1 -8t-7 -6h-4zM21 284q-2 0 -2 2q0 10 8 10q4 0 4 -4
q0 -8 -10 -8zM529 278l-2 2q-3 10 6 10q4 0 4 -4q0 -8 -8 -8zM164 262q-6 0 -6 4q0 2 4 6q6 6 12 -2q0 -2 2 -2q0 -2 -4 -6h-8zM658 260l-4 2q0 1 1 3t1 3q6 6 12 -2q0 -2 2 -2q0 -4 -4 -4q-3 -3 -8 0zM1407 220q-11 7 -14 16q-2 4 -2 10q2 9 16 20h4q1 0 6 -3t7.5 -5.5
t4.5 -7.5q6 -17 4 -20q0 -9 -2 -10q-12 -8 -24 0zM857 221l-2 2q0 3 5.5 7t8.5 3q6 0 10 -8v-4q-9 -16 -22 0zM767 195q-10 0 -10 4v12q1 1 3 2t3 2q3 1 8.5 -3t5.5 -7q-3 -7 -10 -10zM555 165q-3 -3 -8 2q-18 12 -4 26l12 12q4 2 10 2q8 0 8 -6v-8q3 -12 -6 -18
q-2 -2 -6 -5t-6 -5zM53 159q-7 -3 -12 2q-18 12 -4 30q2 2 7 6t7 6q4 2 12 2q2 0 5 -2.5t3 -5.5v-6q2 -12 -8 -22zM1051 143q-13 0 -20 10q-3 7 0 10q1 1 3 4t3 4q11 11 26 8q6 0 14 -8q2 -2 2 -8q-5 -11 -20 -18zM370 32v4q0 3 5.5 7.5t8.5 4.5q8 -3 12 -10v-4
q-9 -19 -26 -2zM273 6q-3 -1 -6.5 0.5t-3.5 3.5v12q0 4 6 4q3 1 8.5 -3t5.5 -7q-2 -6 -10 -10zM1311 -65l-6 3q-14 3 -9 18q0 5 4 5q14 8 23 7q7 0 14 -3q3 -2 10.5 -2h9.5t8 -6v-5l-6 -6q-9 0 -17 -5t-17 -5q-3 0 -6 -1q-3 -2 -8 0z" />
    <glyph glyph-name="seven" unicode="7" horiz-adv-x="978" 
d="M645 646q-12 6 -17 9q-4 2 -4 6v2q0 7 -5 11q-3 5 -1 8q2 2 2 11q0 6 4 9q1 1 4 10q0 1 2 3q7 1 19 7q3 2 6 -1q9 -7 13 -6q6 -3 9 -9q2 -2 4.5 -7l3.5 -7q2 -6 0 -11l-12 -24q-2 -4 -6 -4q-9 1 -15 -5l-3 -2h-4zM118 565q-11 0 -15 3l-11 12q-2 2 -1 5q2 4 1 7q0 5 4 13
q3 7 7 8l2 1l1 1q9 7 16 6q10 0 20 -8q4 -4 6 -5q3 -5 3 -8l3 -7v-3q-8 -12 -8 -13q-6 -6 -9 -8q-3 -3 -6 -3q-9 0 -13 -1zM373 494q-2 0 -3 1q-6 6 -14 5h-6q-4 0 -7 5q-1 5 -6 6l-3 2l-2 3l-2.5 5t-2.5 5.5t-1 4.5v4.5v5.5v4v11q0 5 3 6q6 4 7 8q0 1 6 7q3 3 8 4h12
q10 0 20 -8q1 -1 3.5 -2.5t3.5 -2.5t2.5 -3.5t3.5 -3.5q2 -2 3 -7t2 -6q2 -3 0 -8q-1 -2 -1 -6q0 -6 -5 -11q-8 -6 -14 -14q-4 -3 -1 -6q2 -3 0 -5q-4 -4 -6 -4zM906 559q-6 3 -9 9v3q2 4 8 8q1 1 5 1q3 -2 7 -8q1 -1 1 -3l-1 -2q-4 -6 -8 -7q-1 -1 -3 -1zM861 490
q-8 -2 -13 3q-4 4 -1 7l7 6q1 2 6 0q4 -4 4 -10q0 -2 -1 -3q0 -1 -2 -3zM108 322q-4 2 -5 3q-8 8 0 16q1 1 5 3h10q4 -1 6 -5t1 -8q-1 -1 -3 -5t-5 -4h-9zM256 284q-1 1 -3.5 1.5t-3.5 0.5q-10 6 -11 13q0 6 -2 9q0 2 1 3l12 16q3 6 10 7q1 0 7 2q2 2 5 0q2 -1 7 -2t8 -3
q8 -5 8 -7l4 -6q3 -3 1 -6l-1 -2q1 -8 -5 -14q-2 -3 -6 -7q-3 -3 -6 -3q-6 -2 -7 -2q-9 -4 -18 0zM661 323q-2 0 -3 1t-1 3q1 2 3 4q2 1 3 0q3 -1 3 -4q0 -1 -1 -1zM649 319q-3 0 -3 4l2 2q4 2 4 -2q2 -4 -3 -4zM393 239l-6 4q-3 1 -3 4v5q0 8 9 8q3 0 4 -1q6 -4 8 -7
q2 -8 -2 -9q-1 0 -2.5 -1t-2.5 -2t-2 -1h-3zM155 199q-5 0 -8 1q-2 2 -5 2q-7 1 -12 10q-2 3 -4 9.5t-3 8.5q-1 1 0 2q0 2 1 3q5 11 7.5 13.5t13.5 7.5h2q2 1 3 1q16 1 28 -10q2 -3 7 -8q9 -8 3 -17q-1 -12 -14 -17l-8 -4q-5 -2 -11 -2zM76 141q-1 1 -5.5 3.5t-6.5 4.5
q-4 4 -4 11q0 1 0.5 2.5t1.5 2.5q8 11 18 15q6 1 11 0q1 0 4 -2t4 -2q5 -3 5 -9v-2q1 -6 -4 -14l-3 -3q-3 -2 -9 -4t-8 -3h-4zM180 118q-6 0 -9 4q-3 5 1 8q2 2 4.5 3t4.5 0t3.5 -2.5t2.5 -4.5q2 -7 -5 -7q-1 -1 -2 -1zM242 -118q-11 0 -16 1q-2 2 -7 4.5t-8 5.5t-5 7l-1 2
l-1 1q-6 6 -6 17q1 8 8 16q3 2 5 5q3 3 13 3q3 0 6 -1q2 -1 7.5 -2.5t7.5 -3.5q1 -1 6 -4q4 -4 5 -7l6 -11q4 -7 1 -14q-2 -8 -4 -14t-9 -3h-5z" />
    <glyph glyph-name="eight" unicode="8" horiz-adv-x="1033" 
d="M785 578q-2 0 -2 2v3q0 1 2 1l1 -1v-3zM754 445q-1 1 -7 4q-3 1 -5 -1q-5 -2 -9 2q-1 3 -5.5 5.5t-5.5 3.5l-3 2h-2q-3 0 -3 3q0 4 -2 6.5t-4 3.5l-6 3t-5 3h-1q-4 -1 -11 1.5t-8 2.5l-2 1l2 2h3q12 0 16 -3h4q3 0 3 3v3q-5 8 2 13q2 2 2 5q-1 3 1.5 9.5t2.5 9.5q0 1 3 3
q5 0 7 1l4 2q1 1 -1 5v4q-2 4 2 4q1 0 2.5 0.5t2.5 0.5q4 0 6 2t10 6q4 2 6 2q3 -1 8 2q4 1 7 -3q1 -1 2 -4t3 -4q2 0 3 1l1 1q1 2 2 2h2q1 -1 2.5 -4t2.5 -4q1 -2 6 -5q3 -2 6 1l4 3l2 -1q2 -2 1 -3q0 -2 -2 -4v-4q2 -7 6 -11q1 0 2 -1t2 -1q2 -4 1 -5t-1 -9q-1 -5 5 -8
q2 -2 0 -4q-1 -1 -2 -1q-3 -3 -3 -6l-1 -11q0 -2 -1 -3t-4 -2t-5 -2q-6 -3 -6 -9q0 -1 -3 -4h-5q-3 0 -9 -2q-8 -5 -16 -5q-2 0 -4 -2q-3 -1 -5 0zM815 551q-2 0 -2 3l2 3l1 1q2 0 2 1v-1q1 -2 1 -3q0 -2 -1 -4h-3zM673 537l-2 2q0 2 2 4q3 0 3 -3q2 -3 -3 -3zM702 528
q-4 0 -4 4q2 3 4 3q1 1 2.5 -0.5t1.5 -2.5q0 -4 -4 -4zM674 530l-2 2l1 1h2q0 -1 1 -1zM669 494q-2 2 0 2q1 2 3 0v-1q-1 -1 -3 -1zM682 464v1l1 3q1 1 3 1h1q4 -2 5 -2q2 -1 0 -3q-5 -5 -10 0zM926 317l-4 3q-5 4 -9 1q-2 -2 -6 0h-3q-6 -1 -7 1q-5 3 -8 3q-6 0 -8 4l-4 3
l-5 -2q-2 -1 -4 0.5t-1 4.5q2 2 -1 3q-7 0 -7 6q-3 12 -3 13q1 8 -8 8q-1 1 -1 4q0 1 1 2l4 4l-1 5q-3 4 0 9q1 2 1 7l1 8q0 2 1 3q5 2 3 6q2 4 6 5q1 0 1 2q0 4 1 4q8 4 13 4h8q7 0 5 9q-2 2 -2 3v1l2 2q1 1 3 -1q1 0 1 -1q0 -7 10 -12q4 -1 7 1q5 2 6 -2q2 -2 2 -4
q2 -2 5 0l2 3q1 0 3 -1l1 -1q3 -11 4 -12t5 -1.5t6 -2.5q2 0 3 1q2 2 2 4l2 3q3 0 3 -1t1 -2q-3 -7 -10 -10q-1 -1 -1.5 -4t0.5 -4q1 0 3 -2l1 -1q2 -1 3 -2q2 -2 2 -4q0 -13 -3 -18q0 -1 -0.5 -5t-1.5 -6q-2 -2 -4 -8q0 -1 -0.5 -2.5t-1.5 -2.5v-1l-1 -2q-4 -1 -8.5 -6
t-7.5 -6q-3 0 -1 -4q3 -6 2 -8q0 -1 -1 -1h-1zM775 435l-3 2q0 1 -1 2t-1 2l2 2q2 0 3 -1q1 0 1 -2zM693 438l-1 1q0 1 2 1t1 -1q0 -1 -2 -1zM843 413l-3 6v1q-1 2 1 5q2 2 6 2q2 -2 1 -3v-2q-1 -2 -1 -3t1 -3q-1 -1 -1 -2q-3 -2 -4 -1zM823 415q-3 0 -3 2t1 3q1 0 1 -1
l3 -3q-1 -1 -2 -1zM970 399l-2 2q0 3 3 3q2 0 2 -2v-1zM809 241q-2 1 -10 1q-4 0 -7 4q-4 9 -18 13q-2 0 -4 2q-5 2 -3 7q2 2 2 3v3q-1 2 -5 6t-5 7l-3 2l-7 3q-6 4 -4 8q1 1 -1 3q-2 4 0 6q2 9 2 10q0 8 7 11q3 1 9 5q6 0 8 2q2 0 3 -1q2 -1 6 -5q1 -3 4 0q1 0 3 2l1 1h2
q10 -6 20 1h3q3 1 7.5 -1.5t7.5 -2.5l4 -2l4 -5q4 -2 5 -2q7 0 11 -8q1 -1 2 -5t3 -6l8 -8q0 -1 1 -2t1 -2v-4v-6v-10q0 -3 -3 -6q-7 -9 -14 -13l-4 -4q0 -2 -2 -2t-8 -2t-9 -2q-8 0 -10 -1q-4 -3 -7 0zM962 274q-2 1 -6 5q-3 7 3 10q1 0 1 1q3 1 6 0q5 -2 7 -9q2 0 -1 -3
l-4 -4q-4 -4 -6 0zM878 256q-1 0 -1 1t1 2q1 0 3 -2l-1 -1h-2zM502 193l-3 2q-2 1 -6 5q-9 9 -3 21q2 2 2 4q5 8 15 8q8 0 12 -2q9 -5 9 -16q0 -7 -3 -10t-3 -4q-1 -4 -8 -6l-1 -1q-2 2 -5.5 0.5t-5.5 -1.5zM728 224q-1 1 -1 3l1 1q2 0 2 -2zM570 194l-2 1l-6 5q-4 5 2 11
q5 5 10 0q7 -6 2 -11l-5 -5q-1 0 -1 -1zM549 184q-2 2 -3 4q-4 2 1 5h2q7 0 5 -6q-2 -5 -5 -3zM160 95q-2 0 0 2q2 0 3 -1v-1h-3zM171 85q-3 -2 -5 4l1 1q4 1 6 -4q0 -1 -2 -1zM219 76l-4 2v2q-1 2 1 4q4 0 4 -2q1 -1 1 -2q0 -3 -2 -4zM182 72q-3 -2 -5 2q-2 2 -1 5
q0 1 1.5 1.5t2.5 -0.5l1 -1q1 -1 1 -3t1 -3q0 -1 -1 -1zM321 75q0 2 -1 3q0 4 4 0q1 0 1 -2q0 -1 -1 -1h-3zM201 0q-2 -1 -3 2q0 1 -1 2q0 4 -4 4h-3q-2 0 -4 -0.5t-4.5 -1.5t-4.5 -1q-1 -1 -2.5 -0.5t-1.5 1.5q0 2 2 2l1 1l6 3q1 1 0 4q-5 5 -10 6q-2 0 -4 2q-5 2 -3 7l1 2
h2q2 -2 4 -3l1 -1q1 1 1 3q0 1 -2 8q-1 4 -6 4q-4 0 -5 1q-5 3 -16 3l-2 2l1 1h6t7 2q6 2 13 -1q2 -2 4 2q1 3 4 4q4 3 7 7q1 6 9 6q4 0 9 3q4 2 6 0q2 -1 7 -2.5t7 -3.5q4 -1 8 1q2 2 3 -1q0 -5 2 -7q4 -4 5 -7q0 -2 2 -6.5t1 -7.5q0 -1 1 -3t1 -3l-3 -11q-2 -2 -5 -7.5
t-5 -7.5q-4 -2 -8 -1q-3 1 -6 0q-6 -3 -18 -7zM65 58q-3 -1 -4 1q-2 2 -1 3l2 2h1q5 -3 10 -3q0 -1 1 -1l-2 -2h-7zM136 52q-4 -1 -6 3v2h1q4 0 6 -4zM148 29q0 1 -1 2l-1 2q1 1 3 1h2q3 0 3 -2q0 -3 -1 -3q-3 -1 -5 0zM229 -4l-1 1q0 2 1 3h1q2 -4 -1 -4z" />
    <glyph glyph-name="nine" unicode="9" horiz-adv-x="533" 
d="M462 483q-5 3 -8 8q-1 1 -0.5 2.5t1.5 2.5q8 6 13 9q4 0 4 -3q1 -2 1 -6v-5q-1 -5 -6 -8q-2 -2 -5 0zM373 419q-3 0 -4 1q-2 13 -10 21q-2 2 -2 8v12q-1 8 7 13q16 12 21 14q7 3 15 0l6 -3q3 -1 7 -7q2 -4 4.5 -11.5l3.5 -10.5v-2q0 -1 -1 -2q-2 -3 -5.5 -8.5t-5.5 -7.5
q-3 -4 -7 -7q-3 -3 -5 -3t-8.5 -3t-10.5 -2q-3 0 -5 -2zM323 471q-3 0 -3 2q-1 1 -1 3l1 1h2q2 -1 2 -5zM292 466l-2 1q0 2 3 2q2 0 2 -2q-2 -2 -3 -1zM166 350q-5 -2 -8 1l-7 6q-4 4 -2 10q1 3 5 9q2 5 7 5q1 1 4 1l4 1q1 1 3 0q7 -4 11 -11q1 -1 1 -4q-2 -6 -4 -8
q-2 -4 -6 -6q-2 -2 -8 -4zM248 289q-3 0 -9 4q-6 6 -7 12q0 1 -2 5q-2 3 0 6q7 15 19 22q2 1 4 6q0 3 2 5l6 9q5 9 16 14q3 1 7 0q9 -4 13 -9l10 -10l2 -3q2 -14 -7 -25q0 -2 -3 -2q-1 -1 -4 -2.5t-4 -2.5l-9 -3l-5 -9q-9 -17 -29 -17zM383 342l-4 4q-1 0 -1 2q3 5 8 8h2
q4 -4 4 -7q0 -7 -7 -7h-2zM393 241q-3 0 -4 1q-8 0 -8 7v2v9q0 12 2 15q1 1 1 4q-1 7 9 27q3 8 11 11q1 1 7 4q1 0 5 2.5t6 1.5l6 -3t5 -3q2 0 2 -3q1 -2 2.5 -5.5t2.5 -6.5t1 -6q0 -10 -4 -15l-9 -15q-2 -2 -4 -3q-7 -4 -18 -17q-2 -7 -13 -7zM286 217l-6 3q-8 10 -7 21
q0 7 3 10q2 1 3.5 3t4 4.5l3.5 3.5q5 5 13 3l10 -4q8 -12 7 -18q-5 -16 -16 -22q-10 -4 -15 -4zM94 117q-9 -1 -16 10q-3 7 0 13q7 11 21 17h2q1 0 2 -1q10 -4 12 -11q2 -6 2 -10q0 -3 -2 -5l-8 -9q-4 -4 -11 -4h-2zM331 65q-6 0 -6 7q0 6 6 6t6 -7q0 -6 -6 -6zM69 -6h-1
l-2 1q-5 3 -5 8q0 3 -1 6q1 1 1.5 3t0.5 3q4 7 9 10q5 2 8 -1q4 -2 8 -8q1 -1 1 -4l-3 -7q-2 -5 -9 -8zM119 11q-2 0 -4 2t-1 5q0 3 4 3h4l1 -1q1 -2 1 -4q-3 -4 -5 -5z" />
    <glyph glyph-name="colon" unicode=":" horiz-adv-x="811" 
d="M333 705q-10 0 -15 8.5t-1 17.5q9 20 22 20q21 -1 21 -26q0 -20 -27 -20zM192 703q-9 0 -14.5 12.5t-1.5 21.5q5 12 22 12q21 -1 21 -26q0 -20 -27 -20zM263 705q-9 0 -14.5 12.5t-1.5 21.5q2 4 4.5 6t4 2.5t7 0t6.5 -0.5q21 -1 21 -22q0 -20 -27 -20zM36 702
q-22 14 -16 32q4 13 22 13q10 -1 16 -9t6 -17q0 -8 -10 -16t-18 -3zM121 707q-10 -2 -18 8.5t-4 19.5q5 12 22 12q21 -1 21 -26q0 -10 -21 -14zM403 700q-22 14 -16 32q4 13 22 13q10 -1 16 -9t6 -17q0 -8 -10 -16t-18 -3zM488 702q-10 -2 -18 10t-4 21q5 12 22 12
q21 -1 21 -26q0 -13 -21 -17zM559 698q-9 0 -14.5 12.5t-1.5 21.5q5 12 22 12q21 -1 21 -26q0 -20 -27 -20zM700 698q-10 0 -15 8.5t-1 17.5q9 20 22 20q21 -1 21 -26q0 -20 -27 -20zM775 699q-10 -2 -18 10t-4 21q5 12 22 12q21 -1 21 -26q0 -13 -21 -17zM630 698
q-9 0 -14.5 12.5t-1.5 21.5q2 4 4.5 6t4 2.5t7 0t6.5 -0.5q21 -1 21 -22q0 -20 -27 -20zM0 631q-9 0 -9.5 23.5t9.5 23.5h811q10 0 10 -23.5t-10 -23.5h-811zM0 -110q-10 0 -9.5 23.5t9.5 23.5h811q10 0 10 -23.5t-10 -23.5h-811zM409 -177q-18 0 -22 13q-6 18 16 32
q8 5 18 -3t10 -16q0 -9 -6 -17t-16 -9zM775 -174q-17 0 -22 12q-4 9 4 21t18 10q21 -4 21 -17q0 -25 -21 -26zM565 -176q-17 0 -22 12q-4 9 1.5 21.5t14.5 12.5q27 0 27 -20q0 -25 -21 -26zM636 -172h-5.5h-5t-4 0.5t-4.5 2.5t-3 5q-4 9 1.5 21.5t14.5 12.5q27 0 27 -20
q0 -21 -21 -22zM706 -176q-13 0 -22 20q-4 9 1 17.5t15 8.5q27 0 27 -20q0 -25 -21 -26zM42 -179q-18 0 -22 13q-6 18 16 32q8 5 18 -3t10 -16q0 -9 -6 -17t-16 -9zM121 -172q-17 0 -22 12q-4 9 4 19.5t18 8.5q21 -4 21 -14q0 -25 -21 -26zM269 -173h-5.5h-5t-4 0.5
t-4.5 2.5t-3 5q-4 9 1.5 21.5t14.5 12.5q27 0 27 -20q0 -21 -21 -22zM488 -177q-17 0 -22 12q-4 9 4 21t18 10q21 -4 21 -17q0 -25 -21 -26zM198 -181q-17 0 -22 12q-4 9 1.5 21.5t14.5 12.5q27 0 27 -20q0 -25 -21 -26zM339 -179q-15 0 -22 16q-4 9 1 17.5t15 8.5
q27 0 27 -20q0 -21 -21 -22z" />
    <glyph glyph-name="semicolon" unicode=";" horiz-adv-x="811" 
d="M333 535q-10 0 -15 8.5t-1 17.5q9 20 22 20q21 -1 21 -26q0 -20 -27 -20zM192 533q-9 0 -14.5 12.5t-1.5 21.5q5 12 22 12q21 -1 21 -26q0 -20 -27 -20zM263 535q-9 0 -14.5 12.5t-1.5 21.5q2 4 4.5 6t4 2.5t7 0t6.5 -0.5q21 -1 21 -22q0 -20 -27 -20zM36 532
q-22 14 -16 32q4 13 22 13q10 -1 16 -9t6 -17q0 -8 -10 -16t-18 -3zM121 537q-10 -2 -18 8.5t-4 19.5q5 12 22 12q21 -1 21 -26q0 -10 -21 -14zM403 530q-22 14 -16 32q4 13 22 13q10 -1 16 -9t6 -17q0 -8 -10 -16t-18 -3zM488 532q-10 -2 -18 10t-4 21q5 12 22 12
q21 -1 21 -26q0 -13 -21 -17zM559 528q-9 0 -14.5 12.5t-1.5 21.5q5 12 22 12q21 -1 21 -26q0 -20 -27 -20zM700 528q-10 0 -15 8.5t-1 17.5q9 20 22 20q21 -1 21 -26q0 -20 -27 -20zM775 529q-10 -2 -18 10t-4 21q5 12 22 12q21 -1 21 -26q0 -13 -21 -17zM630 528
q-9 0 -14.5 12.5t-1.5 21.5q2 4 4.5 6t4 2.5t7 0t6.5 -0.5q21 -1 21 -22q0 -20 -27 -20zM409 -67q-18 0 -22 13q-6 18 16 32q8 5 18 -3t10 -16q0 -9 -6 -17t-16 -9zM775 -64q-17 0 -22 12q-4 9 4 21t18 10q21 -4 21 -17q0 -25 -21 -26zM565 -66q-17 0 -22 12q-4 9 1.5 21.5
t14.5 12.5q27 0 27 -20q0 -25 -21 -26zM636 -62h-5.5h-5t-4 0.5t-4.5 2.5t-3 5q-4 9 1.5 21.5t14.5 12.5q27 0 27 -20q0 -21 -21 -22zM706 -66q-13 0 -22 20q-4 9 1 17.5t15 8.5q27 0 27 -20q0 -25 -21 -26zM42 -69q-18 0 -22 13q-6 18 16 32q8 5 18 -3t10 -16q0 -9 -6 -17
t-16 -9zM121 -62q-17 0 -22 12q-4 9 4 19.5t18 8.5q21 -4 21 -14q0 -25 -21 -26zM269 -63h-5.5h-5t-4 0.5t-4.5 2.5t-3 5q-4 9 1.5 21.5t14.5 12.5q27 0 27 -20q0 -21 -21 -22zM488 -67q-17 0 -22 12q-4 9 4 21t18 10q21 -4 21 -17q0 -25 -21 -26zM198 -71q-17 0 -22 12
q-4 9 1.5 21.5t14.5 12.5q27 0 27 -20q0 -25 -21 -26zM339 -69q-15 0 -22 16q-4 9 1 17.5t15 8.5q27 0 27 -20q0 -21 -21 -22z" />
    <glyph glyph-name="question" unicode="?" horiz-adv-x="1341" 
d="M215 137q88 0 200 21.5t204.5 47t212.5 47t222 21.5q81 0 123 -28t43 -69q1 -13 15 6q24 31 26 70q3 70 -46.5 117t-149.5 47q-113 0 -250 -31.5t-240.5 -69t-218 -67t-190.5 -26.5q-22 1 -34.5 17t-12.5 37q0 11 -15 1q-24 -16 -24 -46q0 -44 34.5 -69.5t100.5 -25.5z
" />
    <glyph glyph-name="A" unicode="A" 
d="M602 -173q-335 0 -467 9q-42 3 -59.5 15.5t-14 28.5t21.5 34q91 88 270 243q59 51 65.5 77t-22.5 61q-11 16 -104.5 132.5t-119.5 154.5q-69 101 -22 107l8 1h444v-863z" />
    <glyph glyph-name="B" unicode="B" 
d="M-3 -173v863h608v-863h-608z" />
    <glyph glyph-name="C" unicode="C" 
d="M-3 -173v863h398q32 0 33.5 -29t-29.5 -79q-22 -34 -89.5 -122.5t-92.5 -124.5q-22 -34 -18 -50.5t41 -66.5q10 -13 16 -21q82 -113 208 -250q42 -47 28 -76.5t-76 -34.5q-120 -9 -419 -9z" />
    <glyph glyph-name="D" unicode="D" horiz-adv-x="717" 
d="M476 -103q-21 1 -96.5 2t-143.5 3t-102 4q-42 3 -59.5 15.5t-14 28.5t21.5 34q46 45 210 243q5 6 14 17q32 38 40.5 53t7 29.5t-18.5 38.5q-11 16 -104.5 132.5t-119.5 154.5q-23 33 -29.5 57.5t6 36.5t44.5 7q118 -15 171 -14.5t156 12.5l14 3q14 2 22 2t20 -1t18 -7.5
t5 -18.5q-22 -446 -4 -721q4 -69 -9 -90.5t-49 -20.5zM717 576h5v-776h-5q-23 0 -37.5 7.5t-20.5 22t-7.5 25t-1.5 25.5q0 3 -10.5 168t-10.5 239q0 41 -3 123.5t-1.5 123t11.5 40.5q11 0 39 1t42 1z" />
    <glyph glyph-name="E" unicode="E" 
d="M602 -200v776h-603v-776h603z" />
    <glyph glyph-name="F" unicode="F" horiz-adv-x="699" 
d="M616 8q20 -16 24 -38.5t-15.5 -41.5t-60.5 -22q-34 -2 -96.5 -4t-134 -3t-91.5 -2q-32 -1 -41.5 17.5t-16.5 93.5q-8 87 -5 220.5t5.5 235t-14.5 265.5q-1 8 2 14t9 8.5t12.5 4t15.5 0.5t15.5 -1.5t14.5 -2t10 -1.5q101 -12 150.5 -12.5t165.5 14.5q48 7 52.5 -22
t-30.5 -79q-26 -39 -106 -142t-88 -114q-27 -37 -24.5 -62t37.5 -83q92 -150 210 -243zM82 574q10 0 11.5 -39.5t-1.5 -125t-3 -122.5q0 -74 9.5 -239t9.5 -168q0 -15 -2.5 -25.5t-11.5 -25t-33 -22t-61 -7.5v1h-5v775h5q14 0 43 -1t39 -1z" />
    <glyph glyph-name="G" unicode="G" horiz-adv-x="354" 
d="M227 -140q-81 -11 -94 83q-4 32 7.5 83.5t23.5 94.5t17 84t-15.5 65t-70.5 24q-16 0 -15.5 27.5t15.5 27.5q50 0 70.5 24t15.5 65t-17 84t-23.5 94t-7.5 83q6 44 32.5 66t61.5 17q28 -4 44 -23q6 -8 0 -7q-22 2 -37 -15.5t-20 -46.5q-5 -34 5.5 -139.5t0.5 -156.5
q-9 -49 -47 -72q38 -21 45 -59q13 -76 9.5 -123.5t-10.5 -103.5t-3 -84q4 -29 20 -47.5t37 -14.5q3 1 3 -2q-2 -8 -24 -20q-11 -6 -23 -8z" />
    <glyph glyph-name="H" unicode="H" horiz-adv-x="354" 
d="M127 -140q-28 4 -44 24q-3 6 0 6q21 -4 37 14.5t20 47.5q4 28 -3 84t-10.5 103.5t9.5 123.5q7 38 45 59q-38 23 -47 72q-10 51 0.5 156.5t5.5 139.5q-5 29 -20 46.5t-37 15.5q-9 -1 4 11q18 16 40 19q35 5 61.5 -17t32.5 -66q4 -32 -7.5 -83t-23.5 -94t-17 -84t15.5 -65
t70.5 -24q15 0 15.5 -27.5t-15.5 -27.5q-50 0 -70.5 -24t-15.5 -65t17 -84t23.5 -94.5t7.5 -83.5q-13 -94 -94 -83z" />
    <glyph glyph-name="I" unicode="I" horiz-adv-x="421" 
d="M349 302q0 -6 0.5 -40t1 -51.5t2 -54t3.5 -59t5.5 -54t9 -51t12.5 -38.5t16.5 -28t21.5 -9v-90h-98q-68 0 -68 80q0 31 -5 186q-36 1 -64 7.5t-59.5 24.5t-49 58t-17.5 100q0 56 17.5 95t46.5 58t53 27t52 11q-14 216 35 216l59 2l96 -2l2 -87q-78 0 -72 -301zM191 227
q19 10 32 32.5t3 48.5q-5 14 -12.5 20.5t-12 7.5t-17.5 0t-18 -1q-15 0 -26 -18t-9 -38t24 -39.5t36 -12.5z" />
    <glyph glyph-name="J" unicode="J" 
d="M0 603l-4 87h609l-1 -87h-604zM0 -173v90h604l1 -87z" />
    <glyph glyph-name="K" unicode="K" horiz-adv-x="450" 
d="M390 311q0 -63 -21 -108t-55 -67.5t-66.5 -32t-67.5 -10.5q-14 -163 -14 -186q0 -80 -68 -80q-11 0 -30.5 1t-35.5 1.5t-32 0.5v87h31q28 3 44.5 139.5t16.5 245.5q0 154 -10.5 227t-44.5 73q-30 0 -37 1l2 87l96 2q119 0 113 -217q24 0 42 -1.5t46 -10.5t46 -25
t31.5 -48.5t13.5 -78.5zM310 279q1 18 -7 29t-28 27q-15 14 -32 7.5t-28 -34.5q-11 -27 3 -54t32 -27q56 0 60 52z" />
    <glyph glyph-name="L" unicode="L" horiz-adv-x="1024" 
d="M832 388q-36 0 -119 26q-262 -149 -314 -175q28 -8 75.5 -21.5t79.5 -22t68 -18t61 -14.5t38 -5q26 0 42.5 6.5t22.5 18.5t7.5 19t1.5 17t18 4q30 -11 37 -48l2 -18q0 -49 -33.5 -83t-91.5 -34q-47 0 -103.5 15.5t-119 45.5t-98 49t-88.5 50q-52 -22 -73 -22
q-42 0 -57.5 24.5t0 49t49.5 24.5q25 0 94 -18q43 26 144 95t137 93q-13 4 -49 16.5t-52 18t-49.5 16.5t-51.5 16.5t-46 14t-46 13t-39 9t-37 6.5t-29 2q-36 0 -63 -17.5t-32 -46.5q-2 -12 -13 7q-20 34 -16 74q4 47 35.5 80t91.5 33q52 0 121 -22t117 -45t130.5 -66.5
t109.5 -56.5q91 52 132 52q58 0 79 -40.5t-1.5 -81t-71.5 -40.5zM831 476q-4 0 -40 -18q24 -8 42 -8q19 -1 20 11q0 11 -15 14q-3 1 -7 1zM241 219q10 0 31 8q-18 8 -21 8q-22 0 -21 -9q1 -7 11 -7z" />
    <glyph glyph-name="O" unicode="O" horiz-adv-x="2785" 
d="M2692 140q13 -3 13.5 -10.5t-11.5 -13.5q-62 -31 -107 -51q-104 -52 -195.5 -75t-161 -16.5t-121.5 28t-92 57.5q-15 14 -31 37t-27.5 36.5t-42 27t-78.5 18.5q-109 11 -388 -46t-425 -109q-30 -11 -91.5 -16t-87.5 -13q-24 -8 -39 -4q-13 -7 -32 -7q-8 0 -23 3l-14 2
q-58 12 -116 33q-33 12 -66 29t-70 42t-58 39.5t-65 48.5t-56 43q-20 -17 -45 -8q-29 11 -43.5 21.5t-15.5 31.5q-2 0 -11 -5t-45.5 -36.5t-59.5 -31.5q-24 0 -26 21q-2 10 3 10q30 0 69.5 27.5t47.5 30.5q9 4 18 6q-7 4 -22 14q-27 18 -42 29.5t-33.5 35.5t-19.5 46
q0 10 7 14t14 2t7 -5q0 -45 80 -101q18 -12 22 -14q16 36 50 36q29 0 50 -26q45 14 76 25l44 18q103 41 254 138q9 6 45 24t49 28q6 13 22 12q27 0 41 2q39 5 83.5 15t103 25.5t81.5 20.5q5 1 35.5 9.5t50 13t65.5 13.5t102 18q125 20 243.5 20t230.5 -20t204 -72.5
t146 -132.5q94 -140 183 -204q134 -97 321 -134zM823 241q0 9 -1 27.5t-1 27.5l1 8q0 9 0.5 21.5t0.5 28v29t-0.5 26t-1.5 17.5q-7 34 -23 83q-4 10 -10 20q-15 -12 -48.5 -30.5t-37.5 -21.5q-151 -98 -259 -141l-45 -18q-14 -5 -39.5 -13.5t-30.5 -10.5q3 -10 3 -20
q0 -14 -6 -27q12 -9 56 -43t64 -48t56 -38.5t67.5 -40.5t63.5 -28q58 -20 112 -32q1 0 13 -2t18 -2q1 0 4.5 2t9.5 5.5t10 5.5l9 95q2 13 6 37.5t6.5 44.5t2.5 38z" />
    <glyph glyph-name="P" unicode="P" horiz-adv-x="2242" 
d="M2163 197q23 -5 2 -24q-67 -61 -152 -99q-120 -53 -243 -14q-36 11 -112 51t-169 54q-32 5 -61 6.5t-62 -3.5t-52 -7.5t-60 -16t-55 -18t-66 -24.5t-67 -25q-125 -46 -179 -46q-49 0 -49 26q-6 -1 -16 -1q-8 0 -22 2l-15 2q-15 4 -55 12t-61 15q-40 12 -86 34t-73.5 38
t-80.5 49t-70 43q-23 -23 -50 -13q-29 11 -43.5 21.5t-15.5 31.5q-2 -1 -11 -5q-5 -3 -43 -35.5t-62 -32.5t-26 21q-2 10 3 10q31 0 72.5 28.5t44.5 29.5q9 5 18 6q-7 4 -22 14q-27 18 -42 29.5t-33.5 35.5t-19.5 46q0 10 7 14t14 2t7 -5q0 -45 80 -101q18 -12 22 -14
q16 36 50 36q35 0 56 -34q44 11 70 20l44 15q106 34 254 114q8 4 41 17.5t47 21.5q-4 9 2.5 18t19.5 8q27 0 41 2q53 8 171 25t239 34q168 23 278 -19.5t167 -126.5q35 -51 64 -87t62.5 -63t58 -43t69 -30.5t75.5 -22.5t95 -22zM849 175q24 146 13 235q-7 57 -29 95
q-14 -8 -45 -22t-39 -19q-149 -80 -259 -117q-17 -5 -45 -15l-69 -18q2 -12 2 -17q0 -11 -5 -24q23 -14 71.5 -44t78 -48t73 -38.5t83.5 -32.5q8 -2 34 -10.5t43.5 -12t34.5 -3.5q1 0 6.5 -1t13 -2t11.5 -1l3 2q3 1 7.5 3t8.5 4q5 68 8 86z" />
    <glyph glyph-name="Q" unicode="Q" horiz-adv-x="1900" 
d="M1849 318q12 -2 11 -12t-10 -23q-14 -20 -24.5 -34t-26 -32.5t-28 -31t-29 -26t-32 -21t-32.5 -13t-36 -4.5t-38 7q-14 5 -46.5 23t-66.5 27.5t-75 4.5q-87 -10 -350 -86q-44 -13 -150.5 -29.5t-148.5 -16.5q-49 0 -49 26q-6 -1 -16 -1q-25 0 -37 4q-19 6 -58 13.5
t-58 13.5q-174 54 -311 144q-21 -23 -49 -13q-29 11 -43.5 21.5t-15.5 31.5q-2 -1 -11 -5q-5 -3 -43 -35.5t-62 -32.5t-26 21q-2 10 3 10q31 0 72.5 28.5t44.5 29.5q9 5 18 6q-7 4 -22 14q-27 18 -42 29.5t-33.5 35.5t-19.5 46q0 10 7 14t14 2t7 -5q0 -45 80 -101
q18 -12 22 -14q16 36 50 36q35 0 56 -34q44 11 70 20l44 15q97 33 254 114q8 4 41 17.5t47 21.5q-4 9 2.5 18t19.5 8q27 0 41 2q51 7 226 23t304 36q39 3 67 4.5t57 -9.5t50 -22.5t45.5 -35t44 -46.5t45.5 -58q47 -63 101.5 -92t144.5 -34zM729 195q22 138 13 215
q-7 57 -29 95q-14 -9 -46.5 -23.5t-37.5 -17.5q-14 -7 -48 -25.5t-53 -28t-48.5 -23t-56 -23.5t-53.5 -17q-8 -2 -23.5 -7.5t-21.5 -7.5q-12 -4 -34.5 -10.5t-34.5 -9.5q2 -10 2 -15q0 -11 -5 -24q69 -40 101.5 -58t92 -44.5t112.5 -40.5q8 -2 34 -10.5t43.5 -12t34.5 -3.5
q1 0 7.5 -1.5t12 -2.5t11.5 0l3 2q3 1 7.5 3t8.5 4q5 68 8 86z" />
    <glyph glyph-name="R" unicode="R" horiz-adv-x="941" 
d="M215 67q-3 0 -3 1q-1 1 2 8t8.5 15t5.5 9q6 18 6 42q0 20 -5 27q-3 5 -49 12.5t-59 18.5q-8 6 -14 15t-10 17.5t-7 23t-4.5 23t-2 25t-0.5 23v24v19.5q0 10 -1.5 49t-1.5 63q0 71 13 97q7 15 23 29.5t32 21.5q25 11 64 11q152 -2 208 -2q18 0 53 -1.5t52 -1.5
q11 0 35 0.5t36 0.5q36 0 97 -3.5t98 -3.5t52.5 -31.5t17.5 -127.5q0 -17 -3.5 -48t-3.5 -37q-1 -8 -1.5 -56t-6 -79t-19.5 -49q-18 -22 -36.5 -28.5t-80.5 -11.5q-25 -2 -41.5 -3t-33.5 -1h-25t-31 1t-38 2q-22 2 -77 3.5t-86 4.5q-1 0 -15.5 2t-25 3t-13.5 0q-3 -8 -6 -21
t-5 -17q-35 -62 -75 -66q-1 0 -10 -1.5t-13 -1.5z" />
    <glyph glyph-name="S" unicode="S" horiz-adv-x="488" 
d="M387 295q22 -17 21 -35q-2 -28 -27 -32q1 -32 -3 -76.5t-10 -66.5q-7 -11 -30.5 -6t-47.5 23.5t-21 33.5q4 17 25 50t42 56q-72 -26 -138 -31q-13 -1 -15 26t8 55t26 29q18 1 56.5 -9.5t66.5 -23.5q-19 24 -41.5 62.5t-31.5 60.5q-5 13 19.5 23.5t53.5 9t36 -16.5
q7 -16 9.5 -57.5t-2.5 -72.5q2 0 4 -2z" />
    <glyph glyph-name="T" unicode="T" horiz-adv-x="488" 
d="M271 321q16 -1 26 -29t8 -55t-15 -26q-66 5 -138 31q21 -23 42 -56t25 -50q3 -15 -21 -33.5t-47.5 -23.5t-30.5 6q-6 22 -10 66.5t-3 76.5q-25 4 -27 32q-1 18 21 35q2 2 4 2q-5 31 -2.5 72.5t9.5 57.5q7 15 36 16.5t53.5 -9t19.5 -23.5q-9 -22 -31.5 -60.5t-41.5 -62.5
q28 13 66.5 23.5t56.5 9.5z" />
    <glyph glyph-name="U" unicode="U" horiz-adv-x="763" 
d="M374 0q-43 0 -92 23.5t-90 61t-67.5 91.5t-24.5 110q4 116 92 202t194 77q44 0 89.5 -15.5t88 -46t70 -86t29.5 -126.5q4 -120 -77 -205.5t-212 -85.5zM398 83q8 0 19.5 36t25.5 89.5t20 70.5q13 37 17 66q2 11 -5 12q-3 0 -7 -1q-15 -3 -49 -15q-2 -1 -5 -2
q-24 -9 -25 -4q-1 3 1 14q1 13 2 22q1 11 1.5 26t1 23.5t2 20t5.5 23.5q6 20 -3 20q-7 0 -18 1t-19 1h-41q-7 0 -8 -1.5t-2 -11.5q-3 -29 -4 -68l-4 -119v-27q0 -13 27 -13q9 0 34 14t27 13q3 -1 3 -26q0 -5 -1 -57t0 -79.5t5 -27.5z" />
    <glyph glyph-name="V" unicode="V" horiz-adv-x="696" 
d="M391 32q-13 -14 -32 -14t-35 15l-39 36l-34 36l-35 38l-31 39l-30 40l-27 43l-25 42l-22 44l-13 43l-3 13l-4 28q-2 16 1 28l6 22q3 13 11 26l10 13q10 14 28 24l55 28q20 9 34 9h13q19 0 33 -7l16 -8q3 -1 6 -3t6.5 -5t5.5 -4l31 -21q5 -3 11 -12l19 -26q6 -9 7 -11
l22 -40q1 -3 3.5 -9t3.5 -7t4 -0.5t8 6t13 16.5l2 4l33 40l27 27q8 8 22 15l4 2q33 15 64 3l24 -9q35 -12 44 -36l2 -6q8 -18 6 -37l-3 -25q0 -2 -2 -12l-12 -42l-15 -42l-6 -12l-22 -38l-25 -44l-27 -45l-63 -82l-35 -43z" />
    <glyph glyph-name="W" unicode="W" horiz-adv-x="763" 
d="M374 0q-43 0 -92 23.5t-90 61t-67.5 91.5t-24.5 110q4 116 92 202t194 77q44 0 89.5 -15.5t88 -46t70 -86t29.5 -126.5q4 -120 -77 -205.5t-212 -85.5zM418 135q55 65 95 130q16 32 17 35q2 5 5.5 19.5t6.5 20.5q7 36 -13 48q-34 21 -59 8q-14 -5 -34 -32q-2 -2 -5.5 -7
t-5.5 -7.5t-5 -4.5t-5.5 0t-5.5 7q-28 51 -62 63q-22 11 -56.5 -6.5t-39.5 -41.5q-10 -33 17 -87q7 -14 25 -40t42 -56.5t47.5 -46.5t35.5 -2z" />
    <glyph glyph-name="X" unicode="X" horiz-adv-x="1102" 
d="M874 417q6 -2 30.5 -16.5t51.5 -32t47.5 -33t18.5 -18.5l-4 -1q-5 -2 -10.5 -4t-7.5 -4q-19 -14 -77 -39q-9 -4 -47 -30t-54 -32q8 3 67 33q14 8 15 5q0 -1 -2 -3q-9 -11 -60 -36.5t-107 -50t-63 -28.5q-11 -6 -29 -19.5t-32 -23t-31 -18t-33.5 -8t-31.5 10.5
q-66 41 -105 72q-35 26 -132.5 89.5t-159.5 110.5q-19 15 -38 41q16 16 60 33q23 8 63 34.5t61 35.5q23 10 67 37t69 37q3 2 34.5 15t46.5 24q21 15 47 16.5t48 -5.5t50 -24.5t44.5 -30t40.5 -32.5q14 -12 32.5 -23.5t32.5 -18.5l38 -19t35 -17q4 -2 18 -8q31 -14 32 -17
q-14 -1 -103.5 43.5t-89.5 52.5q0 -12 70.5 -49.5t97.5 -48.5zM811 204z" />
    <glyph glyph-name="Y" unicode="Y" horiz-adv-x="1118" 
d="M577 59q-77 0 -165 23.5t-162.5 61t-123 91.5t-46.5 110q2 58 38.5 110.5t100.5 91.5t160.5 60t209.5 17q88 0 189.5 -35t178.5 -100.5t81 -138.5q4 -75 -61 -143t-173.5 -108t-226.5 -40z" />
    <glyph glyph-name="Z" unicode="Z" horiz-adv-x="763" 
d="M374 0q-43 0 -92 23.5t-90 61t-67.5 91.5t-24.5 110q4 116 92 202t194 77q44 0 89.5 -15.5t88 -46t70 -86t29.5 -126.5q4 -120 -77 -205.5t-212 -85.5zM261 116q4 1 70 74t135.5 145.5t84.5 72.5q1 1 1.5 11.5t-8 19t-23.5 2.5q-25 -10 -151 -157t-132 -149q-8 -3 -1 -11
q7 -11 24 -8zM303 294q27 0 48 22t21 55t-20.5 54.5t-57.5 21.5q-33 0 -49 -16q-27 -26 -22 -69q3 -27 24 -47.5t56 -20.5zM303 314q-12 0 -23 13t-11 42q0 25 10 39t21 14t19 -12.5t8 -38.5q0 -57 -24 -57zM498 105q27 0 48 22t21 55t-20.5 54.5t-57.5 21.5q-33 0 -49 -16
q-27 -27 -22 -69q3 -27 24 -47.5t56 -20.5zM498 125q-12 0 -23 13t-11 42q0 25 10 39t21 14t19 -12.5t8 -38.5q0 -57 -24 -57z" />
    <glyph glyph-name="bracketleft" unicode="[" horiz-adv-x="497" 
d="M428 567q8 -18 0.5 -133t-12.5 -228t16 -209q2 -7 -21 -11q-38 -8 -46 11q-1 1 -1 3q-9 44 -7 122t9.5 151.5t4 155t-24.5 130.5q-2 8 15 17.5t38.5 9t28.5 -18.5zM264 315q22 -17 21 -35q-2 -28 -27 -32q1 -32 -3 -76.5t-10 -66.5q-7 -11 -30.5 -6t-47.5 23.5t-21 33.5
q4 17 25 50t42 56q-72 -26 -138 -31q-13 -1 -15 26t8 55t26 29q18 1 56.5 -9.5t66.5 -23.5q-19 24 -41.5 62.5t-31.5 60.5q-5 13 19.5 23.5t53.5 9t36 -16.5q7 -16 9.5 -57.5t-2.5 -72.5q2 0 4 -2z" />
    <glyph glyph-name="backslash" unicode="\" horiz-adv-x="1666" 
d="M866 206q30 -47 30 -96q1 -31 -18 -49.5t-48 -18.5q-30 0 -51 19t-20 51q2 49 34 92q-21 30 -67.5 35t-108.5 -8t-126.5 -30t-138 -28t-127.5 -4q-73 9 -109 48.5t-24 101.5q7 42 36 70q13 10 13 1q-4 -36 24.5 -60.5t74.5 -30.5q69 -9 242.5 12t219.5 21q56 0 83 -15
t48 -49q16 23 26 33.5t36.5 20.5t66.5 10q48 0 222 -21t242 -12q46 6 74.5 30.5t24.5 60.5q-1 11 12 -1q29 -25 37 -67v-3q10 -63 -25.5 -102t-107.5 -48q-54 -7 -128 2t-139.5 24t-128 27t-110.5 9.5t-69 -25.5zM830 160q-12 -20 -15.5 -36t0.5 -24t15 -8q32 0 0 68z" />
    <glyph glyph-name="bracketright" unicode="]" horiz-adv-x="497" 
d="M64 567q7 18 28.5 18.5t38.5 -9t15 -17.5q-21 -49 -24.5 -130.5t4 -155t9.5 -151.5t-7 -122q-5 -21 -45 -15q-23 4 -23 12q19 70 16 209t-12.5 228t0.5 133zM398 341q16 -1 26 -29t8 -55t-15 -26q-66 5 -138 31q21 -23 42 -56t25 -50q3 -15 -21 -33.5t-47.5 -23.5
t-30.5 6q-6 22 -10 66.5t-3 76.5q-25 4 -27 32q-1 18 21 35q2 2 4 2q-5 31 -2.5 72.5t9.5 57.5q7 15 36 16.5t53.5 -9t19.5 -23.5q-9 -22 -31.5 -60.5t-41.5 -62.5q28 13 66.5 23.5t56.5 9.5z" />
    <glyph glyph-name="underscore" unicode="_" horiz-adv-x="1008" 
d="M826 339q-92 13 -309.5 -17.5t-276.5 -22.5q-46 6 -74.5 30.5t-24.5 60.5q1 11 -12 -1q-29 -25 -37 -67v-3q-12 -62 24 -101.5t109 -48.5q68 -9 165 5t176.5 35t159 36t117.5 7q22 -5 32 -22.5t8 -38.5q-1 -6 5 -6q17 1 31 23q7 10 8 22q6 43 -21.5 72.5t-79.5 36.5z" />
    <glyph glyph-name="a" unicode="a" horiz-adv-x="596" 
d="M513 197q7 0 0 -10q-5 -7 -12 -8q-33 -5 -33 63v18.5v17.5v13t-1 9.5t-3 2.5q-13 -2 -52 -119q-1 -9 -14 -10q-9 -1 -9 5v70q-30 -79 -52 -82q-12 -2 -18.5 6.5t-7.5 27.5v11q-28 -49 -49 -53q-13 -2 -20.5 9.5t-7.5 35.5q0 19 1 30q-12 -8 -21 -9l-3 -1q-3 -91 -28 -98
q-5 -1 -9 0.5t-7 6t-6 10t-5.5 13t-4 14t-3 14.5t-2.5 13t-2 10.5t-1 6.5v-1q-17 -79 -35 -82q-28 -6 -28 129q0 4 6 7t11.5 2t5.5 -5q0 -112 6 -112q2 0 7 19t10.5 43t6.5 28q1 8 10 9t13 -7q4 -18 6.5 -32t5 -25t4.5 -18.5t4 -12t3.5 -6.5t2.5 -2q9 2 15 77q-31 7 -31 40
q0 20 15 25.5t22 -5.5q5 -7 8 -48l3 1q11 1 22 14q0 5 1.5 18t2.5 21q2 8 17 9q6 -2 6 -5q-1 -16 -5 -45.5t-4 -42.5q1 -19 3 -26.5t7 -6.5q8 2 22 22.5t25 46.5q0 10 0.5 28t1.5 27q-41 -5 -41 12q0 6 4 10.5t8 1.5q0 -8 30 -6q4 42 5 54q0 11 16 10q9 -1 9 -6l-6 -56
q26 5 38 13q4 6 7 -2q2 -6 -3 -9q-29 -15 -44 -18q-6 -58 -3 -105q0 -14 4 -14q6 2 23 36t29 72v86q0 44 17 47q8 1 11.5 -6t3.5 -22q0 -16 -7 -43t-6 -49l3 -73q29 85 55 90q13 2 20 -12.5t7 -43.5q2 -62 14 -67q3 -2 6 -1zM256 347q-5 -1 -8.5 4t-3.5 15q0 13 13 17
q15 2 15 -14q0 -6 -5.5 -13.5t-10.5 -8.5zM183 267q0 -19 14 -27q0 18 -6 32q-2 8 -6 3q-2 -3 -2 -8zM384 137q5 0 6 -3.5t-1 -7t-6 -3.5l-13 -1q-14 0 -31 -2t-37 -5.5t-39.5 -11t-32.5 -18.5q-6 -5 -14 6q-8 10 5 18q30 18 82 24.5t81 3.5z" />
    <glyph glyph-name="b" unicode="b" horiz-adv-x="575" 
d="M110 154q-3 -1 -9 0t-13.5 11.5t-7.5 31.5q-1 33 15.5 60t38.5 29q18 2 18 -8q0 -9 -8 -11q-3 -1 -4 2q0 3 -4 3q-13 0 -22.5 -21.5t-8.5 -46.5q2 -32 8 -32q16 0 41 88q4 19 4 24q0 6 13 8q10 1 9 -5q-1 -3 -4 -39t-3 -46q0 -32 7 -32q9 0 25.5 31t25.5 64v36q0 3 6.5 6
t12.5 3t6 -5q-4 -76 -4 -85v-2q31 95 57 100q9 1 13.5 -4t5 -16t-0.5 -22t-2.5 -25t-1.5 -21q0 -32 9 -30q13 2 37 67q12 63 50 71q9 2 14.5 -3t5.5 -10q0 -8 -6 -11q-4 -1 -4 3q0 7 -10 5q-9 -2 -19 -23t-10 -54q0 -29 8 -27q21 5 56 124q6 92 8 103q3 27 17 30
q17 3 12 -30q-13 -81 -16 -125q-8 -117 9 -117q4 0 6 3q3 1 4 -1t1 -6q-1 -12 -15 -15q-16 -4 -21.5 17t-5.5 77v14q-31 -81 -55 -89q-8 -3 -17.5 1.5t-12.5 22.5q-18 -42 -39 -45q-29 -4 -29 49q0 8 1.5 25t2.5 29l1 12q-11 0 -43 -93q-8 -24 -18 -28q-9 -1 -12 6t-3 28
q0 7 1 12q-28 -62 -51 -66q-12 -2 -18.5 9t-6.5 35q0 14 1 17q-20 -51 -45 -63zM154 91q-5 -4 -12 7q-6 11 4 18q53 29 141.5 42t142.5 8q5 0 6 -4t-1.5 -7t-6.5 -3q-45 6 -135 -8t-139 -53z" />
    <glyph glyph-name="c" unicode="c" horiz-adv-x="503" 
d="M142 189q-12 -2 -18 6t-7 27q-1 16 2 93q-35 -6 -35 11q0 4 1.5 7t3.5 4.5t3 0.5q6 -6 29 -6l3 46q0 12 15 11q11 0 10 -7l-5 -47q40 7 54 29v40q0 43 18 46q17 3 17 -25q0 -17 -7 -39t-7 -37l2 -84q31 82 53 86q27 5 26 -64q-1 -47 7 -49q10 -3 29 28q-3 12 -2 29
q3 33 17.5 57.5t33.5 26.5q25 3 25 -22q0 -38 -50 -85q6 -22 22 -19q19 4 28 22q3 7 8 -0.5t-1 -15.5q-15 -20 -38 -21q-22 -3 -35 13q-21 -34 -44 -31q-25 3 -25 47v13.5v17.5v16.5t-1 13t-2 4.5q-12 -2 -50 -115q-1 -3 -6.5 -5t-11 -2t-5.5 3v64q-36 -84 -57 -88zM266 387
q-17 2 -11 18q3 4 5 5q25 -6 44.5 -5.5t41 8.5t31.5 13t16 9q2 1 4.5 -0.5t3.5 -4t-2 -5.5q-19 -17 -58.5 -29.5t-74.5 -8.5zM385 363q-8 0 -17.5 -22t-9.5 -44v-7q32 34 32 61q0 12 -5 12zM143 319q-4 -39 -4 -100l3 -13q5 1 23 35t33 72v33q-23 -22 -55 -27zM412 207
q5 0 6.5 -3.5t0 -7t-3.5 -3.5q-55 5 -140 -8.5t-134 -52.5q-5 -4 -11 8t7 19q51 27 139.5 40t135.5 8z" />
    <glyph glyph-name="d" unicode="d" horiz-adv-x="479" 
d="M395 253q1 1 2 0.5t2.5 -2.5t1.5 -5q0 -7 -6 -12t-14 -6q-35 -3 -35 34q0 10 3 27t3 19t-4 2h-27q-16 -27 -36 -34q-2 -28 -14 -50t-26 -25q-18 -4 -29 9t-13 39q-1 29 5 48q-24 -13 -45 -19q0 -4 4 -40t5 -62q3 -63 -33 -71q-19 -4 -37 29.5t-20 92.5q-2 50 21 55l38 7
q-1 13 -3 29.5t-3 26.5t-1 14q0 44 27 50q19 4 30 -16.5t11 -33.5q0 -10 -12 -11q-5 0 -5 2q0 6 -2.5 17t-8 20t-11.5 8q-11 -2 -8 -32q0 -1 2.5 -26t3.5 -44q37 8 57 30q1 3 6 3t9 -2q7 8 18 11q10 2 21 -8.5t13 -36.5q19 10 28 32q0 10 1 16q5 28 22 32q8 2 11 -2.5
t0 -14.5q-1 -5 -3.5 -10t-5.5 -9t-3 -5l8 2q35 6 34 -8q-9 -40 -9 -56q0 -13 4 -19t12 -5q7 1 11 10zM245 309q0 -10 7.5 -17t16.5 -7q-1 18 -6 26.5t-13 6.5q-5 -2 -5 -9zM245 217q8 2 15 17.5t9 36.5q-31 -5 -39 21q-3 -17 -2 -38q2 -40 17 -37zM139 121q5 1 8.5 15
t2.5 33q-2 77 -8 105l-36 -8q-9 -2 -7 -36q1 -29 9 -56t16.5 -40.5t14.5 -12.5zM365 202q4 -1 5 -4t-1 -5.5t-4 -2.5q-81 0 -127 -46q-3 -3 -10 5q-8 10 3 18q28 21 69 31t65 4z" />
    <glyph glyph-name="e" unicode="e" horiz-adv-x="493" 
d="M123 212q0 1 0.5 18.5t0.5 34v36.5q-1 9 -2 26t-2 24h-10.5h-12.5h-10q-11 2 -5 15q2 4 4 5q11 -2 33 -4q-1 5 -1 9q-1 2 5 5.5t12 4t7 -3.5v-4q1 -4 1 -8q24 3 51 21q2 33 15 36q4 1 7 -2.5t3 -9.5t-4 -17.5t-4 -15.5q0 -5 3 -115q26 69 46 73q12 2 17 -11t5 -44
q0 -8 0.5 -14t1 -11t2 -7.5t3.5 -2.5q11 3 25 21q0 39 13 65.5t28 28.5q22 3 22 -20q0 -32 -44 -74q7 -19 21 -15q16 4 24 18q2 5 7 0q5 -6 -2 -13q-11 -14 -32 -19q-8 -2 -19 2t-14 13q-14 -18 -35 -22q-11 -2 -16.5 6.5t-5.5 26.5q0 57 -3 57q-7 0 -23 -42.5t-20 -58.5
l-2 -2q-1 -2 -5.5 -4t-8.5 -1t-4 4l-1 155q-35 -17 -50 -21q0 -6 0.5 -20.5t0.5 -21.5q0 -25 1.5 -61t1.5 -38q0 -5 -6 -7.5t-12.5 -1t-6.5 6.5zM260 387q-17 0 -11 17q3 5 5 6q38 -8 72.5 -0.5t47.5 15.5q2 1 4.5 -1t3.5 -4.5t-2 -4.5q-42 -28 -120 -28zM356 352
q-7 -2 -15 -20t-9 -38v-6q27 27 28 53q1 5 0 8.5t-4 2.5zM406 207q5 0 6.5 -3.5t0 -7t-3.5 -3.5q-55 5 -140 -8.5t-134 -52.5q-5 -4 -11 8t7 19q51 27 139.5 40t135.5 8z" />
    <glyph glyph-name="f" unicode="f" horiz-adv-x="568" 
d="M489 407q-10 -4 -210.5 0.5t-205.5 0.5q-1 -1 -2 1q-5 13 4 17q1 0 189 -2.5t221 11.5q3 1 6.5 -5t3.5 -13.5t-6 -9.5zM195 352q-23 6 -73 -2v-91q44 -4 50 9q1 1 2 -2l2 -9q-3 -14 -54 -11q0 -25 2 -50t2 -27q0 -4 -6 -5.5t-12 1t-6 6.5v13q1 12 1 29t-1 35h-1
q-10 1 -6 11q1 4 4 3l3 -1q-1 16 -3.5 46t-2.5 37l-10 -2q-5 -2 -6 5q1 6 4 8l11 4v4q-1 2 4 4q15 6 21 -1q58 10 73 6q6 -1 6.5 -6t-1.5 -9.5t-3 -4.5zM400 243q13 4 29.5 25.5t16.5 44.5q0 35 -13 35q-15 0 -34.5 -33t-19.5 -59q0 -25 2 -58.5t2 -35.5q0 -4 -6 -6t-12 0
t-6 7l1 18q0 18 0.5 34t-0.5 36q-1 17 -3 43.5t-3.5 45.5t-1.5 23q-1 3 4 5q16 4 23 -4v-7v-12.5v-16.5v-19q11 21 26.5 36.5t27.5 15.5q14 0 23 -13t9 -35q0 -31 -19.5 -53.5t-36.5 -27.5q12 -22 34 -45t43 -21q7 0 2 -11q-5 -8 -12 -9q-25 0 -51 29.5t-35 53.5q-5 8 10 14
zM272 309q11 8 11 23q0 23 -16 23q-14 0 -25 -31t-11 -71q0 -34 10 -56.5t25 -22.5q16 0 27 26.5t11 56.5q0 19 -7 31q-1 1 0.5 4t4 4.5t7.5 -0.5q10 -5 10 -38q0 -30 -15 -65t-41 -35q-56 0 -56 94q0 57 18 87t43 30q15 0 23 -12t8 -24q2 -25 -11 -33q-11 -6 -16 3
q-3 4 0 6zM495 118q1 1 2 -1q5 -13 -4 -17q-1 0 -190 2.5t-220 -11.5q-3 -1 -6.5 5t-3.5 13.5t6 9.5q10 4 210.5 -0.5t205.5 -0.5z" />
    <glyph glyph-name="g" unicode="g" horiz-adv-x="578" 
d="M82 408q-1 -1 -2 1q-5 13 4 17q1 0 189 -2.5t221 11.5q3 1 6.5 -5t3.5 -13.5t-6 -9.5q-10 -4 -210.5 0.5t-205.5 0.5zM398 175q0 13 16 13v69q-1 15 -3 47.5t-2 42.5q-4 1 -13 1q-7 0 -11.5 -3t-4.5 -6v-4q1 -4 -4 -5q-11 -1 -12 11q3 20 31 20h13l-1 7q0 6 12.5 7.5
t14.5 -5.5q1 -2 1 -16q40 -14 56.5 -52t16.5 -75q0 -30 -15.5 -45.5t-32.5 -15.5q-5 0 -10 1t-10.5 2t-8.5 1v-1q-3 -13 -18 -9.5t-15 15.5zM317 367q4 12 22 7q6 -3 6 -6q-9 -32 -9 -103q1 -16 2 -35t1.5 -29.5t0.5 -17.5q1 -4 -3.5 -8t-10 -4t-7.5 3q-31 66 -73 141
q0 -31 -2 -57q0 -25 0.5 -45t1 -30t0.5 -14q0 -5 -6.5 -6t-12.5 1.5t-6 6.5q0 1 1 13t1.5 30t0.5 36q-2 86 -5 110q-2 5 9 9.5t13 0.5l1 -2q4 -1 5 -5v-5q28 -60 70 -135q-1 13 -1 43q0 14 -1 39t-0.5 39.5t2.5 22.5zM94 172q-2 -10 -17 -5q-9 2 -7 8q14 32 20 54
q-14 3 -14 13q0 7 6 10l3 -1q2 -4 11 -7q23 64 31 92q-6 18 -7 20q-1 3 5 6.5t12 4t8 -2.5q7 -47 47 -200q2 -7 -3.5 -10.5t-12.5 -1.5t-8 7q-5 32 -14 71q-20 -4 -30 -4t-15 1zM435 265q0 -49 -3 -78q16 -4 29 -4q26 0 26 39q0 93 -52 118v-75zM135 308q-7 -19 -21 -67
q2 0 6.5 -0.5t7.5 -0.5q10 0 24 2q-2 8 -17 66zM504 118q1 1 2 -1q5 -13 -4 -17q-1 0 -190 2.5t-220 -11.5q-3 -1 -6.5 5t-3.5 13.5t6 9.5q10 4 210.5 -0.5t205.5 -0.5z" />
    <glyph glyph-name="h" unicode="h" horiz-adv-x="513" 
d="M439 407q-10 -4 -185.5 0.5t-180.5 0.5q-1 -1 -2 1q-5 13 4 17q1 0 164 -2.5t196 11.5q3 1 6.5 -5t3.5 -13.5t-6 -9.5zM233 164q0 -4 -3 -7.5t-7.5 -5.5t-9.5 -1.5t-10 5t-8 12.5q-8 25 -14 76q-1 7 1 10t11 1l20 -3q-1 19 -3 59t-2 45q-21 -6 -75 -16v-76q0 -24 2.5 -58
t2.5 -36t-3 -3.5t-6.5 -1.5t-7.5 0.5t-6.5 2.5t-2.5 4q5 27 1 84q-2 57 -6 82q-16 -3 -31 -1q-7 1 -9 6t-0.5 9.5t3.5 4.5q41 -6 138 13q23 4 25 0q2 -14 -1 -114v-3q20 5 34.5 24t17.5 40v35q0 4 6.5 5.5t13 0.5t6.5 -4q0 -2 -4.5 -35.5t-4.5 -51.5l3 -99q0 -3 -10 -3
t-10 3v112q-19 -35 -52 -41q0 -64 1 -74zM366 162q-1 0 -4.5 -0.5t-4.5 0t-3 2.5t-2 7q0 1 0.5 14t0.5 27v36q-2 48 -5 85l-13 -3q-2 0 -4 4.5t-0.5 9.5t7.5 7l8 1l-1 4q0 6 12.5 7t13.5 -6l1 -5q45 0 62 -10q8 -4 3 -11l-4 -1q-29 8 -61 5v-77q42 -2 45 6q3 1 6 -3t2 -8
q-4 -14 -53 -9q-1 -29 3 -66q0 -3 5 -3q28 0 55 13q5 0 5 -6.5t-4 -8.5q-17 -13 -70 -11zM211 170q0 1 0.5 11t1 25.5t0.5 30.5h-18q0 -1 2.5 -15.5t5.5 -29t4 -19.5t3 -6zM83 91q-3 -1 -6.5 5t-3.5 13.5t6 9.5q10 4 185.5 -0.5t180.5 -0.5q1 1 2 -1q5 -13 -4 -17
q-1 0 -165 2.5t-195 -11.5z" />
    <glyph glyph-name="i" unicode="i" horiz-adv-x="604" 
d="M534 435q3 1 6.5 -5t3.5 -13.5t-6 -9.5q-10 -4 -235.5 0.5t-230.5 0.5q-1 -1 -2 1q-5 13 4 17q1 0 215 -2.5t245 11.5zM406 374q3 1 4 -3q0 -7 -3 -11q-14 -11 -48 -17q-2 -30 0 -74q1 -23 2.5 -55.5t1.5 -36.5t-6 -6t-12 0t-6 7q0 1 0.5 16t1 34.5t0.5 33.5q-3 58 -7 77
q-15 -3 -31 -1q-7 1 -9 5.5t-1 9t3 4.5q56 -8 110 17zM406 250q-1 7 2 10t10 1q3 0 10 -1.5t10 -1.5q-2 75 -5 103q0 6 12.5 7t13.5 -5v-22.5t-0.5 -41t-0.5 -37.5v-3q20 5 33.5 23t16.5 40v34q0 4 6 6t12.5 1t6.5 -5q0 -1 -4 -34.5t-4 -51.5t0.5 -41t1.5 -39t1 -17
q0 -5 -10 -5t-10 5v110q-18 -33 -51 -41q0 -22 0.5 -46t0.5 -26q1 -7 -6.5 -12t-17 -2t-14.5 16q-4 12 -7 29t-4.5 30.5t-2.5 16.5zM277 177q0 -4 -6.5 -6t-12.5 0t-6 7q4 22 1 77q-2 67 -7 104q0 4 6.5 6.5t13 2t6.5 -4.5v-21.5t0.5 -43t0.5 -36.5q3 -70 4 -85zM96 168
q-10 -1 -15.5 22.5t-10.5 79t-8 76.5q0 3 6 5t12.5 0.5t6.5 -4.5q0 -28 6.5 -86.5t9.5 -58.5q5 0 15 41t11 73q0 7 13.5 7t14.5 -7q1 -2 4.5 -34.5t7 -63t5.5 -30.5q11 0 22.5 71t3.5 94q-1 3 6 6q11 3 13 -5q5 -35 -11.5 -113.5t-36.5 -78.5q-4 0 -7.5 4.5t-6.5 11.5
t-5.5 16.5t-4 18.5t-3 19.5l-2.5 17.5l-2 14v6v3l-1 2v-1q-24 -105 -43 -106zM439 243q-19 1 -19 0t2.5 -15.5t5.5 -28.5t4 -18q4 -9 5 -3q0 1 0.5 10.5t1 24.5t0.5 30zM534 118q1 1 2 -1q5 -13 -4 -17q-1 0 -210 2.5t-240 -11.5q-3 -1 -6.5 5t-3.5 13.5t6 9.5
q10 4 230.5 -0.5t225.5 -0.5z" />
    <glyph glyph-name="j" unicode="j" horiz-adv-x="418" 
d="M339 407q-10 -4 -135.5 0.5t-130.5 0.5q-1 -1 -2 1q-5 13 4 17q1 0 114 -2.5t146 11.5q3 1 6.5 -5t3.5 -13.5t-6 -9.5zM139 153q-26 0 -43 12t-17 30q0 6 4.5 8.5t9.5 2.5t5 -2q0 -17 11.5 -27.5t30.5 -10.5q22 0 35 14t13 36q0 18 -9 28.5t-22 9.5q-3 -1 -8 -1
q-15 0 -11 12q2 5 5 5q14 0 22 15t8 31q0 32 -9 32t-19 -31t-11 -61v-6q0 -22 1.5 -43t1.5 -23t-5.5 -3t-11.5 0t-6 4q0 1 0.5 13l1 24t-0.5 30l-2.5 40t-3 41.5t-1.5 21.5q-1 3 4.5 5t12.5 1t8 -4t1 -34q11 39 30 39q11 0 19.5 -12.5t8.5 -29.5q0 -33 -21 -54q36 -6 36 -50
q0 -26 -19.5 -44.5t-48.5 -18.5zM285 150q-5 5 -4 34q0 3 17 107q-19 -66 -44 -66q-22 0 -24 31q0 20 -1 46t-1 41q0 5 14 6q7 -2 7 -5v-87q1 -20 7 -20q17 0 38 89q4 18 12 18q14 0 16.5 -5t-0.5 -16q-1 -6 -6 -30t-9 -53.5t-4 -55.5q0 -15 3 -30q1 -3 -3 -5.5t-9 -2.5
t-9 4zM83 91q-3 -1 -6.5 5t-3.5 13.5t6 9.5q10 4 135.5 -0.5t130.5 -0.5q1 1 2 -1q5 -13 -4 -17q-1 0 -115 2.5t-145 -11.5z" />
    <glyph glyph-name="k" unicode="k" horiz-adv-x="825" 
d="M394 -20q-150 0 -234 76.5t-80 196.5q4 114 96 191t230 88q89 7 163 -19.5t123.5 -92.5t52.5 -162q4 -119 -92 -198.5t-259 -79.5zM221 141q29 6 41 45q2 -12 5 -21t10.5 -17.5t18.5 -6.5q17 3 27.5 32.5t11.5 72.5q14 5 21 22v-72q1 -23 34 -13q21 7 25 15q11 22 21 57
q-2 -22 1 -40q2 -16 29 -11q29 5 33 11q9 13 18 59q1 -36 1 -68q2 -6 14.5 -5.5t27 6t13.5 10.5q0 8 -1 16q-1 32 7.5 67.5t17.5 38.5q2 1 4 -3.5t3 -12t1.5 -16.5t0.5 -20v-19.5v-17.5v-12q2 -9 21.5 -3.5t19.5 10.5q0 60 -13 91t-34 27q-25 -5 -37 -52q-9 92 -13 112
q-1 5 -11.5 6t-19.5 -2t-8 -8q4 -15 6 -105q-3 -22 -18 -67q-6 -21 -8 -1q0 4 -5 32t-7 50q15 5 22 9q6 3 5 10q0 3 -2 1q-14 -7 -27 -9l-2 23q0 2 -1 6t-1 5.5t-1 4.5t-2.5 4.5t-3.5 3t-4.5 2t-6.5 0.5t-9 -1q-14 -3 -14 -8q6 -6 6 -45q-5 1 -14 3t-11 2q-2 1 -5.5 -3.5
t-4.5 -9t2 -6.5l33 -2v-6q-2 -38 -23 -87q-7 -14 -10 6q-2 10 -13 67q-2 13 -9.5 15.5t-11.5 -0.5q-6 -1 -10.5 -3.5t-7 -4.5t-1.5 -4q0 -29 -17 -40q-1 27 -9 44t-24 14q-28 -5 -26 -32q0 -15 14.5 -30t31.5 -14q1 -28 -5 -53.5t-16 -26.5q-10 -2 -13.5 26.5t-1.5 41.5
q1 4 -5.5 6.5t-14 1.5t-7.5 -5t-0.5 -12.5t-1 -12.5t-1 -10.5t-2 -10t-3.5 -7t-5 -5.5t-7 -3q-6 -1 -10.5 10t-6 22.5t-1.5 22.5q0 39 9 57q2 5 -8 8q-21 6 -26 -4q-15 -36 -15 -84q0 -24 9 -45.5t31 -18.5zM369 346q4 1 11 9.5t7 12.5q0 5 -4.5 9.5t-8.5 3.5
q-14 -2 -17 -15q-1 -7 2.5 -14t9.5 -6zM322 257q-10 1 -18 11t-8 25q0 11 7 12q15 3 19 -48zM357 96q25 17 70.5 28.5t73.5 14.5t39 3q7 -1 10 7.5t-6 10.5q-26 6 -94 -2t-100 -27q-19 -11 -5 -29q7 -10 12 -6z" />
    <glyph glyph-name="l" unicode="l" horiz-adv-x="723" 
d="M609 397l14 -331q0 -38 -22 -58.5t-43 -20.5q-40 0 -39 33q1 20 9 24q16 -12 35 -6t19 28q0 20 -12 29t-39 7.5t-55 -7.5t-75 -19q-155 -42 -206 -44q-68 0 -80 43l-15 344q0 38 22 58.5t43 20.5q40 0 39 -33q-1 -20 -9 -24q-16 12 -35 6t-19 -28q0 -36 53.5 -36.5
t172.5 29.5q15 4 39 10t39.5 10t36.5 9t35 6.5t30 2.5t26 -2t19 -9t13 -16.5t4 -25.5zM523 231q15 4 15 10q-8 3 -7 12q0 28 0.5 59.5t0.5 33.5q-5 20 -17 20q-13 -1 -16 -8q2 -3 1.5 -17.5t-1 -38.5t-0.5 -30q-3 -32 -20 -35q-12 -2 -14 33q0 17 7.5 30.5t19.5 16.5
q3 2 -3 5q-5 2 -12 1q-19 -4 -32.5 -20t-12.5 -38q-1 -28 10.5 -37.5t30.5 -6.5q14 3 27 25q4 -18 23 -15zM183 134q7 14 23 77q13 6 42 9q8 -24 11 -35q3 -5 11.5 -4t17 6t7.5 8q-1 13 -10 41t-19 55.5t-10 28.5q-3 8 -18 5.5t-19 -12.5q-1 -1 -10 -32.5t-23.5 -75.5
t-28.5 -72q-1 -4 6 -6q14 -5 20 7zM330 303q-14 -3 -16 -9q2 -5 1.5 -19.5t-1.5 -40.5t-1 -29q0 -4 8.5 -5t17.5 2t9 8l-1 38q9 42 23 46q6 0 6 -44v-23q-1 -19 22 -16q14 3 14 10q-2 0 -3.5 3.5t-2 12t-0.5 14v16v12.5q1 15 -6 23t-21 7q-19 -2 -33 -34q0 6 -1 7
q0 20 -15 21zM208 227q7 27 18 61q4 -15 16 -53l-9 -3zM498 162q6 1 7 8.5t-6 9.5q-27 4 -126.5 -14.5t-126.5 -39.5q-8 -7 -5.5 -15t10 -14t10.5 -3q19 18 78 35t105 25t54 8z" />
    <glyph glyph-name="m" unicode="m" horiz-adv-x="591" 
d="M426 -10q-40 0 -39 33q1 20 9 24q16 -12 35 -6t19 28q0 39 -113 12q-18 -4 -69 -18q-6 -1 -21.5 -5.5t-24 -7t-24 -6t-25.5 -4t-22.5 -0.5t-20.5 3.5t-15.5 9.5t-11 16.5t-3.5 24.5v334q0 38 22 58.5t43 20.5q40 0 39 -33q-1 -20 -9 -24q-16 12 -35 6t-19 -28
q0 -27 41.5 -33.5t82.5 7.5q8 2 29.5 9.5t37.5 12.5t38.5 10.5t39 6t32 -1.5t24.5 -12.5t11 -27.5l14 -331q0 -38 -21.5 -58t-43.5 -20zM343 201q0 -3 8.5 -3.5t16.5 2.5t8 8q-3 33 -3 83q3 1 8 2.5t8.5 2.5t5.5 2q4 1 4.5 4.5t-1 7t-3.5 3.5l-22 -6q0 40 13 43q7 1 10 -3.5
t0 -10.5q-1 -2 0.5 -4t5 -3.5t8.5 -0.5q11 2 11 17q0 11 -11 15.5t-24 1.5q-44 -6 -45 -62l-10 -2q-3 0 -4 -4.5t1 -8t5 -3.5q1 1 4 1.5t4 0.5q2 -56 2 -83zM172 295q20 14 52.5 24.5t53.5 14t27 3.5q7 -1 10 7.5t-6 10.5q-22 5 -70.5 -2.5t-73.5 -22.5q-19 -11 -5 -29
q7 -8 12 -6zM251 178q25 4 40 23.5t15 46.5q0 64 -62 53q-23 -4 -36 -17q-21 -24 -16 -61q2 -21 20 -35t39 -10zM251 194q-19 -3 -19 40q0 45 17 48q20 3 20 -40q0 -45 -18 -48zM203 104q25 17 71 28.5t74 14.5t38 3q7 -1 10 7.5t-6 10.5q-26 6 -94 -2t-100 -27
q-19 -11 -5 -29q7 -8 12 -6z" />
    <glyph glyph-name="n" unicode="n" horiz-adv-x="591" 
d="M426 -10q-40 0 -39 33q1 20 9 24q16 -12 35 -6t19 28q0 39 -113 12q-18 -4 -69 -18q-6 -1 -21.5 -5.5t-24 -7t-24 -6t-25.5 -4t-22.5 -0.5t-20.5 3.5t-15.5 9.5t-11 16.5t-3.5 24.5v334q0 38 22 58.5t43 20.5q40 0 39 -33q-1 -20 -9 -24q-16 12 -35 6t-19 -28
q0 -27 41.5 -33.5t82.5 7.5q8 2 29.5 9.5t37.5 12.5t38.5 10.5t39 6t32 -1.5t24.5 -12.5t11 -27.5l14 -331q0 -38 -21.5 -58t-43.5 -20zM180 304q25 17 77.5 28.5t84.5 14t44 2.5q7 -1 10 7.5t-6 10.5q-27 6 -106.5 -1.5t-110.5 -26.5q-19 -11 -5 -29q7 -8 12 -6zM300 202
q0 -9 23 -4q15 3 14 10l-1 39q11 47 24 49q2 0 3 -1t2 -4.5t1.5 -7t0.5 -10v-13v-16.5v-19q0 -19 24 -17q6 1 9.5 4t4 5t-0.5 2q-2 0 -4 6.5t-2.5 18t-0.5 19v17.5q2 35 -28 32q-22 -3 -35 -37q0 7 -1 9q-2 21 -17 21q-14 -1 -17 -8q2 0 2.5 -19.5t-0.5 -47t-1 -28.5z
M226 177q23 5 37 22t14 42q0 59 -56 48q-21 -3 -34 -16q-17 -18 -15 -55q2 -19 18.5 -31.5t35.5 -9.5zM227 192q-8 -2 -13 8t-5 27q0 41 16 45q18 3 18 -37t-16 -43zM203 104q25 17 77.5 28.5t85 14.5t44.5 3q7 -1 10 7.5t-6 10.5q-26 6 -106.5 -2t-111.5 -27
q-19 -11 -5 -29q7 -8 12 -6z" />
    <glyph glyph-name="o" unicode="o" horiz-adv-x="574" 
d="M409 -10q-40 0 -39 33q1 20 9 24q16 -12 35 -6t19 28q0 16 -13 23t-38.5 5t-51 -7t-62.5 -15q-6 -1 -21.5 -5.5t-24 -7t-24 -6t-25.5 -4t-22.5 -0.5t-20.5 3.5t-15.5 9.5t-11 16.5t-3.5 24.5v334q0 38 22 58.5t43 20.5q40 0 39 -33q-1 -20 -9 -24q-16 12 -35 6t-19 -28
q0 -27 41.5 -33.5t82.5 7.5q6 2 22 7t26 8t27 7.5t28.5 6t26.5 3t24.5 -1.5t19 -7.5t15 -14.5t6.5 -23l14 -331q0 -38 -21.5 -58t-43.5 -20zM353 201q13 3 14 11q-10 1 -8 52v32q9 3 12 3q8 1 5 11q0 3 -2 2q-4 0 -16 -3l-1 33q-2 5 -10 4.5t-17 -5t-9 -7.5q0 -2 1 -15
t1 -18l-10 -2q-6 -2 -3 -11q1 -4 4 -3q2 0 5 0.5t4 0.5q1 -16 1 -42q0 -23 6 -34.5t23 -8.5zM180 296q17 10 44.5 16.5t44.5 8.5t23 2q7 -2 10.5 6t-4.5 11q-21 7 -60 4t-62 -12q-21 -10 -7 -29q6 -10 11 -7zM218 183q15 1 24 11t11 19q2 4 2 -1q0 -1 1 -4v-3q5 -20 25 -16
q6 1 9.5 3.5t4 5t-0.5 2.5q-2 0 -4 16.5t-2 36.5t1 37q0 4 -8.5 6t-17 -1t-8.5 -10q0 -1 -1 -10t-3.5 -22.5t-5.5 -25.5q-7 -26 -20 -28q-6 -1 -8 5t-2 18q0 17 8 36t20 22q1 0 -0.5 1.5t-5.5 3t-10 0.5q-20 -4 -33.5 -22.5t-13.5 -39.5q0 -26 12.5 -34t25.5 -6zM186 104
q25 17 77.5 28.5t85 14.5t44.5 3q7 -1 10 7.5t-6 10.5q-26 6 -106.5 -2t-111.5 -27q-19 -11 -5 -29q7 -8 12 -6z" />
    <glyph glyph-name="p" unicode="p" horiz-adv-x="643" 
d="M478 -20q-40 0 -39 34q2 20 9 24q16 -12 35 -6t19 28q0 13 -5 21.5t-17 11.5t-23 3.5t-31.5 -3.5t-34 -7t-39.5 -9q-3 -1 -4 -1q-12 -3 -35.5 -9t-36 -9t-32.5 -8t-31.5 -6t-27.5 -2t-25.5 2t-19.5 7.5t-16 13.5t-9 21l-15 344q0 38 22 58.5t43 20.5q40 0 39 -33
q-1 -20 -9 -24q-16 12 -35 6t-19 -28q0 -66 173 -18q108 31 139 33q76 6 76 -54l14 -331q0 -38 -22 -59t-43 -21zM360 320q17 10 44.5 16.5t44.5 8.5t23 2q7 -2 10.5 6t-4.5 11q-21 7 -60 4t-62 -12q-21 -10 -7 -29q6 -10 11 -7zM193 168q1 -5 9 -4.5t17.5 3.5t9.5 5
q-2 16 -4.5 72.5t-3.5 65.5q8 2 26.5 4t19.5 2q5 -5 5 -10v-124q0 -9 22 -4q11 4 12 9q-1 17 -1 55q17 34 26 37q3 1 5 -4.5t2 -15v-19v-19.5t1 -15q5 -19 24 -15q6 1 9.5 3.5t4 4.5t-0.5 3q-2 0 -4 6.5t-2.5 18.5t-0.5 19v18q0 36 -32 30q-17 -1 -32 -25v18.5v23.5v12
q0 5 -0.5 7t-5.5 4.5t-16 -0.5q-5 0 -61.5 -9.5t-64.5 -8.5q-2 0 -3 -5.5t2 -10t9 -3.5q1 0 5.5 1t9.5 2.5t10 2.5q3 -81 3 -135zM445 204q26 5 32 20q4 8 -5 12q-3 2 -4 0q-6 -16 -21 -18q-14 0 -18 21l4 1q17 3 33 14.5t16 30.5q0 17 -9 25.5t-26 4.5q-25 -4 -39.5 -22
t-14.5 -44q0 -22 12 -36t40 -9zM428 254v5q3 40 21 44q14 1 11 -22q-4 -23 -27 -27h-5zM206 91q25 17 89.5 31.5t112 20.5t56.5 6q7 -1 10 7.5t-6 10.5q-25 6 -131 -7.5t-138 -33.5q-19 -11 -5 -29q7 -8 12 -6z" />
    <glyph glyph-name="q" unicode="q" horiz-adv-x="963" 
d="M504 0q-208 0 -328 82.5t-116 203.5q4 126 120 206.5t336 72.5q68 0 132.5 -15.5t122 -46t94 -85.5t38.5 -127q4 -119 -109.5 -205t-289.5 -86zM586 174q-1 26 -4 77.5t-5.5 90.5t-2.5 43q-1 8 -14 10t-25.5 -1t-12.5 -9q0 -12 6 -104q-9 -3 -29 -3l-46 -3q-2 21 -3 65
t-1 47q-1 14 -33 10t-32 -12q0 -24 4 -108.5t4 -93.5q0 -11 33.5 -12t33.5 12l-1 11q0 10 -1 25.5t-1 29.5q51 9 72 9q0 -18 1.5 -45.5t1.5 -32.5q0 -14 38 -11q17 2 17 5zM312 174q-1 15 -3.5 60t-5 82t-3.5 55h49q6 0 7.5 6.5t0 13t-4.5 6.5h-72h-9h-72q-9 0 -8 -14.5
t8 -14.5q26 0 49 3q9 -141 9 -191q0 -8 14 -10.5t28 -0.5t13 5zM649 171h116q2 1 2 7.5t-3.5 13t-7.5 5.5q-2 0 -6.5 -1t-7.5 -1.5t-7.5 -1.5t-8 -1.5t-8 -0.5h-7h-5t-4 1t-1.5 2q0 4 -1.5 22t-1.5 33q0 1 -1.5 5t-1.5 7q8 0 16.5 0.5t14.5 1.5t7 1q6 0 8.5 6t0.5 11.5
t-6 5.5q-9 -3 -35 -3h-6q-4 82 -5 84q4 5 25.5 2.5t34.5 -5.5q12 -2 15 13q2 13 -6 13q-9 0 -28 1t-35.5 1.5t-33 0.5t-26.5 -3t-10 -9t3 -85.5t3 -81.5q0 -27 3.5 -35.5t13.5 -8.5z" />
    <glyph glyph-name="r" unicode="r" horiz-adv-x="963" 
d="M504 0q-208 0 -328 82.5t-116 203.5q4 126 120 206.5t336 72.5q68 0 132.5 -15.5t122 -46t94 -85.5t38.5 -127q4 -119 -109.5 -205t-289.5 -86zM540 166q19 0 26.5 8.5t10.5 39.5q1 19 2 64t2 75.5t2 34.5q0 4 -9.5 5t-18.5 -1.5t-9 -7.5q-1 -5 2.5 -79.5t1.5 -82.5
q-64 154 -66 157q-3 7 -11 10.5t-17 4t-17.5 -1.5t-14 -6t-4.5 -9q0 -20 -4.5 -100.5t-6.5 -95.5q0 -5 9.5 -8.5t19 -2.5t9.5 7q0 61 -1 150q3 -7 23.5 -62.5t29.5 -75.5q11 -23 41 -23zM240 177q6 30 13 54q30 0 62 4q12 -36 20 -56q6 -15 37 -6q16 5 16 12
q-5 28 -30.5 100t-35.5 94q-4 12 -26.5 12.5t-27.5 -12.5q-23 -61 -62 -198q-2 -4 6 -7q19 -6 27 1zM639 173h64q42 0 72 30.5t30 79.5q0 30 -11 52.5t-28.5 33t-32.5 15t-29 4.5q-26 3 -53.5 -0.5t-28.5 -11.5q-1 -35 -1 -168q0 -23 3 -29t15 -6zM695 201q-8 0 -11 0.5
t-5 2.5t-2 7v130q0 8 3 11t13 3h3q10 0 16.5 -1t17 -7t16 -22t5.5 -42q0 -82 -56 -82zM258 252q20 76 22 87q3 -10 13 -39t16 -45h-15z" />
    <glyph glyph-name="s" unicode="s" horiz-adv-x="773" 
d="M374 0q-120 0 -219 86.5t-95 199.5q4 119 98.5 203.5t227.5 75.5q45 0 97.5 -15.5t104.5 -46t87.5 -86t37.5 -126.5q4 -115 -100 -203t-239 -88zM473 168q37 0 62.5 29.5t25.5 80.5q0 54 -25.5 84t-74.5 30q-41 0 -61 -20q-33 -33 -27 -105q4 -44 29 -71.5t71 -27.5z
M310 171q-12 187 -12 191q44 2 49 2q6 0 6.5 12t-4.5 13q-39 0 -71 -1h-8q-31 -1 -71 -1q-5 0 -6.5 -6.5t0.5 -13.5t5 -7q26 0 50 1q0 -17 3 -91.5t3 -93.5q0 -8 14 -10.5t28.5 -0.5t13.5 6zM474 191q-15 0 -28.5 18.5t-13.5 63.5q0 46 12 66.5t27 20.5q35 0 35 -83
q0 -86 -32 -86z" />
    <glyph glyph-name="t" unicode="t" horiz-adv-x="773" 
d="M374 0q-120 0 -219 86.5t-95 199.5q4 119 98.5 203.5t227.5 75.5q45 0 97.5 -15.5t104.5 -46t87.5 -86t37.5 -126.5q4 -115 -100 -203t-239 -88zM304 174q36 0 60.5 28.5t24.5 78.5q0 53 -24.5 82.5t-72.5 29.5q-41 0 -61 -20q-31 -33 -25 -102q3 -43 28 -70t70 -27z
M489 184q0 3 -0.5 26t-0.5 42v11q36 4 45 4q3 0 4.5 5.5t0 11t-4.5 5.5q-12 -2 -45 -4v73q5 3 12.5 3t26.5 -3t22 -3q6 -1 11 11q5 15 -5 15q-10 -1 -45 0.5t-57.5 0t-22.5 -8.5l1 -187q0 -7 14.5 -10.5t29 -1t14.5 9.5zM304 197q-9 0 -17.5 6t-16 25t-7.5 49q0 85 39 85
q8 0 15 -6t13 -25.5t6 -49.5q0 -84 -32 -84z" />
    <glyph glyph-name="u" unicode="u" horiz-adv-x="773" 
d="M374 0q-120 0 -219 86.5t-95 199.5q4 119 98.5 203.5t227.5 75.5q45 0 97.5 -15.5t104.5 -46t87.5 -86t37.5 -126.5q2 -60 -17 -111t-58.5 -92t-107 -64.5t-156.5 -23.5zM249 183q0 15 11 53q8 0 30.5 1.5t30.5 1.5q3 -11 19 -54q2 -7 15 -7.5t24.5 4.5t10.5 11
q-7 35 -64 187q-4 12 -25.5 12t-27.5 -12q-1 -3 -13.5 -43t-27 -87.5t-18.5 -61.5q-1 -2 2.5 -4t8.5 -3.5t10 -1.5t9 1t5 3zM500 183q-3 20 -5.5 55.5t-5 75t-3.5 50.5q13 0 29.5 1t18.5 1q6 0 5.5 11t-5.5 11h-66h-8h-67q-8 0 -7 -13.5t7 -13.5q24 0 48 3q0 -23 2.5 -92
t2.5 -84q0 -7 13.5 -9.5t27 -0.5t13.5 5zM265 257q12 44 21 83q3 -9 12 -36.5t15 -43.5h-13q-4 0 -16.5 -1.5t-18.5 -1.5z" />
    <glyph glyph-name="v" unicode="v" horiz-adv-x="791" 
d="M392 -9q-120 0 -219 86.5t-95 199.5q4 119 98.5 203.5t227.5 75.5q45 0 97.5 -15.5t104.5 -46t87.5 -86t37.5 -126.5q4 -115 -100 -203t-239 -88zM306 168q12 4 19 7t15.5 9t11.5 16.5t2 24.5q-3 25 -17 84q18 8 20 11q8 5 5 13q-1 2 -3 0q-5 -4 -25 -11q-11 49 -18 65
q21 0 36 4q31 9 29 30q-1 5 -4 6q-14 -14 -34 -16.5t-38.5 0t-42.5 -4.5q-23 -6 -34.5 -20.5t-10.5 -30.5q1 -8 5.5 -13t8.5 -5t6 1q2 19 13.5 28.5t36.5 16.5q1 0 3 0.5t3 0.5q-8 -6 -9 -10l4 -63q-14 -3 -23 4q-2 1 -5.5 -3.5t-4.5 -9t3 -7.5q9 -3 31 2q5 -73 5 -98
q-1 -13 -11 -16q-7 -1 -11.5 7t-2.5 19q0 2 -5.5 2.5t-10.5 -3t-5 -10.5q4 -46 58 -30zM441 209q33 11 31 75q32 22 32 86h1q7 -2 13 -3t7 -1q6 -2 4 -13t-6 -49t-3 -49q0 -9 1 -12.5t3.5 -7.5t8 -5t14.5 0q32 2 45 20q3 5 -1 5h-2q-5 -1 -6.5 3t-2.5 17q0 6 -3.5 46
t-5.5 49q-3 14 -13 10q-25 -7 -53 -1q-1 0 -1 1v7q-1 22 -12 24q-3 2 -7 -2q-17 -16 9 -33q2 -58 -25 -79q-2 23 -15 41.5t-41 10.5q-9 -2 -17.5 -12.5t-7.5 -27.5q1 -3 4 -14q-4 -18 -2 -29q0 -26 13 -44.5t38 -12.5zM426 281q-4 18 0 31q1 6 -3 9t-10 1q-6 -1 -13 -10
q-1 7 4 14t11 9q23 7 33 -11.5t10 -34.5q-4 -4 -12 -7q-10 -3 -20 -1zM449 244q-6 -2 -12 5t-10 19q13 0 19 2q4 1 13 6q0 -30 -10 -32zM355 107q25 17 71 28.5t74 14.5t38 3q7 -1 10 7.5t-6 10.5q-26 6 -94 -2t-100 -27q-19 -11 -5 -29q7 -10 12 -6z" />
    <glyph glyph-name="w" unicode="w" horiz-adv-x="813" 
d="M394 -9q-120 0 -219 86.5t-95 199.5q4 119 98.5 203.5t227.5 75.5q45 0 97.5 -15.5t104.5 -46t87.5 -86t37.5 -126.5q4 -115 -100 -203t-239 -88zM296 169q16 4 24.5 7.5t17 15t8.5 29.5q1 35 -19 155v1q18 2 52 0q0 -21 -3 -88.5t-2 -86.5q0 -7 13 -7.5t25.5 5
t11.5 13.5q-4 34 6.5 68t20.5 36q6 2 6 -30q1 -12 0 -38q-1 -28 0 -34q1 -9 17.5 -8t21.5 9q23 36 24 38q10 -23 35 -18q43 9 59 76q-2 2 -6 4q-11 -38 -35 -43q-9 -2 -14 4t-6 15q36 14 36 47q0 12 -7 19.5t-19 4.5q-18 -5 -32.5 -27.5t-14.5 -46.5q0 -16 1 -23
q-12 -18 -18 -24q-5 -5 -7 3v5q-1 47 -8.5 69.5t-28.5 16.5q-19 -5 -36 -45q-4 76 -5 82q0 4 -2 12q12 11 12 23q0 25 -19 28q-10 1 -17.5 -5t-8.5 -11q-4 -11 -2 -18q-4 0 -24.5 3.5t-29 3t-34.5 -3.5q-27 -5 -41.5 -21t-14.5 -31q-1 -15 10 -18q4 -2 5 1q8 28 52 37l5 2
q-8 -6 -8 -9q-7 -160 -8 -166q-4 -12 -12 -14q-7 -1 -10.5 7t-1.5 19q1 1 -1 2q-10 3 -16 -6q-2 -2 -2 -6q0 -22 14 -30.5t36 -2.5zM552 301q-2 14 3 31.5t14 18.5q4 1 6 -3t2 -9q0 -13 -8 -24t-17 -14zM357 107q25 17 70.5 28.5t73.5 14.5t39 3q7 -1 10 7.5t-6 10.5
q-26 6 -94 -2t-100 -27q-19 -11 -5 -29q7 -10 12 -6z" />
    <glyph glyph-name="x" unicode="x" horiz-adv-x="683" 
d="M324 0q-116 0 -192 84t-72 202q3 80 33 144t93 102.5t150 32.5q45 0 91.5 -15.5t91 -46t73.5 -86t31 -126.5q4 -119 -81.5 -205t-217.5 -86zM365 154q0 -10 17 -13t33 2t14 16q-7 49 -18 173q6 1 19 5q8 4 6 9q-1 2 -4 1q-12 -3 -21 -4q-2 18 -2 23q32 39 32 65
q0 10 -7 18t-22 8q-31 0 -43.5 -21.5t-12.5 -71.5q0 -11 1 -17q-10 2 -24 9q-4 2 -9 -7t-1 -12q6 -5 34 -7q0 -5 0.5 -15t0.5 -16q-7 -24 -46 -34q-8 83 -58 83q-11 0 -20.5 -8.5t-9.5 -27.5q0 -5 2 -17q-6 -13 -6 -30q0 -29 13 -52.5t41 -23.5q33 0 38 63q15 2 29 9.5
t18 14.5q6 -108 6 -122zM408 381q-2 7 -2 14q-3 47 17 47q7 0 7 -12q0 -20 -22 -49zM289 262q-15 0 -28 5q-2 24 4 36q1 7 -3 11.5t-11 4.5q-6 0 -15 -7q0 9 6 14.5t14 5.5q14 0 24 -9.5t14.5 -23t6 -22.5t1.5 -15h-13zM286 224q-16 0 -23 30q3 0 7.5 -1t8.5 -1.5t8 -0.5h15
q-2 -27 -16 -27zM242 114q16 10 38.5 17.5t36 10t18.5 2.5q7 -1 10 7.5t-6 10.5q-50 11 -104 -13q-19 -8 -6 -28q8 -9 13 -7z" />
    <glyph glyph-name="y" unicode="y" horiz-adv-x="683" 
d="M324 0q-116 0 -192 84t-72 202q3 80 33 144t93 102.5t150 32.5q45 0 91.5 -15.5t91 -46t73.5 -86t31 -126.5q4 -119 -81.5 -205t-217.5 -86zM415 171q26 3 48.5 24.5t22.5 64.5q0 17 -4 43.5t-8.5 49t-4.5 24.5q-2 4 -8.5 3.5t-14 -4.5t-7.5 -7q0 -17 -5.5 -42t-11 -42.5
t-7.5 -19.5q-3 -8 -7 3l-1 7q-1 6 -3.5 31t-4.5 31q-4 18 -26 8q-10 -5 -9 -9q0 -17 -6 -37.5t-14 -28.5q1 5 1 13q0 30 -10.5 47.5t-28.5 14.5q-32 -6 -43 -65q-6 33 -8 63q31 38 31 72q0 21 -25 18q-27 -5 -38 -27t-11 -69v-5q-33 -16 -44 -12q-3 1 -4 -4q-6 -14 3 -19
q1 -1 3 -1q15 0 42 18q0 -23 1.5 -54t1.5 -53q0 -13 28 -10q14 1 21 7t6 14q0 1 -0.5 5l-1.5 12t-2 15q0 15 4 27q8 35 20 37q10 2 17.5 -11.5t7.5 -35.5q0 -8 -2 -24l-7.5 -5t-7 -4.5t-6 -4t-5.5 -4.5t-3.5 -4t-2.5 -4t-1 -4q0 -14 18 -11q32 6 42 51q20 18 28 56
q1 -23 1 -58q2 -19 26 -14q6 1 10 2.5t6 2t4.5 3.5t3 4t2.5 6t3 6q3 7 15 45v-58q0 -20 -4 -34t-8.5 -19.5t-8.5 -6.5q-15 0 -10 20q0 2 -3 3q-13 6 -20 -6q-6 -13 2.5 -25t27.5 -9zM253 359v8q-5 51 16 54q4 1 5.5 -1.5t1.5 -7.5q0 -28 -23 -53zM294 211q-4 0 -4 4
q0 5 20 18q-8 -20 -16 -22zM235 127q17 10 44.5 16.5t44.5 8.5t23 2q7 -2 10.5 6t-4.5 11q-21 7 -60 4t-62 -12q-21 -10 -7 -29q6 -10 11 -7z" />
    <glyph glyph-name="z" unicode="z" horiz-adv-x="813" 
d="M394 -25q-147 0 -232.5 89.5t-81.5 212.5q4 114 96 191t230 88q88 7 159.5 -19.5t118 -92.5t49.5 -162q2 -59 -20 -113.5t-64 -98t-108.5 -69.5t-146.5 -26zM265 146q0 -6 10.5 -8.5t23 0.5t16.5 10q5 8 12.5 34.5t13 51.5t5.5 26l3 7v-3q-2 -38 -2 -86q0 -7 11.5 -7.5
t22 4.5t9.5 11q-2 34 2 62.5t11 29.5q5 1 8 -14t4.5 -34.5t1.5 -21.5q1 -16 9 -18q4 -1 11 0q25 5 31 20q1 3 9 26q9 -34 40 -28q24 4 42 38q0 -11 2 -27q3 -14 20 -11q13 3 22.5 10.5t12.5 13t0 5.5q-1 0 -2.5 1t-2.5 4t-1.5 5.5l-1.5 7.5q-2 12 -10 64t-12 85q21 17 21 40
q0 26 -28 23q-24 -3 -31 -28q-2 -9 -1.5 -14.5t1.5 -12.5t1 -9q-129 -51 -283 -38q-7 1 -8 -17q-2 -21 16 -22q70 -4 156 15.5t122 42.5q2 -10 4 -52q-11 9 -28 6q-21 -4 -37.5 -25.5t-16.5 -53.5v-4q-7 -23 -10 -29q-5 -15 -6 1q-4 31 -14.5 54t-31.5 20t-30 -41
q-2 25 -3 32q-3 19 -20 16q-12 -3 -14 -10q-1 -3 -2.5 -14.5t-3.5 -20.5q-16 -63 -18 -69q-4 -8 -6 -2q-1 1 -1 2l-4 24q-5 25 -9.5 49.5t-6.5 30.5t-14.5 5t-12.5 -8q0 -17 -1 -34q-12 -62 -37 -66q-14 -2 -14 22q0 18 12 36t25 20q5 0 -1 9q-5 6 -12 6q-25 -4 -44.5 -28
t-19.5 -54q0 -25 12 -34t28 -6q15 3 29 20.5t21 40.5q-2 -52 0 -81zM537 251q-19 -3 -19 30q0 19 7 31t17 14q2 1 9 -1q3 -4 5 1q2 -34 2 -59q-10 -14 -21 -16zM368 96q25 17 70.5 28.5t73.5 14.5t39 3q7 -1 10 7.5t-6 10.5q-26 6 -94 -2t-100 -27q-19 -11 -5 -29
q7 -10 12 -6z" />
    <glyph glyph-name="braceleft" unicode="{" horiz-adv-x="280" 
d="M170 326q-9 0 -16 13t-1 26q11 26 29 12q15 -12 15 -26q0 -25 -27 -25zM98 265q-8 0 -14 12.5t-2 25.5q2 7 5.5 10t6 3.5t8.5 0t8 -0.5q18 0 16 -26q-2 -25 -28 -25zM179 196q-24 -6 -33 19q-3 8 7.5 18.5t23.5 9.5q14 -1 19.5 -7.5t2.5 -16.5q-7 -20 -20 -23z" />
    <glyph glyph-name="braceright" unicode="}" horiz-adv-x="281" 
d="M111 326q-27 0 -27 25q0 14 15 26q18 14 29 -12q6 -13 -1 -26t-16 -13zM183 265q-26 0 -28 25q-2 26 16 26q2 0 8 0.5t8.5 0t6 -3.5t5.5 -10q4 -13 -2 -25.5t-14 -12.5zM102 196q-13 3 -20 23q-3 10 2.5 16.5t19.5 7.5q13 1 23.5 -9.5t7.5 -18.5q-9 -25 -33 -19z" />
    <glyph glyph-name="germandbls" unicode="&#xdf;" horiz-adv-x="683" 
d="M623 291q4 -119 -81.5 -205t-217.5 -86q-116 0 -192 84t-72 202q3 80 33 144t93 102.5t150 32.5q45 0 91.5 -15.5t91 -46t73.5 -86t31 -126.5zM311 535v-2q5 0 15 -2h10q1 0 2.5 1t0.5 2q0 4 -3 6t-8 0q-4 -1 -17 -5zM289 538q-2 -2 0 -6q1 -2 4 -5t4 -5l3 2
q-1 2 -1.5 5.5t-0.5 5.5q0 3 -4 5q-1 1 -3 0t-2 -2zM400 519q-7 3 -13 -3q2 -2 13 -5q4 4 0 8zM322 515q-1 -2 2.5 -6t6.5 -4q3 3 4 3q0 5 -2.5 8t-5.5 2q-2 0 -5 -3zM310 514q-15 0 -23 -4q11 -12 22 -8q5 2 5 5t-4 7zM261 513h-6q2 -7 3 -7q4 -4 8 2q-2 3 -5 5zM377 512
q-7 0 -25 -2q7 -9 12 -7q12 2 13 9zM457 512q-6 0 -6 -4q0 -5 7 -5q2 1 4 2.5t3 1.5q-2 5 -8 5zM435 509q-10 6 -26 -2q18 -10 26 2zM231 509q-1 -2 -2 -2l1 -1q0 -1 0.5 -2t1.5 -1l2 2q0 3 -3 4zM205 507q-6 -4 -1 -10q7 2 6 8q-2 2 -5 2zM364 493h-9q6 -7 9 0zM421 485
q0 -6 8 -6q3 3 3 6q1 2 -1.5 4.5t-4.5 2.5q-5 -1 -5 -7zM276 484q0 1 -1.5 2t-2.5 2.5t-2 2.5l-7 -7q-1 -3 6 -5q3 0 5.5 1.5t1.5 3.5zM296 479q5 -2 7 0q1 1 1.5 3.5t-0.5 3.5q-2 4 -6 4l-6 -3q-1 -1 -2 -1.5t-2 -0.5zM343 488q-3 0 -9.5 0.5t-11.5 -0.5t-9 -5
q10 -7 13.5 -7.5t10.5 5.5q1 1 3.5 2.5t3.5 2.5q-1 1 -1 2zM414 480q-18 14 -33 2q6 -1 15 -3.5t11 -3.5q5 -2 7 5zM475 475q-16 16 -32 5q2 -2 5 -2.5t6 0.5t4 1q3 -1 8.5 -2.5t8.5 -1.5zM196 477v-3q5 -2 15 2l2 4l-1 1q-2 1 -3 0q-3 -1 -7 -2.5t-6 -1.5zM234 469
q1 6 -6 8q0 -8 6 -8zM300 452l32 -3q7 0 7 7q0 4 -5 6t-12 -1q-7 -4 -14 -3q-6 4 -9 -4zM354 459q-8 2 -8 -5q0 -5 7 -5q3 -1 10 -1q3 0 12.5 1.5t15.5 0.5q4 -1 6.5 2t3.5 9q-2 -1 -10 -0.5t-10 -2.5q-1 -1 -6 -1q-14 2 -21 2zM525 459q-8 4 -10 -2q7 -5 10 2zM445 447
q5 0 5 3q-2 6 -4 6q-5 2 -17 4v-2h-11q-1 0 -2.5 -1.5t-2.5 -1.5q3 -5 4 -5q13 -3 28 -3zM241 453l-3 3q-2 3 -3 3l-6 -3q2 -4 3 -4t4 0.5t5 0.5zM455 459q5 -14 13 -16q-1 16 -13 16zM482 455q-2 -1 -4 -5l6 -3q2 -1 7.5 -1t8.5 -1q5 0 5 2q2 3 -1 6q-4 3 -11 5
q-10 -3 -11 -3zM277 454q-1 0 -2.5 1.5t-2.5 1.5l-3 -2l2 -2t2 -1zM208 448q0 8 -5 8q-4 0 -4 -3q0 -6 7 -6zM182 450q-13 2 -16 1.5t-5 -7.5q17 2 21 6zM427 423q1 0 5 -0.5t6 -0.5q3 13 -7 16q-7 2 -9 -7q-2 -7 5 -8zM404 424q0 -1 4 0h5q-11 16 -27 8q-2 -1 -2 -3t2 -3
q2 -2 4 -2q4 2 14 0zM492 423q2 -1 6 1.5t5 4.5q4 6 -4 6l-12 -3q-2 -8 5 -9zM215 207q0 -13 28 -10q14 1 21 7t6 14q0 1 -0.5 5l-1.5 12t-2 15q0 15 4 27q8 35 20 37q10 2 17.5 -11.5t7.5 -35.5q0 -8 -2 -24l-7.5 -5t-7 -4.5t-6 -4t-5.5 -4.5t-3.5 -4t-2.5 -4t-1 -4
q0 -14 18 -11q32 6 42 51q20 18 28 56q1 -23 1 -58q2 -19 26 -14q6 1 10 2.5t6 2t4.5 3.5t3 4t2.5 6t3 6q3 7 15 45v-58q0 -20 -4 -34t-8.5 -19.5t-8.5 -6.5q-15 0 -10 20q0 2 -3 3q-13 6 -20 -6q-6 -13 2.5 -25t27.5 -9q26 3 48.5 24.5t22.5 64.5q0 17 -4 43.5t-8.5 49
t-4.5 24.5q-2 4 -8.5 3.5t-14 -4.5t-7.5 -7q0 -17 -5.5 -42t-11 -42.5t-7.5 -19.5q-3 -8 -7 3l-1 7q-1 6 -3.5 31t-4.5 31q-4 18 -26 8q-10 -5 -9 -9q0 -17 -6 -37.5t-14 -28.5q1 5 1 13q0 30 -10.5 47.5t-28.5 14.5q-32 -6 -43 -65q-6 33 -8 63q31 38 31 72q0 21 -25 18
q-27 -5 -38 -27t-11 -69v-5q-33 -16 -44 -12q-3 1 -4 -4q-6 -14 3 -19q1 -1 3 -1q15 0 42 18q0 -23 1.5 -54t1.5 -53zM347 427q0 3 -2 5q-5 4 -12 -5q8 -2 10 -2q4 0 4 2zM365 429q1 -1 4 -7q5 7 0 9zM480 423q-2 4 -4.5 5t-7.5 2h-6q-7 2 -8 -5q8 -4 26 -2zM165 424
q0 -2 4 -4q4 -1 5.5 1t2.5 7h-8q-4 -2 -4 -4zM541 419q-2 4 -5 5.5t-7 2t-6 1.5q-1 0 -5 -4q11 -6 23 -5zM137 424q9 -6 21 -6q-8 11 -21 6zM253 359v8q-5 51 16 54q4 1 5.5 -1.5t1.5 -7.5q0 -28 -23 -53zM397 402q0 -1 3 -4q6 0 6 5l-1 2l-2 4q-5 -5 -6 -7zM138 402
q1 0 3 2l-3 3l-3 -3zM468 406q-3 1 -9 1q-2 0 -2 -3t3 -3q2 0 4.5 1t3.5 1v3zM322 404v-1q-1 -1 -1 -2l8 -6q1 -1 3 -1t3 1q2 4 2 7q0 4 -5 4q-4 0 -10 -2zM527 404q-1 0 -3 1l-2 1q-1 0 -3 -2l1 -1q1 -2 2 -2t2 1l1.5 1.5t1.5 0.5zM446 404q-10 3 -15 -3q10 -4 15 3z
M385 397q-20 15 -31 2q16 -6 23 -6q2 0 8 4zM511 400q-3 4 -13 0l-3 -3q2 -8 4 -12q5 0 6 1q10 6 6 14zM117 397q-1 -2 -1 -6q-1 -3 -1 -5q9 0 11 8q0 1 -2 7q-1 -1 -3 -1.5t-3 -1t-1 -1.5zM190 395q-4 6 -11.5 6t-13.5 -6q11 -10 25 0zM574 397q-9 5 -26 0q12 -14 26 0z
M313 397l-2 2l-3 -3l3 -3zM526 365q-3 7 -14 7q-1 0 -4 2t-4.5 2.5t-5.5 -0.5q15 -11 28 -11zM137 370l-19 6q11 -13 19 -6zM407 373l-14 3q7 -10 14 -3zM552 372q1 0 2.5 -2t2.5 -2t5 4q-1 0 -3 2q-1 1 -2 1t-2.5 -1.5t-2.5 -1.5zM176 372l-4 2q-1 0 -3 -2q2 -2 3 -2z
M143 344l2 4l-4 4q-1 -2 -3 -4q1 0 2.5 -2t2.5 -2zM522 348q4 -4 6 -5l2 1l3 3q-6 4 -8 4zM120 348q-3 0 -5 -2q0 -4 1 -5q8 -4 14 1q-4 2 -10 6zM513 342q-7 6 -13 3q7 -7 13 -3zM573 343q-8 6 -23 -2q10 -7 21 -6l4 4q0 2 -2 4zM112 325v-1l-1 -2q3 0 5 -2l1 2q-1 1 -5 3z
M583 310q5 -5 15 3q-5 4 -14 4q-3 0 -3 -3t2 -4zM544 309l-3 4q-7 4 -19 1q2 -1 5 -4t5 -4q6 -2 8 -1q4 0 4 4zM127 291q-2 5 -8.5 5.5t-10.5 -3.5q9 -4 9 -9q-1 0 -3 -0.5t-3 -0.5v-2q7 0 11 1q10 2 5 9zM147 290l-6 4q0 -2 0.5 -6.5t1.5 -6.5q7 3 4 9zM525 280q10 3 8 10
q0 6 -10 3q0 -1 0.5 -3t0.5 -3q1 -2 1 -7zM554 283q-2 -1 -5 -1t-4 -1h29q-1 1 -2 4t-2 4q-6 4 -9 4q-3 1 -8 -1q0 -2 0.5 -5t0.5 -4zM591 280v6q-2 2 -7 6l-3 -2q1 -4 4 -7q1 -1 6 -3zM122 264q-2 7 -5 7q-8 0 -8 -7h13zM157 259v3q-3 0 -10.5 1.5t-11.5 2.5q-6 2 -6 -4
q0 -5 6 -5q3 1 10.5 1t11.5 1zM520 258q14 -3 29 2q1 1 1 2q-11 2 -29 4l-6 -3zM563 259l-4 4q-2 -2 -2 -4l1 -1q1 -2 2 -2zM99 240l-1 -1v-1q15 -4 20 -5q2 -1 4 1q3 0 3 3q0 1 -3 4q-2 2 -5 0q-3 0 -9 -0.5t-9 -0.5zM137 237q-1 -5 5 -7q4 5 -2 8q-3 0 -3 -1zM521 236
q0 -5 6 -6q3 5 -3 8zM588 228q3 2 3 3l-4 7l-3 -3q-1 -1 -1 -2zM572 224q1 1 5 3l-4 4l-20 3q-1 0 -4 -1.5t-5 -1.5q6 -1 16 -4t11 -3h1zM161 230q18 -2 31 -4q-15 13 -31 4zM290 215q0 5 20 18q-8 -20 -16 -22q-4 0 -4 4zM115 215q-1 4 -7 3l5 -5zM169 211q-1 -2 0 -2
q2 -7 9 -1q-5 5 -9 3zM552 210q0 -5 6 -5l2 1l3 3q-4 1 -8 3q-3 0 -3 -2zM152 209q-18 2 -24 0q5 -4 23 -6q3 0 3 3t-2 3zM515 210q-1 -1 -1 -4q3 0 10 -1.5t10 -2.5l2 2q2 2 3 2q-1 0 -2 1.5t-2 1.5q-7 1 -20 1zM488 173q15 -5 26 9q-3 0 -7 2t-6.5 2.5t-5.5 -0.5zM112 173
q11 1 18 10q-10 -2 -13 2h-8zM175 169q10 0 12 7q0 8 -8 8q-8 1 -10 -7q0 -7 6 -8zM559 170q10 0 10 6q0 8 -8 8q-7 0 -7 -8q0 -6 5 -6zM231 163q-21 -10 -7 -29q6 -10 11 -7q17 10 44.5 16.5t44.5 8.5t23 2q7 -2 10.5 6t-4.5 11q-21 7 -60 4t-62 -12zM493 157q-7 2 -9 -2
q-5 -5 3 -14q1 0 6 1.5t6 6.5q2 8 -6 8zM539 143q2 5 -3 8q-7 4 -17 -1q2 -1 6.5 -4t6.5 -4q5 -2 7 1zM149 142q3 -2 6 1q0 6 -2 7q-3 4 -11 1q0 -7 7 -9zM170 152l-3 -3q3 -3 5 -4l2 1q1 1 3 2zM462 143q8 -5 14 4q-10 2 -14 -4zM401 127q3 6 -2 8q-9 2 -12 -5zM461 130h-4
v1q-1 -1 -3 -1h-2q-5 -2 -3 -6q1 -4 7 -6t9 1q3 5 2 7q0 2 -6 4zM325 130q2 -7 7 -7q1 6 0 7t-7 0zM523 123q1 0 4 3q-4 4 -5 4t-7 -2v-3q6 -2 8 -2zM419 119q3 0 9 0.5t9 0.5q2 -5 5 -4q1 0 1 2q-1 0 -3 1t-3 1q1 6 -0.5 7.5t-6.5 0.5q-4 0 -14 -2q-3 0 -7 -2v-3
q2 0 5.5 -1t4.5 -1zM142 125v3h-6v-4q2 1 6 1zM362 119q1 1 4 1t4.5 0.5t3.5 2.5t3 5l-22 -3q1 -7 7 -6zM308 120l2 1l2 2l-4 4q-2 0 -6.5 -0.5t-7.5 -0.5q6 -8 14 -6zM507 118q2 6 -4 8q-15 2 -23 -3l18 -9q7 -4 9 4zM172 117q8 -1 13 4q-5 6 -13 3l-3 -3q0 -1 3 -4z
M205 116q2 0 5 3l-4 4q-4 0 -4 -3zM365 109h-10q6 -7 10 0zM433 98q0 8 -7 10q-3 0 -5 -5q0 -8 6 -8zM298 105q-2 0 -10 -5q7 -5 9 -6q5 0 6 1q2 5 1 7q-2 3 -6 3zM270 96l8 4q-8 4 -9 4t-2.5 -2t-2.5 -2q4 -4 6 -4zM343 102q-21 4 -31 -4q3 -2 6.5 -4t5 -2.5l3 -1t3 0.5
t4 2.5t5.5 5.5q2 2 4 3zM499 99q0 1 1 2q-6 4 -9 1v-3q3 -3 8 0zM382 98q5 -1 14 -3.5t12 -3.5q1 0 3.5 2t3.5 2q-18 13 -33 3zM476 90v3q-12 9 -28 7q-6 0 -4 -6h16q4 0 16 -4zM199 90q10 2 11 6l-12 -3v-1zM332 65h1q5 2 6 6q0 4 -4 7q-7 4 -15 -2q-4 -3 -10 -2
q-9 4 -13 -5l2 -2q4 -1 16.5 -0.5t16.5 -1.5zM387 66q9 0 16 12q-18 -2 -20 -3q-6 -2 -9 -1q-8 1 -22 1q-3 0 -5 -1.5t-1 -3.5q0 -2 5 -5h13q4 0 11.5 0.5t11.5 0.5zM232 68l8 -2q0 9 -6 9q-1 0 -2.5 -1.5t-2.5 -1.5q2 -4 3 -4zM444 63q1 0 5 4q-3 5 -4 5q-3 1 -9 2t-7 1
t-1 -1h-10q-4 0 -4 -3q-1 -1 0 -2.5t2 -1.5zM277 68q3 5 -3 5q-2 1 -5 0t-4 -1v-3l6 -3q5 0 6 2zM456 73l8 -9q-1 8 -8 9zM204 65l3 2l-4 4l-2 -1zM247 62q1 -1 2 0q0 1 0.5 1h1.5q-2 4 -3 4q-2 0 -4 -0.5t-3 -0.5zM424 44q2 0 6 -1t6 -1q-1 7 -2.5 9.5t-4.5 1.5
q-7 -1 -5 -9zM340 42q6 -2 7 3q0 5 -7 5q-4 0 -6 -6q4 -2 6 -2zM388 41l3 3l-3 4l-1 -1q-2 -1 -2 -2t1 -2q2 -1 2 -2zM273 38q1 -1 6 2l-4 4q-8 4 -16 1z" />
    <glyph glyph-name="agrave" unicode="&#xe0;" horiz-adv-x="341" 
d="M205 154q0 -10 17 -13t33 2t14 16q-7 49 -18 173q6 1 19 5q8 4 6 9q-1 2 -4 1q-12 -3 -21 -4q-2 18 -2 23q32 39 32 65q0 10 -7 18t-22 8q-31 0 -43.5 -21.5t-12.5 -71.5q0 -11 1 -17q-10 2 -24 9q-4 2 -9 -7t-1 -12q6 -5 34 -7q0 -5 0.5 -15t0.5 -16q-7 -23 -46 -31
q-9 80 -58 80q-11 0 -20.5 -8.5t-9.5 -27.5q0 -5 2 -17q-6 -13 -6 -30q0 -29 13 -52.5t41 -23.5q33 0 38 63q30 4 47 21q6 -102 6 -119zM247 387q-2 6 -2 12q-3 43 16 43q6 0 6 -11q0 -20 -20 -44zM102 272q-2 21 3 32q3 15 -12 15q-2 0 -14 -6q0 18 18 18q17 0 27 -15.5
t12.5 -28t2.5 -20.5q-16 -4 -37 5zM126 224q-16 0 -23 30q26 -3 39 -3q-2 -27 -16 -27zM82 114q16 10 38.5 17.5t36 10t18.5 2.5q7 -1 10 7.5t-6 10.5q-50 11 -104 -13q-19 -8 -6 -28q8 -10 13 -7z" />
    <glyph glyph-name="aacute" unicode="&#xe1;" horiz-adv-x="586" 
d="M100 141q30 6 41 45q2 -12 5 -21t10.5 -17.5t18.5 -6.5q17 3 27.5 32.5t11.5 72.5q14 5 21 22v-72q1 -23 34 -13q21 7 25 15q11 22 21 57q-2 -22 1 -40q2 -16 29 -11q29 5 33 11q9 13 18 59q1 -36 1 -68q2 -6 14.5 -5.5t27 6t13.5 10.5q0 8 -1 16q-1 32 7.5 67.5
t17.5 38.5q2 1 4 -3.5t3 -12t1.5 -16.5t0.5 -20v-19.5v-17.5v-12q1 -9 21 -3.5t20 10.5q0 60 -13 91t-34 27q-25 -5 -37 -52q-9 92 -13 112q-1 5 -11.5 6t-19.5 -2t-8 -8q4 -15 6 -105q-3 -22 -18 -67q-6 -21 -8 -1q0 4 -5 32t-7 50q15 5 22 9q6 3 5 10q0 3 -2 1
q-13 -7 -27 -9l-2 23q0 2 -1 6t-1 5.5t-1 4.5t-2.5 4.5t-3.5 3t-4.5 2t-6.5 0.5t-9 -1q-14 -3 -14 -8q6 -6 6 -45q-5 1 -14 3t-11 2q-2 1 -5.5 -3.5t-4.5 -9t2 -6.5l33 -2v-6q-2 -38 -23 -87q-7 -14 -10 6q-2 10 -13 67q-2 13 -9.5 15.5t-11.5 -0.5q-6 -1 -10.5 -3.5
t-7 -4.5t-1.5 -4q0 -29 -17 -40q-1 27 -9 44t-24 14q-28 -5 -26 -32q0 -15 14.5 -30t31.5 -14q1 -28 -5 -53.5t-16 -26.5q-10 -2 -13.5 26.5t-1.5 41.5q1 4 -5.5 6.5t-14 1.5t-7.5 -5t-0.5 -12.5t-1 -12.5t-1 -10.5t-2 -10t-3.5 -7t-5 -5.5t-7 -3q-6 -1 -10.5 10t-6 22.5
t-1.5 22.5q0 39 9 57q2 5 -8 8q-21 6 -26 -4q-15 -36 -15 -84q0 -24 9 -45.5t31 -18.5zM248 346q4 1 11 9.5t7 12.5q0 5 -4 9.5t-9 3.5q-14 -2 -17 -15q-1 -7 2.5 -14t9.5 -6zM201 257q-10 1 -18 11t-8 25q0 11 7 12q15 3 19 -48zM236 96q25 17 70.5 28.5t73.5 14.5t39 3
q7 -1 10 7.5t-6 10.5q-26 6 -94 -2t-100 -27q-19 -11 -5 -29q7 -8 12 -6z" />
    <glyph glyph-name="acircumflex" unicode="&#xe2;" horiz-adv-x="496" 
d="M149 168q12 4 19 7t15.5 9t11.5 16.5t2 24.5q-3 25 -17 84q18 8 20 11q8 5 5 13q-1 2 -3 0q-5 -4 -25 -11q-11 49 -18 65q21 0 36 4q31 9 29 30q-1 5 -4 6q-14 -14 -34 -16.5t-38.5 0t-42.5 -4.5q-23 -6 -34.5 -20.5t-10.5 -30.5q1 -8 5.5 -13t8.5 -5t6 1q2 19 13.5 28.5
t36.5 16.5q1 0 3 0.5t3 0.5q-8 -6 -9 -10l4 -63q-14 -3 -23 4q-2 1 -5.5 -3.5t-4.5 -9t3 -7.5q9 -3 31 2q5 -73 5 -98q-1 -13 -11 -16q-7 -1 -11.5 7t-2.5 19q0 2 -5.5 2.5t-10.5 -3t-5 -10.5q4 -46 58 -30zM284 209q33 11 31 75q32 22 32 81h1q7 -2 13 -3t7 -1q6 -2 4 -13
q-2 -12 -6 -47t-3 -46q0 -9 1 -12.5t3.5 -7.5t8 -5t14.5 0q32 2 45 20q3 5 -1 5h-2q-5 -1 -6.5 3t-2.5 17q0 6 -3.5 46t-5.5 49q-3 14 -13 10q-25 -7 -53 -1q-1 0 -1 1v7q-1 13 -8 22t-15 4q-10 -8 -6 -20t14 -19q2 -55 -20 -72q-2 22 -15 38.5t-41 8.5q-9 -2 -17.5 -12.5
t-7.5 -27.5q1 -3 4 -14q-4 -18 -2 -29q0 -26 13 -44.5t38 -12.5zM267 286q-3 12 2 26q1 6 -3 9t-10 1q-6 -1 -11 -7q-1 14 13 18q16 5 25.5 -3.5t11 -17t1.5 -17.5q-12 -11 -29 -9zM292 244q-6 -2 -12 5t-10 19q17 0 32 8q0 -30 -10 -32zM198 107q25 17 71 28.5t74 14.5
t38 3q7 -1 10 7.5t-6 10.5q-26 6 -94 -2t-100 -27q-19 -11 -5 -29q7 -8 12 -6z" />
    <glyph glyph-name="atilde" unicode="&#xe3;" horiz-adv-x="562" 
d="M150 146q0 -6 10.5 -8.5t23 0.5t16.5 10q5 8 12.5 32t13.5 47l5 23l3 7v-3q-2 -38 -2 -76q0 -7 11.5 -7.5t22 4.5t9.5 11q-2 34 2 62.5t11 29.5q5 1 8 -14t4.5 -34.5t1.5 -21.5q1 -16 9 -18q4 -1 11 0q25 5 31 20q1 3 9 26q9 -34 40 -28q24 4 42 38q0 -11 2 -27
q3 -14 20 -11q13 3 22.5 10.5t12.5 13t0 5.5q-1 0 -2.5 1t-2.5 4t-1.5 5.5l-1.5 7.5q-2 12 -10 64t-12 85q21 17 21 40q0 26 -28 23q-24 -3 -31 -28q-2 -9 -1.5 -14.5t1.5 -12.5t1 -9q-129 -51 -283 -38q-7 1 -8 -17q-2 -21 16 -22q70 -4 156 15.5t122 42.5q2 -10 4 -52
q-11 9 -28 6q-21 -4 -37.5 -24t-16.5 -51v-4q-4 -13 -10 -29q-5 -15 -6 1q-4 30 -14.5 51.5t-31.5 18.5t-30 -41q-2 25 -3 32q-3 19 -20 16q-12 -3 -14 -10q-1 -3 -2.5 -14.5t-3.5 -20.5q-16 -65 -18 -69q-4 -10 -7 0l-5 24q-4 25 -8.5 49.5t-6.5 30.5q-1 6 -14 5t-13 -8
q0 -17 -1 -34q-12 -62 -37 -66q-14 -2 -14 22q0 18 12 36t25 20q5 0 -1 9q-5 6 -12 6q-25 -4 -44.5 -28t-19.5 -54q0 -25 12 -34t28 -6q15 3 29 20.5t21 40.5q-2 -52 0 -81zM422 251q-19 -3 -19 30q0 19 7 31t17 14q2 1 9 -1q3 -4 5 1q2 -34 2 -59q-10 -14 -21 -16zM253 96
q25 17 70.5 28.5t73.5 14.5t39 3q7 -1 10 7.5t-6 10.5q-26 6 -94 -2t-100 -27q-19 -11 -5 -29q7 -8 12 -6z" />
    <glyph glyph-name="adieresis" unicode="&#xe4;" horiz-adv-x="501" 
d="M123 169q16 4 24.5 7.5t17 15t8.5 29.5q1 35 -19 155v1q18 2 52 0q0 -21 -3 -88.5t-2 -86.5q0 -7 13 -7.5t25.5 5t11.5 13.5q-4 34 6.5 68t20.5 36q6 2 6 -30q1 -12 0 -38q-1 -28 0 -34q1 -9 17.5 -8t21.5 9q23 36 24 38q10 -23 35 -18q43 9 59 76q-2 2 -6 4
q-11 -38 -35 -43q-9 -2 -14 4t-6 15q36 14 36 47q0 12 -7 19.5t-19 4.5q-18 -5 -32.5 -27.5t-14.5 -46.5q0 -16 1 -23q-12 -18 -18 -24q-5 -5 -7 3v5q-1 47 -8.5 69.5t-28.5 16.5q-19 -5 -36 -45q-4 76 -5 82q0 4 -2 12q12 11 12 23q0 25 -19 28q-10 1 -17.5 -5t-8.5 -11
q-4 -11 -2 -18q-4 0 -24.5 3.5t-29 3t-34.5 -3.5q-27 -5 -41.5 -21t-14.5 -31q-1 -15 10 -18q4 -2 5 1q8 28 52 37l5 2q-8 -6 -8 -9q-7 -160 -8 -166q-4 -12 -12 -14q-7 -1 -10.5 7t-1.5 19q1 1 -1 2q-10 3 -16 -6q-2 -2 -2 -6q0 -22 14 -30.5t36 -2.5zM380 303q-2 13 3 29
t13 17q3 1 5 -2.5t2 -8.5q0 -12 -7.5 -22t-15.5 -13zM184 107q25 17 70.5 28.5t73.5 14.5t39 3q7 -1 10 7.5t-6 10.5q-26 6 -94 -2t-100 -27q-19 -11 -5 -29q7 -8 12 -6z" />
    <glyph glyph-name="aring" unicode="&#xe5;" horiz-adv-x="444" 
d="M313 171q26 3 48.5 24.5t22.5 64.5q0 17 -4 43.5t-8.5 49t-4.5 24.5q-2 4 -8.5 3.5t-14 -4.5t-7.5 -7q0 -17 -5.5 -40.5t-11 -39t-7.5 -17.5q-3 -8 -7 3l-1 7q-1 6 -3.5 27.5t-4.5 27.5q-4 18 -26 8q-10 -5 -9 -9q0 -39 -20 -61q5 23 -6 48t-32 22q-32 -6 -43 -65
q-6 33 -8 63q31 38 31 72q0 21 -25 18q-27 -5 -38 -27t-11 -69v-5q-33 -16 -44 -12q-3 1 -4 -4q-6 -14 3 -19q1 -1 3 -1q15 0 42 18q0 -23 1.5 -54t1.5 -53q0 -13 28 -10q14 1 21 7t6 14q0 1 -0.5 5l-1.5 12t-2 15q0 15 4 27q8 35 20 37q10 2 17.5 -11.5t7.5 -35.5
q0 -8 -2 -24l-7.5 -5t-7 -4.5t-6 -4t-5.5 -4.5t-3.5 -4t-2.5 -4t-1 -4q0 -14 18 -11q32 6 42 51q21 19 29 50v-52q2 -19 26 -14q6 1 10 2.5t6 2t4.5 3.5t3 4t2.5 6t3 6q3 7 15 45v-58q0 -20 -4 -34t-8.5 -19.5t-8.5 -6.5q-15 0 -10 20q0 2 -3 3q-13 6 -20 -6q-6 -13 2.5 -25
t27.5 -9zM151 359v8q-5 51 16 54q4 1 5.5 -1.5t1.5 -7.5q0 -28 -23 -53zM193 212q-3 0 -3 4q0 5 18 16q-8 -19 -15 -20zM133 127q17 10 44.5 16.5t44.5 8.5t23 2q7 -2 10.5 6t-4.5 11q-21 7 -60 4t-62 -12q-21 -10 -7 -29q6 -10 11 -7z" />
    <glyph glyph-name="ccedilla" unicode="&#xe7;" horiz-adv-x="741" 
d="M511 204q112 20 115 20q2 1 1.5 8t-3.5 13t-7 4q-2 -1 -6.5 -2.5l-7.5 -2.5l-7.5 -2.5t-8.5 -3t-8 -2.5t-6.5 -1.5t-5 -0.5t-4 1t-1.5 2q0 3 -4 50q0 1 -0.5 3.5t-1 6t-0.5 7.5q8 1 17 3.5t14.5 4t6.5 1.5q11 2 9 16q-2 8 -6 8q-6 -3 -35 -9q-3 -1 -6 -1q-4 83 -5 84
q0 5 23.5 7t35.5 1t15 16q1 12 -6 12q-6 -1 -46.5 -6t-62.5 -11.5t-22 -15.5q0 -4 1.5 -45.5t3 -81t1.5 -41.5q2 -30 4.5 -36.5t12.5 -5.5zM449 196q-1 26 -4 78t-5.5 91t-2.5 43q-2 12 -26.5 6.5t-24.5 -15.5q0 -12 6 -104q-34 -17 -74 -19q-1 17 -2.5 51.5t-3.5 51.5
q0 10 -15.5 10.5t-31 -5t-15.5 -9.5q1 -29 4.5 -114t3.5 -95q0 -8 16.5 -8.5t33 5.5t16.5 14l-1 12q-1 12 -1.5 29.5t-0.5 31.5q54 19 71 21q0 -18 1.5 -45.5t1.5 -32.5q0 -15 39 -5q15 5 15 8zM179 149q-1 16 -3.5 60.5t-5 81.5t-3.5 56l49 8q5 1 6.5 8t0 13t-4.5 6
q-8 -2 -70 -12l-9 -2q-13 -2 -29.5 -5t-27 -5t-14.5 -3q-6 -1 -7.5 -8.5t1 -14.5t6.5 -6q1 0 8 1.5t18.5 4.5t21.5 6q9 -144 9 -193q0 -8 14 -8t27.5 4.5t12.5 7.5zM622 168q-89 -2 -255.5 -44t-220.5 -44q-24 -1 -40.5 7.5t-17.5 24.5q-1 8 -8 -6q-7 -16 -6 -32
q4 -60 79 -57q78 2 247.5 58.5t239.5 53.5q11 -1 18 -8.5t7 -16.5q1 -8 9.5 1t7.5 21q-3 42 -60 42z" />
    <glyph glyph-name="egrave" unicode="&#xe8;" horiz-adv-x="963" 
d="M903 291q4 -119 -109.5 -205t-289.5 -86q-208 0 -328 82.5t-116 203.5q4 126 120 206.5t336 72.5q68 0 132.5 -15.5t122 -46t94 -85.5t38.5 -127zM565 534q-1 -6 6 -6q4 -1 6 4q0 5 -8 7q-3 -3 -4 -5zM378 536l-2 -1l-2 -2q3 -3 4 -3h8l1 3zM492 530q-9 10 -28 0
q1 -7 8 -7q13 0 20 7zM553 528q-18 9 -26 2q18 -7 26 -2zM504 534l-2 -4q0 -1 2 -3q2 2 2 3zM621 528q-18 6 -29 2l19 -6q8 0 10 4zM349 531q-7 -2 -5 -10q1 -5 8 -3l20 -1l4 1l-2 2l-1 2l-16 9q-3 2 -8 0zM420 531q-18 0 -26 -4q2 -1 4.5 -2t3.5 -1h10q9 1 15 3zM675 524
q-4 2 -13 -3q9 -3 13 3zM541 505q1 3 -1 5t-5 1q-3 0 -6 -3q-1 -2 2 -5t7 -3q3 3 3 5zM466 508q-7 -1 -6 -8q3 -9 14 -16v18q0 8 -8 6zM585 506q-8 2 -29 0q-1 0 -2.5 -1.5t-2.5 -1.5l2 -3q13 3 28 -4q7 -3 8 2t-4 8zM410 502q1 2 -1.5 4t-4.5 1q-2 0 -4 -3q0 -2 5 -10
q1 2 2 3.5t2 2.5t1 2zM517 506q-11 3 -35 -6l2 -4q21 -3 22 -3q10 0 11 13zM598 505q2 -4 4 -6l3 4q-1 3 -4 4zM452 503q-8 8 -19 -1q6 -7 15 -7q3 0 5 4zM660 505q-6 -3 1 -16q14 2 11 11q-2 8 -12 5zM275 503q-4 -3 2 -14q1 1 6 2t6 5q0 6 -5 8q-1 1 -4.5 0.5t-4.5 -1.5z
M345 503l-4 -7q1 -1 6 -4q3 3 3 4q-1 1 -2.5 3.5t-2.5 3.5zM378 492q6 -1 7.5 1t0.5 9q-3 -1 -9 -2.5t-9 -2.5l1 -2zM326 500q-9 3 -17 -2q2 -1 6 -4t6 -4q6 -4 8 1q4 6 -3 9zM710 499q-7 4 -14 -1q2 -1 5 -4t5 -4q1 -2 3.5 -1.5t3.5 2.5q2 5 -3 8zM650 495q-26 11 -35 1
q1 -4 8.5 -2t9.5 2q2 -8 7 -8q9 0 10 7zM728 499l-2 -3q2 -2 3 -2t2 1l2 2q-4 2 -5 2zM265 496q-11 2 -13 -6q7 -2 8.5 -1.5t4.5 7.5zM561 479l13 -6q5 6 0 10q-5 5 -13 -4zM497 481q0 -6 2 -7q1 -2 7 -6q4 12 -1 13h-8zM305 475q-1 -2 2 -4t6 -1q2 0 6 4l-6 6
q-1 -1 -4 -2.5t-4 -2.5zM696 480q-1 -1 -4 -3t-3 -3q2 -6 8 -4q2 0 6 4q-1 1 -3 2.5t-4 3.5zM429 478q-2 -2 0 -6q3 -6 12 0l-4 4q-2 2 -3 2h-5zM622 474q0 -8 9 -8q1 -1 3 -1q8 0 8 8q0 5 -7 5h-3q-8 1 -10 -4zM460 474q9 -12 23 -8q5 2 5 6q0 6 -4 6q-18 0 -24 -4z
M248 478q-9 0 -9 -4q0 -7 8 -9h3q8 2 8 8q0 5 -7 5h-3zM207 474l-2 -1l-4 -2q5 -3 26 -3q2 -5 6 -4q0 4 -6 4q0 6 -1 7.5t-6 0.5q-2 0 -6.5 -1t-6.5 -1zM583 471q4 -4 16 -4t15 -3h1q1 0 3 1q-3 6 -7 10q-2 2 -5 1q-6 0 -18 -2q-1 0 -2.5 -1.5t-2.5 -1.5zM552 476
q-9 0 -27 -2q5 -9 11 -8q13 2 16 10zM293 474q-14 2 -23 -3l18 -9q7 -3 9 3q4 7 -4 9zM676 474q-13 2 -23 -2l19 -10q4 -2 7 0q3 3 3 7q-2 5 -6 5zM411 466q0 8 -9 8q0 -5 1 -6t8 -2zM730 473q-2 0 -4 -5q0 -2 4 -4q8 -2 16 4q-6 7 -16 5zM386 467q2 6 -6 6q-3 1 -5 -0.5
t-1 -4.5q1 -8 5 -9q6 4 7 8zM351 463q1 1 3 1t3 1q4 0 4 3q0 4 -3 4q-4 1 -12 1q-4 0 -4 -4q3 -3 4 -5h2q2 0 3 -1zM761 472q-5 -4 1 -12q8 6 6 9q-1 1 -3.5 2.5t-3.5 0.5zM535 451q5 2 3 7q-3 -1 -10 -1q3 -7 7 -6zM607 449q0 7 -7 7q-5 -1 -5 -6q0 -7 8 -7q3 3 4 6z
M211 452q0 -9 6 -9q5 0 6 5q0 2 -2 5t-4 2q-2 0 -4 -1zM479 446q2 6 -5 8q-8 0 -11 -7q2 -1 4.5 -3t3.5 -2q6 -3 8 4zM437 449q-1 -4 5 -6q8 -2 8 7q-3 3 -6 3q-7 2 -7 -4zM309 445q-11 -2 -18 5q-6 7 -12 -4q4 -1 11 -3.5t10 -3.5q1 -1 5 -1q11 2 18 -4q8 -4 11 4
q-9 9 -25 7zM507 441l12 10q-25 4 -31 -6q9 -5 11 -5q4 -1 8 1zM693 445q-11 -2 -18 5q-7 6 -11 -4q5 -2 13 -4l15 -3l13 -3q9 -3 12 2l-1 1q-1 2 -2 2q-14 4 -21 4zM557 446q22 -6 26 -6q2 -1 3.5 0.5t1.5 4.5q-18 9 -31 4v-3zM205 443q-19 12 -31 3q5 -1 13.5 -3.5
t11.5 -3.5q1 0 3 2q2 1 3 2zM351 440q2 8 -4 9q-5 0 -5 -6zM617 444q1 -3 8 -2t8 1q7 -2 17 -4q-6 7 -16.5 8.5t-16.5 -3.5zM237 442q15 2 26 -4q1 0 5 2q-8 7 -19 8t-17 -5q4 -1 5 -1zM735 441q-2 6 -3.5 6.5t-6.5 -3.5zM366 441q4 -4 19 -2q1 0 2 2l1 2q-1 0 -3 2l-2 1
q-1 0 -17 -5zM771 444q-6 2 -18 -4q13 -6 18 4zM408 432q-1 8 -8 9q5 -8 8 -9zM408 426q-2 -3 -6 -7l6 -4q5 0 5 4q0 1 -2 3t-3 4zM493 419q3 0 7.5 -1.5t6.5 -1.5q1 0 2 2q2 2 3 2q-2 5 -5 5q-7 3 -14 -6zM175 424q-3 0 -3 -5q2 -4 4 -5q11 -5 16 11q-11 0 -17 -1zM316 421
v3q-1 0 -3 0.5t-4 0.5q-1 0 -5 -3l4 -2l1 -1q3 0 7 2zM699 421l-1 2q-4 3 -8 -4q2 0 4.5 0.5t4.5 1.5zM235 411q1 0 5 4q0 5 -4 5q-5 2 -17 4v-1q-4 -1 -12 -1q-3 0 -3 -3q0 -4 2 -4q16 -5 29 -4zM256 411q-2 8 -3 9.5t-8 1.5q8 -11 11 -11zM527 422q-1 0 -5 -4q3 -3 4 -3
q8 -2 19 5q-3 0 -9 1t-9 1zM791 422q-1 0 -2 -1l-2 -2l6 -3q1 -1 5 3q-4 3 -7 3zM139 418q-1 -1 0 -2t2 -1l9 -3v1q9 0 13 1q4 0 4 3q0 4 -3 4h-23q-2 0 -2 -3zM614 412q7 0 7 4q1 5 -7 5q-14 0 -21 -1v-3q14 -4 21 -5zM383 412q0 4 -1.5 6.5t-5.5 1.5q-1 0 -2.5 -1.5
t-0.5 -2.5q1 -7 10 -4zM292 415q-11 11 -22 -1q8 -2 22 1zM674 416q-9 6 -19 -3q3 1 9.5 1t9.5 2zM766 415q-1 1 -2.5 2t-2.5 2l-2 -2q1 -2 4 -5zM357 416q-15 0 -18 -6h7q8 1 11 6zM212 393q0 -6 10 -6q7 -2 7 5q0 4 -3.5 7t-6.5 3t-5.5 -3t-1.5 -6zM175 393q2 -4 5 -4
q3 -1 9 -1t9 -1q3 0 7 1l-2 4q-9 9 -26 4q-1 -1 -2 -3zM130 397q-3 0 -3 -3q1 -4 7 -4q1 0 3 1q0 6 -7 6zM384 389q1 -1 7 -1q-2 6 -3 7t-5 1q-2 0 -2 -3t3 -4zM156 393q-2 -5 5 -5q3 6 -3 7q-2 -1 -2 -2zM577 214q1 19 2 64t2 75.5t2 34.5q0 4 -9.5 5t-18.5 -1.5t-9 -7.5
q-1 -5 2.5 -79.5t1.5 -82.5q-64 154 -66 157q-3 7 -11 10.5t-17 4t-17.5 -1.5t-14 -6t-4.5 -9q0 -20 -4.5 -100.5t-6.5 -95.5q0 -5 9.5 -8.5t19 -2.5t9.5 7q0 61 -1 150q3 -7 23.5 -62.5t29.5 -75.5q11 -23 41 -23q19 0 26.5 8.5t10.5 39.5zM820 393l6 -4q6 -4 11 -1
q-9 8 -17 5zM335 179q6 -15 37 -6q16 5 16 12q-5 28 -30.5 100t-35.5 94q-4 12 -26.5 12.5t-27.5 -12.5q-23 -61 -62 -198q-2 -4 6 -7q19 -6 27 1l1 2q6 30 13 54q30 0 62 4q12 -36 20 -56zM805 283q0 30 -11 52.5t-28.5 33t-32.5 15t-29 4.5q-26 3 -53.5 -0.5t-28.5 -11.5
q-1 -35 -1 -168q0 -23 3 -29t15 -6h64q42 0 72 30.5t30 79.5zM199 367q-2 1 -3 2t-2 1.5t-2 0.5q-6 0 -5 -6q0 -3 4 -3q1 0 8 5zM112 368q0 -2 -1 -3q3 -2 7 -6q5 -3 7 -1q3 3 3 7q-2 5 -5 5t-11 -2zM175 361q-19 15 -31 3q12 -10 23 -7q2 0 8 4zM236 368q-12 2 -16 -3
q3 -4 11 -2zM100 366q-2 -4 -1 -5q0 -1 1 -3q2 0 4 2l-1 2q-2 2 -3 4zM693 355h3q10 0 16.5 -1t17 -7t16 -22t5.5 -42q0 -82 -56 -82q-8 0 -11 0.5t-5 2.5t-2 7v130q0 8 3 11t13 3zM129 338q0 -7 6 -6q1 0 2 1t2 1q0 4 -2.5 6.5t-4.5 1.5q-3 0 -3 -4zM179 338q5 -7 18 -9
q7 0 9 5q-16 11 -27 4zM861 336q2 1 4 1l-3 3q-1 1 -2 0.5t-1 -1.5zM94 340l-2 -2q0 -1 1.5 -2t1.5 -2l4 4q-4 2 -5 2zM258 252q20 76 22 87q3 -10 13 -39t16 -45h-15zM135 311q2 10 -8 10q-5 0 -6 -5q0 -2 3 -5t6 -3q2 0 5 3zM196 315l-1 2l-2 4l-4 -6q0 -1 3 -4q4 0 4 4z
M145 312q4 0 11 -1.5t10.5 -2t10.5 0.5q0 6 -9 9q-2 1 -3 1q-9 4 -20 -7zM218 314q-2 0 -4.5 0.5t-3.5 0.5q3 -6 8 -1zM113 310q-7 6 -17 -4q10 2 17 4zM150 290q-1 -5 5 -7q1 -1 3 -1.5t3 -0.5q4 2 5 4q3 5 -4 7h-5q-5 0 -7 -2zM181 288q-6 -2 -6 -8q6 3 16 0t15 -1
q-7 11 -25 9zM108 284q4 -4 8.5 -4.5t9.5 0.5t8 1q6 0 7 6q-1 0 -3.5 1t-3.5 0q-24 -3 -26 -4zM91 278q1 6 -4 7q0 -1 1 -2.5t2 -2.5t1 -2zM122 251q6 7 5 10q-7 -3 -5 -10zM88 257q8 -6 22 -2q-8 6 -22 2zM171 252q3 0 3 4q0 3 -4 3l-9 -3q0 -2 1 -3q6 -2 9 -1zM854 256
q1 -1 4 -1.5t4 -0.5q-3 7 -8 2zM153 255q-7 6 -15 -2q8 -8 13 -4q5 2 2 6zM155 236q-6 0 -6 -7q0 -5 7 -5q6 0 7 5q1 2 -1.5 4t-6.5 3zM838 228q1 1 -1 4l-3 -4q2 -2 2 -3q2 2 2 3zM133 230q-9 1 -19 -6q9 -5 25 -3l1 6q-3 3 -7 3zM196 227q-4 3 -19 -2q7 -4 19 2zM127 207
q1 -6 7 -5q0 6 -7 5zM145 200q21 -6 26 -4q-5 14 -26 4zM162 175q0 -1 0.5 -0.5l1.5 1.5q-1 1 -2.5 3.5t-2.5 3.5q-3 -8 3 -8zM133 173q8 -3 11 3q-5 3 -11 -3zM192 177q-8 2 -11 -5h11q2 0 2 3q0 2 -2 2zM305 172q14 -5 21 -2q-8 4 -21 2zM780 166q1 0 4 3l-4 2l-3 -3l2 -2
t1 0zM182 150q-1 -2 1 -3.5t5 -1.5q1 0 6 5q-2 1 -4.5 3t-3.5 2q-4 0 -4 -5zM579 148q-1 1 -3 2.5t-3 2.5t-2 1q-5 2 -5 -4t5 -6zM491 147q-9 9 -27 -1q10 -17 27 1zM373 149l6 -4h7l1 3q-1 1 -7 4q-1 0 -7 -3zM758 149q9 -6 13 -1q-5 6 -13 1zM276 137q14 -9 28 9
q-15 8 -24 3q-3 -7 -4 -12zM660 137q11 -7 26 8q-6 0 -7 1q-4 5 -13 3l-2 -4t-2 -4.5t-2 -3.5zM529 147q13 -8 23 -2q-19 5 -23 2zM353 134q10 3 17 -1h5q0 3 -1 4q-6 3 -18 11h-4q-6 -2 -7 -4q-2 -4 0 -9q1 -1 4 -1.5t4 0.5zM591 145l25 -6q2 0 2 1q3 0 3 3l-2 2
q-24 3 -28 0zM733 134q12 -2 12 7q0 7 -8 7q-7 0 -9 -9q0 -5 5 -5zM225 142q8 -4 13 2q-16 5 -25 1zM163 143v2q-7 3 -13 0q10 -2 13 -2zM420 141q1 0 5 2l-1 2q-3 2 -13.5 1t-15.5 0l2 -5h23zM541 120q0 7 -7 7q-3 0 -4.5 -1t-0.5 -3q0 -3 3 -5.5t5 -1.5zM466 124
q-7 -2 -6 -7q3 -11 15 -16v17q-1 7 -9 6zM406 113l7 5q-7 5 -9 5q-5 2 -5 -4q0 -8 7 -6zM505 109q7 -1 9 1.5t3 10.5q-8 3 -32 -4q-2 0 -2 -3t2 -3q14 -2 20 -2zM556 123q-6 0 -4 -6l24 -3q2 0 4.5 -1.5t3.5 -1.5q3 -1 4.5 1t0.5 5q0 3 -5 5q-4 0 -14 0.5t-14 0.5zM600 106
q7 9 5 14q-2 6 -7 1q0 -1 0.5 -3t0.5 -4q0 -4 1 -8zM274 120q-2 -3 3 -15q1 0 4.5 1t5.5 2.5t2 4.5q0 4 -4 8q-8 4 -11 -1zM660 121q-6 -3 1 -16q9 2 11 4.5t1 6.5q-4 10 -13 5zM453 115l-1 4q-8 8 -19 0q5 -8 15 -8q3 0 5 4zM202 115q1 0 3 2q-10 7 -18 3q10 -6 15 -5z
M341 113q0 -5 6 -5q3 0 3 4q-1 2 -5 6l-3 -3zM368 112l1 -1q6 -2 9 -2q5 -2 7 0t1 9q-13 -2 -18 -6zM327 115q-10 5 -19 -1q6 -3 14 -9q6 -2 8 2q2 5 -3 8zM713 107q3 6 -3 8q-8 5 -18 -1q3 -2 7 -4.5t6 -3.5q5 -3 8 1zM258 104q7 2 8 8q-1 0 -9.5 2.5t-13.5 2t-10 -3.5v-3
q10 2 16 2q4 -9 9 -8zM641 104q8 2 9 7q-26 11 -35 1q2 -4 8.5 -2t9.5 1q2 -8 8 -7zM726 114q-1 -4 6 -6q3 6 -2 8q-4 0 -4 -2zM574 89q5 6 1 10q-6 3 -17 -3zM497 96q-2 -2 1 -5q2 -4 9 -7q3 14 -5 14q-5 0 -5 -2zM313 86q2 -1 4 0.5t1 3.5q0 1 -5 6q-7 -5 -7 -6q0 -4 7 -4
zM642 89v2q-1 3 -9 3.5t-10 -1.5q0 -1 -1 -3q0 -9 12 -9q8 0 8 8zM429 89q2 -10 12 -1q-5 6 -7 6q-2 2 -5 0q-1 -1 -1 -2.5t1 -2.5zM482 82q7 2 6 6q-1 7 -8 6q-9 0 -13 -1l-6 -3q7 -10 21 -8zM698 86q2 0 4 4q0 2 -4 4q-2 0 -5 -0.5t-4 -0.5v-4zM252 84q2 1 6 5l-4 4
q-4 1 -9 0q-4 0 -4 -3q0 -4 3 -4q2 -2 8 -2zM537 82q13 2 15 10q-5 0 -14 -0.5t-13 -0.5q5 -10 12 -9zM608 85q1 1 3 5q-4 2 -5 2q-5 0 -19 -2l-6 -3q12 -7 27 -2zM294 79q5 5 3 7q-2 4 -7 4q-2 0 -7.5 -0.5t-9.5 -0.5q12 -8 13 -9q5 -4 8 -1zM678 79q3 1 3 7q-2 4 -6 4
q-13 0 -20 -1v-2q3 -1 8 -4t8 -4q5 -2 7 0zM386 84q0 7 -7 5q-7 0 -5 -6q0 -4 2 -6.5t4 -1.5q5 5 6 9zM401 89q1 -9 10 -6q-1 7 -10 6zM360 84q2 4 -3 4q-4 1 -12 1q-3 0 -3 -5q0 -3 3 -3q2 -1 5 -1q5 0 7 1q3 0 3 3zM729 86q5 -5 9 0q-4 4 -9 0zM529 71q5 -5 11 2
q-8 2 -11 -2zM606 65q2 6 -6 6q-2 1 -3 -0.5t-1 -4.5q0 -6 7 -7zM477 59q2 5 1 7q-2 4 -6 4q-1 0 -3.5 -2t-4.5 -2v-3l2 -1q3 -2 5 -3q4 -2 6 0zM450 64q1 1 0 2t-3 2t-5 1q-5 -3 -5 -5q-1 -3 1.5 -4.5t5.5 -0.5q4 0 6 5zM488 62q10 -6 14 -5.5t15 9.5q-24 3 -29 -4zM584 56
q1 0 4 3q-19 15 -33 3zM666 62l8 2q-6 6 -8 -2zM620 59q3 0 9 0.5t10 0.5q-12 7 -19 2v-3zM385 56q1 0 3 4q-7 2 -17 -5q6 -3 14 1zM321 58q5 -5 10 -2q-2 0 -10 2zM510 34q3 6 -3 6q-9 2 -12 -4q3 0 8 -1t7 -1zM560 34q3 0 3 2l-2 4l-3 -3q0 -3 2 -3z" />
    <glyph glyph-name="eacute" unicode="&#xe9;" horiz-adv-x="1210" 
d="M284 -12q-24 -2 -40.5 5t-23.5 15t-19.5 30t-19.5 32q-5 7 -19 24.5t-26 34.5t-27.5 40t-25.5 45.5t-17.5 46.5t-6 47.5t12.5 44.5q18 35 67 81.5t89 74.5q30 21 58 25t77 -1q48 -3 280.5 -6t288.5 -2q33 1 46 -7t32 -36q15 -21 44.5 -62.5t56.5 -79.5t30 -42
q8 -10 9.5 -19t-6 -26.5t-17 -32.5t-32.5 -51q-53 -81 -68.5 -101t-46.5 -44q-4 -3 -9.5 -8t-7.5 -6t-4.5 -3t-6 -2t-7 -0.5t-12.5 -0.5t-18 -1q-46 -3 -320.5 -7t-310.5 -8zM336 134q39 0 63.5 15t24.5 46q0 39 -39 88t-39 75q0 27 16 27q9 0 14 -7.5t2 -13.5q0 -12 14 -12
q15 0 15 15q0 13 -15.5 21.5t-35.5 8.5q-67 0 -67 -48q0 -35 41 -83t41 -81q0 -17 -11 -27t-27 -10q-18 0 -29.5 14t-13.5 33q0 4 -8.5 -2t-8.5 -18q0 -16 18.5 -28.5t44.5 -12.5zM623 115q11 13 31 97v-30t-0.5 -24.5t-0.5 -11.5q0 -12 37 -12q31 0 32 10q3 8 10 30.5
t10 30.5q6 -54 49 -54q27 0 44.5 20t21.5 43q0 9 -5 9q-1 0 -2 -2q-11 -33 -36 -33q-24 0 -30 28q25 13 36 41q4 15 -1.5 27t-24.5 12q-18 0 -33.5 -19t-18.5 -45q-19 -61 -21 -65q-8 -17 -9 0q-13 182 -24 211q-5 12 -22 12q-16 -1 -17 -5q8 -11 6 -132q-1 0 -1 -1
q-14 -57 -24 -82q-5 -15 -7 1q-6 18 -26 131q-1 5 -9 8t-16 1.5t-8 -6.5q0 -1 -1 -15.5t-1 -26.5q-7 -36 -20.5 -54.5t-28.5 -18.5t-15 30q0 24 14.5 42t32.5 18q1 1 0.5 6t-5.5 10.5t-12 5.5q-33 0 -57 -24.5t-24 -61.5q0 -31 14.5 -44.5t34.5 -13.5t38 18t27 45
q-4 -66 -2 -98q2 -13 28.5 -16.5t35.5 8.5zM908 214q31 -5 27 19q-1 15 -9 77t-11 68q-1 4 -10 7.5t-17.5 3t-8.5 -4.5q0 -25 0.5 -77t0.5 -76q0 -13 28 -17zM151 271q8 -5 18 6t10 20t-6 17t-16 9q-18 0 -22 -13q-3 -8 2.5 -21t13.5 -18zM1064 258q27 0 27 20q0 25 -21 26
q-17 0 -22 -12q-4 -9 1.5 -21.5t14.5 -12.5zM782 226v1q0 15 5.5 35.5t15.5 20.5q5 0 6.5 -9.5t-1.5 -13.5q-5 -21 -26 -34zM908 136q12 0 19 10t5 18q-1 7 -8 13.5t-15 6.5t-14.5 -7t-6.5 -16q0 -25 20 -25z" />
    <glyph glyph-name="ecircumflex" unicode="&#xea;" horiz-adv-x="825" 
d="M394 -20q-150 0 -234 76.5t-80 196.5q4 114 96 191t230 88q89 7 163 -19.5t123.5 -92.5t52.5 -162q4 -119 -92 -198.5t-259 -79.5zM424 501q2 1 5 4q-1 1 -5 3q-3 1 -9 1q-1 0 -2 -1q-1 -2 -2 -2q1 0 2 -1.5t2 -1.5q3 -1 9 -1v-1zM333 478q3 0 7 2q1 0 0.5 2t-1.5 4
q-2 2 -4 2q-9 5 -15 -3q2 0 6 -0.5t5 -0.5zM358 475l4 7q1 2 -1.5 4t-5.5 2q-1 0 -4 -3q0 -8 7 -10zM483 480h3q2 0 2 3q0 2 -3 5q-2 0 -4.5 -0.5t-3.5 -0.5v-2zM503 483q1 0 3 1h2q3 -1 21 1v1l-5 2h-13q-7 0 -10 -1l-2 -3h3zM394 476q4 2 4 6q0 1 -6 4h-3v1l-7 -3l3 -5
q1 -1 1 -2q3 -4 8 -1zM418 474l3 3q0 4 -3 7t-6 2q-3 0 -3 -3q-1 -2 3 -5.5t6 -3.5zM439 474q11 -2 14 1q2 1 7 1q4 0 6 1q2 3 0 5q-1 1 -5 3q-4 -1 -11.5 -2.5t-10.5 -1.5l-4 -3zM519 459l5 3l-7 4q-2 -2 -3 -2q2 -3 5 -5zM262 458l6 3q-4 4 -5 4l-4 -4zM325 456q4 0 6 1
q4 0 4 3q0 1 -2 5h-5q-3 0 -7 -2q-1 -1 -1 -5q2 -2 5 -2zM449 453q2 0 5 2.5t2 4.5l-2 3q-4 0 -7 -2t-2 -4q0 -4 4 -4zM307 453l3 3l1 1q0 1 -3 4h-4q-7 1 -21 1q-2 0 -3 -1q0 -2 1 -3q1 0 3.5 -1.5t4.5 -1.5h18v-2zM578 454l4 4q-1 0 -2.5 2t-2.5 2t-4 -3zM497 449
q2 5 0.5 8.5t-6.5 3.5q-7 0 -21 -2l-2 -4l1 -1h2t4 0.5t5 0.5q1 0 3 -1h2q2 -1 6 -2.5t6 -2.5zM357 448h3q4 6 12 3l8 3q1 2 1 3t-1 1.5t-2 -0.5q-7 -2 -28 2q-4 0 -8 -2l-1 -4l8 -3h1zM559 453q3 2 0 5q-8 4 -17 -3q2 -2 8.5 -3t8.5 1zM237 454v2q-1 1 -5 1q-1 -1 -1 -2
q1 0 3 -0.5t3 -0.5zM389 449l1 1l4 2l-4 2l-1 1q-2 0 -4 -2zM428 442l2 1l2 1l5 5l-3 2q-2 2 -4 2h-11v-5q1 -8 9 -6zM293 435q1 0 3 2q-1 2 -1 3q-2 0 -2 1l-2 -4q0 -2 2 -2zM485 430q1 0 2 1q2 1 3 1l-9 7l-3 -2zM234 427l4 4q0 6 -9 6l-3 -3zM617 430l3 2l-5 5l-3 -3
q3 -3 5 -4zM272 428q3 0 4 1l3 3l-3 3q-5 2 -18 -2v-2zM333 426l2 1q3 2 3 3q1 5 -6 5q-14 -2 -22 1l-1 -1q-1 -1 -2 -1q0 -3 2 -3q4 -1 12 -2.5t12 -2.5zM443 421q3 0 7 2l10 4q7 2 7 6q0 5 -10 1h-1q-7 -7 -16 -5l-3 -2q0 -1 1 -3v-1q4 -2 5 -2zM354 422l1 1q2 1 2 2
q0 7 -6 7l-4 -2q3 -2 7 -8zM206 424h3v2q-3 8 -11 5q5 -5 8 -7zM420 419l1 1q1 2 1 3q1 2 -2 5.5t-5 2.5q-3 0 -5 -4q-1 -2 2.5 -5t7.5 -3zM578 429h9v2h-9v-2zM221 141q29 6 41 45q2 -12 5 -21t10.5 -17.5t18.5 -6.5q17 3 27.5 32.5t11.5 72.5q14 5 21 22v-72q1 -23 34 -13
q21 7 25 15q11 22 21 57q-2 -22 1 -40q2 -16 29 -11q29 5 33 11q9 13 18 59q1 -36 1 -68q2 -6 14.5 -5.5t27 6t13.5 10.5q0 8 -1 16q-1 32 7.5 67.5t17.5 38.5q2 1 4 -3.5t3 -12t1.5 -16.5t0.5 -20v-19.5v-17.5v-12q2 -9 21.5 -3.5t19.5 10.5q0 60 -13 91t-34 27
q-25 -5 -37 -52q-9 92 -13 112q-1 5 -11.5 6t-19.5 -2t-8 -8q4 -15 6 -105q-3 -22 -18 -67q-6 -21 -8 -1q0 4 -5 32t-7 50q15 5 22 9q6 3 5 10q0 3 -2 1q-14 -7 -27 -9l-2 23q0 2 -1 6t-1 5.5t-1 4.5t-2.5 4.5t-3.5 3t-4.5 2t-6.5 0.5t-9 -1q-14 -3 -14 -8q6 -6 6 -45
q-5 1 -14 3t-11 2q-2 1 -5.5 -3.5t-4.5 -9t2 -6.5l33 -2v-6q-2 -38 -23 -87q-7 -14 -10 6q-2 10 -13 67q-2 13 -9.5 15.5t-11.5 -0.5q-6 -1 -10.5 -3.5t-7 -4.5t-1.5 -4q0 -29 -17 -40q-1 27 -9 44t-24 14q-28 -5 -26 -32q0 -15 14.5 -30t31.5 -14q1 -28 -5 -53.5t-16 -26.5
q-10 -2 -13.5 26.5t-1.5 41.5q1 4 -5.5 6.5t-14 1.5t-7.5 -5t-0.5 -12.5t-1 -12.5t-1 -10.5t-2 -10t-3.5 -7t-5 -5.5t-7 -3q-6 -1 -10.5 10t-6 22.5t-1.5 22.5q0 39 9 57q2 5 -8 8q-21 6 -26 -4q-15 -36 -15 -84q0 -24 9 -45.5t31 -18.5zM401 416q2 0 6 4q-1 0 -2 2t-1 3
l-21 3q-4 0 -10 -2q-2 0 -2 -3q2 -2 3 -2q2 0 4 0.5t4 0.5h6zM257 402l5 2l4 1q7 3 2 8q-3 5 -9 1t-5 -9zM326 406l3 2q-1 1 -2.5 3t-3.5 4q-1 -2 -3 -4q4 -4 6 -5zM647 408q1 0 5 2q-1 0 -3 2q-1 1 -2 1l-3 -3q2 -2 3 -2zM204 401q0 1 1 2q-2 4 -4 6q-1 1 -5 1v-4
q1 -1 4 -2.5t4 -2.5zM222 399q9 -1 22 5q-15 8 -24 3q-3 -3 -3 -5q3 -3 5 -3zM176 399q6 0 7 5q0 1 -3 4l-10 -5q4 -4 6 -4zM606 400h5q4 0 6 1q2 2 2 3q0 3 -2 3q-8 0 -12 -1q-2 0 -2 -3zM386 399q2 0 4 2l1 1l-6 4q-1 0 -4 -3q1 -1 2.5 -2t2.5 -2zM286 398q5 -3 11 1
q0 1 1 3l-2 2q-6 1 -18 1l-1 -1zM429 400q1 1 1 3t-2 2t-6 -0.5t-7 -0.5q9 -9 14 -4zM363 396q2 0 4 4q-3 3 -4 3q-5 1 -16 1h-3q-3 0 -5 -2q3 -3 4 -3zM226 372q1 0 6 5q0 9 -8 9q-5 0 -5 -6q0 -3 2 -6t5 -2zM294 373l2 4q0 4 -1 6h-2q0 -1 -0.5 -3t-0.5 -3v-1q1 -1 2 -3z
M610 377l2 2l-3 3l-4 -2q3 -3 5 -3zM369 346q4 1 11 9.5t7 12.5q0 5 -4.5 9.5t-8.5 3.5q-14 -2 -17 -15q-1 -7 2.5 -14t9.5 -6zM196 370l10 1v4q-9 3 -15 6q-3 -1 -7 -1l-4 -4l4 -3q1 0 3.5 -1t4.5 -1.5t4 -0.5zM317 365q4 0 12 2q2 0 2.5 1.5t-1.5 2.5q-2 2 0 5q2 2 2 3
q-9 6 -17 -2l2 -2q1 -1 2 -1q1 -1 3 -2l-4 -2q-1 -1 -2 -1l-2 -2q2 -2 3 -2zM269 368q4 0 6 2q3 4 -1 5q-12 2 -16 4q-7 1 -14 -4v-2l2 -1h3q8 1 20 -4zM658 373q-4 0 -10 2q5 -9 10 -2zM191 344q5 0 5 7q1 3 -1 4.5t-7 1.5q-6 0 -6 -4q0 -3 3 -6t6 -3zM235 341h8q2 2 2 5
q-4 4 -7 4q-4 1 -12.5 2t-9.5 1q-2 0 -5 -0.5t-4 -1.5t-1 -2q-1 -2 -1 -3h3l1 -1q12 3 26 -4zM257 345q0 -1 1.5 0t2.5 3q-1 5 -6 5q-1 0 -4 -3q4 -4 6 -5zM160 338q1 0 3 1q3 0 4 1q2 2 6 10q-1 0 -3.5 1t-4.5 0q-13 -2 -26 -6l-2 -2l4 -2q7 0 10 -1q3 0 9 -2zM320 341
q4 0 4 1q2 2 0 4q-1 2 -6 5q-2 -2 -6 -4q3 -3 4 -5zM272 340q2 0 6 1.5t5 1.5v1h-11q-1 0 -3 -2q2 -2 3 -2zM296 333q3 5 6 6l-2 2l-8 -4zM679 335q5 0 6 4q-1 1 -1 2l-6 -4q0 -2 1 -2zM230 321q0 6 -1 7q-2 2 -5 2q-2 0 -6 -2q-1 0 -3 -2q2 -2 4 -3t6 -1q3 -1 5 -1z
M160 315l3 3q0 9 -8 9q-3 -1 -4 -3q1 -5 9 -9zM139 312q3 0 3 6q0 1 -4 5q-3 0 -8 -0.5t-7 -1.5q-3 0 -3 -2v-1l1 -2q2 -1 18 -4zM672 313q6 0 6 5q1 3 -5 3h-2v1l-7 -3l6 -5q1 0 2 -1zM189 314q3 0 13 2l3 4l-4 1q-6 0 -18 -2q-1 0 -3 -1q6 -4 9 -4zM242 315q7 0 21 2
q1 1 1 2q-2 2 -4 2l-14 -2q-1 0 -7 -2q1 -1 2 -1zM322 257q-10 1 -18 11t-8 25q0 11 7 12q15 3 19 -48zM129 288q4 3 4 5q0 1 -1 2t-2 2.5t-2 2.5q-2 -2 -4 -3.5t-3 -2.5q5 -5 8 -6zM158 287v3l1 2q-2 4 -3 4q-5 0 -13 -2v-3q3 0 5 -1l5 -2q1 0 2.5 -0.5t2.5 -0.5zM151 264
l4 2q-3 3 -4 3l-3 -3q2 -2 3 -2zM140 261q2 1 2 2l-1 2q-7 7 -14 -2q2 0 6.5 -0.5t6.5 -1.5zM693 258q13 0 19 1q4 0 2 2l-1 2l-9 3l-11 -3l-3 -3l1 -1q1 -1 2 -1zM704 234l3 2l-1 2l-3 3l-2 -4zM688 232l3 2l-1 1q-1 2 -2 2q-3 1 -8 1.5t-8 0.5l-4 -2q1 -1 2 -3l2 -1
q5 -1 16 -1zM669 210h5q3 0 4 1q2 2 4 3l-5 3h-4l-1 -1q-1 0 -2 -0.5t-1 -1.5v-4zM651 206q6 -3 7 -2.5t1 7.5q0 3 -2 3q-7 4 -16 -5q1 0 3 -1h2q1 0 2.5 -0.5t2.5 -1.5zM154 208l2 3q-2 2 -3 2q-2 -1 -2 -2l1 -1zM695 207q1 0 3 2q-2 2 -3 2l-2 -1q0 -3 2 -3zM140 202
q2 2 2 5q-2 5 -10 2q3 -10 8 -7zM714 197l4 4q1 0 1 4q0 1 -1 2q-2 1 -2 2l-3 -5v-2q0 -1 1 -3v-2zM649 176h3q1 1 1 3q0 1 -0.5 3.5t-1.5 3.5q-4 2 -6 2l-5 -5q1 -3 4 -4q1 -1 5 -3zM133 179q2 3 4 4q-4 4 -5 4q-4 0 -4 -4q3 -3 5 -4zM616 175q7 -2 16 5l-10 3l-16 4
q-3 0 -5 -2l1 -2l1 -2zM685 180l3 5l-2 2q-2 -1 -4 -3q2 -2 3 -4zM615 155q5 0 5 4q-1 2 -6 7l-4 -5q1 -4 5 -6zM595 153q3 0 5 2q0 1 -0.5 2.5t-1.5 2.5q-1 0 -2.5 0.5t-2.5 1.5q-13 7 -23 -3q2 -1 5 -1h4q3 -3 9 -4t7 -1zM679 157l2 3q0 1 -3 4l-2 -4zM357 96
q25 17 70.5 28.5t73.5 14.5t39 3q7 -1 10 7.5t-6 10.5q-26 6 -94 -2t-100 -27q-19 -11 -5 -29q7 -10 12 -6zM652 149q2 0 7 7q-4 2 -6 2l-12 3q-1 0 -3 0.5t-4 0.5q-1 0 -2.5 -1.5t-2.5 -1.5q1 -1 2.5 -3t2.5 -3q6 -2 18 -4zM583 127q6 -1 6 5q0 5 -11 7q-5 -3 -6 -4
q-1 -4 5 -6q4 -2 6 -2zM647 126q1 0 2 1l1.5 1.5t1.5 0.5v2q-4 4 -5 4l-7 -4q1 -1 3.5 -2.5t3.5 -2.5zM626 121l6 3l-1 3l-15 7q-3 0 -8.5 -0.5t-7.5 -1.5q-1 0 -2 -2l-1 -2l4 -2q2 1 12 -2zM558 128q1 -1 5 1v1q-3 3 -4 2q-2 0 -4 -2q2 -2 3 -2zM666 128q5 -4 7 1
q-4 0 -7 -1zM290 96q2 -1 5 2.5t3 6.5q1 2 -1 3.5t-4 0.5q-4 -1 -8 -7l4 -5zM542 98h4q1 1 5 7q0 1 -1 2q-1 -1 -4 -2.5t-4 -2.5q-1 0 -1 -1.5t1 -2.5zM485 95q3 3 3 4q-1 1 -2.5 3.5t-2.5 3.5l-3 -3l-1 -2zM520 98h9q1 0 1 1l2 1q0 3 -2 3q-2 1 -5 1q-10 2 -14 1
q-4 0 -10 -2q-2 0 -2 -3q1 -1 3 -1q0 -1 9 -1l9 1v-1zM207 98l6 3q-3 1 -4 4q-6 -4 -7 -5q2 -2 5 -2zM595 97l3 4q0 3 -3 3q-7 3 -13 -5q8 -4 13 -2zM262 91q1 0 5 1t6 2q1 1 2.5 3t2.5 3l-8 2q-7 -3 -14 1q-6 3 -11 -2t0 -6q13 -3 17 -4zM647 93q4 0 10 3q1 0 1 2t1 2
q-4 2 -5 2q-6 -2 -14 1q-9 3 -12 -3q-4 -4 1 -5q3 -1 9 -1.5t9 -0.5zM569 93q7 2 8 4q1 5 -6 5h-5q-1 1 -2 0q-1 0 -2.5 -1.5t-2.5 -1.5l4 -4q4 -2 6 -2zM440 91h6q8 2 14 2q7 0 6 3q0 1 -4 5q-3 -1 -11 -2.5t-11 -2.5q-2 -2 -2 -3q0 -2 2 -2zM187 96l4 1l-1 1q-1 2 -2 2h-6
v-1zM417 92q1 0 2 1l2 2l-6 4q-1 0 -3 -2zM520 72q3 2 3 3q2 8 -6 8q-1 0 -5 -4q2 -1 4 -3.5t4 -3.5zM251 73q12 -5 15 1q1 2 1 6q-1 2 -6 2q-4 -3 -10 -9zM576 69q9 0 10 6q1 2 -2.5 4t-7.5 2q-5 0 -5 -6t5 -6zM321 74h4q4 0 6 1q2 0 3 1l-1 1l-2 2t-2 1h-2h-2t-2 -1
q-2 -4 -2 -5zM447 69q4 0 7 2.5t2 4.5q0 3 -4 3q-2 1 -4.5 -1.5t-2.5 -4.5q0 -1 1 -3zM194 69l6 6l-2 1q-3 2 -5 3l-4 -4q1 -1 2.5 -3t2.5 -3zM307 69q4 2 4 4t-4 4h-2q-4 0 -11 0.5t-11 1.5q-1 0 -3 -1h-1q0 -3 1 -4q6 -3 7 -3q7 -1 20 -1v-1zM494 65q8 -5 8 4q1 2 -4.5 6
t-8.5 3q-9 0 -18 -3q-1 0 -2 -2l-1 -2q2 -2 4 -2q6 3 22 -4zM235 67q3 0 5 2q2 4 0 6.5t-6 1.5t-11.5 -3.5t-8.5 -2.5v-2q4 -1 10 -1q4 -1 11 -1zM560 65q7 0 4 6q-2 4 -11 6q-10 -3 -13 -4q-1 -1 -2.5 -2t-2.5 -2l6 -3q7 -1 19 -1zM606 68l10 1q1 0 3 0.5t3 0.5v4
q-5 2 -6 2q-6 -1 -18 -5v-2q2 0 4 -0.5t4 -0.5zM357 67l5 3l-2 3q-10 2 -14 2q-1 0 -2 -1q-2 -2 -3 -2q1 -1 3 -2l1 -2h12v-1zM389 66q1 0 3 2q-2 2 -3 4l-2 -2l-1 -2q2 -2 3 -2zM425 58l10 3q5 3 0 7q-6 3 -12 -1q-3 -1 -3 -5q1 -2 5 -4zM486 44l3 3q0 9 -9 9l-3 -3z
M555 45l2 2q0 7 -6 7q-1 0 -2 -1t-2 -1l3.5 -3.5t4.5 -3.5zM232 44q5 3 5 4q-1 3 -8 5l-2 -2q1 -1 2.5 -3.5t2.5 -3.5zM524 37q5 0 9 4q1 1 -3 8q-2 3 -6.5 3.5t-6.5 -2.5q-3 -5 -9 -5v-2zM270 45q5 0 7 1q1 0 1 4q-3 3 -9.5 2t-8.5 -5q6 -2 10 -2zM331 42q7 0 7 5q0 4 -7 4
q-13 -2 -20 1q-1 0 -2 -1t-2 -1l1 -2q1 -1 2 -1q3 -1 10 -2.5t11 -2.5zM443 36q7 3 19 7q7 2 5 6q-1 4 -8 2q-2 0 -2 -1q-8 -5 -17 -5q-2 0 -3 -2t1 -4q1 -1 5 -3zM567 45q3 1 10.5 0t10.5 1q-10 8 -21 -1zM355 36q7 12 -4 12q-5 0 -3 -3q4 -6 7 -9zM420 35q2 2 2 3
q1 3 -2 6.5t-5 2.5q-5 0 -5 -4q-1 -3 2.5 -5.5t7.5 -2.5zM400 32q8 -4 8 6l-6 3l-17 3q-3 0 -11 -2l-3 -3q2 -2 4 -2q1 0 3.5 0.5t4.5 0.5q2 2 4 0q2 -3 7 -4t6 -2zM264 24q3 0 3 3q0 1 -4 5q-1 -2 -4 -5q1 0 2.5 -1.5t2.5 -1.5zM325 23l4 2l-6 4q-1 0 -1 -1l-2 -1
q3 -3 5 -4zM447 21l6 2l-4 2q-1 0 -4 -3q1 0 1 -0.5t1 -0.5zM434 9q4 2 5 4q0 5 -3 6q-9 3 -11 4l-1 -1h-3t-3 -1q-1 0 -3 -2q0 -1 2 -3l11 -6q4 -2 6 -1zM490 10q0 1 2 2.5t3 2.5q1 2 -1.5 5t-4.5 2q-5 -2 -8 -5q-1 -2 2.5 -4.5t6.5 -2.5zM386 13q3 3 4 5l-6 4l-2 -1l-2 -2
zM363 12q2 -1 3.5 0.5t0.5 3.5q0 5 -4 3q-1 0 -3 0.5t-4 0.5h-16v-1q-1 -1 -1 -2q1 -1 3 -1t3 -1q2 0 5.5 -0.5t5.5 -0.5q4 -2 7 -2zM290 15q1 0 3 1h2v2q-4 0 -5 -1v-2z" />
    <glyph glyph-name="edieresis" unicode="&#xeb;" horiz-adv-x="963" 
d="M903 291q4 -119 -109.5 -205t-289.5 -86q-208 0 -328 82.5t-116 203.5q4 126 120 206.5t336 72.5q68 0 132.5 -15.5t122 -46t94 -85.5t38.5 -127zM379 529q-1 -2 1.5 -4.5t4.5 -1.5q1 0 3 2t4 3l-10 5q-3 0 -3 -4zM582 530q-6 5 -12 -4q4 -2 6 -2q2 -1 4 -1q4 2 4 3
q0 2 -2 4zM478 528q-1 -2 -2.5 -6t-2.5 -6q13 -6 26 8q-12 9 -21 4zM365 523q-15 8 -24 2q16 -5 18 -5q1 0 6 3zM681 527q-8 4 -13 -3q11 0 13 3zM301 526q-5 4 -11 0q6 -6 11 0zM434 524q-2 0 -9 1.5t-11 1.5t-9 -3q19 -5 21 -5q7 -2 8 5zM543 525q-4 -4 -2 -10t8 -2
q12 3 19 -1q1 -1 4 1l-1 3q-13 9 -17 10q-6 4 -11 -1zM621 523q-8 5 -29 1q2 -5 9 -5q15 0 20 4zM354 498q0 8 -6 8q-4 0 -6 -3q-1 -2 1.5 -5t5.5 -3q2 0 5 3zM602 492q5 0 5 5l-6 8q-1 -1 -2.5 -3.5t-2.5 -3.5q0 -6 6 -6zM732 504l-4 -2l4 -4q0 1 5 1q-3 4 -5 5zM662 503
q-7 -2 -4 -9q1 -8 13 -14v16q0 8 -9 7zM369 501q-1 0 -5 -4q1 0 1 -2q15 3 30 -4q1 -1 3 -1q4 2 5 3q0 2 -2 6q-1 1 -3 1q-8 3 -29 1zM411 500q0 -4 2 -14q9 9 5 14t-7 0zM329 500q-9 3 -34 -6l1 -2q0 -1 1 -1q21 -3 22 -3q10 0 10 12zM286 501q-7 1 -10 0t-2 -5
q2 -11 12 -16v21zM712 497q-1 6 -7 4q-9 -1 -25 -5q-1 -1 -1 -3l3 -3l17 -2h7q8 2 6 9zM473 500q-6 -2 0 -16q10 3 12.5 5t0.5 6q-4 9 -13 5zM649 498q-7 7 -19 -1q9 -9 15 -7q2 0 5 3q2 2 -1 5zM259 498l-3 -3q2 -3 6 -6l4 6q-6 3 -7 3zM541 498q-4 -6 -3 -7t6 -4q3 3 3 4
q-1 2 -6 7zM575 487q6 -1 7.5 0.5t0.5 9.5q-4 -1 -19 -5l2 -3q3 0 9 -2zM524 494q-8 5 -18 -2q12 -7 13 -8q5 -2 7 1q3 6 -2 9zM463 491q-20 6 -30 4q-2 -1 -5 -4q2 -4 9 -1.5t10 0.5q-1 -7 7 -7t9 8zM373 474l14 -6q7 5 0 10q-5 5 -14 -4zM314 477q-10 0 -4 -6l4 -4l5 -5
q2 8 1 12t-6 3zM693 475q0 -4 2 -5q2 -3 8 -7q6 14 -4 14q-2 0 -6 -2zM772 474q-7 6 -11 0h11zM510 475q-6 -4 -8 -6q1 0 3.5 -2t4.5 -2l6 3q-4 4 -6 7zM243 473q-3 -3 -1 -6q4 -6 10 1q-1 1 -2.5 3t-2.5 2h-4zM626 473q-2 -3 0 -6q3 -7 12 0q-4 4 -7 6q-1 1 -2.5 1t-2.5 -1
zM274 468q7 -10 21 -7q6 2 6 6q-1 7 -8 6q-3 0 -7 -0.5t-7 -0.5q-2 -1 -5 -4zM664 472l-7 -4q12 -9 21 -7q7 0 7 6q-1 7 -8 6q-9 0 -13 -1zM439 473q-4 -1 -3 -7q2 -4 7 -5.5t8 0.5q4 4 4 8t-7 4h-9zM396 466q3 -4 10 -4q3 0 9 0.5t9 0.5q3 -4 8 -1q-2 0 -4.5 0.5t-3.5 0.5
q1 9 -5 9l-19 -3q-1 0 -4 -3zM366 471q-6 0 -14.5 -0.5t-12.5 -0.5q4 -9 12 -9t15 10zM747 471q-4 -1 -12 -1t-12 -1q10 -19 24 2zM490 469q-15 2 -23 -3q4 -2 10 -5.5t8 -4.5q7 -2 9 4q4 7 -4 9zM544 459q2 -2 4 0q8 0 10 4q0 6 -11 6h-2l-6 -5zM576 453q9 8 6 12
q-4 7 -12 1q2 -12 6 -13zM607 459q1 8 -5 10q-2 0 -4 -2q0 -2 1 -3t4 -2.5t4 -2.5zM193 466q-3 -2 -3 -3t1 -2q2 -2 2 -3l4 4q-1 3 -4 4zM351 451q-7 2 -9 -3q6 -3 9 3zM726 452q3 -3 4.5 -4t2.5 0t3 4h-10zM413 450q-2 1 -3.5 -1t-1.5 -4q0 -7 5 -7q1 0 3.5 1.5t3.5 1.5
q0 9 -7 9zM263 443l-3 3t-3 4q-1 -1 -2.5 -2l-3 -2t-1.5 -2q-2 -6 6 -6q7 0 7 5zM290 439q4 4 0 8q-6 4 -13 -4q10 -10 13 -4zM660 443q7 -5 8 -5q1 -1 3 -1t3 1q2 4 1 7q-2 4 -5 4l-9 -3q0 -2 -1 -3zM798 449q-3 -3 -3 -5l4 -4q0 1 1.5 2.5t1.5 2.5zM634 443q-2 -2 2 -5h4
q1 0 2.5 1t2.5 2t2 1q0 8 -7 6q-5 -2 -6 -5zM507 440q-15 0 -20 5q-5 6 -11 -4l24 -8q19 -3 21 -4h5l1 1q2 1 2 2q2 4 -2 4q-14 5 -20 4zM328 446q-20 2 -28 -4q12 -7 15.5 -7t12.5 11zM684 442q13 -7 16.5 -6.5t12.5 10.5q-24 0 -29 -4zM372 441q2 0 10 -2.5t13 -3.5
q2 -1 3.5 0.5t1.5 4.5q-18 8 -30 3zM783 438q-14 11 -27 5q13 -9 27 -5zM432 437h2q15 2 26 -4q2 0 4 2q-7 7 -17.5 8t-16.5 -4zM547 436q1 7 -3 7q-2 1 -5 -2v-2zM566 436v-3q2 -1 15 1l3 4q-3 3 -5 2zM189 436v-2q1 0 4 0.5t4 1.5v3zM604 428q-1 6 -6 8q3 -8 6 -8z
M513 417q0 3 -3 3q-1 0 -4 -0.5t-5 -0.5q3 -7 10 -5q2 0 2 3zM605 419l-3 -3l-2 -1q0 -4 5 -4q1 0 4 3q-1 2 -4 5zM814 406l6 3q-1 1 -2.5 3t-2.5 3q-7 3 -28 -1q17 -9 27 -8zM490 413q-4 5 -12.5 3.5t-12.5 -7.5q4 -2 5 -2l17 -2q1 0 2.5 1t2.5 1q0 4 -2 6zM434 410
q-8 9 -16 1q11 -4 16 -1zM531 180q0 -14 38 -11q17 2 17 5q-1 26 -4 77.5t-5.5 90.5t-2.5 43q-1 8 -14 10t-25.5 -1t-12.5 -9q0 -12 6 -104q-9 -3 -29 -3l-46 -3q-2 21 -3 65t-1 47q-1 14 -33 10t-32 -12q0 -24 4 -108.5t4 -93.5q0 -11 33.5 -12t33.5 12l-1 11q0 10 -1 25.5
t-1 29.5q51 9 72 9q0 -18 1.5 -45.5t1.5 -32.5zM199 397q-9 0 -8 -14.5t8 -14.5q26 0 49 3q9 -141 9 -191q0 -8 14 -10.5t28 -0.5t13 5q-1 15 -3.5 60t-5 82t-3.5 55h49q6 0 7.5 6.5t0 13t-4.5 6.5h-153zM807 382q5 6 0 11q-4 4 -8 2q-6 -1 -4 -9q4 -2 12 -4zM649 171h116
q2 1 2 7.5t-3.5 13t-7.5 5.5q-2 0 -6.5 -1t-7.5 -1.5t-7.5 -1.5t-8 -1.5t-8 -0.5h-7h-5t-4 1t-1.5 2q0 4 -1.5 22t-1.5 33q0 1 -1.5 5t-1.5 7q8 0 16.5 0.5t14.5 1.5t7 1q6 0 8.5 6t0.5 11.5t-6 5.5q-9 -3 -35 -3h-6q-4 82 -5 84q4 5 25.5 2.5t34.5 -5.5q12 -2 15 13
q2 13 -6 13q-9 0 -28 1t-35.5 1.5t-33 0.5t-26.5 -3t-10 -9t3 -85.5t3 -81.5q0 -27 3.5 -35.5t13.5 -8.5zM830 389q-1 0 -4 -3l4 -4h17v3q-7 4 -17 4zM162 385q-6 4 -9 -1q1 -3 2 -3q5 -4 7 4zM143 376q-6 9 -20 7zM831 359l9 3v3q-7 2 -10 1q-3 0 -3 -4q0 -3 4 -3zM802 359
l11 -6q2 0 4 -1q2 10 -1 12q-8 4 -14 -5zM176 358q-4 3 -12 1.5t-12 -5.5q12 -10 24 -3q5 3 0 7zM106 357q-2 -3 -4 -12q9 1 11 9q0 4 -2 4q-5 2 -5 -1zM872 347q7 3 3 9q-5 -4 -3 -9zM848 333l-1 1l-2 4l-2 -4l-1 -1l3 -3q3 0 3 3zM810 325q3 10 -4 11l-7 -2v-2q5 -2 11 -7
zM131 324l-8 6q-3 1 -9.5 2.5t-9.5 2.5q8 -13 27 -11zM762 335q7 -10 17 -10q6 0 8 5q-10 5 -25 5zM155 331l6 -4q1 0 2 1q1 2 3 3q-1 0 -3 1.5t-3 1.5t-2.5 -1.5t-2.5 -1.5zM184 327v-2q5 -4 16 -6q5 0 7 1q3 3 3 7q0 3 -5 3zM774 306q3 3 2 4l-3 3q-3 0 -3 -3q0 -2 4 -4z
M817 308q-18 2 -29 4l2 -7q14 -4 21 -5q2 -1 4 1.5t2 6.5zM124 306q0 -6 6 -4q1 0 2.5 1.5t2.5 1.5q-3 6 -7 5q-4 0 -4 -4zM840 300q1 7 0.5 8t-5.5 2zM197 306q-2 2 -4 2q-2 -2 -2 -4l3 -2zM874 300q2 0 2 4q-3 5 -9 2q2 -7 7 -6zM102 305v-5q6 -8 17 1q-7 5 -12 6
q-3 0 -5 -2zM153 300q13 -7 21 -6q4 0 4 4q2 2 -2 5q-16 2 -23 -3zM809 281l-4 4q-3 -3 -5 -4l5 -5q4 4 4 5zM872 280q-1 6 -8 4q2 -5 8 -4zM220 279l6 -3l4 4l-4 2l-2 1zM768 281q12 -13 21 -6q-12 10 -21 6zM824 279v-4q8 -1 25 1q2 2 2 5q-2 2 -4 2q-1 0 -13 -3
q-3 -1 -10 -1zM190 277q-7 0 -7 -4q0 -6 5 -6q6 -2 14 0q3 0 3 4t-3 4q-3 1 -9 1h-1zM148 267q-1 1 -2 3t-2 2q-9 5 -20 1q2 -2 4.5 -3.5t4.5 -2.5t3 -2q4 -2 6 -2zM842 257q-6 3 -7 3q-2 1 -5 -2t-3 -6q-1 -2 1.5 -4.5t4.5 -2.5q9 2 9 12zM114 245q4 3 -1 8q-7 4 -17 0
q7 -4 11 -8q4 -3 7 0zM858 250q8 0 15 4q-10 1 -15 -4zM129 240q11 3 7 10q-3 6 -11 3q0 -2 1.5 -6t2.5 -7zM816 243q4 2 4 6t-7 4h-14q-10 2 -13 -6q18 -9 30 -4zM163 241q5 -3 9 3q3 4 -2 7q-5 5 -15 -3q2 -1 4.5 -3.5zM183 248q-1 -2 2 -4.5t6 -2.5q1 -1 4 2q2 9 -7 9
q-3 0 -5 -4zM210 242q3 -4 14 -1t13 3v3q-4 2 -5 2q-20 -6 -22 -7zM797 224q7 -5 10 0q1 1 1 6h-6q-1 -1 -2.5 -3t-2.5 -3zM229 225l-2 3l-6 -3q0 -1 -1 -3l4 -1q2 1 5 4zM851 222q0 1 1 3l-30 3q1 -8 8 -8t21 2zM138 216q2 1 7 1q6 2 8 2v3l-29 3q-2 1 -3 0l-2 -1
q-2 -1 -2 -2q0 -5 3 -5q1 0 9 -2t9 1zM780 220v3q-4 2 -5 2t-7 -3l4 -2t3 -1l2 1h3zM166 217q0 1 -3 4l-3 -3l3 -3zM196 212q0 -3 3 -3q6 -1 12 5q-8 7 -14 2q-3 -2 -1 -4zM808 198q6 -6 12 -1q-5 6 -12 1zM238 199q-5 1 -13 -2.5t-12 -3.5q2 -7 9 -5q13 5 16 11zM129 190
q3 5 -1 6q-2 0 -3 -1q-2 -5 4 -5zM198 187q-5 8 -6 8q-1 1 -7 -1q0 -1 0.5 -3t1.5 -3q3 -5 11 -1zM171 183q3 -3 5 -1q2 1 5 4q0 4 -4 4l-23 3q-1 0 -3 -1.5t-3 -1.5zM806 173l2 1q2 0 3 1l-4 4q-1 0 -4 -3l1 -1q1 -2 2 -2zM354 175q3 -6 3 -7q1 0 3 2q0 2 -1 3t-5 2z
M378 168q9 -2 11 3q-8 2 -11 -3zM190 167q8 -6 12 -8q2 -1 8 -1q3 1 4 4t-2 5q-9 9 -22 0zM330 167q7 -3 11 2q-5 3 -11 -2zM156 170q3 -6 8 -3q-1 5 -8 3zM506 166l15 -3v3q-5 1 -15 1v-1zM139 163v3h-6l-1 -1q1 0 3.5 -0.5t3.5 -1.5zM390 142q0 4 -2.5 6.5t-5.5 1.5
q-4 0 -4 -5q0 -8 7 -6q1 0 3 1zM200 142q2 2 -1 4q-7 5 -14 -4q2 0 6 -1.5t6 -1.5q3 0 3 3zM768 141q1 -1 6 3q-6 4 -7 4t-2 -1l-2 -2q4 -4 5 -4zM571 144l2 -2l1 -1q6 0 9 -1l1 4q-4 5 -10 2l-1 -1q-1 -1 -2 -1zM661 140q12 -14 27 2q-10 10 -27 -2zM304 141q-10 11 -27 -1
q10 -12 27 1zM473 132q15 -9 28 9q-17 6 -24 3q-3 -7 -4 -12zM339 142q15 -9 22 -6l4 4q-19 6 -26 2zM726 141q17 -5 21 -3q-13 9 -21 3zM426 135q6 -2 8 4q-21 5 -29 2q12 -5 21 -6zM547 128q1 0 3.5 1t4.5 1.5t4 0.5q5 0 11 -4l2 3q-2 4 -8.5 6.5t-8.5 5.5q-1 1 -8 1
q-2 0 -2 -1q-2 -1 -3.5 -4.5t-0.5 -5.5q2 -4 6 -4zM172 133q1 0 1.5 1.5t-0.5 2.5q-3 5 -4 5h-11q5 -9 6 -9q3 -2 8 0zM612 135h3.5t4 1.5t2.5 4.5q-4 1 -15 0.5t-15 -0.5q4 -6 20 -6zM212 135q20 0 27 2l-4 4q-8 1 -29 -1q5 -5 6 -5zM184 127q3 3 3 4q0 2 -2 2l-4 -1
q1 -1 3 -5zM354 115q0 7 -7 7q-6 0 -6 -4q0 -2 3 -5t5 -2q1 0 5 4zM737 115q1 7 -6 7q-4 -2 -5 -4t2 -4.5t5 -1.5q1 0 4 3zM596 114q1 -4 6 -6q2 -1 4 0.5t1 3.5t-6 9q-1 -2 -4 -5zM671 97v4.5v4v3.5v4q0 6 -7 6t-7 -7q0 -10 14 -15zM364 113l2 -2q13 3 28 -4q6 -4 9 2
q2 5 -6 8q-7 2 -28 0q-1 0 -5 -4zM218 107q1 1 2 3q2 2 2 3q0 3 -1.5 4.5t-3.5 0.5l-4 -3q0 -1 5 -8zM275 117q-3 -3 -1 -8q4 -10 13 -13v16q0 6 -3 6q-4 1 -9 -1zM318 104q7 -1 9 1.5t3 10.5q-8 3 -33 -4q-1 -2 -1 -3q0 -3 2 -3q14 -2 20 -2zM420 114l-6 4q-1 0 -3 -2
q2 -4 4 -5q2 2 5 3zM702 104q7 0 9 2.5t2 9.5q-7 2 -17.5 0.5t-14.5 -5.5q-1 -1 -1 -2q0 -3 2 -3q14 -2 20 -2zM645 106q1 0 3 2t3 2l-3 3l-1 2q-9 5 -19 -1q7 -8 17 -8zM264 107q6 4 1 7q-11 5 -19 1q2 -5 12 -9q4 0 6 1zM472 116q-5 -3 2 -16q14 2 11 11q-2 9 -13 5z
M750 113h23q-12 9 -23 0zM538 108q0 -7 6 -5q3 0 3 4l-2.5 2.5t-2.5 3.5l-3 -3zM567 109q-1 0 -1 -1q-1 0 -2 -1q4 -2 12 -4q5 0 6 2q5 5 0 8q-10 -2 -15 -4zM525 109q-7 7 -19 0q3 -2 7 -5t6 -4q5 -2 7 1q3 5 -1 8zM452 99q9 0 11 7q-22 8 -32 4l-3 -3q3 -4 9 -2t9 1
q2 -7 6 -7zM387 84q6 6 0 10q-5 5 -14 -4zM317 80l5 5q0 8 -9 8q-4 0 -4 -4q6 -6 8 -9zM705 84q1 9 -7 9q-6 0 -5 -4q3 -5 8 -8q1 0 4 3zM510 91l-7 -5q-1 -5 7 -5q2 -1 4 0t1 3q0 1 -1 2t-2 2.5t-2 2.5zM452 78q4 4 2 7q0 2 -6 4q0 1 -1.5 1h-2.5q-8 -3 -8 -2v-3q0 -4 6 -8
t10 1zM625 84q3 -7 13 -1q-2 1 -4 3l-3 3t-2.5 1t-1.5 -1q-2 -2 -2 -5zM297 78q3 2 3 5q0 6 -3 6q-16 0 -21 -4q9 -13 21 -7zM680 78q4 0 4 4q0 6 -3 6q-13 2 -24 -3q8 -11 23 -7zM338 85q16 -18 27 3zM394 82q6 -4 19 -4q10 0 12 -3h6q-1 2 -3 5.5t-2.5 4.5t-2.5 2
t-4.5 0.5t-6.5 -1.5h-5t-5 -1q-2 0 -8 -3zM494 77q3 4 -3 8q-11 4 -23 -3q15 -9 17 -10q7 -2 9 5zM543 75q2 0 7.5 0.5t8.5 0.5q-6 13 -16 8q-4 0 -4 -4q0 -5 4 -5zM598 82q3 -7 11 -4q-5 8 -9 6q-2 0 -2 -2zM576 70q2 -1 5 2.5t2 6.5q-2 6 -7 5q-6 0 -5 -7q0 -7 5 -7z
M342 66q5 -2 10 1q-8 2 -10 -1zM409 61q-2 -7 5 -7q4 0 6 6q0 7 -9 7q-2 -4 -2 -6zM286 56q0 1 2 2l1 2l-1 2q-2 2 -3 4l-2 -6l1 -2q2 -1 2 -2zM673 56q1 1 1 3t-1 3q-6 6 -11 -3q8 -6 11 -3zM641 55l6 3q-2 6 -8 6q-5 -2 -5 -5q1 -6 7 -4zM493 53q0 1 1 1q-1 0 -4 4.5
t-7 4.5q-6 0 -6 -6q6 -2 16 -4zM306 57q8 -2 13 3q-7 4 -13 -3zM395 51q2 -1 3.5 0.5t1.5 4.5q-18 8 -29 4l1 -3zM432 55q6 -1 17 -2.5t16 -2.5q-22 18 -33 5zM538 55l10 -3q-2 6 -3.5 6.5t-6.5 -3.5zM529 48q1 1 0 2.5t-2 1.5q-7 2 -21 4l-2 -1l-4 -3l23 -7h3l1 1q2 1 2 2z
M567 51q11 -6 18 4q-10 1 -18 -4zM504 32q4 -4 9 3q-6 0 -9 -1v-2zM415 30q7 -8 19 -3q-9 6 -19 3zM470 26q11 -2 17 1q-9 6 -17 -1z" />
    <glyph glyph-name="igrave" unicode="&#xec;" horiz-adv-x="791" 
d="M731 282q4 -115 -100 -203t-239 -88q-120 0 -219 86.5t-95 199.5q4 119 98.5 203.5t227.5 75.5q45 0 97.5 -15.5t104.5 -46t87.5 -86t37.5 -126.5zM378 525v-1l-1 -2q3 -1 7 -2.5t6 -1.5l2 2l-3 6q-4 3 -11 -1zM314 523v-5q1 -1 3 -2.5t4 -3.5q7 10 -1 12q-3 2 -6 -1z
M447 521q-5 0 -7 -1t-1 -4q1 -5 6.5 -7t8.5 1t3 7q-1 1 -6 4h-4zM296 520q-2 0 -16 -2q5 -8 17 -8q5 2 5 5q1 2 -1 3.5t-5 1.5zM367 520l-24 -3q6 -8 10 -7q11 2 14 10zM404 517q-1 0 -5 -2q4 -5 10 -4q12 0 17 1q1 -1 2 -3q1 -3 3 -2l2 2l-7 3q1 8 -5 8zM512 519h-6
q6 -5 9 -2q-2 2 -3 2zM489 517q-4 0 -18 -2l15 -8q4 -4 8 -1q3 5 2 6q-2 5 -7 5zM355 500h-11q6 -8 11 0zM411 493q0 -7 8 -7q0 1 1.5 3t1.5 3q1 2 -1.5 4.5t-5.5 2.5q-4 0 -4 -6zM287 497l-9 -5q1 -1 3 -2.5t3 -2.5t2 -1q6 0 7 1q3 3 0 7q-1 3 -6 3zM509 489q-12 -3 -19 5
q-6 6 -11 -5q8 -2 12 -4q8 -4 18 -4q5 0 13 -4l6 -3l6 6q-9 11 -25 9zM322 484q8 6 13 11q-27 0 -33 -4q4 -4 15 -9q1 -2 5 2zM259 495q-1 0 -2.5 -1.5t-2.5 -1.5l2 -2q2 -3 4 -4l5 5q0 6 -6 4zM403 487q-17 14 -32 3q18 -6 26 -7q6 -2 6 4zM445 492q-10 0 -13 -5l6 -2
q14 2 24 -3q1 -1 6 1q-7 7 -23 9zM583 487q-7 0 -11 -4q0 -2 1 -2l11 3q0 2 -1 3zM321 458q11 0 7 9q-3 5 -13 3q-1 -1 -3 -1.5t-2.5 -1.5t-0.5 -3q0 -4 9 -6h3zM377 458q9 0 14 11q-3 0 -7.5 -0.5t-7.5 -1.5q-2 0 -4 -4q0 -5 5 -5zM517 465q1 2 -0.5 3t-4.5 1q-8 0 -8 -4
l1 -1l2.5 -2.5l2.5 -2.5q7 3 7 6zM436 464q-14 5 -33 0l1 -4q13 -8 31 -6q4 2 4 5q2 2 -3 5zM224 466q-1 0 -4 -3l4 -4q1 -1 6 3q-2 2 -6 4zM303 460q-7 12 -16 0h16zM339 465q-3 0 -3 -3q0 -2 3 -4q12 -7 29 4q-11 5 -29 3zM456 450q4 15 -13 16q1 -1 4.5 -8t8.5 -8z
M607 466q-1 0 -4 -3l4 -4l7 3zM266 460q-2 4 -4 5q-2 -2 -4 -3l5 -6zM475 464q-8 0 -7 -6q1 -4 9 -2q1 0 3.5 -1t4.5 -1.5t4 -0.5q6 0 6 2q1 1 -1 6l-4 3h-15zM574 456l8 -3q0 1 2 3q-1 1 -2.5 3.5t-2.5 3.5t-3 0t-3 -1q0 -5 1 -6zM538 460q-1 0 -2.5 -2t-2.5 -2l5 -5
q3 1 9 2.5t8 1.5q1 0 3 5h-7h-7h-6zM413 438q0 -7 11 -7q5 0 5 5q0 9 -10 9q-6 0 -6 -7zM589 440q-3 2 -8 0q-3 -3 -2 -5q0 -4 4 -4q3 -1 11 -1q-3 8 -5 10zM203 438h-6l3 -6h2q2 0 3 -1l2 2q-2 4 -4 5zM449 430h17v1q1 1 1 2q-6 5 -18 5q-1 0 -2 -2q-2 -2 -3 -2q2 -1 5 -4z
M478 436q1 -2 3 -4q1 0 4 3l-5 3zM651 432q-9 6 -16 4q12 -7 16 -4zM615 425q2 7 -3 12h-4q-3 -3 -1 -3q1 -4 5 -10q2 0 3 1zM229 427q0 6 -0.5 7t-5.5 2zM540 433q0 -3 1 -3q3 -4 7 0q2 2 3 4q-1 0 -3 1l-1 1zM522 430l-10 3v-2q6 -2 10 -2v1zM262 406q-23 -6 -34.5 -20.5
t-10.5 -30.5q1 -8 5.5 -13t8.5 -5t6 1q2 19 13.5 28.5t36.5 16.5q1 0 3 0.5t3 0.5q-8 -6 -9 -10l4 -63q-14 -3 -23 4q-2 1 -5.5 -3.5t-4.5 -9t3 -7.5q9 -3 31 2q5 -73 5 -98q-1 -13 -11 -16q-7 -1 -11.5 7t-2.5 19q0 2 -5.5 2.5t-10.5 -3t-5 -10.5q4 -46 58 -30q12 4 19 7
t15.5 9t11.5 16.5t2 24.5q-3 25 -17 84q18 8 20 11q8 5 5 13q-1 2 -3 0q-5 -4 -25 -11q-11 49 -18 65q21 0 36 4q31 9 29 30q-1 5 -4 6q-14 -14 -34 -16.5t-38.5 0t-42.5 -4.5zM455 412q-5 4 -8 1v-3q5 -3 8 2zM571 370q-3 14 -13 10q-25 -7 -53 -1q-1 0 -1 1v7
q-1 22 -12 24q-3 2 -7 -2q-17 -16 9 -33q2 -58 -25 -79q-2 23 -15 41.5t-41 10.5q-9 -2 -17.5 -12.5t-7.5 -27.5q1 -3 4 -14q-4 -18 -2 -29q0 -26 13 -44.5t38 -12.5q33 11 31 75q32 22 32 86h1q7 -2 13 -3t7 -1q6 -2 4 -13t-6 -49t-3 -49q0 -9 1 -12.5t3.5 -7.5t8 -5
t14.5 0q32 2 45 20q3 5 -1 5h-2q-5 -1 -6.5 3t-2.5 17q0 6 -3.5 46t-5.5 49zM435 411q-7 3 -12 -2q2 -5 9 -3l1 2q1 2 2 3zM587 408l-1 1v2q-5 0 -7 -1q-1 -1 -1 -2t-0.5 -1.5t-0.5 -1.5q1 0 2.5 -0.5t2.5 -0.5t2.5 2t2.5 2zM194 409q-1 -1 -1 -6q4 0 5 1q1 0 3 4q-3 5 -7 1
zM177 407q-10 3 -20 -4q6 -7 20 -3q3 0 3 4zM547 402q9 -3 16 2q-10 4 -16 -2zM627 399q-7 5 -11 3l-3 -3q9 -7 14 0zM677 385q-8 2 -13 -6l12 -3q5 -2 5 4q0 5 -4 5zM163 382l-6 -2q2 -1 3 -3l2 -1l4 3l-1 1q-1 2 -2 2zM612 375q1 0 5 4l-2 2t-2 1t-4 -3l1 -2q1 -2 2 -2z
M657 379q-1 0 -3 1q-1 0 -2.5 -0.5t-2.5 -0.5q1 -2 3 -4l2 1h2v1q1 1 1 2zM190 375v-2q11 -5 15 -4q2 1 4 5q-1 0 -2 1.5t-2 1.5q-5 0 -15 -2zM596 373q-2 4 -3 3q-2 0 -4 -2l2 -2q1 -1 5 1zM133 360q-4 -4 -4 -5l3 -3l1 1q2 1 2 2t-2 5zM644 360q-7 0 -10 -11q2 0 4.5 0.5
t4 0.5t2.5 1q4 0 4 6q0 3 -5 3zM623 356q-4 0 -12 -2l-1 -4q2 0 6 -0.5t7 -0.5q1 0 2 1q1 2 2 2q-1 1 -3 2zM694 355q-12 2 -20 -6q9 -1 20 6zM178 351q-16 2 -23 -3q2 -1 7 -2.5t7 -2.5q5 -1 9 0q3 0 3 4t-3 4zM446 282q-10 -3 -20 -1q-4 18 0 31q1 6 -3 9t-10 1
q-6 -1 -13 -10q-1 7 4 14t11 9q23 7 33 -11.5t10 -34.5q-4 -4 -12 -7zM612 331q-3 0 -3 -3q-1 -2 1.5 -3.5t4.5 -0.5l4 4q-5 3 -7 3zM678 320q2 8 -5 11q-3 0 -4 -1q-2 -2 0 -4q1 -1 2 -2.5t2.5 -2.5t2.5 -2zM700 325q-3 6 -7 0h7zM660 322q0 5 -7 5q-8 0 -16 -8q2 0 8 -0.5
t9 -0.5q6 0 6 4zM185 322q-1 -2 1 -4.5t6 -2.5h12q3 3 3 4q0 4 -3 4q-1 0 -3 0.5t-5 1t-5 0.5q-3 0 -6 -3zM148 320q-9 4 -16 1q7 -11 15 -9q3 3 3 4q1 1 -2 4zM667 304q-7 0 -6 -7q20 -4 31 1l-2 4q-16 2 -23 2zM648 294q1 0 1.5 2t-0.5 4q-3 6 -11 0q6 -8 10 -6zM139 297
q0 6 -10 3q0 -1 2 -13l6 3q2 2 2 7zM151 289v-2q46 0 68 1q7 0 19 2q3 0 3 4q0 2 -4 4h-4q-16 -4 -23 -7q-9 -2 -12 4q-4 8 -12 4q0 -2 -1 -4v-4q-6 0 -8 3q-6 8 -16 6q-2 0 -2 -2q0 -1 0.5 -3.5t0.5 -4.5q-2 0 -5 -0.5t-4 -0.5zM622 299q-2 -1 -6 -2.5t-6 -1.5q2 -5 12 -7
q6 0 6 6q0 5 -6 5zM117 295l2 2q-1 0 -3 1h-1l-2 -1q0 -3 1 -4zM686 276q-2 1 -4.5 3t-3.5 2q-3 0 -3 -4q0 -7 6 -5q1 0 2 1q1 2 3 3zM232 274q-1 2 -3 4q-1 -2 -3 -3.5t-2 -2.5l3 -3q3 2 5 5zM658 263q2 -1 3.5 1.5t0.5 4.5q-2 4 -9 7q-4 2 -11 -1t-11 -7q8 0 13 -1
q3 -1 7.5 -2t6.5 -2zM427 268q13 0 19 2q4 1 13 6q0 -30 -10 -32q-6 -2 -12 5t-10 19zM120 269q0 -1 5 -4q9 -2 29 2l1 1l1 2q-5 0 -15 1.5t-16 2.5q-5 0 -5 -5zM699 267q8 -4 19 2q-11 5 -19 -2zM169 266q-2 2 -3 4l-3 -3l1 -1q1 -2 2 -2q3 0 3 2zM198 260q8 -4 15 2
q-6 8 -15 -2zM640 251l3 -6q1 -1 3 -1t3 -1q0 5 -1 7q-2 7 -8 1zM609 239q15 2 19 8q-7 0 -8 1t-6 -4zM685 236q4 0 8 4q-3 7 -5 8q-4 2 -8 0q-4 -1 -9 -8q10 -4 14 -4zM222 236q17 4 21 11q-6 2 -8 1q-6 -2 -20 -8q0 -6 7 -4zM132 238q3 5 -2 7q-2 0 -3 -1q-1 -4 5 -6z
M199 237q1 3 -2 5.5t-6 2.5q-3 -3 -3 -5q-1 -2 2 -4.5t6 -1.5q3 0 3 3zM158 241q-2 0 -8 -2l12 -4t14 -4h2q4 2 5 3q-2 4 -4 5q-14 2 -21 2zM167 216q-1 0 -2.5 2t-3.5 3q-1 -2 -3 -4q2 -2 6 -4zM191 217q2 -1 6.5 -4.5t6.5 -4.5q4 -2 6 -2q6 0 6 5q2 4 -3 6q-9 6 -22 0z
M658 210q4 6 -3 8q-5 2 -9 1q-3 -1 -10 -3t-9 -3l1 -1q1 -2 2 -2q12 2 19 -4q3 -2 9 4zM582 216l3 -3l3 -3t3 -1.5t4 -0.5q4 0 4 3q1 1 0 2.5t-2 1.5q-6 5 -15 1zM140 211l4 2l-1 1q-1 2 -2 2q-5 1 -15 1v-3q1 0 6 -1.5t8 -1.5zM202 188l2 4q-1 0 -3 2t-3 2l-9 -3q0 -3 1 -3
q8 -2 12 -2zM669 185q17 2 20 7q-8 2 -9 3t-8.5 -2.5t-8.5 -3.5q4 -4 6 -4zM584 189q3 0 3 2q-1 4 -7 4q-2 0 -3 -1q0 -7 7 -5zM171 178q8 3 13 -1h7q-2 4 -8.5 8t-8.5 6q-1 1 -7 1h-2q-8 -2 -6 -10q1 -7 8 -5q3 0 4 1zM599 184q14 -5 25 3q-4 4 -30 2q3 -5 5 -5zM219 184
q3 1 6 0.5t6.5 0.5t6.5 4h-28q5 -6 9 -5zM538 153q7 -1 10 7.5t-6 10.5q-26 6 -94 -2t-100 -27q-19 -11 -5 -29q7 -10 12 -6q25 17 71 28.5t74 14.5t38 3zM220 157q3 0 8 4q-7 5 -9 6q-4 0 -4 -4q-2 -2 0.5 -4.5t4.5 -1.5zM604 154q5 5 6 7q0 6 -6 6q-5 0 -5 -5q0 -1 2 -3.5
t3 -4.5zM666 156q2 0 5 3q0 7 -5 7t-5 -5q0 -2 1.5 -4t3.5 -1zM647 155q1 0 2 1l1.5 1.5t1.5 0.5q-2 4 -3 5q-7 4 -16 1v-3zM194 152q5 -2 6.5 0.5t0.5 9.5q-9 -4 -16 -5v-2zM581 152q5 0 5 8q-7 2 -8 -4q0 -4 3 -4zM161 154l2 2q0 1 -3 4l-2 -3q2 -3 3 -3zM315 138
q0 -6 7 -6q-1 9 -7 6zM244 132q2 -6 13 -1l-7 7q-4 0 -5 -1t-1 -5zM633 130l3 3q-3 3 -5 4q-3 0 -3 -3q1 -2 5 -4zM299 136q-17 0 -21 -3q9 -13 21 -6q3 0 3 4q0 5 -3 5zM217 130q1 -6 8 -4q1 0 1 1q-2 7 -7 6q-1 0 -2 -1t0 -2zM193 120q9 4 8 9q-2 7 -9 3q-4 -3 1 -12z
M606 127q1 0 4 3l-7 3l-2 -2q1 -1 2.5 -2t2.5 -2zM547 125q7 -4 14 3q-6 6 -14 4q-3 -3 -3 -4q0 -3 3 -3zM576 132q-2 -2 -2 -6q0 -2 1.5 -4.5t1.5 -3.5h3q4 4 5 7q2 4 -2 6q-3 3 -7 1zM163 129q5 -5 11 0q-6 5 -11 0zM491 121q6 5 3 8q-1 1 -3 1q-3 1 -4 1q3 -6 4 -10z
M252 108q-2 -5 6 -7q8 0 8 7q0 5 -7 5q-6 0 -7 -5zM279 106l7 -4q1 -1 3.5 -0.5t3.5 1.5q3 3 1 7q-3 3 -7 3q-2 0 -8 -4v-3zM423 108l-6 4q-3 0 -3 -4t4 -4l2 1q1 2 3 3zM528 90q4 4 6 7q-10 10 -24 8q-12 -3 -20 5q-6 4 -10 -4l13 -6q8 -3 16 -3l12 -3q2 -1 4 -2.5t3 -1.5z
M318 110q-10 2 -17 -5q2 -1 7.5 -3t8.5 -3q2 -1 4 1t1 4q0 6 -4 6zM548 108q-6 2 -7 -4l9 -5q2 6 -2 9zM435 104q1 -3 7.5 -2t7.5 1q2 0 7.5 -3t10.5 -2q-19 15 -33 6zM567 99q14 -6 19 4q-6 2 -19 -4zM321 73h1q6 0 6 6q2 6 -4 6q-7 2 -12 -1q-10 -4 -15 -2q-9 2 -10 -7
q5 -1 18 -0.5t16 -1.5zM515 77q3 3 3 4q-2 4 -4 4q-6 2 -11 -4q3 -6 12 -4zM372 79q0 -5 6 -5q8 -1 13 9h-13q-6 0 -6 -4zM336 77q0 -4 6 -4q16 0 24 1q0 7 -6 7q-3 0 -9 0.5t-8 0.5q-7 0 -7 -5zM435 70q4 0 4 4q0 3 -2 5q-3 3 -8 3q-14 0 -21 -1q-2 0 -4 -2q-1 -1 -1 -3
q2 0 5.5 -2t5.5 -2q4 0 11 -1t10 -1zM443 81q3 -2 6 -7.5t7 -7.5q2 8 -1 12t-12 3zM225 77l3 3q-2 1 -5 1l-2 -2q2 -2 4 -2zM263 74q1 -1 5 3l-6 4q-1 0 -4 -3q2 -1 5 -4zM495 70q6 6 -3 8q-1 1 -3 1.5l-4 1t-3 0.5q-3 0 -11 -2q-2 -1 -4 -5l6 -3q10 -2 16 -2t6 1zM579 75
l2 2q-1 1 -4 1q-1 0 -3 -2l1 -1l1 -1q2 0 3 1zM536 70q14 -3 17 4q-11 2 -13 1t-4 -5zM411 53q0 -7 10 -7q8 0 8 6q0 8 -10 10q-8 0 -8 -9zM396 47q6 -3 7 4q-10 10 -24 5l-4 -4q3 -4 4 -3q2 1 17 -2zM488 52q1 0 5 2q-2 2 -3 4q-1 -2 -3 -4v-2l-8 3q-3 -7 2 -8q3 -1 4 0.5
t1 4.5h2zM331 50q1 -1 6 1q-1 1 -2 2.5t-2 2.5h-5l-2 -3q3 -3 5 -3zM467 46v4q-9 6 -20 3q-1 0 -2 -1t0 -2q0 -3 2 -3q7 -1 20 -1zM454 27v3q-2 -1 -6 -1v-1l1 -2h2q2 1 3 1zM424 25q6 -3 11 3q-5 -1 -11 -1v-2zM349 25q15 -8 21 -3q-13 7 -21 3z" />
    <glyph glyph-name="iacute" unicode="&#xed;" horiz-adv-x="773" 
d="M713 291q4 -115 -100 -203t-239 -88q-120 0 -219 86.5t-95 199.5q4 119 98.5 203.5t227.5 75.5q45 0 97.5 -15.5t104.5 -46t87.5 -86t37.5 -126.5zM371 531q-5 0 -5 -5q0 -6 7 -6q1 0 3 1l2 1q0 9 -7 9zM292 523q-11 9 -23 -3q15 -7 23 3zM352 520q-14 10 -22 3
q14 -11 22 -3zM467 524q5 -2 0.5 -6t-4.5 -6q8 -4 18 5q-1 0 -5 4.5t-9 2.5zM423 521q-22 2 -26 0q9 -4 17 -5q7 -2 9 5zM335 503q-5 0 -5 -4q0 -7 10 -7q0 1 1 2l1.5 1.5t0.5 1.5q0 6 -8 6zM268 500q-8 -2 -6 -8q1 -9 14 -15v16q0 7 -8 7zM357 498q-5 0 -3 -6q14 3 29 -4
q7 -4 8 3q1 4 -5 6q-7 3 -29 1zM318 497q-10 3 -35 -5l2 -4q1 0 9.5 -1.5t13.5 -1.5q10 0 10 12zM399 496q3 -3 5 -4l4 4q-1 0 -3 1.5t-3 1.5zM459 495q-3 -4 1 -10q1 -3 2 -5q1 0 4 1t4 1.5t2.5 2.5t1.5 4q0 4 -4 8q-8 4 -11 -2zM207 497q-2 -2 -3 -2l1 -2q0 -1 1 -1h1
q1 1 2 1l2 3h-3zM242 493q-1 -2 2 -4t7 -2q4 4 4 5q-1 5 -9 5q-4 0 -4 -4zM511 491q-9 4 -16 -1l11 -8q5 -4 9 1q4 6 -4 8zM452 488q-28 7 -35 0q2 -4 8.5 -2t9.5 1q0 -8 6 -7q9 0 11 8zM530 491q-1 0 -3 -2q1 -2 5 -6l2 5q-3 3 -4 3zM362 471l14 -6q4 6 0 10q-6 3 -13 -2
q-1 0 -1 -2zM298 473q0 -1 1 -4q0 -2 1 -3t8 -6q4 11 -2 13h-8zM231 470q-3 -3 -1 -6q3 -6 13 0q-2 1 -4 3.5t-3 2.5q-3 2 -5 0zM429 470q-8 0 -4 -8q2 -3 6.5 -4.5t7.5 0.5l4 8q0 1 -6 4h-3h-5zM491 466q-1 -4 6 -4q3 0 7 2v1q1 1 1 2l-6 3q-8 0 -8 -4zM262 465
q10 -10 22 -7q6 2 5 6q0 6 -6 6t-18 -2l-1 -1zM406 468q-5 0 -17 -2q-1 0 -5 -4q7 -4 28 -2q2 -1 5 -4l2 2q-1 0 -3.5 0.5t-3.5 1.5q1 6 0 7.5t-6 0.5zM354 468q-8 0 -28 -2q15 -19 28 2zM478 466q-13 2 -23 -2l18 -10q7 -3 10 3q2 8 -5 9zM546 459q-4 12 -15 6q-3 -3 -3 -4
q0 -2 3 -5q10 -2 15 3zM560 462q-2 -10 6 -12q0 1 2 3t3 4q2 6 -4 8q-7 2 -7 -3zM210 462q-2 5 -7 2q1 -6 6 -4q3 0 1 2zM180 463q-5 -2 0 -11q7 7 6 9q-4 4 -6 2zM342 450q-5 -1 -12 -1l3 -4.5t2.5 -1.5t3 1.5t3.5 5.5zM397 441q0 -6 6 -6q5 0 5 6q0 7 -7 7q-4 -1 -4 -7z
M280 438q2 6 -5 8q-7 0 -10 -7q1 0 3.5 -2t4.5 -3q5 -3 7 4zM515 425l2 1q2 2 4 3q-9 8 -26 8q-14 0 -20 6q-6 8 -10 -6zM251 440q1 3 -1 4t-6 1q-6 0 -6 -5l7 -7q6 6 6 7zM289 438q12 -7 17 -6t13 11q-24 1 -30 -5zM628 443l-1 -1q-2 -1 -2 -2q0 -2 3 -2q2 0 2 2q0 1 -2 3z
M391 436q-19 10 -33 3q12 -5 27 -7q1 0 3 2q2 1 3 2zM451 431q-19 18 -32 5q1 -3 7.5 -2t8.5 1t7.5 -1.5t8.5 -2.5zM527 439v-4l9 -3q2 6 -3 8q-1 0 -3 -0.5t-3 -0.5zM569 438q-1 0 -17 -5q4 -6 10 -4t10 4l1 2q-3 3 -4 3zM190 434q-10 6 -18 -4q9 -1 18 4zM593 424
q0 7 -7 9q2 -8 7 -9zM311 410q2 5 -4 7q-8 0 -11 -6q4 1 8 1q3 0 7 -2zM493 411q1 0 4 0.5t5 0.5v1q-1 1 -1 2q-6 2 -8 -4zM609 407q-2 1 -5.5 3.5t-5.5 3.5q-4 2 -6 2q-2 -1 -5 -4q0 -2 3 -5q8 -4 17 -7q1 0 2 1l1.5 1.5t1.5 0.5q-1 2 -3 4zM363 415q-1 0 -4 -3l1 -1
q1 -2 2 -2l6 2q-4 4 -5 4zM423 408q-12 12 -32 2q3 -1 9.5 -3t9 -2h9.5q1 0 2 1q1 2 2 2zM214 411q-3 3 -5 3l-2 -2l1 -1q1 -2 2 -2zM329 413q-1 0 -3 -2l1 -2q3 0 6 1q-3 3 -4 3zM630 413q-1 0 -7 -3q5 -3 6 -3h6l1 3zM559 411q-1 -1 -1 -2.5t1 -2.5q4 -6 12 -2q-1 1 -3 4
t-4 4q-2 2 -5 -1zM183 405q-1 4 -2 5.5t-4 0.5l-1 -3q2 -6 7 -3zM535 405q0 -1 1 -1q4 -3 6 3q-5 3 -7 -2zM156 406q-13 2 -17 -4q14 0 17 4zM373 267q4 -44 29 -71.5t71 -27.5q37 0 62.5 29.5t25.5 80.5q0 54 -25.5 84t-74.5 30q-41 0 -61 -20q-33 -33 -27 -105zM254 176
q0 -8 14 -10.5t28.5 -0.5t13.5 6q-12 187 -12 191q44 2 49 2q6 0 6.5 12t-4.5 13q-39 0 -71 -1h-8q-31 -1 -71 -1q-5 0 -6.5 -6.5t0.5 -13.5t5 -7q26 0 50 1q0 -17 3 -91.5t3 -93.5zM579 381q-3 6 -4 7q-2 1 -6 1q-3 -1 -3 -5t3 -4q1 -1 4 -1.5t4 -0.5zM637 384q-13 6 -20 1
q2 -1 7 -4t9.5 -4.5t9.5 -0.5q-5 8 -6 8zM593 381q1 -4 6 -10q5 8 0 13q-1 1 -3 1.5t-3 0.5v-5zM141 381l1 -3h4l2 -1q2 1 5 6q-2 0 -4 1h-2zM134 375q-4 4 -12 5l-8 1q11 -7 20 -6zM633 352q0 1 2 1q0 5 -1 7q0 2 -4 2l-1 -1q-1 -2 0 -3q0 -2 4 -6zM506 277q0 -86 -32 -86
q-15 0 -28.5 18.5t-13.5 63.5q0 46 12 66.5t27 20.5q35 0 35 -83zM566 354q1 0 3 1t3 1v1q-1 1 -1 2l-6 -3q0 -1 1 -2zM165 355q-4 3 -12 2t-12 -5q4 -5 12.5 -6t12.5 3q2 3 -1 6zM670 356q-12 2 -18 -1q7 -5 9 -6q3 -1 9 -1q3 3 3 4t-3 4zM94 353q-1 -2 -1.5 -5t-0.5 -5
q7 1 9 8q0 4 -2 4q-3 0 -5 -2zM609 345q1 0 2 1q1 2 3 3q-12 2 -14 -3q3 -1 9 -1zM662 335q-8 -2 -14 -4q4 -7 14 -7q6 -2 6 5q0 3 -1.5 5t-4.5 1zM143 328q4 -4 5 -4q2 0 7 3l-6 4zM597 324q2 0 6 4q-1 0 -3 1.5t-3 1.5l-3 -4zM642 328q-4 3 -8 -2q5 -5 8 -1q1 0 1 1t-1 2z
M97 329q2 -4 5 -5.5t8.5 -2.5t7.5 -1q-3 6 -11.5 7t-9.5 2zM173 324q0 -2 -1 -3q10 -4 15 -5q4 -1 8 1t4 7q-3 3 -5 3q-3 0 -6.5 -0.5t-8 -1.5t-6.5 -1zM576 318q1 0 3.5 1t5.5 2l-7 5q-2 0 -4 -0.5t-2.5 -1.5t-0.5 -2q2 -4 5 -4zM114 304q-1 -5 5 -5q4 0 4 3q-1 1 -2.5 3.5
t-2.5 3.5q-4 -4 -4 -5zM630 308q-4 1 -6 -1.5t-3 -8.5q7 0 10 1q4 0 4 6q0 3 -5 3zM187 303q-4 2 -5 2l-3 -3l1 -1q1 -2 2 -2l2 1zM606 305l-10 -3v-3q6 -2 10 -2q6 -3 6 3q1 5 -6 5zM662 298q14 0 17 7q-14 -2 -17 -7zM92 301v-2q4 -8 15 -1q-2 1 -6 2.5t-6 2.5q-1 0 -3 -2
zM141 298q11 -9 22 -7q4 0 4 4t-2 4q-15 4 -24 -1zM209 277q-1 -3 1 -4t4 0q1 0 5 2q-1 1 -5 7zM602 278q-5 7 -10 -2q7 -7 11 -3zM659 279q-3 1 -5 -1v-3q5 -5 9 -8q3 10 -4 12zM645 270q0 4 -2 4q-5 2 -7 1q-6 -1 -13 -5v-3h19q3 0 3 3zM179 274q-7 0 -7 -4q0 -6 5 -6
q7 -2 13 0q4 0 4 4t-4 4q-2 1 -8 1l-1 1h-2zM124 262q4 -2 7 -1q3 0 5 4l-3 4q-9 4 -19 0zM647 246q18 -4 28 2q-12 5 -23 4q-6 0 -5 -6zM102 242v6q-6 6 -12 3q2 -5 7 -8q1 -1 5 -1zM635 243q0 1 -1 3q0 3 -1 4q-5 4 -11 -2q1 -1 3.5 -2.5t3.5 -2.5h6zM119 237q8 5 5 10
q-3 7 -10 2q1 -2 2.5 -6.5t2.5 -5.5zM150 239q5 -2 8 0q5 2 3 6q-1 1 -6 4q-7 2 -11 -4q1 -1 2 -2.5t2 -2.5t2 -1zM176 249q-2 0 -3.5 -2t-0.5 -4q2 -3 9 -8q5 12 -5 14zM611 238q3 0 3 3q0 5 -2 5q-4 2 -7 1q-7 -1 -20 -6q3 -4 4 -4q14 0 22 1zM228 241q-6 8 -28 1
q1 -6 4 -6q4 0 24 5zM665 220q3 3 3 4l-3 4l-3 -1q0 -1 1.5 -3.5t1.5 -3.5zM218 222l-3 5q-2 -3 -6 -7q2 -3 3 -3q4 -1 6 5zM600 226q-2 0 -4.5 -2t-1.5 -4q1 -1 2 -3q1 0 8 5zM645 211q1 7 -1.5 10.5t-7.5 2.5q-9 0 -18 -3l-4 -4q4 -1 9 -1h7zM112 214q10 -2 28 2l2 2
q-11 2 -29 4q-6 0 -6 -3q-1 -2 5 -5zM156 214q-1 0 -2 2l-2 1q-1 0 -3 -2l1 -1l2 -2zM184 209q2 -3 5 -3q7 0 10 4q-6 9 -12 3q-3 -1 -3 -4zM582 212l-2 1q-2 1 -3 1t-2.5 -2t-2.5 -2q4 -2 6 -2q1 -1 3 0l1 1v3zM625 200q1 -1 2 -3.5t2 -3.5t3 -1h2v6q-4 6 -9 2zM589 184
q5 0 24 7q2 1 1 3.5t-3 3.5q-4 0 -5 -1q-4 -1 -11 -4.5t-11 -4.5q3 -2 5 -4zM206 184q13 2 24 10q-6 3 -15 -1q-2 -1 -7 -2t-7 -2q-1 -5 5 -5zM185 186q1 2 -2 4.5t-7 2.5q0 -1 -1 -2l-2 -2q0 -2 3 -5t6 -2q3 0 3 4zM563 193q-4 -4 -3 -4q1 -2 5 -6q3 0 3 3q-1 1 -2.5 3.5
t-2.5 3.5zM159 180q1 -1 5 -1q4 2 5 3q-3 5 -4 5l-15 3q-5 0 -13 -2v-3q12 1 22 -5zM208 168q2 -2 3 -1l4 2q-1 1 -3 1l-2 1zM342 171q2 -3 6 -7l2 2q-2 5 -8 5zM597 169l-1 2q-1 0 -3 -2q1 -1 3 -5q1 2 1 5zM365 166q5 -6 15 -2q2 0 2 3q0 1 -2 3q-10 2 -15 -4zM321 164
q5 -4 7 1q0 2 -1 3q-5 2 -6 -4zM144 165q1 0 3 -1.5t4 -1.5q1 -1 3 1q0 2 -1 3q-1 0 -7 2zM191 156q4 -2 6 -1q5 3 5 5q2 2 -3 5q-9 6 -22 0q12 -8 14 -9zM573 157q4 -2 7 -2q6 0 6 4q2 4 -3 6q-9 6 -21 0q3 -2 6.5 -4.5t4.5 -3.5zM634 158q1 0 9 4l-7 5q-3 0 -7 -4z
M620 159v2q-4 2 -6 2v-1l-1 -2q4 0 7 -1zM379 138q0 8 -7 10q-6 0 -6 -5q-1 -3 1 -5.5t5 -1.5q2 0 4 1t3 1zM186 136q2 0 3 2t0 3q-2 2 -8 4q-6 0 -6 -7q8 -2 11 -2zM569 135l4 4q-2 3 -5 5q-1 1 -4 1q-2 -1 -6 -5l5 -3zM292 140q-4 3 -8 3.5t-10.5 -2t-8.5 -2.5
q14 -17 27 1zM329 138q16 -9 24 -2q-16 12 -24 2zM461 130q12 -8 25 6q-1 0 -3 1q-3 1 -4 2q-5 5 -12 1q0 -5 -6 -10zM560 125v4l-18 11q-1 1 -5 1q-10 -2 -8 -11q0 -7 10 -4t17 -1h4zM162 133q2 7 -7 7q-7 0 -7 -5q0 -7 9 -7q5 2 5 5zM394 136q4 -1 11.5 -2.5t11.5 -2.5h1
l4 3l-4 4q-8 2 -14 2q-2 0 -5.5 -0.5t-4.5 -0.5v-3zM586 132q15 -2 24 5h-29q1 -3 5 -5zM202 132q20 0 26 2q-3 4 -4 4h-27l-1 -1v-2zM169 128l7 -4q-1 7 -7 4zM342 111q1 8 -5 8t-7 -3t1.5 -5.5t5.5 -2.5q2 0 5 3zM268 116q-7 -1 -6 -8q2 -10 12 -14q2 3 2 16q0 8 -8 6z
M351 110q1 0 3 -1l2 -1q16 2 27 -4q1 -1 4 -1q4 2 4 3q1 2 -1 6q-1 1 -4 1q-4 2 -29 2q-1 0 -6 -5zM207 105l2.5 2.5t3.5 2.5q-1 1 -2.5 2t-2.5 2t-2 1q-3 0 -5 -4q-1 -2 1.5 -4.5t4.5 -1.5zM308 101q10 0 10 12q-12 4 -35 -6l2 -3q1 0 9.5 -1.5t13.5 -1.5zM249 103q1 0 3 2
t3 2q-2 4 -4 5q-8 5 -19 -1q10 -8 17 -8zM399 113q1 -2 1.5 -7t0.5 -7q6 5 6 11t-8 3zM462 113q-7 -2 0 -16q9 1 11.5 4t0.5 7q-3 8 -12 5zM589 108q2 0 5 3q-4 2 -5 3l-3 -2q1 -2 3 -4zM526 105q0 -5 6 -5q3 0 3 3l-3 6l-3 2zM515 99q4 6 -4 8q-7 4 -17 -1l12 -8q6 -4 9 1z
M442 96q8 0 10 8q-21 6 -31 4l-5 -3q3 -5 8 -3q10 2 11 3q0 -9 7 -9zM568 100l2 4q1 1 1 2t-1 2t-2 0l-4 -4zM184 102l4 4q-2 2 -3 2q-3 0 -3 -2t2 -4zM376 81q4 7 0 10q-7 4 -16 -4q4 -1 16 -6zM298 88q-2 -2 1 -5q2 -2 9 -8q4 15 -5 15q-3 0 -5 -2zM498 78q2 -1 4 0.5
t1 3.5q0 1 -2 3l-3 3q-1 -1 -4 -3t-3 -3q0 -4 7 -4zM232 79q4 -4 8 2q-1 1 -2.5 3t-2.5 2t-4 -1v-5zM439 74q4 4 4 8t-6 4h-4v1q-1 -1 -3 -1h-3q-3 -2 -3 -6q1 -4 6.5 -6t8.5 0zM285 74q4 2 4 6q0 6 -4 6q-21 -3 -22 -4q7 -10 22 -8zM327 82q5 -8 13 -7.5t14 9.5
q-9 0 -27 -2zM385 77q12 -5 24 0l4 4l-6 3q-6 0 -18 -2q-2 0 -4 -2v-3zM483 73q2 6 -4 9q-9 4 -23 -3l18 -9q5 -3 9 3zM532 74q7 -3 11 4q-6 5 -12 2q-2 0 -2 -3t3 -3zM330 65q6 -8 11 0h-11zM408 57q0 7 -7 7q-4 -1 -4 -6q0 -7 7 -7zM278 52q2 4 0 7q-1 6 -11 -2
q8 -10 11 -5zM291 55q10 -7 13 -7t13 10q-20 3 -26 -3zM246 54l3 3l-4 3q-3 -3 -2 -4q0 -2 3 -2zM474 54q0 1 1 3q-3 5 -7 1q-1 0 -1 -3q1 0 3 -0.5t4 -0.5zM383 48q6 -2 6 5q-18 9 -31 3q0 -2 1 -2l7.5 -2.5t8.5 -2.5t8 -1zM419 51h23q-10 7 -19 4zM363 26l1 1l1 1l-3 3
q-2 -2 -2 -3zM395 27q20 -7 26 -3q-6 5 -26 3z" />
    <glyph glyph-name="icircumflex" unicode="&#xee;" horiz-adv-x="773" 
d="M713 291q4 -115 -100 -203t-239 -88q-120 0 -219 86.5t-95 199.5q4 119 98.5 203.5t227.5 75.5q45 0 97.5 -15.5t104.5 -46t87.5 -86t37.5 -126.5zM369 530l-8 -4q1 -1 3 -2.5t3.5 -3t2.5 -1.5q5 -3 5 4q1 3 -1 5.5t-5 1.5zM289 522q-10 10 -22 -3q3 0 7.5 -0.5t8 0
t6.5 3.5zM349 520q-13 8 -22 3q13 -12 22 -3zM464 524q5 -2 0.5 -6.5t-4.5 -5.5q10 -2 18 4l-4 5q-5 5 -10 3zM420 518q-16 10 -28 2q13 -3 14 -3q11 -2 14 1zM333 503q-6 0 -6 -4q0 -3 3 -5.5t5 -1.5q1 0 3 2l2 1q0 8 -7 8zM264 499q-6 -2 -5 -9q3 -9 14 -14v17q0 7 -9 6z
M355 498q-6 0 -4 -5l24 -3l7 -3q5 -2 6 3q2 5 -3 7h-2q-7 3 -28 1zM315 497q-12 4 -34 -6q0 -2 2 -4q14 -2 22 -2q6 -1 8 1.5t2 10.5zM407 494l-7 5l-3 -3q1 -3 4 -4q1 0 3 1t3 1zM456 495q-2 -3 4 -16q1 1 6 3t6 6q0 6 -5 8q-6 6 -11 -1zM243 496q-2 1 -3.5 -0.5t-0.5 -3.5
q3 -4 8 -5l6 3v3q-9 3 -10 3zM528 493q-4 -4 -4 -5q3 -3 5 -4q3 2 3 3zM508 491q-7 3 -16 -1q2 -1 6 -4t6 -4q5 -5 8 0q3 6 -4 9zM449 487q-21 7 -35 2l1 -3q5 1 17 1q-1 -4 1.5 -6t6.5 -1q8 0 9 7zM358 472q9 -6 16 -7q4 8 -1 10q-6 3 -15 -3zM296 472q-1 -1 -0.5 -3
t1.5 -3q1 -2 7 -6q8 12 -2 14q-4 0 -6 -2zM495 472l-4 -4q-3 -1 -3 -2q0 -5 8 -5l5 5q-3 2 -6 6zM228 470q-1 -2 -1 -6q3 -7 15 1q-4 1 -6 3l-1 1q-1 1 -2 1h-5zM422 467q-2 -3 1 -6q5 -7 12 -3q1 0 6 8q-1 0 -2.5 1t-2.5 2t-2 1h-7q-5 -2 -5 -3zM259 465q9 -10 23 -7
q1 0 3 2t1 3q-1 5 -4 6q-17 0 -23 -4zM325 466l-1 -1v-1q1 -1 3 -3.5t4 -3.5t5 0q13 5 15 11q-5 0 -13.5 -0.5t-12.5 -1.5zM398 467q-2 -1 -5 -1h-4q-3 0 -9 -3q7 -6 16 -4q13 0 18 -4l2 2q-5 8 -7 9.5t-11 0.5zM476 465q-13 3 -24 -2l19 -10q7 -5 9 4q4 8 -4 8zM544 459
q-6 9 -15 6q-4 -2 -4 -4q0 -3 4 -5q7 -3 15 3zM208 462q-3 4 -8 2q2 -6 7 -5q0 1 1 3zM561 465q-5 0 -6 -7q4 -6 7 -7q1 -1 2.5 0t3 3.5t1.5 4.5q0 6 -8 6zM177 463q-6 -3 0 -11q8 4 6 9q0 1 -2.5 2t-3.5 0zM327 448q1 -7 8 -5q5 2 1 7q-1 0 -2.5 -0.5l-3 -1t-3.5 -0.5z
M394 442q0 -3 1.5 -5.5t3.5 -1.5q3 0 6 3q2 9 -6 9q-5 0 -5 -5zM242 434q2 1 4 2.5t3 1.5q-1 7 -7 7q-7 0 -7 -6q0 -5 7 -5zM276 435q3 3 1 7q-3 3 -6 3l-9 -3v-3q1 -1 3.5 -2.5t3.5 -2.5t3.5 -0.5t3.5 1.5zM493 437q-15 0 -20 5q-6 6 -11 -4l20 -8q2 -1 7 -1q11 2 18 -4
l4 -2q1 1 3 2.5t4 3.5q-9 8 -25 8zM286 438q11 -7 16 -6.5t15 11.5q-3 0 -10 0.5t-12 -0.5t-9 -5zM627 443q-1 0 -2.5 -1t-2.5 -1q2 -4 3 -4l6 2zM387 436q-20 12 -32 3l1 -2l24 -6q6 -2 7 5zM427 434q4 0 12 -2q1 0 3 -1q5 -2 8 1q-11 9 -26 8q-7 0 -8 -5q1 -1 11 -1z
M524 438v-3l9 -3q2 6 -3 8q-2 0 -6 -2zM182 437q-5 -1 -15 -5q2 -5 7 -3q2 0 11 3q1 0 1 3q-2 2 -4 2zM566 437q-2 0 -4 -1t-3.5 -1.5t-4.5 -1t-5 -1.5q13 -7 20 0q1 0 1 3q-2 2 -4 2zM591 424q0 7 -8 11q3 -10 8 -11zM206 424q1 3 0 5t-2 2.5t-6 1.5q2 -4 6 -10q0 1 2 1z
M497 411q1 0 2 1t0 2q0 3 -3 3q-7 0 -9 -4q4 -6 10 -2zM374 416l-3 1l-3 -2q2 -2 3 -2zM367 414q-4 2 -6 1q-5 0 -5 -4t5 -4q6 0 6 7zM595 414q-3 3 -5 1q-3 0 -5 -4q-1 -1 0 -2.5t2 -1.5q9 -5 17 -6l5 2q-1 1 -2 3l-1 1q-2 1 -5.5 3.5t-5.5 3.5zM224 403l-13 11q-2 1 -7 1
q-3 0 -3 -3q0 -4 2 -4q17 -6 21 -5zM414 403q7 0 8 3q1 7 -7 7h-25q-3 0 -3 -3t3 -3q6 -2 20 -4h4zM437 403q0 7 -1.5 9t-7.5 1zM325 413l-1 -1v-3q1 0 3 -0.5t4 -0.5v2zM623 411q-1 -1 -3 -8l2 -2q1 7 7 4q1 0 4 3q-2 4 -3 5q-6 0 -7 -2zM171 408q0 -7 11 -5q-1 5 -3 7.5
t-4 1.5q-4 0 -4 -4zM465 412q-10 0 -13 -7q17 -2 25 0q-2 7 -12 7zM249 409q-3 3 -4 3t-3 -2l3 -3zM564 403q0 1 1 1q2 6 -5 8q-3 0 -3 -3q0 -6 7 -6zM154 408q-3 -1 -6.5 -0.5t-7 -1t-6.5 -5.5q19 -1 20 7zM304 174q36 0 60.5 28.5t24.5 78.5q0 53 -24.5 82.5t-72.5 29.5
q-41 0 -61 -20q-31 -33 -25 -102q3 -43 28 -70t70 -27zM405 383h3q0 9 -5 9q-7 0 -5 -7q4 -2 7 -2zM193 379q-1 2 -3 5t-3 4q-2 2 -6 0q-3 0 -3 -4q0 -3 4 -5h11zM635 384q-12 7 -21 0q2 -1 5.5 -3t6 -3.5t6 -2.5t6.5 0q0 7 -3 9zM595 372q3 8 2 10.5t-8 1.5zM143 384
q-6 0 -5 -5q2 -5 7 -3q6 2 5 8h-7zM431 186q0 -7 14.5 -10.5t29 -1t14.5 9.5q0 3 -0.5 26t-0.5 42v11q36 4 45 4q3 0 4.5 5.5t0 11t-4.5 5.5q-12 -2 -45 -4v73q5 3 12.5 3t26.5 -3t22 -3q6 -1 11 11q5 15 -5 15q-10 -1 -45 0.5t-57.5 0t-22.5 -8.5zM129 374q-1 3 -4 4
t-6.5 1t-5.5 1q7 -6 16 -6zM302 362q8 0 15 -6t13 -25.5t6 -49.5q0 -84 -32 -84q-9 0 -17.5 6t-16 25t-7.5 49q0 85 39 85zM629 353h3q2 5 -2 9q-3 0 -4 -1q-2 -3 3 -8zM180 348l7 10q-10 3 -12 -3q-4 -5 5 -7zM667 356q-10 3 -18 -2q1 -1 4.5 -3t5.5 -3q4 -2 8 0q4 0 4 4
t-4 4zM165 351q0 4 -3 4q-13 4 -26 -3l5 -5q7 -4 20 0q4 0 4 4zM97 355q-8 -4 -5 -11q7 3 5 11zM596 347q7 -4 13 0q-5 5 -13 0zM659 335q-1 0 -6 -1.5t-8 -2.5q5 -8 14 -8q6 0 6 6q0 3 -1.5 5t-4.5 1zM599 320q0 10 -3 11q-5 0 -5 -3q-1 -6 8 -8zM141 328q2 -4 4 -4l7 2
l-3 3q-1 1 -2 1q-2 0 -6 -2zM639 327q-3 5 -7 -1q3 -6 7 -2q1 1 1 2t-1 1zM581 323q-2 4 -6 4l-17 -3q-1 -1 -1 -3q13 -7 20 -5q5 3 4 7zM109 326q-5 2 -9 -3h9v3zM192 322q-4 4 -5 4q-2 0 -6.5 -1t-7.5 -1v-3q10 -5 15 -4q2 1 4 5zM632 305q0 3 -5 3q-4 1 -5.5 -1.5
t-3.5 -8.5q10 0 11 1q3 0 3 6zM115 307q-1 0 -4 -3q1 -1 2.5 -3.5t2.5 -3.5q4 4 4 5q-2 3 -5 5zM655 297q6 -1 8.5 -0.5t8 2.5t7.5 3q-3 3 -4 3q-13 -2 -20 -8zM606 297q4 0 4 4q-3 3 -4 3q-9 2 -16 -5q9 -5 16 -2zM97 295l3 1h3q0 1 -1 2q-2 2 -4 2q-2 1 -8 1q-1 -1 0 -1
q4 -4 7 -5zM139 297q9 -8 21 -6q4 0 4 4t-2 4q-15 4 -23 -2zM589 276l5 -5l2 -1h4q2 5 1 6q-2 4 -6 4q-1 1 -6 -4zM657 279q-4 2 -7 -3q6 -6 10 -11q4 10 -3 14zM640 267q3 0 3 3q0 2 -2 4q-5 2 -7 1q-3 -1 -14 -5v-3h20zM174 273q-4 0 -4 -3t2 -5q8 -4 15 3q-2 3 -13 5z
M556 269q0 -2 3 -5h13q3 0 3 3q0 4 -3 4l-5 1h-7zM131 268q-9 6 -20 1q9 -6 11 -7q3 -3 8 -1q3 0 3 4q0 1 -2 3zM644 247q16 -8 30 1q-14 7 -23 4q-7 0 -7 -5zM99 242v5q-1 1 -7 5l-1 -2q1 -4 4 -7q0 -1 4 -1zM619 248q5 -5 8 -6l5 1q0 5 -1 7q-6 3 -12 -2zM122 247
q-4 6 -11 1q1 -1 1.5 -3t1.5 -4l2 -4q8 5 6 10zM148 239q2 -2 8 0q1 0 2 2t0 3q-2 4 -6 5q-6 2 -11 -4q3 -5 7 -6zM558 248q-4 0 -4 -3q-1 -2 1.5 -5t5.5 -3q1 0 4 3q0 8 -7 8zM175 247q-1 1 -2.5 0.5t-2.5 -1.5q-2 -2 1 -5q2 -2 8 -4q4 8 -4 10zM592 235l15 3q4 0 4 3l-3 6
q-2 2 -5 0q-11 -1 -24 -6q3 -6 13 -6zM538 240q1 0 2 1.5t0 2.5q-1 4 -8 2q1 -4 2 -5.5t4 -0.5zM659 226q2 -4 4 -5q2 2 5 3l-6 4zM602 222l-5 3q-6 0 -6 -5q0 -4 3 -4q4 2 8 6zM642 212q2 6 -0.5 9.5t-7.5 2.5q-1 0 -19 -3q-1 0 -1 -1q-1 -2 -2 -3zM108 215q13 -4 30 1
q1 0 1 2q-18 2 -29 4h-2q-2 -2 -4 -3zM152 214l-5 6q0 -2 -1 -4v-1q0 -3 3 -3t3 2zM565 209q2 -4 4 -4q9 0 11 5q-6 7 -13 3q-2 -2 -2 -4zM182 209q6 -5 12 2q-6 4 -12 -2zM623 201q1 -6 3.5 -8.5t4.5 -1.5q2 2 2 3q0 6 -10 7zM604 188q8 4 7 7q-1 4 -10 1h-1q-4 -2 -18 -8
q1 -7 9 -4q3 1 7 2.5t6 1.5zM668 187q3 2 3 3t-2 3q-1 2 -2 3q-4 -4 -4 -5q1 -2 5 -4zM219 194l-20 -6q9 -6 20 6zM171 189q-1 -2 2 -5t6 -2q2 0 4 2q0 9 -8 9q-4 -2 -4 -4zM562 192q-1 1 -3 0q-3 -1 -4 -1q1 -1 1 -3v-3q5 -5 12 -1q-5 7 -6 8zM156 180q3 -1 8 -1l3 4
q0 3 -2 3q-19 6 -30 0q9 0 21 -6zM548 186q-20 4 -29 1l20 -7q2 -1 8 -1q2 0 4 4q0 3 -3 3zM409 175q-4 1 -5 -1t-2 -8q1 1 4 2q4 3 5 5q0 2 -2 2zM590 169q0 -2 2 -2q1 0 3 2l-3 4zM363 165q5 -4 14 -2q2 0 2 3t-3 3q-8 2 -13 -4zM175 165l13 -10q1 0 3 -0.5t3 -0.5
q5 2 5 5q2 4 -3 6q-9 6 -21 0zM571 156q5 -2 7 -1q4 0 6 4q0 3 -3 6q-10 6 -22 0q10 -8 12 -9zM140 166l4 -4q1 0 3 0.5t3 0.5q-3 3 -5 4q0 1 -5 -1zM536 164q-6 3 -8 3q0 1 -3 -2q2 -2 6 -4l1 1zM637 160q1 1 1 3t-1 3q-2 1 -7 1q-7 -1 -19 -5v-2l2 -1q2 -1 3 0q8 2 14 -1
q3 -2 7 2zM252 157q1 1 1.5 3t-0.5 3q-1 3 -5 3q-1 -1 -3.5 -2.5t-4.5 -1.5h-13q4 -4 13 0q4 -4 6 -5q4 -2 6 0zM511 161l-2 3h-10q3 -6 9 -5q1 0 3 2zM376 139q0 8 -7 8q-6 0 -6 -6q3 -8 8 -6q2 1 5 4zM566 135l2 1l3 3l-5 5q-1 1 -4 1q-6 0 -6 -5q0 -2 5 -4q2 0 5 -1z
M186 137q1 3 0 3q-4 4 -7 4q-7 2 -7 -6q1 0 3 -1t3 -1q5 0 8 1zM290 138q-12 14 -27 -1q11 -14 27 1zM458 129q14 -7 28 8q-14 6 -22 3q-4 -8 -6 -11zM327 138q14 -10 23 -2q-15 8 -23 2zM391 136q16 -4 23 -5h1l5 3l-4 4q-10 2 -14 2q-5 0 -11 -2v-2zM146 137q2 -5 3.5 -7
t3.5 -1.5t6 2.5q-2 7 -3.5 8t-9.5 -2zM538 126q8 3 13 -1h8q-2 3 -4 5q-11 8 -13 9q-6 1 -12 0q-2 0 -3.5 -4t-0.5 -7q2 -5 8 -3q1 0 2 1h2zM584 132h7.5t8.5 0.5t8 2.5q-10 6 -30 1q5 -5 6 -4zM220 132q1 0 4 3l-2 2l-2 1q-17 0 -26 -1q0 -2 -1 -2q2 -2 6 -4q3 0 10 0.5
t11 0.5zM167 129q1 -4 6 -3q-1 5 -6 3zM327 115q0 -3 2.5 -5.5t5.5 -1.5q2 0 5 3q0 8 -7 8q-6 0 -6 -4zM265 115q-8 0 -6 -8q3 -8 14 -15v17q0 8 -8 6zM205 105l2 1l4 4q-2 1 -4.5 3t-3.5 2q-4 0 -4 -4q-1 -2 1 -4.5t5 -1.5zM304 101q6 -1 8 1.5t3 10.5q-11 4 -32 -5l-2 -2
l1 -1q1 -2 2 -2q14 -2 20 -2zM396 113l3 -15q6 4 4 14q0 6 -7 1zM355 114q-2 1 -3.5 -0.5t-0.5 -4.5l23 -3q2 0 4.5 -1.5t3.5 -1.5q5 0 5 1q2 4 0 7q0 2 -4 2q-9 1 -28 1zM459 113q-7 -2 1 -16q14 1 11 11q-2 9 -12 5zM587 107q1 0 5 4q-1 0 -3 2l-2 1q-1 0 -4 -3zM250 104
q2 1 2 3.5t-2 3.5q-10 5 -18 0q0 -1 -0.5 -1t-0.5 -1l12 -6q3 -1 7 1zM512 98q4 4 -1 8q-8 7 -19 -1q2 -1 6.5 -4t6.5 -4q4 -2 7 1zM440 96q8 0 9 7q-23 8 -37 2q3 -5 10.5 -3t9.5 1q0 -9 8 -7zM527 108l-3 -3q1 -2 2.5 -4t2.5 -4l3 7q-1 2 -5 4zM568 102q2 2 0 5q-1 1 -5 1
l-11 -3v-2l11 -3q3 0 5 2zM375 82q0 7 -2 8q-5 5 -16 -3q11 -5 16 -6zM295 88q0 -4 1 -6q6 -4 9 -7q5 15 -5 15q-3 0 -5 -2zM496 78q1 0 2.5 1.5t2.5 1.5q-1 1 -2.5 3t-3.5 4l-4 -4q-3 -1 -3 -2q2 -6 8 -4zM432 73q9 0 9 8q-1 5 -8 5h-4q-7 0 -8 -4q0 -7 8 -9h3zM228 80
q4 -6 9 0q-4 6 -8 5q-1 0 -1 -5zM286 79q1 1 -0.5 3.5t-2.5 2.5q-14 2 -23 -3q7 -10 22 -8q4 0 4 5zM324 82q6 -8 14 -7.5t12 9.5q-5 0 -13.5 -1t-12.5 -1zM380 78q13 -6 27 -1q3 0 3 4q-2 3 -5 3q-1 0 -8.5 -1t-11.5 -2q-1 0 -5 -3zM480 73q2 8 -5 9q-11 2 -23 -3l18 -9
t10 3zM529 73q6 -2 13 4q-6 5 -13 3q-3 0 -3 -3q0 -1 3 -4zM328 63q4 -4 5 -3.5t5 5.5q-9 0 -10 -2zM405 55q0 4 -2.5 6.5t-4.5 1.5q-4 0 -4 -6t6 -6q2 1 5 4zM272 51q2 0 7 5q-1 1 -3.5 2.5t-3.5 2.5q-7 0 -6 -5q0 -2 6 -5zM289 54q14 -12 25 4q-21 2 -25 -4zM467 53
q3 0 7 3q-1 0 -3 2l-2 1q-2 -1 -5 -4l1 -1q1 -1 2 -1zM383 48q1 0 4 3q-7 6 -17.5 7t-15.5 -5q20 -4 29 -5zM416 50h25q-17 13 -25 0zM360 25l4 2l-2 2l-1 1h-2q-2 0 -2 -3q1 0 3 -2zM392 27q22 -9 27 -1q-7 3 -27 1z" />
    <glyph glyph-name="idieresis" unicode="&#xef;" horiz-adv-x="773" 
d="M713 291q2 -60 -17 -111t-58.5 -92t-107 -64.5t-156.5 -23.5q-120 0 -219 86.5t-95 199.5q4 119 98.5 203.5t227.5 75.5q45 0 97.5 -15.5t104.5 -46t87.5 -86t37.5 -126.5zM363 529q-3 -3 -3 -5q0 -6 7 -6q3 2 5 5q0 8 -9 6zM285 521q-12 8 -19 -2q12 -2 19 2zM348 518
q-17 10 -25 2q19 -5 25 -2zM459 522q6 -3 1.5 -6t-4.5 -5q9 -5 17 3q-3 6 -4 7.5t-3 2t-7 -1.5zM416 520q-3 0 -8.5 1t-10 1t-9.5 -2l21 -6q6 0 7 6zM336 494q0 8 -7 8q-3 0 -4.5 -1t-0.5 -3q0 -3 3 -5.5t5 -1.5q1 0 2 1zM261 498q-6 0 -6 -7q3 -9 14 -15v5v4.5v3.5v4
q0 7 -8 5zM312 496q-8 2 -33 -5q-2 0 -2 -2l1 -1q1 -2 2 -2l20 -3q7 0 9 2.5t3 10.5zM351 497q-1 0 -5 -4q1 0 1 -2q16 1 30 -5q7 -2 8 3t-6 7q-9 3 -28 1zM402 494l-6 4l-3 -3q1 -2 5 -4q2 2 4 3zM452 494q-2 -4 4 -16q1 1 6.5 3t5.5 6q0 6 -5 8q-6 6 -11 -1zM236 492
q-1 -2 2 -4t7 -2q3 3 3 4q-1 5 -8 5q-4 0 -4 -3zM505 490q-9 4 -17 -1q2 -1 4 -2.5t4.5 -3.5t3.5 -3q6 -4 9 2q2 5 -4 8zM445 486q-27 8 -35 0q2 -3 9 -1t10 1q-1 -4 1 -6t7 -1q8 0 8 7zM525 490l-5 -2l5 -5l5 2zM354 470q4 -2 9.5 -4t6.5 -2q3 7 -1 10q-5 4 -15 -4z
M296 473q-4 0 -5 -2.5t1 -4.5q1 -1 10 -8q3 15 -6 15zM485 465q-1 -5 7 -5q1 0 5 4q-1 2 -6 7l-3 -3q-3 -2 -3 -3zM418 465q-1 -3 2.5 -6t7.5 -3q9 0 9 8q-1 5 -10 5q-8 0 -9 -4zM224 468q-2 -2 0 -5q3 -7 12 0q-4 4 -7 6q-4 0 -5 -1zM279 468q-18 0 -24 -4q9 -10 24 -7
q4 4 4 6q0 5 -4 5zM400 467q-3 0 -8.5 -0.5t-8.5 -1.5l-6 -4q8 -4 29 -2l5 -5l1 1v2q-2 0 -6 2q1 5 -0.5 7t-5.5 1zM348 467q-5 0 -14 -0.5t-14 -1.5q14 -19 28 2zM449 462v-2q2 0 5 -0.5t5 -1.5l8 -6q6 -3 10 4q2 8 -5 8q-13 3 -23 -2zM200 465l-3 -3l4 -4l3 2l-2 2
q-1 2 -2 3zM538 462q-2 2 -7 2.5t-7 -1.5q-3 -1 -3 -3.5t2 -3.5q4 -2 6 -2q1 0 4 1t5 1q6 2 0 6zM560 464q-7 0 -7 -4q0 -9 7 -11q0 1 2 3.5t3 3.5q2 6 -5 8zM174 462q-6 -3 -1 -11q9 4 6 9q-2 2 -5 2zM334 448h-11q5 -6 6.5 -6t4.5 6zM391 441q-2 -7 5 -7q6 0 6 5q0 7 -9 7
l-1 -2q-1 -2 -1 -3zM245 438q1 2 -1 4t-5 2q-4 0 -6 -1t-1 -4q0 -1 5 -8q7 5 8 7zM272 433q2 5 1 7q0 4 -6 4q-3 0 -11 -5q2 -1 5 -3l5 -3q4 -2 6 0zM622 444l-5 -5q4 -4 5 -4t2 1l1.5 1.5t1.5 0.5q-3 3 -5 6zM487 436q-10 -1 -17 4q-5 6 -12 -2l2 -2q34 -9 43 -11q8 -2 9 4
q-12 8 -25 7zM301 431q1 1 6 5t8 6q-4 0 -11.5 0.5t-13 -0.5t-9.5 -5q10 -5 15 -7q4 0 5 1zM379 430q1 0 2 2q2 2 3 2q-17 11 -32 4q5 -3 27 -8zM412 435q1 -3 8 -2.5t8 0.5q10 -2 17 -4q-17 18 -33 6zM525 439l-6 -4q2 -1 11 -3q1 7 -5 7zM179 436q-5 -1 -15 -5q1 -1 1 -3
q2 -1 15 2q2 0 2 4q0 2 -3 2zM562 436q-2 0 -4 -1t-3.5 -1.5t-4.5 -1t-5 -1.5q4 -3 7 -3.5t7 1t5 1.5t3 4q-1 0 -3 1zM203 422q1 8 -7 10q2 -8 7 -10zM586 423q3 7 -5 9q0 -8 5 -9zM290 410h15q-7 9 -15 0zM493 411q-2 8 -6 2q-1 0 -1 -0.5v-1.5h7zM218 406q-9 6 -11 7
q-4 2 -7 1q-2 -1 -3 -3t2 -4t9 -4.5t9 -3.5l3 2q0 3 -2 5zM352 410q3 -3 4 -3l7 2q-5 5 -6 5t-2.5 -2t-2.5 -2zM584 414q-3 -1 -3.5 -3.5t1.5 -3.5q10 -5 19 -8q2 0 4 2l-2 4q-8 6 -13 9h-6zM246 407q0 5 -4 5q-7 3 -10 -6q1 0 4 -0.5t4 -1.5q6 -2 6 3zM415 407
q-10 10 -29 2q22 -9 29 -2zM619 410q-5 -3 0 -11q0 3 1 4.5t2.5 1t3.5 0t3 1.5q2 5 -2 6q-4 0 -8 -2zM278 408q-5 5 -9 0h9zM343 410q-14 4 -24 0q5 -4 12.5 -4t11.5 4zM560 402h2q0 8 -6 9q-3 0 -3 -3q0 -6 7 -6zM169 404q4 -6 11 -1q-1 1 -2.5 3.5t-3.5 3.5q-1 1 -2.5 0.5
t-2.5 -1.5t-1 -2.5t1 -2.5zM469 407q-8 5 -14 0q8 -4 14 0zM151 407l-8 -1q-8 0 -11 -5q12 -1 15 0t4 6zM340 185q2 -7 15 -7.5t24.5 4.5t10.5 11q-7 35 -64 187q-4 12 -25.5 12t-27.5 -12q-1 -3 -13.5 -43t-27 -87.5t-18.5 -61.5q-1 -2 2.5 -4t8.5 -3.5t10 -1.5t9 1t5 3
q0 15 11 53q8 0 30.5 1.5t30.5 1.5q3 -11 19 -54zM446 188q0 -7 13.5 -9.5t27 -0.5t13.5 5q-3 20 -5.5 55.5t-5 75t-3.5 50.5q13 0 29.5 1t18.5 1q6 0 5.5 11t-5.5 11h-66h-75q-8 0 -7 -13.5t7 -13.5q24 0 48 3q0 -23 2.5 -92t2.5 -84zM189 379q-2 6 -4 7q-3 3 -8 1
q-3 0 -3 -4q2 -5 5 -5q1 -1 9 -1q1 1 1 2zM572 380q-2 4 -4 6q-4 4 -6 -1q-2 -2 1 -5q1 -1 4 -2l3 -1q2 2 2 3zM633 382q-14 8 -23 3q10 -11 26 -11q-2 8 -3 8zM246 382q-12 6 -20 1q3 -1 8 -3.5l7 -3.5h3q3 2 3 3q1 1 0.5 2t-1.5 1zM202 380l7 -11q4 10 -1 14q-1 1 -5 1
q-1 0 -1 -4zM591 371q4 7 2.5 10t-8.5 2zM134 379q1 -3 2 -3q2 -1 6 -1l3 3q1 1 1.5 2t1.5 2q-2 0 -4.5 0.5t-3.5 0.5q-4 -2 -6 -4zM628 351q3 5 -2 10q-3 0 -3 -1q-3 -3 2 -8h1q2 0 2 -1zM684 351q-2 8 -8 7q0 -3 8 -7zM184 356q-11 5 -14 -1q-1 -6 7 -9q6 9 7 10zM567 356
q-8 4 -11 -2q-4 -6 5 -6q2 4 6 8zM663 355q-10 3 -19 -2q6 -3 7 -4q6 -6 13 -3q3 3 3 5q0 4 -4 4zM160 354q-15 7 -26 -4q5 -5 13 -6t13 3q4 3 0 7zM533 348h9q-3 6 -8 4q0 -2 -1 -4zM221 345v2q-5 5 -11 1v-3q6 -4 11 0zM592 346q7 -5 15 0q-9 5 -15 0zM265 257
q12 44 21 83q3 -9 12 -36.5t15 -43.5h-13q-4 0 -16.5 -1.5t-18.5 -1.5zM655 334q-7 0 -13 -6q4 -6 13 -6q7 0 7 5q0 7 -7 7zM137 326q1 0 2.5 -1.5t2.5 -1.5l7 3q-6 4 -7 4t-2.5 -2t-2.5 -2zM596 319q0 10 -4 11q-2 0 -5 -3q0 -7 9 -8zM211 327q0 1 -1.5 2t-2.5 0
q-3 0 -3 -3q0 -1 4 -5l2 4q1 1 1 2zM636 326q-4 4 -8 -1q5 -5 8 -2v3zM193 323q0 1 -2.5 2.5t-3.5 0.5q-3 0 -6.5 -0.5t-8 -1.5t-6.5 -1v-2q7 -5 16 -7q6 0 7 2q4 2 4 7zM577 323q0 3 -5 3q-11 2 -22 -5q14 -7 17 -7q4 0 8 2q2 4 2 7zM691 302q2 0 5 3q-2 1 -3.5 3t-2.5 2
t-4 -3zM623 307q-7 0 -9 -10h10q1 1 2.5 3t2.5 3q-1 0 -3 2t-3 2zM111 306l-4 -4q2 -2 6 -4q1 -1 2 1l3 3zM172 300q1 0 2 -1l2 -1q3 0 3 3q0 1 -3 4q-3 -3 -4 -5zM674 302q-9 4 -22 -5q12 -5 22 5zM557 301l1 -1q1 -2 2 -2l2 1l2 2q-2 3 -3 2q-2 0 -4 -2zM587 298
q8 -5 15 -2q1 0 4 3q-2 4 -5 4q-7 1 -14 -5zM204 299q11 -4 18 1q-9 4 -18 -1zM97 294q0 2 1 3l-8 3l-1 -2zM136 295q10 -6 20 -5q3 0 5 4q0 2 -2 4q-4 2 -11.5 1.5t-11.5 -4.5zM544 294q0 4 -3 4q-10 2 -16 -2q4 -6 16 -6q3 3 3 4zM212 275l-5 5l-5 -5q1 0 3 -2q1 -1 2 -1
t2.5 1.5t2.5 1.5zM598 274q0 4 -8 6q-4 -4 -4 -5q0 -4 8 -6q2 0 4 5zM657 266q3 8 -2 11q-6 4 -8 -1q1 -7 10 -10zM688 275q-10 4 -16 -1q8 -7 16 1zM639 269q0 3 -3 4q-4 2 -6 1q-3 -1 -14 -5q0 -2 1 -3h19q3 0 3 3zM558 272q-8 0 -9 -4q0 -6 7 -6q6 -2 11 0q1 0 5 4
q0 2 -5 5q-3 1 -9 1zM175 272h-4q-6 0 -6 -3q3 -6 4 -6q9 -2 14 -1l5 5q-1 1 -2.5 2t-2.5 2q-2 1 -8 1zM130 263q0 4 -3 4q-10 5 -18 1l8 -7q6 -2 8 -2q3 0 5 4zM641 245q19 -7 31 3q-15 4 -27 3q-5 -2 -4 -6zM629 242q0 1 -0.5 3.5t-1.5 3.5q-5 4 -11 -2q5 -5 7 -5h6z
M112 236q9 4 6 10q-3 5 -9 1zM144 237q3 -1 8 1q1 0 2 2t0 3q0 3 -5 5q-7 2 -12 -4zM170 247q-2 0 -5 -3q0 -7 10 -9q0 1 1 2t1 2q1 3 -1.5 6t-5.5 2zM550 243q-1 -2 2 -4.5t5 -2.5q1 0 4 3q0 4 -2.5 6.5t-5.5 1.5q-3 0 -3 -4zM525 244q5 -6 7 -6q3 -3 6 3q1 4 -4 6
q-1 0 -3.5 -0.5t-4.5 -0.5q0 -1 -1 -2zM576 240q2 -6 11 -6t16 3q4 0 4 3t-2 5q-3 3 -6 1q-11 -2 -23 -6zM213 243q-14 -2 -18 -2q6 -7 18 2zM658 228q0 -1 -3 -3q1 -4 4 -8l4 6zM598 220l-4 4q-5 1 -7 -5q0 -4 3 -4zM639 209q3 10 -4 13q-4 2 -13 0t-14 -6q3 0 8 -0.5
t7 -1.5q3 0 16 -5zM102 217q4 -4 17 -4q13 1 16 4l-32 3l-1 -1v-2zM679 213q2 0 6 0.5t6 1.5q0 1 -0.5 1t-0.5 1q-6 1 -11 -4zM148 213l-3 3q-1 0 -1 -1l-2 -1l3 -4l1 1q2 1 2 2zM180 211q-2 -3 -1 -4q0 -2 2 -2q6 -2 10 4q-6 8 -11 2zM562 207l3 -3q8 0 12 5q-8 8 -14 2
q-3 -3 -1 -4zM619 199q0 -3 1 -3l7 -6q2 2 2 3q0 5 -6 7q-2 0 -4 -1zM588 183q2 0 6 1.5t7 2.5q1 0 3.5 1t3 2.5t-0.5 3.5q0 5 -10 1h-1q-3 -2 -9 -4.5t-8 -3.5q0 -6 9 -4zM662 184q1 0 4.5 0.5t5.5 0.5q-2 11 -9 11q-5 0 -7 -6q0 -6 6 -6zM170 192q-3 -3 -3 -5q0 -6 7 -6
q4 0 4 4q0 7 -8 7zM278 187q3 -4 10 -1q-4 7 -8 5zM552 190q0 -6 1 -6q4 -6 11 -1q-5 7 -6 8t-3 0t-3 -1zM159 178l4 4q-1 3 -2 3q-21 4 -30 1q5 -1 13 -3.5t10 -3.5q1 0 3 -1h2zM528 187q4 -7 15 -9q4 0 4 3q0 4 -3 4q-3 1 -8 1.5t-8 0.5zM591 168q-1 2 -2 2q-2 -2 -3 -2
l3 -5q2 4 2 5zM291 164q9 -3 27 -3q1 0 7 4q-5 3 -6 3q-5 0 -14 -0.5t-14 -0.5v-3zM633 154q6 4 3 9t-10 4l-19 -7l-1 -1q4 -2 7 -2q8 2 13 -2q3 -3 7 -1zM564 158q4 -4 8 -4q6 -2 8 3q2 4 -4 8q-10 4 -21 -1q7 -5 9 -6zM184 155q1 -1 5 -1q6 -2 6 4q0 4 -3 6q-9 6 -21 0
q8 -7 13 -9zM139 166q3 -6 8 -2q-6 2 -8 2zM531 162q-4 4 -10 3q5 -8 10 -3zM246 153q5 5 5 7q0 4 -5 4q-6 0 -4 -5zM497 161q6 -4 9 -1q-2 3 -9 1zM372 139q0 7 -7 7t-5 -5q1 -2 6 -9q5 5 6 7zM560 134q4 0 6 1.5t1 3.5q-3 8 -10 4q-5 0 -5 -4q0 -2 7 -4q1 0 1 -1zM179 135
q2 0 4 2l-1 4q-7 7 -14 -4q8 -2 11 -2zM288 138q-5 4 -10 4.5t-11 -2t-9 -2.5q3 -8 9 -8q15 0 21 8zM455 128q15 -9 28 9q-20 5 -24 3zM323 137q14 -9 24 -2q-18 10 -24 2zM296 137l1 -4q5 -1 7 5v2q-7 2 -8 -3zM535 125q7 4 12 -1h3.5t3.5 -1v4l-18 12h-8q-8 -2 -6 -11
q2 -6 9 -4zM388 135q3 -1 10 -2.5t10 -2.5h5l1 1q2 1 2 2q0 3 -3 3q-7 3 -16 3q-2 0 -10 -2q0 -1 0.5 -1t0.5 -1zM152 129q1 3 1 5q-2 5 -9 2q2 -9 8 -7zM195 131q21 0 26 2q-9 8 -31 1q1 0 3 -2q1 -1 2 -1zM580 130q22 3 24 4q-4 3 -14.5 3t-14.5 -2q-1 -5 5 -5zM336 112
q0 6 -9 6q-3 -3 -3 -4q-1 -3 2 -5.5t6 -2.5q4 1 4 6zM262 115q-8 -2 -7 -9q3 -8 14 -14v4.5v4v3.5v4q0 7 -7 7zM200 104q1 0 7 4q-5 5 -8 6q-4 0 -4 -4q0 -6 5 -6zM301 100q6 -1 8 1.5t2 10.5q-12 4 -34 -6l2 -4q14 -2 22 -2zM344 108q6 -2 7 -1q11 1 25 -4q1 -1 3 -1l6 3
q0 2 -2 6q-1 0 -3 1q-9 3 -29 1zM584 104q2 0 7 5q-7 5 -8 5q-4 0 -4 -4q-1 -2 1 -4.5t4 -1.5zM393 112q0 -3 2 -15q8 10 5 14t-7 1zM455 112q-6 -3 1 -16q8 1 11 3.5t1 7.5q-4 9 -13 5zM242 102q1 -1 4 1l3 2q-1 1 -2.5 3t-2.5 3q-7 3 -17 0q5 -9 15 -9zM557 99q5 -2 7 0.5
t1 9.5q-3 -1 -9 -2.5t-9 -2.5v-2zM506 105q-10 5 -18 0q6 -5 13 -9q5 -2 7 1q4 6 -2 8zM437 95q8 2 8 8q-25 6 -36 1l3 -3q2 0 7.5 0.5t8.5 0.5q2 -9 9 -7zM523 107q-3 0 -3 -4q1 -2 6 -7q3 4 3 6q0 6 -6 5zM370 79q4 9 -2 11q-6 3 -12 -5q8 -4 14 -6zM292 87q-2 -3 1 -6
q1 -1 9 -7q3 15 -5 15q-5 0 -5 -2zM225 79q3 -6 8 0q-4 6 -7 5q-1 0 -1.5 -2t0.5 -3zM277 73q7 0 6 6t-7 6q-2 -1 -7 -1t-8 -1q-1 0 -2 -1q-1 -2 -2 -2q5 -9 20 -7zM421 85q-5 -1 -3 -6q1 -4 6 -6t8 0q3 1 5 8q0 1 -7 4h-9zM489 85l-5 -5q2 0 5 -2t4 -2q2 -2 5 4q0 5 -9 5z
M378 76q10 -5 25 -1l3 6q-1 0 -3 1t-3 1q-5 0 -17 -2q-1 0 -5 -2v-3zM321 79q13 -15 26 3q-18 3 -26 -3zM473 69q4 2 4 6q-3 5 -5 5q-11 3 -23 -2q12 -6 17 -9q5 -2 7 0zM525 72q8 -3 16 3q-6 7 -16 5q-3 -3 -3 -4q-2 -4 3 -4zM558 67q5 7 5 8q0 4 -5 4q-2 1 -3.5 -0.5
t-0.5 -4.5q0 -1 4 -7zM331 59q1 1 3 6q-2 0 -5 -0.5t-5 -1.5q2 -6 7 -4zM401 56q1 2 -2 4.5t-5 1.5q-3 -2 -3 -6q-1 -3 1 -4.5t6 -1.5q3 3 3 6zM268 50q1 0 7 4q-5 6 -6 5q-1 0 -7 -3l2 -2q2 -3 4 -4zM284 54q13 -7 14.5 -7t11.5 10q-19 2 -26 -3zM463 52l8 2q-5 5 -6 4
q-2 0 -6 -4q2 -2 4 -2zM379 47q1 -1 2 1q0 1 0.5 1.5t1.5 0.5q-19 15 -33 2q20 -4 29 -5zM428 49l16 -3q-18 15 -32 5q2 -3 8.5 -2.5t7.5 0.5zM487 48q3 0 10.5 -3t12.5 -1q-11 10 -23 4zM358 26q1 1 0 2q-1 0 -1 0.5v1.5q-4 -2 -4 -3t2 -3q3 0 3 2zM388 25q2 0 9 -3
t9.5 -2.5t9.5 2.5q-9 8 -28 3z" />
    <glyph glyph-name="ntilde" unicode="&#xf1;" horiz-adv-x="813" 
d="M733 282q4 -115 -100 -203t-239 -88q-120 0 -219 86.5t-95 199.5q4 119 98.5 203.5t227.5 75.5q45 0 97.5 -15.5t104.5 -46t87.5 -86t37.5 -126.5zM430 532q-6 2 -8 -4q3 0 9 2q-1 1 -1 2zM357 522q-7 2 -9 -5q5 -1 12 -4q0 9 -3 9zM285 518v-5q1 -2 6 -4q4 6 -1 9h-5z
M415 518l-7 -5q0 -1 5 -8q1 -1 5 -1q8 0 8 8q0 3 -7 5h-4v1zM479 516l-2 -1q-2 -2 -4 -3q2 0 3 -1l2 -1q1 0 3.5 0.5t3.5 1.5q1 0 1 1t-1 1q-4 2 -6 2zM374 513l-6 -3q0 -1 1 -2q6 -2 10 -2q2 0 7.5 0.5t8.5 0.5q1 5 0 7t-5 1q-3 0 -8 -0.5t-8 -1.5zM336 515l-23 -3
q3 -8 10 -6q1 0 4.5 1t5.5 2.5t3 5.5zM257 512v-3q6 -2 10 -2q3 0 3 3q0 4 -3 4q-4 0 -10 -2zM458 513q-4 0 -20 -2q13 -7 17 -9q5 -2 8 -1t3 7q-1 5 -8 5zM526 508q-6 5 -12 1q0 -3 1 -4q5 -3 11 3zM402 506q-1 0 -3 0.5t-3 0.5q3 -5 6 -1zM325 496q-10 0 -12 -3q7 -6 12 3
zM380 489q-2 -7 6 -7q5 0 5 5q2 6 -8 8zM478 484q-13 -2 -18 5q-7 7 -12 -4q2 -1 6 -2.5t6 -2.5q12 -4 18 -3q2 0 7 -2t6 -2l3 -1q2 -2 4 -3q4 6 6 8q-13 9 -26 7zM258 492q-2 0 -10 -4l8 -6q1 -1 3 -1t3 1t1 6q-2 4 -5 4zM302 489q-2 0 -9 1t-11.5 0t-9.5 -5q8 -4 9 -5
q8 -5 12 1zM341 488v-3l25 -7q2 -1 4 0.5t2 5.5q-17 9 -31 4zM229 490q-1 0 -1 -1l-2 -1l1 -1q1 -2 2 -2l5 2l-4 2zM424 485q-13 5 -24 -2q3 -3 10 -2.5t8 0.5t18 -5q0 3 -1.5 5t-3 2.5t-4.5 0.5zM521 478q-3 8 -4.5 8.5t-6.5 -3.5q1 -1 5 -2.5t6 -2.5zM539 480v-3
q3 -2 14 1q1 0 1 2q0 1 1 2q-2 2 -4 2t-6 -2t-6 -2zM289 453q7 -1 9 5q0 6 -8 8q-9 2 -14 -9q-2 1 -5 2t-4 2q-7 3 -10 -6q12 -2 19 2q8 -4 13 -4zM473 461l7 -7q1 1 2.5 2l3 2t1.5 2q0 5 -6 5q-8 0 -8 -4zM346 463q-5 0 -5 -5t6 -5q4 0 13 9q-1 1 -1 2q-2 0 -6.5 -0.5
t-6.5 -0.5zM191 457l2 -2q3 0 3 3q1 1 0 2q-2 2 -2 3q-3 -5 -3 -6zM577 462l-6 -3q3 -5 4 -5q3 -2 9 -4t7 -2h1l2 1q-2 4 -3 5q-6 4 -10 6q-3 3 -4 2zM309 462q0 -1 -2 -2.5t-2 -2.5q0 -4 4 -4q1 0 4 -0.5t4 -1.5l14 2q1 0 2 1l1.5 1.5t1.5 0.5q-4 4 -5 4q-14 2 -20 2h-2z
M235 456q0 1 -1.5 2.5t-1.5 2.5q-4 -2 -5 -3l5 -5q3 0 3 3zM403 459q-11 4 -28 0q0 -1 -1 -3q9 -1 20 -5q6 0 8 1q1 0 4 3q0 1 -3 4zM462 457q-4 5 -12.5 3.5t-13.5 -8.5q1 0 3.5 -0.5t3.5 -1.5q5 0 15 -2l7 1zM543 451q1 -1 4.5 -1.5t4.5 -0.5q1 6 -4 10q-3 2 -6 -1
q-4 -4 1 -7zM425 451l-3 7q-1 -1 -2 -1q0 -1 1 -3t1 -3h3zM525 456h-17q-3 0 -5 -1.5t-1 -3.5q3 -6 7 -4q7 0 14 3l3 3q0 2 -1 3zM233 353q-1 -15 10 -18q4 -2 5 1q8 28 52 37l5 2q-8 -6 -8 -9q-7 -160 -8 -166q-4 -12 -12 -14q-7 -1 -10.5 7t-1.5 19q1 1 -1 2q-10 3 -16 -6
q-2 -2 -2 -6q0 -22 14 -30.5t36 -2.5q16 4 24.5 7.5t17 15t8.5 29.5q1 35 -19 155v1q18 2 52 0q0 -21 -3 -88.5t-2 -86.5q0 -7 13 -7.5t25.5 5t11.5 13.5q-4 34 6.5 68t20.5 36q6 2 6 -30q1 -12 0 -38q-1 -28 0 -34q1 -9 17.5 -8t21.5 9q23 36 24 38q10 -23 35 -18
q43 9 59 76q-2 2 -6 4q-11 -38 -35 -43q-9 -2 -14 4t-6 15q36 14 36 47q0 12 -7 19.5t-19 4.5q-18 -5 -32.5 -27.5t-14.5 -46.5q0 -16 1 -23q-12 -18 -18 -24q-5 -5 -7 3v5q-1 47 -8.5 69.5t-28.5 16.5q-19 -5 -36 -45q-4 76 -5 82q0 4 -2 12q12 11 12 23q0 25 -19 28
q-10 1 -17.5 -5t-8.5 -11q-4 -11 -2 -18q-4 0 -24.5 3.5t-29 3t-34.5 -3.5q-27 -5 -41.5 -21t-14.5 -31zM453 426q2 0 6 3.5t3 4.5q-3 3 -4 3q-6 -2 -10 -4q-2 -7 5 -7zM564 425q-4 8 -6 10q-1 1 -7 1q-3 -3 -3 -5q0 -3 4 -5q1 -1 10 -3q0 2 2 2zM300 435q-1 -2 -2 -2
q0 -1 2 -3q3 2 3 3q-2 2 -3 2zM621 431q-11 6 -22 2q15 -11 27 -9q-1 1 -2.5 3.5t-2.5 3.5zM240 429q-16 6 -25 3l14 -7q7 -4 11 4zM169 433q0 -1 -0.5 -1t-0.5 -1q1 0 3.5 -2t4.5 -3q-2 6 -4 7h-3zM198 430q0 1 -2 1q-3 1 -5 2l6 -13q5 6 1 10zM575 431l7 -13q5 6 1 13
q-4 4 -8 0zM508 427q0 -1 3 -4q6 -1 11 8h-5h-6q-3 0 -3 -4zM477 427q12 -9 22 -7q2 0 2 2q-11 14 -24 5zM484 407q0 2 -3 2t-3 -2q0 -1 2 -3l3 -2q0 1 0.5 2.5t0.5 2.5zM616 398q3 5 1 10q-1 1 -3 1q-1 0 -2 -1t0 -2zM161 402q-2 -6 5 -6q1 1 7 9q-9 3 -12 -3zM545 403
q-2 -2 1 -5q2 -2 5 0l6 6q-9 5 -12 -1zM459 402q-3 -2 -3 -6q0 -1 1.5 -3.5t1.5 -3.5q10 2 11 10l-2 5q-7 0 -9 -2zM533 395q2 2 1.5 4t-2.5 3q-13 4 -24 -2v-3q12 -10 25 -2zM653 403q-12 2 -18 -1l9 -7q5 -2 10 0q2 0 2 4t-3 4zM150 398q-10 8 -16 -2q6 -3 16 2zM596 395
q-9 5 -14 -1q10 -3 14 1zM210 394q-7 5 -10 1q2 -4 10 -1zM644 382q-6 0 -11 -6q2 -4 12 -6q6 0 6 6t-7 6zM194 374l2 -4q3 3 4 5l-2 2q-2 0 -4 -3zM519 375l-4 2q-1 0 -3 -2q2 -2 4 -2zM178 375q-16 -2 -23 -4q12 -12 23 -8l1 1q1 0 1.5 0.5t0.5 1.5q2 2 2 6q-3 3 -5 3z
M680 359l-5 -4l7 -9q4 6 4 7q0 6 -6 6zM615 345l1 5q0 2 -2 4l-3 -2q0 -2 4 -7zM169 350l-3 3q-3 -3 -4 -5l2 -1l2 -1q3 3 3 4zM665 349q-11 9 -18 -6zM577 339q0 -13 -8 -24t-17 -14q-2 14 3 31.5t14 18.5q4 1 6 -3t2 -9zM194 347q9 -5 15 1q-7 5 -15 -1zM147 346
q-11 4 -19 -1q6 -9 18 -7q4 0 4 4t-3 4zM201 317q5 11 -4 11q-1 0 -3 -2t-3 -2l1 -2l3 -3zM691 324l-2 2q-18 0 -28 -3q12 -9 30 1zM645 316q1 7 -0.5 8t-6.5 -1q3 -4 7 -7zM160 321l-6 -4q3 -6 4 -6h17q1 0 2 2l1 2q0 1 -3 4q-2 1 -5 1t-5 1v-1q-1 0 -2.5 0.5t-2.5 0.5z
M109 316q3 -10 10 -3zM661 295q-5 4 -14.5 4t-13.5 -3q19 -12 28 -1zM234 291l-3 6q-4 4 -8 -2l5 -5q4 0 6 1zM248 294h15q-9 7 -15 0zM145 290q-6 10 -17 3q2 -6 4 -10h80q2 8 0 10t-8 1l-24 -6l-10 -3q-4 7 -5 7q-4 4 -7 3q-3 0 -3 -7l-2 -2q-5 1 -8 4zM701 291v2
q-3 1 -8 1v-3h8zM106 287v6h-2l-2 -5h2q1 -1 2 -1zM644 272l5 -5l2 1l4 2q-5 5 -7 6q-4 0 -4 -4zM196 263q6 0 5 9q-4 0 -6.5 -2t-1.5 -4q0 -3 3 -3zM243 259q4 8 -3 11q-4 2 -12.5 0.5t-12.5 -5.5q0 -3 6.5 -2.5t7.5 0.5t6 -1.5t8 -2.5zM707 266q1 0 3 3q-2 2 -3 2t-3 -2z
M670 260q8 -2 17 0q1 0 5 4q-1 0 -2.5 2t-2.5 3q-10 1 -23 -6q4 -3 6 -3zM629 263l-6 6q-4 0 -4 -2q-1 -1 1 -4l7 -3q2 2 2 3zM168 255q3 -3 5 -2q1 0 11 4q-6 8 -14 3q-2 -2 -2 -5zM225 248q2 -9 9 -8q0 8 -9 8zM684 240q4 0 2 2q0 7 -8 4q1 -4 2 -5.5t4 -0.5zM209 237
q2 1 4 5l-6 3l-4 -1l-19 -9q2 -6 10 -4zM616 239q1 5 0.5 5.5t-5.5 0.5q2 -3 5 -6zM647 243q-3 -1 -6 -6q4 -6 13 -6q7 -2 10 4q1 2 -1.5 5.5t-5.5 3.5q-4 1 -10 -1zM168 232q2 8 -8 8q-3 -3 -3 -4q-1 -2 2 -4.5t6 -2.5t3 3zM150 234q-19 4 -29 0l22 -6q4 -2 5 -2q4 2 4 3
q2 1 -2 5zM622 202q7 5 5 9q-3 7 -11 4q-3 -1 -17 -8l2 -1q9 2 15 -4q1 -1 3 -1t3 1zM692 210q1 0 2 2q1 1 1.5 2t1.5 2q-6 -1 -18 -0.5t-16 -1.5q11 -6 29 -4zM128 213q1 -6 6 -4q1 1 1 3q-3 5 -7 1zM173 204q4 -4 7 -2q4 0 6 4q0 3 -3 6q-10 6 -22 0q2 -1 6 -4t6 -4z
M172 186q1 1 -1 3q-2 1 -2 2q-1 1 -4 1q-7 0 -7 -4q0 -1 3 -3q1 -1 1.5 -1t1.5 -1q2 0 4 -1zM632 185q9 -16 28 0q-10 12 -28 0zM155 172h5q-1 4 -2 4q-10 8 -16 10q-4 1 -9 -1q-3 -3 -1 -7q5 -5 8 -3q9 2 15 -3zM570 182q13 -3 24 -1q-4 5 -7 5t-17 -4zM190 179q16 0 19 4
q-5 2 -15 2t-14 -2q2 -6 10 -4zM350 142q-19 -11 -5 -29q7 -10 12 -6q25 17 70.5 28.5t73.5 14.5t39 3q7 -1 10 7.5t-6 10.5q-26 6 -94 -2t-100 -27zM574 153q4 0 4 3q0 1 -4 7l-4 -5q2 -4 4 -5zM636 163q-8 -1 -7 -8t12 -12q0 3 0.5 7.5t1.5 6.5q0 6 -7 6zM190 152q2 0 7 5
q-7 5 -9 5q-1 1 -2.5 -0.5t-1.5 -3.5q-1 -2 1 -4.5t5 -1.5zM622 153q2 2 -1 5q-9 7 -19 -1q4 -7 15 -7q2 0 5 3zM234 158q-8 4 -18 0q9 -5 11 -6q4 -2 5 -2t2.5 2t2.5 2zM655 153q17 0 20 4q-8 4 -20 -4zM257 144q0 5 -2 11q-2 5 -7 2q-2 -2 0 -6l3.5 -3.5t3.5 -4.5z
M168 145l4 8q0 3 -4 3q-5 0 -5 -5l2.5 -2.5t2.5 -3.5zM283 135q0 -4 1 -6q1 -1 3 -2.5t3 -2.5q6 8 -1 11h-6zM598 127q3 -6 10 0q-7 7 -9 6q-1 0 -1.5 -2.5t0.5 -3.5zM213 127q3 -5 13 0q-3 2 -7 6q-2 2 -5 -1q-1 -1 -1 -5zM268 132q-17 0 -22 -4q11 -11 22 -7q4 2 4 5
q0 6 -4 6zM650 125l1 2q0 3 -2 3q-12 2 -17 -1q9 -9 18 -4zM191 123l4 2l-6 3l-2 -2q1 0 2 -1.5t2 -1.5zM577 123q0 4 -1 4q-2 1 -5 1q-1 -1 -1 -2l4 -4h1q1 1 2 1zM517 120q1 0 4.5 0.5t6.5 0.5q-3 8 -11 6l-3 -3q0 -4 3 -4zM546 115q9 2 8 9q-3 8 -9 2q-5 -3 1 -11z
M165 121l1 1q2 1 2 2l-3 3l-1 -1q-2 -1 -2 -2zM248 102q1 -1 3.5 -2.5t3.5 -2.5q6 0 7 1q2 4 1 7q-2 5 -6 3l-9 -3v-3zM229 98l9 6q-10 4 -11 4q-7 0 -5 -5q0 -7 7 -5zM300 105q-20 4 -29 -4q12 -7 15.5 -6.5t11.5 8.5zM611 100q1 0 7 3l-6 4q-1 0 -4 -3l1 -2q1 -2 2 -2z
M489 90q1 0 8 -5l7 8q-10 9 -26 7q-14 -2 -19 4q-5 7 -10 -2q2 -1 6 -2.5t6 -2.5q11 -5 18 -4q1 0 10 -3zM510 99l6 -3q3 -1 4 -2q-1 8 -3 9t-7 -4zM412 99v1l1 1q-5 0 -7 -1v-2q1 0 3 0.5t3 0.5zM555 96l1 2l-4 2q-2 0 -4 -1t-3.5 -1.5t-4.5 -1t-5 -1.5q5 -5 10 -3
q6 2 10 4zM572 96q-1 0 -2 -1q2 -4 5 -8q1 5 -3 9zM290 69q7 -2 7 5q1 5 -5 7q-10 3 -16 -8q-2 1 -5 2t-4 2q-6 2 -9 -6q16 0 18 2q6 -2 14 -4zM472 77q4 -7 12 -4q3 0 3 4l-4 4q-8 0 -11 -4zM341 73q2 -5 12 -3q-5 11 -9 8q-3 -3 -3 -5zM408 70q1 2 -2 5q-4 3 -15.5 2.5
t-18.5 -4.5q14 -9 33 -7q3 0 3 4zM309 68q10 -2 27 3q-1 1 -2 3q0 1 -1 1q-16 2 -24 2q-4 0 -4 -4q1 -2 4 -5zM426 61q3 16 -13 16q1 -1 4.5 -7.5t8.5 -8.5zM458 64l7 1q0 1 -1 4q0 3 -1 4q-4 2 -12 4q-9 -2 -10 -3l-5 -5l6 -3q12 -2 16 -2zM577 72q1 0 4 3q-1 1 -3 1l-2 1
q-2 0 -2 -3l1 -1q1 -1 2 -1zM542 71q2 -6 9 -3q-2 7 -7 7q-2 0 -2 -4zM522 66q1 0 4 5h-19q-1 0 -2 -2t-2 -3l6 -3q1 0 13 3zM382 53q-7 -11 10 -11q4 0 5 2q4 6 -5 12q-6 3 -10 -3zM449 43q2 -2 7.5 1t5.5 7q-3 3 -4 3q-3 0 -9 -2q-3 -3 -3 -4q0 -4 3 -5zM356 51
q8 -11 16 -5q-12 7 -16 5zM300 45q2 1 4 3l-4 4q-1 0 -4 -3zM346 45q1 0 5 2q-3 3 -4 3t-3 -2l1 -2q0 -1 1 -1zM436 42q1 1 1 2q-1 2 -12 5q-3 1 -10 -1q-1 0 -1.5 -1t0.5 -2q0 -3 2 -3h20zM478 42q10 -2 13 -2q-8 6 -13 2zM511 41l4 2q-2 2 -3 2l-1 -1h-2zM424 23v1
q-3 3 -7 1v-3q2 -4 7 1zM392 20q6 -4 12 1q-7 4 -12 -1zM335 16v2q-4 2 -7 2v-1z" />
    <glyph glyph-name="oacute" unicode="&#xf3;" horiz-adv-x="683" 
d="M623 291q4 -119 -81.5 -205t-217.5 -86q-116 0 -192 84t-72 202q3 80 33 144t93 102.5t150 32.5q45 0 91.5 -15.5t91 -46t73.5 -86t31 -126.5zM328 535q-8 7 -22 4q14 -8 22 -4zM252 533q-5 6 -13 1l5 -3q6 -3 8 2zM387 527q-7 3 -9 -4q2 1 4.5 2t4.5 2zM313 518
q-7 3 -13 -4q7 -3 14 -7q5 8 -1 11zM237 515q-2 -2 0 -6l8 -7q4 13 -3 14q-4 0 -5 -1zM363 509q-1 -6 7 -8h4q6 0 6 6q1 5 -6 5q-2 0 -3 1h-3t-3.5 -1t-1.5 -3zM222 511q-3 1 -9 0t-9 -1q7 -11 18 -9q5 2 5 6q-2 4 -5 4zM344 511q-2 -1 -7 -1t-8 -1l-7 -3q2 -4 10 -4
q3 0 9 0.5t9 0.5q2 -5 6 -4q-1 3 -6 4q1 8 -6 8zM291 508q-7 4 -23 0q6 -14 23 0zM408 506q-1 -1 -1 -2q4 -4 7 -5q4 0 4 3q0 4 -2 4h-8zM277 492q-6 0 -9 -1q4 -5 5 -4.5t4 5.5zM335 484q0 -6 7 -6q3 3 4 5q2 7 -7 7q-4 0 -4 -6zM204 485q-1 -1 -1 -3q7 -5 8 -5
q1 -1 3 -0.5t3 1.5q3 3 1 6q-2 4 -5 4zM178 483q-2 -5 5 -5l8 4q-1 1 -2.5 2t-2.5 2t-2 1q-5 -3 -6 -4zM259 486q-4 0 -11 0.5t-12.5 -0.5t-9.5 -5q8 -6 12 -7q3 -2 8 1zM327 478q-19 15 -32 3q11 -4 26 -7q6 -2 6 4zM372 481q-10 3 -14 -2q7 -4 14 2zM456 473q-2 1 -5.5 2
t-5.5 2q3 -10 11 -4zM252 454q1 4 -4 7q-6 2 -14 -2q-6 -3 -12 -2q-8 2 -12 -5q1 0 1.5 -1t1.5 -1h14.5t17.5 -2h2q5 2 5 6zM266 458q-7 0 -7 -6q0 -4 7 -4h24h2h3h3q8 -1 11 1t7 10q-13 2 -19 -2q-4 -1 -10 -1q-14 2 -21 2zM441 431q0 10 -7 18t-22 8q-31 0 -43.5 -21.5
t-12.5 -71.5q0 -11 1 -17q-10 2 -24 9q-4 2 -9 -7t-1 -12q6 -5 34 -7q0 -5 0.5 -15t0.5 -16q-7 -24 -46 -34q-8 83 -58 83q-11 0 -20.5 -8.5t-9.5 -27.5q0 -5 2 -17q-6 -13 -6 -30q0 -29 13 -52.5t41 -23.5q33 0 38 63q15 2 29 9.5t18 14.5q6 -108 6 -122q0 -10 17 -13t33 2
t14 16q-7 49 -18 173q6 1 19 5q8 4 6 9q-1 2 -4 1q-12 -3 -21 -4q-2 18 -2 23q32 39 32 65zM360 451l-1 1q-1 2 -2 2q-11 5 -31 1q5 -5 16.5 -7.5t15.5 0.5q2 0 2 3zM150 456q-1 1 -6 -1q0 -1 0.5 -2.5t1.5 -2.5l14 -6q3 0 4 1q0 1 1 2q-2 1 -5 3t-5.5 3.5t-4.5 2.5z
M184 456q-1 0 -3.5 -1.5t-3.5 -1.5l6 -4h7q1 4 0 4q-3 3 -6 3zM531 456q-1 0 -1 -1l-2 -1l3 -3l4 2q-3 3 -4 3zM502 454h-2q-2 -1 -3 -1q0 -4 1 -5t7 -3q0 2 2 2q-4 6 -5 7zM406 395q-3 47 17 47q7 0 7 -12q0 -20 -22 -49q-2 7 -2 14zM209 433q-1 0 -2 3l-2 -2l-1 -2
q2 -2 3 -2q2 0 2 3zM341 435q-6 -1 -4 -9h4q5 0 8 1q-1 5 -2.5 7t-5.5 1zM311 432q4 -13 16 -6q-2 1 -5.5 3.5t-4.5 3t-6 -0.5zM256 423q1 1 2.5 2t2.5 2l-1 2l-3 3q-4 2 -13 -7q10 -2 12 -2zM512 431q-2 2 -7 0q-3 -3 -2 -5q0 -4 4 -4q3 -1 8 -1l2 3q-1 1 -2.5 3.5
t-2.5 3.5zM302 424l4 2l-4 4q-1 1 -4 -2q1 -3 4 -4zM195 425q-8 10 -25 3q18 -11 27 -10q0 1 -1 4zM279 428l4 -7q4 6 -1 8q-1 1 -2 0zM124 429q-1 -1 -1 -2q2 -5 6 -4q1 0 3 2q-1 1 -2.5 1.5t-3 1.5t-2.5 1zM146 427q4 -11 8 -12q2 8 0 10.5t-8 1.5zM474 427l-11 -3
q5 -4 6.5 -3.5t4.5 6.5zM538 416q1 7 0 8.5t-7 2.5q2 -9 7 -11zM250 394q3 4 1 8t-9 4q-1 0 -2.5 -0.5t-3 -1.5t-2.5 -2q-1 -2 0 -3t3 -2.5t3 -2.5l3 -2q5 -3 7 2zM188 394q3 8 -2 11q-3 0 -3 -1q-3 -5 5 -10zM315 405q-2 -1 -4 -5q2 -2 3 -2q2 0 6 4q-3 3 -5 3zM298 397
q-17 11 -32 1q19 -8 27 -6zM116 398q-2 -5 5 -6q1 1 7 9q-9 3 -12 -3zM512 400q-10 5 -13 -1q-3 -4 6 -8zM225 400q-15 2 -22 -3q10 -6 11 -6q4 -1 12 -1q3 3 3 5q-2 4 -4 5zM486 398q-11 5 -22 -3q5 -5 12 -6.5t12 2.5q3 4 -2 7zM153 389q9 -4 14 2q-9 4 -14 -2zM551 391
q-11 4 -14 0q6 -5 14 0zM216 378q-7 0 -14 -8q2 0 7 -1.5t7 -1.5q6 -1 6 5t-6 6zM260 370q0 6 -5 4q-1 -2 -0.5 -3.5t2.5 -1.5zM152 374l-4 -3q2 -5 4 -5q1 -1 6 3q-4 4 -6 5zM318 371q-9 4 -13 2q6 -6 13 -2zM532 371q-1 -6 8 -8q0 11 -3 11q-5 0 -5 -3zM467 370q0 -1 2 -5
q4 4 5 6l-1 1q-1 1 -2 1q-4 0 -4 -3zM196 370q-4 4 -7 -1q2 -5 6 -2zM494 367v-3l15 -6q6 0 8 1q5 5 5 7q0 5 -7 5q-3 0 -10 -1.5t-11 -2.5zM113 367q0 -1 -1 -3l10 -5q5 -2 10 0q8 0 6 8q-1 5 -8 3zM189 347q-1 0 -3 2t-3 2q-7 0 -9 -10h3.5h4.5h3q1 1 4 6zM567 351
q-6 0 -9 -10q8 0 11 1q3 0 3 5q0 4 -5 4zM123 345l-2 3l-4 -4l1 -1q2 -1 3 -2zM509 346q-4 2 -5 2l-3 -3q3 -3 4 -3zM146 343q7 -6 17 -3q3 0 3 3q0 4 -3 4q-9 1 -17 -4zM529 342q9 -5 19 -2q2 0 2 4q0 3 -3 3q-9 1 -18 -5zM486 342q-12 4 -20 -2q8 -8 19 -6q2 0 4 4
q0 4 -3 4zM91 341q0 -2 -1 -3q4 -5 11 -3q1 0 2.5 1t0.5 2q0 4 -2 4t-6 -0.5t-5 -0.5zM256 332q14 0 24 -9.5t14.5 -23t6 -22.5t1.5 -15h-13q-15 0 -28 5q-2 24 4 36q1 7 -3 11.5t-11 4.5q-6 0 -15 -7q0 9 6 14.5t14 5.5zM542 318q1 3 -1 4t-7 2q-4 -4 -4 -5q0 -3 8 -6
q4 0 4 5zM156 313q4 6 0 9q-2 1 -7 1q-3 0 -3 -4q0 -3 2 -3zM561 310q3 1 11 0t11 2q-1 6 -7 6q-13 -5 -15 -8zM177 312q12 -4 21 1q-7 9 -21 -1zM110 313q-2 -4 3 -6q8 -5 17 0q3 3 2 4q0 1 -3 4q-3 1 -7 1h-7q-5 0 -5 -3zM500 316q-7 0 -6 -3q0 -5 4 -7q10 0 15 1q3 0 3 4
q0 3 -3 3q-6 2 -11 2h-2zM446 310q4 -8 11 -2q-5 5 -11 2zM178 291l5 -5q1 -2 3 -1.5t2 2.5q2 4 -2 6q-4 4 -8 -2zM560 291q1 -1 3.5 -2.5t3.5 -2.5q2 -1 6 1q0 1 -0.5 3t-1.5 3q-5 4 -11 -2zM586 290h14q-6 4 -8 4t-6 -4zM493 282q-5 -2 -9 5q-6 11 -18 1l5 -9h79
q5 14 -8 11q-5 -1 -13.5 -3.5t-11.5 -3.5q-6 -3 -11 3q-5 7 -12 4q0 -5 -1 -8zM443 282q5 7 -2 10q-3 -8 2 -10zM86 289q2 -6 4 -10h77q1 7 -1 10t-8 1l-25 -7q-8 -4 -11 2q-4 7 -9 6q-2 -1 -3 -5q-1 -3 -2 -4q-6 -1 -9 4q-4 6 -13 3zM542 264l-4 4q-7 2 -7 -5l3 -4q1 0 8 5
zM158 265q-3 3 -4 3q-5 0 -7 -5l3 -4q3 1 8 6zM582 255q3 8 -4 11q-4 2 -12.5 0t-12.5 -6zM192 258q4 0 4 3t-3 4q-3 2 -11 0.5t-12 -4.5q0 -2 1 -2q3 0 10 -0.5t11 -0.5zM477 257l-3 3q-1 0 -3 -2l4 -7zM137 253q-8 10 -15 -2q8 -4 15 2zM506 251q3 -3 5 -3l12 4
q-10 8 -15 3q-2 0 -2 -4zM263 254q3 0 7.5 -1t8.5 -1.5t8 -0.5h15q-2 -27 -16 -27q-16 0 -23 30zM564 243q0 -8 7 -8q2 0 2 3q-1 6 -8 6q0 -1 -1 -1zM179 243q3 -8 9 -8q0 5 -1 6t-8 2zM165 233q3 1 3 4q-2 3 -4 3h-5l-20 -9q4 -5 8 -4zM532 227q3 0 5.5 1t6 2.5t5.5 2.5
l3 4q-1 0 -3 2q-1 1 -2 1q-2 1 -6 -1q-3 -1 -9.5 -4t-8.5 -4q1 -6 9 -4zM112 232q-1 -2 1.5 -4.5t5.5 -2.5q4 0 4 3q1 2 -1.5 5t-6.5 3q-3 -3 -3 -4zM507 227q0 9 -7 9q-2 -1 -5 -4q-1 -2 2 -5t6 -2q2 0 4 2zM463 231l-2 -1q4 -2 19 -7q4 -2 7 -1q2 0 4 4l-1 2l-2 2
q-8 1 -25 1zM102 224q1 -1 5 1l-1 2l-2 2q-2 1 -7 1q-1 -1 -1 -2q4 -4 6 -4zM147 212l1 -2q1 0 3 2l-3 4q-1 -2 -1 -4zM531 212l2 -4l2 2l1 2q-2 2 -3 2zM116 208q10 -8 12 -9q4 -2 7 -2q5 3 5 5q3 3 -3 6q-9 6 -21 0zM513 198q4 -2 8 0q9 4 1 10q-9 7 -22 -1q5 -3 13 -9z
M195 201q2 3 0 7q-3 4 -8 2h-2l-17 -6l-1 -1q4 -2 6 -2q8 2 13 -2t9 2zM466 208q0 -4 5 -4q2 0 5 3q-5 3 -6 3q-1 1 -2.5 0t-1.5 -2zM578 203q1 0 1 2t-1 3q-4 2 -8 2q-12 -4 -20 -6l4 -2l2 -1q8 2 15 -1q3 -1 7 3zM506 178q2 1 5 4l-4 5q-2 1 -5 1q-2 -1 -6 -5q1 -1 2.5 -2
t2.5 -2q3 0 5 -1zM123 179q2 0 4 2q0 2 -2 4q-6 6 -12 -2q4 -2 10 -4zM224 182q-9 4 -19 -2q8 -4 19 2zM478 169q11 2 15 -1h7l-1.5 3t-1.5 2l-15 9q-4 2 -6 1q-7 -2 -8 -4q-1 -1 -0.5 -4.5t1.5 -4.5q2 -3 9 -1zM160 175q1 0 4 3q-4 4 -4 3q-4 0 -12 -0.5t-13 -0.5v-1
q0 -5 6 -5q3 0 9.5 0.5t9.5 0.5zM526 174q17 0 22 5q-9 4 -29 1q0 -6 7 -6zM235 149q-19 -8 -6 -28q8 -9 13 -7q16 10 38.5 17.5t36 10t18.5 2.5q7 -1 10 7.5t-6 10.5q-50 11 -104 -13zM149 152q1 2 -1 4.5t-5 1.5q-4 0 -4 -4q0 -1 5 -8q5 5 5 6zM529 148q1 0 6 5q-7 5 -8 5
q-4 0 -4 -4q-1 -2 1.5 -4.5t4.5 -1.5zM192 150q2 0 -1 3q-7 7 -19 0q7 -7 15 -7q3 0 5 4zM201 152q-1 -2 0.5 -4t4.5 -1l7 5l-8 4q-4 0 -4 -4zM501 143q6 -1 7.5 0.5t0.5 9.5q-3 -1 -9 -2.5t-9 -2.5v-2zM449 140l3 4q0 1 -4 7l-4 -6zM469 151q-1 0 -4 -3l5 -5l2 1q1 2 2 2z
M124 143l1 4q0 1 -2 3l-3 -2v-1q1 -1 1 -2zM169 123q3 -6 9 0q-6 6 -5 6q-2 0 -3 -1q-1 0 -1.5 -2t0.5 -3zM440 122q1 1 1 2.5t-1 1.5q-4 4 -11 -1q9 -5 11 -3zM367 124q1 -7 8 -5q1 0 1 1l1 2l-7 3l-1 -1h-2zM475 114q9 3 9 5q0 5 -8 5h-4q-6 0 -6 -4t6 -6h3zM504 111
q0 1 2 3t3 4q0 6 -7 6q-5 0 -5 -4q0 -9 7 -9zM414 113q8 2 4 7l-6 3v-1l-1 -2zM348 98q-6 6 -8 7t-3.5 -1t-1.5 -4q0 -6 5 -6zM451 81q4 4 8 7q-12 10 -27 8q-11 -2 -18 4q-6 7 -11 -3q16 -7 20 -8q1 -1 4 -1q11 3 24 -7zM183 93q4 4 5 6q-3 3 -5 4q-5 0 -5 -4q0 -1 5 -6z
M207 98l5 -5q4 4 4 5q0 6 -6 4q-1 0 -3 -4zM328 95q-21 6 -28 3q7 -4 23 -8q2 0 5 5zM374 93q1 0 7 -2.5t11 -0.5q-13 9 -28 9q-7 -2 -7 -7q6 1 17 1zM464 96q6 -5 10 -3q-2 7 -10 3zM494 89q8 -2 13 6q-3 -1 -7 -2.5t-6 -1.5v-2zM439 69q2 2 2 3q0 4 -2 4q-9 2 -12 -4
q4 -7 12 -3zM247 66q4 0 4 4t-3 5q-8 3 -14 -3v-3q12 -3 13 -3zM300 65q12 -3 15 11q-5 -1 -15 -1q-4 -2 -4 -5q-2 -5 4 -5zM358 61q5 0 5 4t-4 6q-1 0 -17 3v-1h-11q-3 -1 -4 -4q0 -3 3 -4q4 0 13.5 -1.5t14.5 -2.5zM380 58q2 7 -1 11.5t-10 3.5q5 -12 11 -15zM215 69
q6 -2 11 0q-7 5 -11 0zM263 65q8 -3 29 1q-3 5 -4 5q-8 1 -25 1q-2 0 -2 -3q0 -4 2 -4zM419 62q3 6 -4 8q-10 2 -15 1q-10 0 -9 -6q1 -4 10 -2q8 -2 11 -2q6 0 7 1zM352 41q1 3 -1.5 6.5t-6.5 4.5q-7 4 -9 -7q-1 -4 2 -5.5t10 -1.5q3 0 5 3zM316 40q7 -4 11 2l-15 8
q-2 -6 4 -10zM251 44q3 -4 8 1q-1 0 -3.5 0.5t-3.5 1.5q0 -2 -1 -3zM302 41l4 2q-3 3 -4 3q-2 0 -4 -2q3 -3 4 -3zM404 39q1 0 3 2l-1 1q-1 2 -2 3l-3 -2zM372 38q12 -2 18 0q-8 9 -23 5q3 -5 5 -5z" />
    <glyph glyph-name="ocircumflex" unicode="&#xf4;" horiz-adv-x="813" 
d="M733 282q2 -59 -20 -113.5t-64 -98t-108.5 -69.5t-146.5 -26q-147 0 -232.5 89.5t-81.5 212.5q4 114 96 191t230 88q88 7 159.5 -19.5t118 -92.5t49.5 -162zM423 529q-10 8 -17 1q12 -4 17 -1zM483 514q-6 3 -13 -4l15 -3q3 5 -2 7zM407 507l9 -8q4 14 -5 14q-2 0 -4 -2
v-4zM393 509q-15 0 -20 -3q4 -7 11 -9t12 2q2 2 2 5q-2 5 -5 5zM341 508q-1 0 -1 -4q3 -6 8 -1q-2 6 -7 5zM462 508l-25 -3q6 -8 10 -7q13 2 15 10zM547 503q-4 5 -11 2q4 -6 11 -2zM521 504q-17 6 -27 -3q14 -5 27 3zM289 501q-5 -3 2 -8l3 7q-1 0 -3 1h-2zM449 488
q-7 2 -10 -1q5 -5 10 1zM353 487q-6 -6 -6 -8q-1 -3 1 -4t6 -1q8 0 6 6zM506 481q0 -3 1.5 -5t3.5 -1q1 0 8 5q-8 6 -9 6q-2 1 -3 -0.5t-1 -4.5zM384 485q-6 2 -11 -6l8 -5q4 -2 7 1q1 1 1 6q-2 4 -5 4zM430 483q-4 0 -11.5 0.5t-12.5 -0.5t-9 -6l12 -6q4 -3 9 1q6 6 12 11z
M500 474q-23 14 -34 3q3 -1 11.5 -3t13.5 -3q1 -1 9 3zM293 477q-2 -1 -6.5 -2.5t-6.5 -2.5q3 -3 15 -1l3 3q-1 0 -3 2zM317 464q1 6 -5 9q0 -6 5 -9zM239 472q-5 2 -6 -2q0 -3 4 -3h5v2l-1 1q-1 2 -2 2zM175 206q0 -25 12 -34t28 -6q15 3 29 20.5t21 40.5q-2 -52 0 -81
q0 -6 10.5 -8.5t23 0.5t16.5 10q5 8 12.5 34.5t13 51.5t5.5 26l3 7v-3q-2 -38 -2 -86q0 -7 11.5 -7.5t22 4.5t9.5 11q-2 34 2 62.5t11 29.5q5 1 8 -14t4.5 -34.5t1.5 -21.5q1 -16 9 -18q4 -1 11 0q25 5 31 20q1 3 9 26q9 -34 40 -28q24 4 42 38q0 -11 2 -27q3 -14 20 -11
q13 3 22.5 10.5t12.5 13t0 5.5q-1 0 -2.5 1t-2.5 4t-1.5 5.5l-1.5 7.5q-2 12 -10 64t-12 85q21 17 21 40q0 26 -28 23q-24 -3 -31 -28q-2 -9 -1.5 -14.5t1.5 -12.5t1 -9q-129 -51 -283 -38q-7 1 -8 -17q-2 -21 16 -22q70 -4 156 15.5t122 42.5q2 -10 4 -52q-11 9 -28 6
q-21 -4 -37.5 -25.5t-16.5 -53.5v-4q-7 -23 -10 -29q-5 -15 -6 1q-4 31 -14.5 54t-31.5 20t-30 -41q-2 25 -3 32q-3 19 -20 16q-12 -3 -14 -10q-1 -3 -2.5 -14.5t-3.5 -20.5q-16 -63 -18 -69q-4 -8 -6 -2q-1 1 -1 2l-4 24q-5 25 -9.5 49.5t-6.5 30.5t-14.5 5t-12.5 -8
q0 -17 -1 -34q-12 -62 -37 -66q-14 -2 -14 22q0 18 12 36t25 20q5 0 -1 9q-5 6 -12 6q-25 -4 -44.5 -28t-19.5 -54zM383 447q5 -1 16.5 -0.5t16.5 -1.5h1q6 0 6 6q1 4 -5 7q-7 3 -14 -3q-4 -3 -10 -1q-9 2 -13 -5zM438 455q-8 0 -8 -6q0 -5 7 -5q14 0 21 1h14q9 -1 14 11
q-15 0 -19 -2q-3 -1 -8 -1q-7 0 -21 2zM220 456l-4 -4q4 -2 7 -2q1 0 3 2q2 1 3 2q-8 2 -9 2zM317 455q-2 0 -5 -3q0 -5 2 -5q6 -3 18 -7l2 1l2 2l-3 3q-5 5 -11 8q-1 1 -5 1zM531 447q-1 4 -8 6q-17 2 -26 -2q19 -15 34 -4zM361 447q0 4 -2 6q-7 2 -10 -4q4 -4 7 -4t5 2z
M284 445q2 -1 9 -4q0 1 2 3q-4 6 -6 8q-4 0 -6 -2t1 -5zM201 449q-8 2 -11 -3q3 -1 14 -4q3 7 -3 7zM249 448q-7 0 -5 -6q3 -3 6 -3q7 0 13 3q1 0 2.5 1.5t2.5 1.5v1l-1 2h-18zM521 422q-2 10 -8 10q-7 0 -5 -9q2 0 6 -0.5t7 -0.5zM376 424q4 4 4 5q0 2 -2 2q-3 0 -3 -2
l1 -2v-3zM417 422q2 0 5.5 -0.5t5.5 -1.5q3 0 3 3q0 4 -2 5q-4 4 -12 -6zM473 421l2 3l-1 2q-1 1 -2 3q-4 -4 -3 -5q0 -1 4 -3zM496 422q-8 8 -14 5q7 -8 14 -5zM304 416q1 6 -5 12q-2 2 -7 0q-3 0 -3 -4q0 -3 4 -5q1 0 11 -3zM189 424l1 -4q2 -2 5 0q1 0 1 2l1 2h1l2 -1
l3 3l-1 2q-3 0 -4 -1t-1 -3q-2 2 -3 2q-3 0 -5 -2zM362 424q-15 5 -22 0q2 -1 7.5 -4.5t10 -4.5t9.5 -1q2 9 -5 10zM452 426l-2 -2q1 -2 4 -5l2 4zM326 412q2 8 -3 13h-4q-2 0 -2 -3q2 -8 9 -10zM252 423q-5 -1 -1 -7q6 -5 12 8q-8 0 -11 -1zM219 420q12 -9 24 -6
q-12 16 -24 6zM413 403q-1 -1 -3.5 -2.5t-3.5 -2.5q1 -1 2 -2.5t2 -2.5t2 -1q4 -2 7 1t1 6q-1 1 -3 2q-3 1 -4 2zM221 397q1 -1 6 2l-2 2t-2 1t-2.5 -1t-2.5 -1q2 -3 3 -3zM169 400q-8 3 -11 -2q6 -3 11 2zM288 397q-1 -1 -1 -6h6q1 1 5 6q-4 4 -10 0zM465 392q-12 12 -24 3
q19 -5 24 -3zM204 397q-14 -3 -24 1q2 -5 8.5 -7.5t7.5 -5.5l-4 -7q17 0 19 11q1 5 -0.5 7.5t-6.5 0.5zM394 396q-9 2 -16 -2q6 -2 14 -6q6 -2 6 4q0 4 -4 4zM276 391q-1 0 -2.5 2t-2.5 2q-12 4 -23 -3q9 -9 23 -5q1 1 2.5 2t2.5 2zM659 390q-10 11 -23 1q10 -9 23 -1z
M223 365l-8 3q-1 0 -7 2q-6 3 -7 3q-4 1 -8 -6q-2 -5 2 -7q4 4 6 7q2 0 7 -3t7 -3t8 4zM172 372q-3 -5 3 -8q4 6 0 8h-3zM638 367q0 -1 2 -5q2 3 4 5q-2 2 -4 2zM668 363v-3q2 -1 7 -2.5t8 -1.5q7 0 7 6q-1 4 -7 4zM171 336q-2 11 -6 13q-1 -7 6 -13zM229 342q0 1 -1.5 2.5
t-1.5 2.5l-4 -3q1 -3 4 -4zM187 341q2 0 12.5 -5.5t14.5 0.5q-10 12 -27 5zM123 345q-1 -1 -1 -2q8 -6 18 -6q7 0 4 7q-4 0 -11 0.5t-10 0.5zM678 341l-2 3q-3 0 -3 -2v-2l1 -2l2 2zM659 334q1 1 0 3t-2 2q-14 2 -20 -2q8 -8 18 -6q4 0 4 3zM537 251q-19 -3 -19 30
q0 19 7 31t17 14q2 1 9 -1q3 -4 5 1q2 -34 2 -59q-10 -14 -21 -16zM202 316q-3 7 -9 4q3 -6 9 -4zM138 316q0 4 -3 4q-1 0 -4 -3l1 -2l3 -3l2 2zM154 315l-2 -2q4 -1 14 -1t12 1l3 4q-1 0 -2.5 1.5t-2.5 1.5q-4 -1 -11.5 -2.5t-10.5 -2.5zM665 310q-1 -3 2 -6q1 0 4 -0.5
t4 -1.5q4 0 5 1l6 4q-4 4 -6 5q-3 1 -11 1q-4 0 -4 -3zM160 283q9 0 11 8q0 6 -7 6q-3 0 -6 -3t-2 -6q1 -2 4 -5zM147 281q3 3 2 5q-3 3 -5 3h-18q-7 2 -10 -5l11 -6q11 -6 20 3zM643 277q2 -1 6 -1l5 6q-4 10 -15 3zM701 277q8 0 12 5l-1 2q-12 -2 -16 -4h-1q-2 -1 0 -2z
M665 271q4 -6 11 -6.5t8 4.5v2q-2 0 -7 5q-4 4 -8 5q-1 0 -3 -1q0 -2 -0.5 -5t-0.5 -4zM134 259q2 1 4 5q0 3 -4 3q-1 0 -5 -4q4 -4 5 -4zM153 263q5 -8 11 -2q-2 1 -6 1q-3 1 -5 1zM678 251v-3l2 -2q5 0 13 3q-9 8 -15 2zM677 224q1 3 -1.5 6t-4.5 2q-1 0 -5 -4q4 -4 7 -6
q1 0 2 1t2 1zM662 222q0 4 -3 4q-4 1 -12 1q0 -1 -1 -3q8 -4 12 -5q1 0 4 3zM693 199q1 1 -4 6q-8 5 -17 -1q8 -6 14 -7q3 -2 7 2zM645 204q-3 5 -8 1q2 -6 7 -3q1 1 1 2zM666 178q1 0 8 -1.5t7 1.5q-7 9 -15 0zM667 165q0 2 1 2q-2 1 -8 5.5t-9 6.5q-4 2 -9 0
q-3 -1 -4.5 -4.5t0.5 -5.5q2 -4 6 -4q2 0 5.5 1.5t5.5 1.5zM551 142q7 -1 10 7.5t-6 10.5q-26 6 -94 -2t-100 -27q-19 -11 -5 -29q7 -10 12 -6q25 17 70.5 28.5t73.5 14.5t39 3zM576 148q-1 -4 4 -6q3 5 -2 7zM636 144q1 -2 5 -4q0 1 2 3q0 2 -4 6q-5 -5 -3 -5zM623 138
q3 5 -2 8q-9 4 -15 -1l10 -8q4 -4 7 1zM612 122q0 3 -2 3h-11q2 -8 10 -8q3 1 3 5zM163 117q2 0 2 3t-2 3q-6 2 -10 -3q2 -5 10 -3zM227 123h-9v-3q6 -2 9 3zM539 119q4 -6 8 -2v2q-3 5 -8 0zM577 117q-1 -2 3 -5.5t6 -2.5q7 0 5 7q0 5 -9 5q-3 0 -5 -4zM651 115v3
q-7 5 -12 1q-1 -1 -1 -5q4 -4 13 1zM203 110q5 2 3 7q-1 5 -11 1q2 -5 4 -7t4 -1zM256 114q3 -3 8 0q0 1 1 2q-5 5 -9 2v-4zM507 96q-2 -5 4 -5l8 4q-2 1 -4 3l-3 3q-2 1 -3.5 -1t-1.5 -4zM574 93q2 0 18 -5q-9 12 -13 11q-6 0 -5 -6zM192 94q4 -1 7 2q-4 3 -7 -2zM472 94
q20 -9 25 -3q-16 11 -25 3zM557 86q1 -1 4 1q-19 16 -34 4q4 -2 6 -2q12 3 24 -3zM261 88q-1 10 -9 3zM600 88q18 -6 25 -3q-5 6 -13 7t-12 -4zM243 83q1 1 1 2q-14 13 -28 4q11 -5 23 -10zM298 91q-12 2 -19 -5q11 -5 19 5zM404 68q0 -3 1 -4t4 -1.5t4 -1.5q5 0 9 3
q1 0 1 2t-1 3q-4 4 -8 6q-1 -1 -3 -2l-3 -1.5t-2.5 -1.5t-1.5 -2zM226 67q1 0 1.5 1.5t-0.5 2.5q-3 4 -11 0q0 -1 -1 -2q3 -6 11 -2zM430 65q4 -4 5 -4q4 -1 13 -1q4 0 12 0.5t13 0.5q8 0 13 12q-2 -1 -10 -1t-11 -3h-7q-4 0 -11 0.5t-11 0.5q-1 0 -6 -5zM599 69q6 -5 10 1
q-5 2 -10 -1zM335 56v5q-10 6 -14 10h-5q-4 -2 -4 -3q0 -5 2 -5t9 -3.5t12 -3.5zM529 58q5 2 5 4q0 4 -4 6l-17 3v-1q-8 0 -12 -1q-3 0 -3 -3q0 -2 2 -4q17 -5 29 -4zM539 70q6 -12 12 -15q3 14 -12 15zM383 63q9 0 15 -1q-1 7 -8 7q-6 0 -7 -6zM583 59q1 0 2.5 1.5t2.5 1.5
l-1 2q-1 2 -2 3q-10 4 -20 -1q-3 -2 -3 -4q3 -3 4 -3h17zM284 61q4 -6 11 -2q-1 1 -2.5 4t-2.5 4q-4 3 -7 0q0 -5 1 -6zM353 65q1 -1 2.5 -2t2.5 -2l4 4q-1 0 -3 1.5t-3 1.5zM193 63q5 -2 9 0q-5 5 -9 0zM266 59l2 4q-7 2 -20 0q-3 -3 -2 -5q0 -3 3 -3q3 1 9 2.5t8 1.5z
M507 44q-4 -9 10 -10l3 1q2 1 3 2q4 8 -7 12q-6 3 -9 -5zM426 37l6 3q-1 0 -2.5 2t-2.5 3q-5 2 -12 -7q9 -2 11 -1zM491 35q1 0 2 0.5t3 1t4 0.5q-14 10 -26 7q-5 0 -5 -3q-1 -5 5 -5q3 0 8.5 -0.5t8.5 -0.5zM302 34l2 2q-1 2 -2.5 4t-1.5 3q-3 3 -7 1q-3 0 -3 -4q0 -3 4 -5
q2 -1 8 -1zM456 38l-4 6l-3 -4q3 -3 5 -4q2 1 2 2zM366 30q2 9 -3 10q-16 5 -23 0q3 -1 8 -4.5t9.5 -4.5t8.5 -1zM326 28q1 9 -4 13h-3q-2 0 -2 -3q4 -8 9 -10zM539 37q3 -2 21 -2q-4 5 -10.5 6t-10.5 -4zM251 38q5 -6 10 1q-2 0 -5.5 -0.5t-4.5 -0.5zM421 8q2 5 0 8t-9 2
q-4 0 -7 -3q-1 -2 6 -7q0 -2 3 -2q5 -3 7 2zM356 10h2q1 1 2 1l-3 6l-3 -1q2 -4 2 -6zM486 11q5 2 2 6q-5 0 -5 -4q0 -2 3 -2zM461 5q1 0 3.5 1.5t4.5 1.5q-18 14 -29 4q12 -9 21 -7zM526 12v2h-6l-2 -3q2 0 4.5 0.5t3.5 0.5zM394 3q5 3 5 4q-2 5 -5 6q-10 2 -17 -3
q1 -1 4 -2.5t4 -2.5q4 -4 9 -2z" />
    <glyph glyph-name="uni0410" unicode="&#x410;" horiz-adv-x="719" 
d="M347 36q-123 0 -207 65t-80 176t71.5 167.5t209.5 87.5q43 9 96 -1.5t102 -39t83.5 -83.5t36.5 -126q4 -113 -85 -179.5t-227 -66.5zM205 204q0 -11 35 -3q20 5 19 10t-3.5 31t-4.5 41q34 11 40 14l3 -55q2 -25 18 -26q8 -1 22 3t17 11q2 5 11 26.5t12 31.5
q10 -61 57 -54q26 3 42 28t23 55q3 10 -2 13q-3 1 -4.5 -1t-2.5 -6q-12 -39 -35 -43q-22 -5 -31 26q26 18 37 54q5 15 -1.5 27.5t-26.5 9.5q-20 -4 -36 -25.5t-20 -48.5q-17 -48 -21 -55q-1 -4 -2 -5t-2 1l-20 107q-1 8 -20 4.5t-19 -8.5q0 -30 1 -53q-17 -12 -41 -19
q-4 40 -5 43q-4 19 -23 14q-5 -1 -8.5 -3t-5.5 -3.5t-1 -2.5q3 -16 2.5 -34.5t-2.5 -54t-2 -50.5zM420 322v1q0 57 19 61q3 1 5 -1.5t2.5 -7t0 -8.5t-1.5 -7q-6 -24 -25 -38zM257 126q25 17 79 34t94.5 25.5t47.5 8.5q7 -1 10 7.5t-6 10.5q-22 6 -110 -12.5t-122 -38.5
q-19 -11 -5 -29q7 -10 12 -6z" />
    <glyph glyph-name="uni0411" unicode="&#x411;" 
d="M148 232q0 15 2 50.5t2.5 54t-2.5 34.5q-1 1 1 2.5t5.5 3.5t8.5 3q19 5 23 -14q1 -3 5 -43q24 7 41 19q-1 23 -1 53q0 5 18.5 8.5t20.5 -4.5l20 -107q1 -4 3 0q1 2 1 4q4 7 21 55q4 27 20 48.5t36 25.5q20 3 26.5 -9.5t1.5 -27.5q-11 -36 -37 -54q9 -31 31 -26
q23 4 35 43q1 4 2.5 6t4.5 1q5 -3 2 -13q-7 -30 -23 -55t-42 -28q-47 -7 -57 54q-3 -10 -12 -31.5t-11 -26.5q-3 -7 -17 -11t-22 -3q-16 1 -18 26l-3 55q-6 -3 -40 -14q2 -15 4.5 -41t3.5 -31q0 -4 -14 -8.5t-26 -4t-14 5.5zM363 350q19 14 25 38q6 17 -1 23q-2 2 -5 1
q-19 -4 -19 -61v-1zM200 154q-6 -5 -14 8q-10 17 7 27q34 20 122 38.5t110 12.5q9 -2 6 -10.5t-10 -7.5q-7 0 -47.5 -8.5t-94.5 -25.5t-79 -34z" />
    <glyph glyph-name="uni0412" unicode="&#x412;" horiz-adv-x="1052" 
d="M565 76q-66 -11 -111.5 -17.5t-99 -10t-89.5 0t-72 15t-58 32.5t-36.5 54t-17.5 79q-3 45 8 83t29.5 65t51.5 50t64 37.5t78 27.5t82.5 20.5t87.5 16.5q84 18 188.5 28.5t150.5 7.5q140 -10 151 -206q4 -64 -20 -110.5t-79 -79t-127.5 -54t-180.5 -39.5zM637 432
q39 1 91.5 19t68.5 34q6 6 -1 11.5t-13 1.5q-4 -3 -27.5 -11t-62 -15.5t-69.5 -6.5q-7 1 -7 -13q-2 -20 18 -20h2zM753 291q25 3 44 41q0 -21 3 -30.5t15 -10.5q15 -2 33 8q12 9 8 17q-2 4 -6 22l-16 85q-2 10 -17.5 9t-15.5 -11q0 -20 -1 -36q-13 -56 -35 -61
q-4 -1 -6.5 4.5t-2.5 15.5q0 17 11 33.5t23 18.5q7 0 2 11q-4 12 -16 10q-28 -5 -47 -29.5t-19 -54.5q2 -50 43 -42zM231 189q0 -7 14 -8t27.5 3.5t12.5 10.5q-5 54 -6 67q16 2 22 -11q4 -8 16 -49q2 -7 19.5 -5.5t20.5 9.5q12 29 19 50q9 -44 44 -39q31 5 33 62
q18 17 32 59.5t16 45.5q4 6 4 -2q0 -2 -1 -12q-1 -11 -7.5 -52.5t-6.5 -60.5q0 -24 6 -33.5t23 -10.5q16 -2 23 1t16 14q16 19 43 91q12 -21 40 -13q17 7 27 24q3 -48 -4 -76.5t-19 -32.5q-12 -3 -12 8q0 9 4 9q3 2 2.5 5t-4 5.5t-7.5 2.5q-9 -1 -15 -9.5t-6 -17.5
q0 -20 15 -28.5t38 -0.5q28 9 39 46t9.5 66.5t-6.5 53.5q-5 25 -9 37q-3 5 -10 3t-13.5 -8.5t-5.5 -12.5v-3q4 -31 -13 -36q-6 -2 -10 2t-4 14q0 27 25 32q7 0 2 9q-7 9 -21 7q-24 -5 -36.5 -26t-11.5 -39q-21 -55 -39 -88q-5 -8 -5 10q0 7 1 19q7 82 7 109q0 23 -6 29.5
t-25 5.5q-21 -1 -29 -15q-5 -7 -21.5 -57t-24.5 -58q-2 15 -5.5 26t-15.5 21.5t-29 7.5q-26 -5 -26 -37q0 -6 1 -10l-25 -70q-11 44 -42 50q26 27 26 64q0 4 -5.5 5.5t-11 -0.5t-5.5 -7q0 -20 -11.5 -40.5t-25.5 -26.5l-5 39q-4 20 -23 16q-8 -1 -13 -4.5t-4 -7.5
q3 -15 2.5 -32.5t-2.5 -52t-2 -47.5zM413 284q-1 15 2 27q3 7 -2 11.5t-12 2.5q-1 0 -5 -2q3 6 9 8q17 5 25 -11.5t9 -33.5q-11 -6 -26 -2zM429 253q-5 -1 -8.5 3.5t-5.5 13.5q18 0 24 2q-3 -18 -10 -19zM273 106q25 17 79 34t94.5 25.5t47.5 8.5q7 -1 10 7.5t-6 10.5
q-22 6 -110 -12.5t-122 -38.5q-19 -11 -5 -29q7 -10 12 -6z" />
    <glyph glyph-name="uni0413" unicode="&#x413;" horiz-adv-x="746" 
d="M466 432q39 1 91.5 19t68.5 34q6 6 -1 11.5t-13 1.5q-4 -3 -27.5 -11t-62 -15.5t-69.5 -6.5q-7 1 -7 -13q-2 -20 18 -20h2zM582 291q25 3 44 41q0 -21 3 -30.5t15 -10.5q16 -2 33 8q12 9 8 17q-2 4 -6 22l-16 85q-2 10 -17.5 9t-15.5 -11q0 -20 -1 -36q-13 -56 -35 -61
q-4 -1 -6.5 4.5t-2.5 15.5q0 17 11 33.5t23 18.5q7 0 2 11q-4 12 -16 10q-28 -5 -47 -29.5t-19 -54.5q2 -50 43 -42zM60 189q0 -7 14 -8t27.5 3.5t12.5 10.5q-4 54 -6 67q16 2 22 -11q4 -8 16 -49q2 -7 19.5 -5.5t20.5 9.5q12 29 19 50q9 -44 44 -39q31 5 33 62
q18 17 32 59.5t16 45.5q4 6 4 -2q0 -2 -1 -12q-1 -11 -7.5 -52.5t-6.5 -60.5q0 -24 6 -33.5t23 -10.5q16 -2 23 1t16 14q16 19 43 91q12 -21 40 -13q17 7 27 24q3 -48 -4 -76.5t-19 -32.5q-12 -3 -12 8q0 9 4 9q3 2 2.5 5t-4 5.5t-7.5 2.5q-9 -1 -15 -9.5t-6 -17.5
q0 -20 15 -28.5t38 -0.5q28 9 39 46t9.5 66.5t-6.5 53.5q-5 25 -9 37q-3 5 -10 3t-13.5 -8.5t-5.5 -12.5v-3q4 -31 -13 -36q-6 -2 -10 2t-4 14q0 27 25 32q7 0 2 9q-7 9 -21 7q-24 -5 -36.5 -26t-11.5 -39q-21 -55 -39 -88q-5 -8 -5 10q0 7 1 19q7 82 7 109q0 23 -6 29.5
t-25 5.5q-21 -1 -29 -15q-5 -7 -21.5 -57t-24.5 -58q-2 15 -5.5 26t-15.5 21.5t-29 7.5q-26 -5 -26 -37q0 -6 1 -10l-25 -70q-11 44 -42 50q26 27 26 64q0 4 -5.5 5.5t-11 -0.5t-5.5 -7q0 -20 -11.5 -40.5t-25.5 -26.5l-5 39q-4 20 -23 16q-8 -1 -13 -4.5t-4 -7.5
q3 -15 2.5 -32.5t-2.5 -52t-2 -47.5zM242 284q-1 15 2 27q3 7 -2 11.5t-12 2.5q-1 0 -5 -2q3 6 9 8q17 5 25 -11.5t9 -33.5q-11 -6 -26 -2zM258 253q-5 -1 -8.5 3.5t-5.5 13.5q18 0 24 2q-3 -18 -10 -19zM102 106q25 17 79 34t94.5 25.5t47.5 8.5q7 -1 10 7.5t-6 10.5
q-22 6 -110 -12.5t-122 -38.5q-19 -11 -5 -29q7 -10 12 -6z" />
    <glyph glyph-name="uni0414" unicode="&#x414;" 
d="M538 507q-10 -4 -235.5 0.5t-230.5 0.5q-1 -1 -2 1q-5 13 4 17q1 0 215 -2.5t245 11.5q3 1 6.5 -5t3.5 -13.5t-6 -9.5zM292 325q0 30 6.5 82t6.5 54q0 13 -16 13q-17 0 -17 -17v-53q-5 -36 -29 -66.5t-57 -36.5v9q3 152 2 158q-1 5 -9.5 5.5t-16.5 -2t-8 -5.5
q7 -106 9 -167q-7 1 -18 3t-17 3q-12 3 -14.5 -1t-0.5 -14q14 -94 22 -116q6 -19 19 -23.5t23 2.5t10 16q-2 30 -2 116q60 10 87 76q1 -82 1 -188q0 -3 6 -4t12 0.5t6 4.5q0 81 -5 151zM504 185q3 2 3 6.5t-1 8t-2 3.5q-46 -21 -87 -21q-11 0 -12 8q0 5 -1 18.5t-1.5 35.5
t-0.5 51q78 -9 82 12q1 3 -0.5 6t-3 5t-2.5 1q-13 -13 -76 -8q1 31 1 126q55 3 97 -10q2 0 3.5 2.5t1.5 6t-4 5.5q-28 14 -99 16q0 9 -1 11q-2 10 -24 4q-9 -3 -9 -6v-10q-14 -2 -16 -3q-7 -2 -8 -8t1 -11t3 -5q8 2 22 4q6 -71 9 -135q2 -75 -2 -120q0 -10 19 -10
q30 0 63.5 5.5t44.5 11.5zM163 284q0 -24 -0.5 -48.5t-1.5 -40t-1 -17.5q-1 -11 -8 -6l-6 10q-3 9 -10.5 53t-7.5 45v2t1.5 1.5l3 1t4 0.5h4.5h5h5.5t6 -0.5t5.5 -0.5zM82 101q-3 -1 -6.5 5t-3.5 13.5t6 9.5q10 4 230.5 -0.5t225.5 -0.5q1 1 2 -1q5 -13 -4 -17
q-1 0 -210 2.5t-240 -11.5z" />
    <glyph glyph-name="uni0415" unicode="&#x415;" horiz-adv-x="1160" 
d="M1068 507q-10 -4 -495 0.5t-490 0.5q-1 -1 -2 1q-5 13 4 17q1 0 474.5 -2.5t504.5 11.5q3 1 6.5 -5t3.5 -13.5t-6 -9.5zM681 451q6 4 5.5 9t-3.5 9.5t-4 4.5q-54 -26 -145 -26q-4 0 -3 -8q1 -4 5 -5q12 -2 21 -2q8 -30 6 -108.5t-16 -153.5q0 -2 7.5 -5t15.5 0t8 14
q9 147 11 253q71 4 92 18zM863 108q4 9 8 30t3 27q-1 10 -10 10q-3 1 -9.5 2.5t-9.5 2.5l-4 53q-4 53 -3 94q2 112 0 127l-1 1q0 3 -1.5 6.5t-3 5.5t-2.5 2q-41 -21 -124 -21q-2 0 -3 -3t0 -6t5 -4l21 -3q17 -102 -9 -254q-52 -16 -55 -44q-1 -9 4.5 -13t11.5 -3.5t7 2.5
q3 33 58.5 44.5t105.5 -0.5q0 -47 -2 -57q-1 -3 3 -4q8 -1 10 5zM284 166q15 0 16 16q1 6 -2 7q-32 -3 -68 36t-61 86q-3 5 2 8q22 14 52.5 46t39.5 54q6 15 -9 24q-5 3 -6 1q-29 -70 -87 -112q-11 -6 -12 -11v52.5v59v25.5q-1 7 -17.5 4.5t-15.5 -10.5q9 -89 10 -157v-115
q0 -4 7.5 -6.5t15 -1t7.5 6.5q0 6 -1.5 20.5t-3 42.5t-2.5 65v7q21 -52 60 -100t75 -48zM454 414q-1 18 -11 33t-31 15q-35 0 -60 -41.5t-25 -123.5q0 -79 21.5 -106t56.5 -27q24 0 43 27t27 58t8 56q0 17 -1.5 31t-4 21.5t-4.5 12t-5 8t-3 4.5q-1 1 -4 1t-5.5 -1.5t-4.5 -4
t-2.5 -5t1.5 -5.5q16 -21 16 -63q0 -44 -16.5 -82.5t-41.5 -38.5q-23 0 -37.5 33.5t-14.5 82.5q0 55 15 102t39 47q13 0 19.5 -12t6.5 -23q0 -25 -17 -35q-4 -2 3 -8t17 -1q17 13 15 45zM1043 162q1 -4 9 -5.5t14.5 2t4.5 11.5q-48 167 -68 288q-1 8 -22 -3q-7 -4 -7 -6
q6 -14 10 -30q-16 -52 -46 -136q-10 3 -21 10q0 1 -2 0t-4 -3.5t-2 -6.5q0 -11 23 -16q-12 -33 -30 -82q-2 -5 7 -7q18 -4 22 4q3 21 22 82q7 -1 24 -1q19 0 45 8q16 -74 21 -109zM814 183q-33 3 -64 -1q8 128 10 249q25 1 50 7q5 -54 6 -122q3 -69 -2 -133zM1020 280
q-16 -3 -37 -3q-18 0 -25 2q19 65 35 109q5 -15 27 -108zM915 98q-3 -1 -6.5 5t-3.5 13.5t6 9.5q10 4 85.5 -0.5t80.5 -0.5q1 1 2 -1q5 -13 -4 -17q-1 0 -65 2.5t-95 -11.5zM93 95q-3 -1 -6.5 5t-3.5 13.5t6 9.5q10 4 251 -0.5t246 -0.5q1 1 2 -1q5 -13 -4 -17
q-1 0 -230.5 2.5t-260.5 -11.5z" />
    <glyph glyph-name="uni0416" unicode="&#x416;" horiz-adv-x="800" 
d="M734 507q-10 -4 -333.5 0.5t-328.5 0.5q-1 -1 -2 1q-5 13 4 17q1 0 313 -2.5t343 11.5q3 1 6.5 -5t3.5 -13.5t-6 -9.5zM322 458q1 0 2 2q4 9 -5 11q-56 13 -131.5 -3t-75.5 -56q0 -8 6.5 -11.5t12.5 -3t6 2.5q0 36 61.5 51t123.5 7zM707 93q13 48 12 60q-3 10 -12 10
q-12 4 -20 5v1q0 2 -3.5 56t-3.5 97q2 127 0 136v1q0 3 -2 6.5t-3.5 5.5t-2.5 2q-43 -22 -130 -22q-2 0 -3 -3t0.5 -6t5.5 -4q9 -3 22 -3q7 -32 5 -112.5t-15 -156.5q-55 -14 -58 -46q0 -9 6 -13t12 -3.5t6 2.5q3 34 61.5 46t110.5 0q1 -10 0 -33t-2 -27q-1 -3 3 -4
q9 -2 11 5zM469 413q-1 18 -12 34t-32 16q-37 0 -63 -43.5t-26 -128.5q0 -83 22.5 -111t59.5 -28t59 51t22 96q0 15 -1 28t-3 20.5t-4.5 14t-4 9t-4.5 5.5l-2 3q-2 2 -6.5 0.5t-7.5 -6.5t-1 -9q17 -26 17 -66q0 -46 -17 -86t-44 -40q-24 0 -39 34.5t-15 86.5
q0 58 15.5 106.5t41.5 48.5q13 0 19.5 -12t6.5 -24q0 -26 -18 -37q-3 -2 4 -8q7 -7 17 0q18 10 16 46zM256 168q0 -5 8 -7.5t16 -1t8 6.5q0 1 -4 54t-3 91q2 113 -1 125q-1 3 -4.5 4.5t-8 1.5t-8.5 -1t-7 -2.5t-3 -3.5q5 -18 8 -135v-54.5t-0.5 -50.5t-0.5 -27zM656 172
q-36 3 -67 -1q11 252 11 263q33 2 52 7q3 -20 6 -130q2 -89 -2 -139zM77 202q0 -15 16 -28t43 -13q71 0 71 122q0 23 -0.5 56.5t-1 56t-0.5 27.5q-1 5 -8.5 4.5t-15.5 -4t-8 -5.5q10 -63 10 -145q0 -96 -45 -96q-19 0 -28 13t-9 26q0 6 -12 2t-12 -16zM82 101q-3 -1 -6.5 5
t-3.5 13.5t6 9.5q10 4 195.5 -0.5t190.5 -0.5q1 1 2 -1q5 -13 -4 -17q-1 0 -175 2.5t-205 -11.5z" />
    </font>
</defs>
</svg>
