<svg id="Livello_1" data-name="Livello 1" xmlns="http://www.w3.org/2000/svg" viewBox="0 0 176.89 86.83"><defs><style>.cls-2{fill:#ccc}.cls-3{fill:#e6e6e6}.cls-4{fill:#f2f2f2}</style></defs><path d="M1141.8 116.75h-10.27a8.59 8.59 0 0 0 .45 1.12c-6.22-.41-22.69-1.46-28.11-1.42-3.52 0-9.22.37-14.17.85-2.69.27-5.85.64-8.26 1.1h-.6a5.83 5.83 0 0 0-5.82 5.82v.06a1.1 1.1 0 0 0 0 .16 5.8 5.8 0 0 0 3.2 5.11c1.76.89 7.21 1.57 11.48 2 5 .49 10.65.83 14.17.85h.31c5.63 0 21.33-1 27.58-1.41-.15.45-.23.72-.23.72h10.27a6 6 0 0 0 6-6v-2.9a6 6 0 0 0-6-6.06zm-65.41 7.47a4.45 4.45 0 0 1 2.45-3.71 11.2 11.2 0 0 1 2.57-.72 4.43 4.43 0 1 1-5 4.43zm67.12 1.07c-2.38 2.79-3.37 2.8-4.31 1.22s-1.43-5.24-3.87-2.33a20.85 20.85 0 0 0-3 5.37c-5.76.38-22.32 1.44-28.11 1.44h-.3c-3.48 0-9.13-.36-14-.84-2.5-.25-4.66-.51-6.41-.78a5.8 5.8 0 0 0 .63-10 180.62 180.62 0 0 1 19.82-1.53h.3c6 0 23.45 1.14 28.64 1.48a4.91 4.91 0 0 0 3.94 2.27h3.88s5.66.33 2.79 3.7zm-1.71 18.09h-10.27a8.59 8.59 0 0 0 .45 1.12c-6.22-.41-22.69-1.46-28.11-1.42-3.52 0-9.22.37-14.17.85-2.69.27-5.85.64-8.26 1.1h-.6a5.82 5.82 0 0 0-5.82 5.81v.06a1.1 1.1 0 0 0 0 .16 5.8 5.8 0 0 0 3.2 5.11c1.76.89 7.21 1.58 11.48 2 5 .49 10.65.83 14.17.86h.31c5.63 0 21.33-1 27.58-1.41-.15.45-.23.73-.23.73h10.27a6 6 0 0 0 6-6v-2.95a6 6 0 0 0-6-6.02zm-65.41 7.47a4.43 4.43 0 0 1 2.45-3.7 11.1 11.1 0 0 1 2.57-.73 4.44 4.44 0 1 1-5 4.43zm67.12 1.07c-2.38 2.79-3.37 2.8-4.31 1.22s-1.43-5.24-3.87-2.33a20.85 20.85 0 0 0-3 5.37c-5.76.38-22.32 1.44-28.11 1.44h-.3c-3.48 0-9.13-.36-14-.84-2.5-.25-4.66-.51-6.41-.78a5.8 5.8 0 0 0 .63-10 180.62 180.62 0 0 1 19.82-1.53h.3c6 0 23.45 1.14 28.64 1.48a4.88 4.88 0 0 0 3.94 2.27h3.88s5.66.33 2.79 3.7zm104.86 15.9a5.8 5.8 0 0 0-4.93-3.47c-2-.14-7.26 1.35-11.36 2.63-4.75 1.47-10.13 3.37-13.39 4.72l-.28.11c-5.19 2.19-19.26 9.21-24.87 12 0-.48-.06-.76-.06-.76l-9.47 4a6 6 0 0 0-3.2 7.88l1.12 2.66a6 6 0 0 0 7.88 3.21l9.47-4a9.92 9.92 0 0 0-.85-.86c5.89-2 21.47-7.47 26.44-9.61 3.24-1.39 8.36-3.92 12.73-6.29 2.38-1.29 5.14-2.86 7.18-4.22a4 4 0 0 0 .58-.2 5.82 5.82 0 0 0 3.09-7.62v-.05zm-24 17.28l-.27.12c-5.51 2.32-22 8.06-27 9.76a4.87 4.87 0 0 0-4.51-.56l-3.57 1.51s-5.43 1.9-4.09-2.32c1.1-3.49 2-3.89 3.49-2.8s3.36 4.27 4.48.64a20.92 20.92 0 0 0 .71-6.13c5.16-2.59 20-10 25.34-12.25l.27-.11c3.23-1.34 8.56-3.22 13.28-4.68 2.39-.75 4.48-1.34 6.2-1.77a5.8 5.8 0 0 0 3.3 9.49 177.71 177.71 0 0 1-17.67 9.1zm22-12.22a11 11 0 0 1-2.09 1.67 5.14 5.14 0 1 1 2.09-1.67z" transform="translate(-1072.02 -114.45)" opacity=".15"/><path class="cls-2" d="M1077.84 116.36a5.82 5.82 0 1 0 5.81 5.82 5.83 5.83 0 0 0-5.81-5.82zm0 10.26a4.45 4.45 0 1 1 4.44-4.44 4.44 4.44 0 0 1-4.44 4.44z" transform="translate(-1072.02 -114.45)"/><path class="cls-3" d="M1075.84 118.51c2.75-1.4 18.28-2.65 25-2.7h.3c7 0 29.89 1.56 30.12 1.58l.09-1.36c-.23 0-23.82-1.63-30.52-1.58-3.52 0-9.22.37-14.17.85-4.27.42-9.72 1.11-11.48 2a5.67 5.67 0 0 0 0 10.21c1.76.89 7.21 1.57 11.48 2 5 .49 10.65.83 14.17.85h.31c7.07 0 30-1.57 30.21-1.59l-.09-1.36c-.23 0-23.1 1.58-30.12 1.58h-.3c-3.48 0-9.13-.36-14-.84-5.79-.57-9.8-1.25-11-1.86a4.42 4.42 0 0 1-2.45-3.87 4.45 4.45 0 0 1 2.45-3.91z" transform="translate(-1072.02 -114.45)"/><path class="cls-4" d="M1138.8 114.75h-10.27s1.43 4.81 5.23 4.81h3.88s5.74.36 2.87 3.73c-2.38 2.79-3.37 2.8-4.31 1.22s-1.43-5.24-3.87-2.33a24.46 24.46 0 0 0-3.8 7.49h10.27a6 6 0 0 0 6-6v-2.9a6 6 0 0 0-6-6.02z" transform="translate(-1072.02 -114.45)"/><path class="cls-2" d="M1077.84 143a5.81 5.81 0 1 0 5.81 5.81 5.82 5.82 0 0 0-5.81-5.81zm0 10.26a4.45 4.45 0 1 1 4.44-4.45 4.45 4.45 0 0 1-4.44 4.45z" transform="translate(-1072.02 -114.45)"/><path class="cls-3" d="M1075.84 145.15c2.75-1.4 18.28-2.66 25-2.71h.3c7 0 29.89 1.57 30.12 1.58l.09-1.36c-.23 0-23.82-1.63-30.52-1.58-3.52 0-9.22.37-14.17.85-4.27.42-9.72 1.11-11.48 2a5.67 5.67 0 0 0 0 10.21c1.76.89 7.21 1.58 11.48 2 5 .49 10.65.83 14.17.86h.31c7.07 0 30-1.57 30.21-1.58l-.09-1.36c-.23 0-23.1 1.57-30.12 1.57h-.3c-3.48 0-9.13-.36-14-.84-5.79-.57-9.8-1.25-11-1.86a4.42 4.42 0 0 1-2.45-3.86V149a4.43 4.43 0 0 1 2.45-3.85z" transform="translate(-1072.02 -114.45)"/><path class="cls-4" d="M1138.8 141.38h-10.27s1.43 4.81 5.23 4.81h3.88s5.74.36 2.87 3.73c-2.38 2.79-3.37 2.8-4.31 1.22s-1.43-5.24-3.87-2.33a24.47 24.47 0 0 0-3.8 7.5h10.27a6 6 0 0 0 6-6v-2.91a6 6 0 0 0-6-6.02z" transform="translate(-1072.02 -114.45)"/><path class="cls-2" d="M1237.3 164.25a5.81 5.81 0 1 0 7.61 3.1 5.82 5.82 0 0 0-7.61-3.1zm4 9.45a4.45 4.45 0 1 1 2.37-5.82 4.45 4.45 0 0 1-2.38 5.82z" transform="translate(-1072.02 -114.45)"/><path class="cls-3" d="M1239.9 163.68c-2-.14-7.26 1.34-11.36 2.62-4.75 1.48-10.13 3.37-13.39 4.72l-.28.12c-6.51 2.74-27 13.09-27.23 13.19l.62 1.22c.21-.11 20.67-10.43 27.14-13.16l.27-.11c3.23-1.33 8.56-3.21 13.28-4.68 5.55-1.73 9.5-2.66 10.85-2.56a4.41 4.41 0 0 1 3.76 2.61 4.45 4.45 0 0 1-.76 4.51c-2 2.36-15.82 9.55-22 12.22l-.27.12c-6.47 2.73-28.15 10.17-28.37 10.25l.44 1.29c.23-.08 22.59-7.76 28.74-10.41 3.24-1.39 8.35-3.92 12.73-6.29 3.77-2 8.53-4.79 9.8-6.3a5.67 5.67 0 0 0-4-9.4z" transform="translate(-1072.02 -114.45)"/><path class="cls-4" d="M1184.87 190.13c1.47 1.1 3.36 4.27 4.48.65a24.56 24.56 0 0 0 .59-8.39l-9.47 4a6 6 0 0 0-3.2 7.88l1.12 2.67a6 6 0 0 0 7.88 3.2l9.47-4s-3.19-3.87-6.7-2.39l-3.57 1.5s-5.43 1.9-4.09-2.32c1.1-3.49 2.02-3.93 3.49-2.8z" transform="translate(-1072.02 -114.45)"/></svg>