<svg xmlns="http://www.w3.org/2000/svg" viewBox="0 0 104.86 104.85"><defs><style>.cls-1{fill:#e03c7c;}</style></defs><title>Ресурс 4</title><g id="Слой_2" data-name="Слой 2"><g id="Слой_1-2" data-name="Слой 1"><path class="cls-1" d="M105.11,6.07V99.28a5.83,5.83,0,0,1-5.83,5.82H72.64V64.53H86.32l2-15.88H72.64V38.55c0-4.59,1.29-7.72,7.85-7.72h8.36V16.73a110.39,110.39,0,0,0-12.2-.62c-12.12,0-20.39,7.38-20.39,20.92V48.68H42.64V64.56H56.26V105.1H6.07A5.83,5.83,0,0,1,.25,99.28V6.07A5.82,5.82,0,0,1,6.07.25H99.28A5.82,5.82,0,0,1,105.11,6.07Z" transform="translate(-0.25 -0.25)"/></g></g></svg>