<svg xmlns="http://www.w3.org/2000/svg" viewBox="0 0 103.34 103.34"><defs><style>.cls-1{fill:#e03c7c;}</style></defs><title>Ресурс 3</title><g id="Слой_2" data-name="Слой 2"><g id="Слой_1-2" data-name="Слой 1"><path class="cls-1" d="M103.28,30.62c.25,5.51.31,7.27.31,21.3s-.06,15.79-.31,21.3a37.78,37.78,0,0,1-2.4,12.54,26.42,26.42,0,0,1-15.11,15.11,37.9,37.9,0,0,1-12.54,2.4c-5.51.25-7.27.31-21.3.31s-15.79-.06-21.3-.31a37.92,37.92,0,0,1-12.54-2.4,25.4,25.4,0,0,1-9.15-6,25.26,25.26,0,0,1-6-9.15A37.88,37.88,0,0,1,.56,73.22C.31,67.71.25,66,.25,51.92s.06-15.79.31-21.3A37.88,37.88,0,0,1,3,18.08a25.25,25.25,0,0,1,6-9.15,25.33,25.33,0,0,1,9.15-6A37.89,37.89,0,0,1,30.62.56C36.13.31,37.89.25,51.92.25s15.79.06,21.3.31A37.84,37.84,0,0,1,85.77,3a25.27,25.27,0,0,1,9.15,6,25.41,25.41,0,0,1,6,9.15A37.88,37.88,0,0,1,103.28,30.62Zm-9,21.3c0-13.8,0-15.43-.3-20.88a28.54,28.54,0,0,0-1.78-9.6,16,16,0,0,0-3.86-5.94,16,16,0,0,0-5.94-3.86,28.74,28.74,0,0,0-9.6-1.78c-5.45-.25-7.09-.3-20.88-.3s-15.43,0-20.87.3a28.54,28.54,0,0,0-9.6,1.78,15.92,15.92,0,0,0-5.94,3.86,16.06,16.06,0,0,0-3.86,5.94A28.74,28.74,0,0,0,9.86,31c-.25,5.45-.3,7.08-.3,20.88s0,15.43.3,20.88a28.52,28.52,0,0,0,1.78,9.6,15.94,15.94,0,0,0,3.86,5.94,16.06,16.06,0,0,0,5.94,3.87A28.57,28.57,0,0,0,31,94c5.44.25,7.08.3,20.87.3s15.44-.05,20.88-.3a28.54,28.54,0,0,0,9.6-1.78,17.11,17.11,0,0,0,9.81-9.8A28.67,28.67,0,0,0,94,72.8C94.23,67.35,94.28,65.72,94.28,51.92Z" transform="translate(-0.25 -0.25)"/><path class="cls-1" d="M79.51,18.14a6.2,6.2,0,1,1-6.2,6.2,6.2,6.2,0,0,1,6.2-6.2Z" transform="translate(-0.25 -0.25)"/><path class="cls-1" d="M51.92,25.39A26.53,26.53,0,1,1,25.39,51.92,26.53,26.53,0,0,1,51.92,25.39ZM69.14,51.92A17.22,17.22,0,1,0,51.92,69.15,17.23,17.23,0,0,0,69.14,51.92Z" transform="translate(-0.25 -0.25)"/></g></g></svg>