<?xml version="1.0" encoding="utf-8"?>
<!-- Generator: Adobe Illustrator 17.0.0, SVG Export Plug-In . SVG Version: 6.00 Build 0)  -->
<!DOCTYPE svg PUBLIC "-//W3C//DTD SVG 1.1//EN" "http://www.w3.org/Graphics/SVG/1.1/DTD/svg11.dtd">
<svg version="1.1" id="Слой_1" xmlns="http://www.w3.org/2000/svg" xmlns:xlink="http://www.w3.org/1999/xlink" x="0px" y="0px"
	 width="91.172px" height="91.042px" viewBox="0 0 91.172 91.042" enable-background="new 0 0 91.172 91.042" xml:space="preserve">
<radialGradient id="SVGID_1_" cx="5.8845" cy="161.6003" r="115.5793" gradientTransform="matrix(1.0001 0 0 -1.0001 0.0071 250.6623)" gradientUnits="userSpaceOnUse">
	<stop  offset="0.09" style="stop-color:#FA8F21"/>
	<stop  offset="0.78" style="stop-color:#D82D7E"/>
</radialGradient>
<path fill="url(#SVGID_1_)" d="M23.086,90.72c-5.414-0.246-8.356-1.147-10.312-1.91c-2.592-1.009-4.44-2.211-6.386-4.153
	s-3.15-3.791-4.153-6.383c-0.763-1.956-1.664-4.897-1.91-10.312C0.054,62.109,0,60.353,0,45.525s0.06-16.581,0.322-22.439
	c0.246-5.414,1.153-8.35,1.91-10.312c1.009-2.592,2.213-4.44,4.153-6.388c1.943-1.943,3.791-3.15,6.386-4.153
	c1.956-0.763,4.897-1.664,10.312-1.91C28.939,0.054,30.697,0,45.52,0c14.828,0,16.581,0.06,22.439,0.322
	c5.414,0.246,8.35,1.153,10.312,1.91c2.592,1.004,4.44,2.211,6.386,4.153s3.144,3.794,4.153,6.386
	c0.763,1.956,1.664,4.897,1.91,10.312c0.268,5.858,0.322,7.611,0.322,22.439c0,14.822-0.054,16.581-0.322,22.439
	c-0.246,5.414-1.153,8.356-1.91,10.312c-1.009,2.592-2.211,4.44-4.153,6.383s-3.794,3.144-6.386,4.153
	c-1.956,0.763-4.897,1.664-10.312,1.91c-5.853,0.268-7.611,0.322-22.439,0.322C30.697,91.042,28.939,90.991,23.086,90.72"/>
<radialGradient id="SVGID_2_" cx="63.0489" cy="164.5233" r="101.7109" gradientTransform="matrix(1.0001 0 0 -1.0001 0.0071 250.6623)" gradientUnits="userSpaceOnUse">
	<stop  offset="0.64" style="stop-color:#8C3AAA;stop-opacity:0"/>
	<stop  offset="1" style="stop-color:#8C3AAA"/>
</radialGradient>
<path fill="url(#SVGID_2_)" d="M23.086,90.72c-5.414-0.246-8.356-1.147-10.312-1.91c-2.592-1.009-4.44-2.211-6.386-4.153
	s-3.15-3.791-4.153-6.383c-0.763-1.956-1.664-4.897-1.91-10.312C0.054,62.109,0,60.353,0,45.525s0.06-16.581,0.322-22.439
	c0.246-5.414,1.153-8.35,1.91-10.312c1.009-2.592,2.213-4.44,4.153-6.388c1.943-1.943,3.791-3.15,6.386-4.153
	c1.956-0.763,4.897-1.664,10.312-1.91C28.939,0.054,30.697,0,45.52,0c14.828,0,16.581,0.06,22.439,0.322
	c5.414,0.246,8.35,1.153,10.312,1.91c2.592,1.004,4.44,2.211,6.386,4.153s3.144,3.794,4.153,6.386
	c0.763,1.956,1.664,4.897,1.91,10.312c0.268,5.858,0.322,7.611,0.322,22.439c0,14.822-0.054,16.581-0.322,22.439
	c-0.246,5.414-1.153,8.356-1.91,10.312c-1.009,2.592-2.211,4.44-4.153,6.383s-3.794,3.144-6.386,4.153
	c-1.956,0.763-4.897,1.664-10.312,1.91c-5.853,0.268-7.611,0.322-22.439,0.322C30.697,91.042,28.939,90.991,23.086,90.72"/>
<path fill="#FFFFFF" d="M32.184,45.715c0-6.226,5.046-11.275,11.272-11.275s11.275,5.049,11.275,11.275S49.683,56.99,43.456,56.99
	S32.184,51.941,32.184,45.715 M26.089,45.715c0,9.592,7.775,17.367,17.367,17.367s17.367-7.775,17.367-17.367
	s-7.775-17.367-17.367-17.367S26.089,36.122,26.089,45.715 M57.453,27.659c-0.001,2.242,1.816,4.059,4.057,4.06
	c2.242,0.001,4.059-1.816,4.06-4.057s-1.816-4.059-4.057-4.06h-0.002C59.271,23.603,57.455,25.418,57.453,27.659 M29.792,73.246
	c-3.298-0.15-5.09-0.699-6.281-1.163c-1.579-0.615-2.706-1.347-3.89-2.53c-1.185-1.183-1.918-2.309-2.53-3.888
	c-0.464-1.191-1.014-2.983-1.163-6.281c-0.164-3.565-0.197-4.636-0.197-13.668s0.035-10.1,0.197-13.668
	c0.15-3.298,0.704-5.087,1.163-6.281c0.615-1.579,1.347-2.706,2.53-3.89c1.183-1.185,2.309-1.918,3.89-2.53
	c1.191-0.464,2.983-1.014,6.281-1.163c3.565-0.164,4.636-0.197,13.664-0.197s10.1,0.035,13.668,0.197
	c3.298,0.15,5.087,0.704,6.281,1.163c1.579,0.612,2.706,1.347,3.89,2.53c1.185,1.183,1.915,2.311,2.53,3.89
	c0.464,1.191,1.014,2.983,1.163,6.281c0.164,3.568,0.197,4.636,0.197,13.668s-0.033,10.1-0.197,13.668
	c-0.15,3.298-0.702,5.09-1.163,6.281c-0.615,1.579-1.347,2.706-2.53,3.888s-2.311,1.915-3.89,2.53
	c-1.191,0.464-2.983,1.014-6.281,1.163c-3.565,0.164-4.636,0.197-13.668,0.197S33.356,73.411,29.792,73.246 M29.512,12.097
	c-3.601,0.164-6.061,0.735-8.21,1.571c-2.224,0.863-4.109,2.022-5.991,3.901s-3.038,3.765-3.901,5.991
	c-0.836,2.15-1.407,4.609-1.571,8.21c-0.167,3.606-0.205,4.759-0.205,13.944s0.038,10.338,0.205,13.944
	c0.164,3.601,0.735,6.06,1.571,8.21c0.863,2.224,2.019,4.113,3.901,5.991c1.882,1.879,3.765,3.035,5.991,3.901
	c2.153,0.836,4.609,1.407,8.21,1.571c3.608,0.164,4.759,0.205,13.944,0.205s10.338-0.038,13.944-0.205
	c3.601-0.164,6.06-0.735,8.21-1.571c2.224-0.866,4.109-2.022,5.991-3.901c1.882-1.879,3.035-3.768,3.901-5.991
	c0.836-2.15,1.41-4.609,1.571-8.21c0.164-3.609,0.202-4.759,0.202-13.944s-0.038-10.338-0.202-13.944
	c-0.164-3.601-0.735-6.061-1.571-8.21c-0.866-2.224-2.022-4.109-3.901-5.991s-3.768-3.038-5.989-3.901
	c-2.153-0.836-4.612-1.41-8.21-1.571c-3.607-0.165-4.759-0.205-13.943-0.205s-10.339,0.038-13.947,0.205"/>
</svg>
