<?xml version="1.0" encoding="utf-8"?>
<!-- Generator: Adobe Illustrator 17.0.0, SVG Export Plug-In . SVG Version: 6.00 Build 0)  -->
<!DOCTYPE svg PUBLIC "-//W3C//DTD SVG 1.1//EN" "http://www.w3.org/Graphics/SVG/1.1/DTD/svg11.dtd">
<svg version="1.1" id="Слой_1" xmlns="http://www.w3.org/2000/svg" xmlns:xlink="http://www.w3.org/1999/xlink" x="0px" y="0px"
	 width="76.568px" height="76.384px" viewBox="0 0 76.568 76.384" enable-background="new 0 0 76.568 76.384" xml:space="preserve">
<g>
	<path fill="#FFFFFF" d="M48.941,62.574H22.037c-6.6,0-12-5.4-12-12V23.669c0-6.6,5.4-12,12-12h26.904c6.6,0,12,5.4,12,12v26.904
		C60.941,57.174,55.541,62.574,48.941,62.574z"/>
	<path fill="#00AFF0" d="M73.858,44.568c-0.024,0.135-0.041,0.27-0.067,0.405l-0.131-0.771
		C73.732,44.322,73.791,44.447,73.858,44.568c0.395-2.151,0.603-4.353,0.603-6.554c0-4.881-0.956-9.616-2.843-14.073
		c-1.821-4.306-4.427-8.173-7.75-11.493c-3.318-3.32-7.187-5.926-11.49-7.747C47.921,2.816,43.186,1.86,38.305,1.86
		c-2.3,0-4.604,0.216-6.846,0.646c-0.005,0.001-0.011,0.001-0.017,0.002c0.126,0.067,0.253,0.126,0.377,0.195l-0.76-0.119
		c0.127-0.024,0.256-0.051,0.383-0.076C28.366,0.873,24.906,0,21.404,0C15.687,0,10.312,2.226,6.269,6.27
		C2.227,10.313,0,15.688,0,21.406c0,3.639,0.936,7.216,2.693,10.377c0.023-0.131,0.039-0.263,0.064-0.394l0.131,0.758
		c-0.068-0.119-0.127-0.243-0.195-0.364c-0.356,2.048-0.544,4.141-0.544,6.231c0,4.882,0.956,9.616,2.843,14.074
		c1.819,4.307,4.426,8.172,7.745,11.492c3.322,3.32,7.187,5.929,11.495,7.746c4.456,1.889,9.193,2.846,14.073,2.846
		c2.124,0,4.254-0.194,6.332-0.563c-0.121-0.068-0.245-0.13-0.369-0.201l0.772,0.136c-0.133,0.025-0.268,0.041-0.404,0.065
		c3.202,1.812,6.828,2.774,10.53,2.774c5.716,0,11.089-2.223,15.132-6.268c4.044-4.04,6.269-9.417,6.269-15.134
		C76.568,51.331,75.627,47.741,73.858,44.568L73.858,44.568z M38.449,60.157c-12.845,0-18.591-6.315-18.591-11.048
		c0-2.428,1.792-4.129,4.262-4.129c5.497,0,4.073,7.893,14.329,7.893c5.25,0,8.15-2.851,8.15-5.768c0-1.755-0.866-3.7-4.323-4.552
		l-11.425-2.852c-9.201-2.308-10.871-7.281-10.871-11.957c0-9.708,9.14-13.353,17.724-13.353c7.907,0,17.228,4.37,17.228,10.194
		c0,2.495-2.161,3.947-4.63,3.947c-4.691,0-3.828-6.493-13.278-6.493c-4.689,0-7.286,2.123-7.286,5.162
		c0,3.033,3.703,4.001,6.919,4.734l8.456,1.877c9.263,2.064,11.612,7.472,11.612,12.566C56.727,54.266,50.671,60.157,38.449,60.157z
		 M44.269,73.408c0.124,0.072,0.247,0.133,0.369,0.201c0.136-0.024,0.27-0.04,0.404-0.065L44.269,73.408z M73.791,44.973
		c0.025-0.135,0.042-0.27,0.067-0.405c-0.067-0.121-0.126-0.246-0.198-0.366L73.791,44.973z M2.757,31.389
		c-0.025,0.131-0.041,0.263-0.064,0.394c0.068,0.121,0.127,0.245,0.195,0.364L2.757,31.389z M31.819,2.704
		c-0.124-0.069-0.251-0.129-0.377-0.195c-0.127,0.025-0.256,0.052-0.383,0.076L31.819,2.704z"/>
</g>
</svg>
