<?xml version="1.0" encoding="utf-8"?>
<!-- Generator: Adobe Illustrator 17.0.0, SVG Export Plug-In . SVG Version: 6.00 Build 0)  -->
<!DOCTYPE svg PUBLIC "-//W3C//DTD SVG 1.1//EN" "http://www.w3.org/Graphics/SVG/1.1/DTD/svg11.dtd">
<svg version="1.1" id="Слой_1" xmlns="http://www.w3.org/2000/svg" xmlns:xlink="http://www.w3.org/1999/xlink" x="0px" y="0px"
	 width="85.508px" height="73.879px" viewBox="0 0 85.508 73.879" enable-background="new 0 0 85.508 73.879" xml:space="preserve">
<g>
	<g>
		<path fill="#FFFFFF" d="M71.072,72.224c0.44-1.138,0.88-2.275,1.31-3.423L85.508,2.618c0-4.539-6.242-1.797-6.242-1.797
			L3.326,30.611c0,0-3.594,1.23-3.31,3.499c0.284,2.27,3.215,3.31,3.215,3.31l19.103,6.431l11.349,5.485l31.208,23.927
			C68.103,74.664,70.05,73.398,71.072,72.224z"/>
		<path fill="#D2E5F1" d="M31.284,70.038c0,0-0.911-0.085-2.046-3.679c-1.135-3.594-6.904-22.508-6.904-22.508l45.867-29.128
			c0,0,2.648-1.608,2.553,0c0,0,0.473,0.284-0.946,1.608c-1.419,1.324-36.032,32.438-36.032,32.438"/>
		<path fill="#B5CFE4" d="M45.649,58.51L33.305,69.765c0,0-0.965,0.732-2.021,0.273l2.364-20.906"/>
	</g>
</g>
</svg>
