<svg xmlns="http://www.w3.org/2000/svg" viewBox="0 0 119.76 119.76"><defs><style>.cls-1{fill:#df3b7c;}.cls-2{fill:#fff;}.cls-3{fill:#d2e5f1;}.cls-4{fill:#b5cfe4;}</style></defs><title>Ресурс 5</title><g id="Слой_2" data-name="Слой 2"><g id="Слой_1-2" data-name="Слой 1"><circle class="cls-1" cx="59.88" cy="59.88" r="59.88"/><path class="cls-2" d="M89.27,34.7,78.57,88.62A4,4,0,0,1,73,90.57L48.28,71.64l-9-4.34L24.2,62.22s-2.32-.82-2.54-2.62,2.62-2.77,2.62-2.77L84.33,33.28S89.27,31.11,89.27,34.7Z" transform="translate(-0.25 -0.25)"/><path class="cls-3" d="M44.77,85.11c-.9-2.84-5.46-17.8-5.46-17.8l36.27-23s2.09-1.27,2,0c0,0,.37.22-.75,1.27S48.36,71.2,48.36,71.2L46.39,88S45.67,87.95,44.77,85.11Z" transform="translate(-0.25 -0.25)"/><path class="cls-4" d="M57.75,78.9,48,87.8a1.71,1.71,0,0,1-1.6.22l1.87-16.53" transform="translate(-0.25 -0.25)"/></g></g></svg>