<?xml version="1.0" encoding="utf-8"?>
<!-- Generator: Adobe Illustrator 17.0.0, SVG Export Plug-In . SVG Version: 6.00 Build 0)  -->
<!DOCTYPE svg PUBLIC "-//W3C//DTD SVG 1.1//EN" "http://www.w3.org/Graphics/SVG/1.1/DTD/svg11.dtd">
<svg version="1.1" id="Слой_1" xmlns="http://www.w3.org/2000/svg" xmlns:xlink="http://www.w3.org/1999/xlink" x="0px" y="0px"
	 width="74.472px" height="60.524px" viewBox="0 0 74.472 60.524" enable-background="new 0 0 74.472 60.524" xml:space="preserve">
<path fill="#FFFFFF" d="M23.421,60.524c28.104,0,43.472-23.283,43.472-43.472c0-0.662-0.013-1.32-0.044-1.975
	c2.983-2.157,5.576-4.847,7.622-7.911c-2.738,1.216-5.684,2.036-8.774,2.405c3.154-1.891,5.576-4.884,6.719-8.452
	c-2.953,1.75-6.221,3.023-9.702,3.709C59.926,1.858,55.955,0,51.562,0C43.123,0,36.28,6.843,36.28,15.278
	c0,1.199,0.134,2.365,0.396,3.484C23.978,18.123,12.718,12.043,5.183,2.798C3.87,5.056,3.114,7.679,3.114,10.478
	c0,5.301,2.698,9.98,6.799,12.718c-2.506-0.077-4.861-0.766-6.92-1.911C2.99,21.348,2.99,21.412,2.99,21.479
	c0,7.4,5.267,13.578,12.258,14.979c-1.283,0.349-2.634,0.537-4.028,0.537c-0.984,0-1.942-0.097-2.872-0.276
	c1.945,6.07,7.585,10.488,14.274,10.612c-5.23,4.098-11.818,6.54-18.977,6.54c-1.233,0-2.449-0.071-3.645-0.212
	C6.762,57.994,14.791,60.524,23.421,60.524"/>
</svg>
