<?xml version="1.0" encoding="utf-8"?>
<!-- Generator: Adobe Illustrator 17.0.0, SVG Export Plug-In . SVG Version: 6.00 Build 0)  -->
<!DOCTYPE svg PUBLIC "-//W3C//DTD SVG 1.1//EN" "http://www.w3.org/Graphics/SVG/1.1/DTD/svg11.dtd">
<svg version="1.1" id="Слой_1" xmlns="http://www.w3.org/2000/svg" xmlns:xlink="http://www.w3.org/1999/xlink" x="0px" y="0px"
	 width="99.741px" height="105.178px" viewBox="0 0 99.741 105.178" enable-background="new 0 0 99.741 105.178"
	 xml:space="preserve">
<g>
	<path fill="#FFFFFF" d="M88.484,10.256c-2.62-2.399-13.18-10.07-36.697-10.181c0,0-27.748-1.673-41.275,10.733
		C2.983,18.337,0.332,29.355,0.063,43.023c-0.284,13.669-0.647,39.254,24.039,46.199h0.016l-0.016,10.591
		c0,0-0.158,4.293,2.667,5.161c3.409,1.058,5.414-2.194,8.681-5.714c1.784-1.926,4.262-4.767,6.124-6.929
		c16.873,1.421,29.863-1.831,31.331-2.304c3.409-1.105,22.697-3.583,25.822-29.169C101.964,34.484,97.15,17.785,88.484,10.256z
		 M91.341,58.965C88.69,80.336,73.048,81.694,70.175,82.609c-1.231,0.395-12.627,3.236-26.959,2.289c0,0-10.686,12.88-14.016,16.242
		c-0.521,0.521-1.136,0.742-1.547,0.631c-0.568-0.142-0.726-0.821-0.726-1.815c0.016-1.421,0.095-17.599,0.095-17.599
		c-0.016,0-0.016,0,0,0C6.156,76.564,7.371,54.767,7.608,43.355c0.237-11.412,2.383-20.756,8.744-27.038
		C27.795,5.963,51.361,7.51,51.361,7.51c19.903,0.095,29.437,6.077,31.647,8.081C90.331,21.889,94.072,36.931,91.341,58.965z"/>
	<path fill="none" stroke="#FFFFFF" stroke-width="2" stroke-linecap="round" stroke-linejoin="round" d="M61.462,42.439
		c-0.253-5.224-2.904-7.955-7.955-8.223"/>
	<path fill="none" stroke="#FFFFFF" stroke-width="2" stroke-linecap="round" stroke-linejoin="round" d="M68.281,44.728
		c0.11-4.861-1.326-8.918-4.325-12.185c-2.999-3.267-7.15-5.082-12.485-5.461"/>
	<path fill="none" stroke="#FFFFFF" stroke-width="2" stroke-linecap="round" stroke-linejoin="round" d="M75.273,47.459
		c-0.063-8.444-2.589-15.074-7.56-19.935c-4.972-4.846-11.175-7.308-18.578-7.355"/>
	<path fill="#FFFFFF" d="M53.776,60.259c0,0,1.878,0.158,2.873-1.089l1.957-2.462c0.947-1.231,3.236-2.005,5.477-0.758
		c1.247,0.71,3.488,2.083,4.877,3.109c1.484,1.089,4.53,3.63,4.53,3.63c1.452,1.215,1.784,3.015,0.805,4.909
		c0,0.016-0.016,0.032-0.016,0.032c-1.01,1.784-2.368,3.472-4.088,5.035c-0.016,0.016-0.016,0.016-0.032,0.032
		c-1.405,1.168-2.794,1.847-4.151,2.005c-0.158,0.032-0.363,0.047-0.6,0.032c-0.6,0-1.184-0.079-1.768-0.268l-0.047-0.063
		c-2.099-0.584-5.587-2.068-11.412-5.272c-3.788-2.083-6.929-4.214-9.581-6.329c-1.405-1.105-2.841-2.368-4.309-3.82
		c-0.047-0.047-0.095-0.095-0.142-0.142c-0.047-0.047-0.095-0.095-0.142-0.142l0,0l0,0c-0.047-0.047-0.095-0.095-0.142-0.142
		c-0.047-0.047-0.095-0.095-0.142-0.142c-1.452-1.468-2.715-2.904-3.82-4.309c-2.115-2.652-4.246-5.808-6.329-9.581
		c-3.204-5.824-4.688-9.312-5.272-11.412l-0.063-0.047c-0.189-0.584-0.284-1.168-0.268-1.768c-0.016-0.237,0-0.442,0.032-0.6
		c0.158-1.357,0.837-2.746,2.005-4.151c0.016-0.016,0.016-0.016,0.032-0.032c1.563-1.72,3.236-3.078,5.035-4.088
		c0.016,0,0.032-0.016,0.032-0.016c1.894-0.979,3.693-0.647,4.909,0.805c0.016,0.016,2.541,3.046,3.63,4.53
		c1.026,1.405,2.415,3.63,3.109,4.877c1.247,2.241,0.474,4.53-0.758,5.477l-2.462,1.957c-1.247,1.01-1.089,2.873-1.089,2.873
		S40.107,56.771,53.776,60.259z"/>
</g>
</svg>
