<?xml version="1.0" encoding="utf-8"?>
<!-- Generator: Adobe Illustrator 17.0.0, SVG Export Plug-In . SVG Version: 6.00 Build 0)  -->
<!DOCTYPE svg PUBLIC "-//W3C//DTD SVG 1.1//EN" "http://www.w3.org/Graphics/SVG/1.1/DTD/svg11.dtd">
<svg version="1.1" id="Слой_1" xmlns="http://www.w3.org/2000/svg" xmlns:xlink="http://www.w3.org/1999/xlink" x="0px" y="0px"
	 width="80.428px" height="50.624px" viewBox="0 0 80.428 50.624" enable-background="new 0 0 80.428 50.624" xml:space="preserve">
<path id="Logo" fill="#FFFFFF" d="M78.576,6.055c0.566-1.886,0-3.206-2.64-3.206h-8.801c-2.263,0-3.269,1.194-3.835,2.514
	c0,0-4.463,10.938-10.812,17.978c-2.074,2.074-2.954,2.703-4.086,2.703c-0.566,0-1.383-0.629-1.383-2.514V6.055
	c0-2.263-0.629-3.206-2.514-3.206H30.676c-1.383,0-2.263,1.069-2.263,2.012c0,2.137,3.143,2.64,3.52,8.549v12.949
	c0,2.829-0.503,3.332-1.634,3.332c-2.954,0-10.246-10.938-14.521-23.51c-0.88-2.326-1.697-3.332-3.96-3.332H3.017
	C0.503,2.849,0,4.044,0,5.364C0,7.69,2.954,19.256,13.892,34.531c7.292,10.435,17.538,16.092,26.842,16.092
	c5.595,0,6.286-1.257,6.286-3.394v-7.92c0-2.514,0.503-3.017,2.326-3.017c1.32,0,3.52,0.629,8.738,5.657
	c5.972,5.972,6.978,8.675,10.309,8.675h8.801c2.514,0,3.772-1.257,3.017-3.709c-0.817-2.452-3.646-6.035-7.418-10.309
	c-2.074-2.452-5.155-5.029-6.035-6.349c-1.32-1.697-0.943-2.452,0-3.897C66.758,26.296,77.507,11.21,78.576,6.055L78.576,6.055z"/>
</svg>
