<svg xmlns="http://www.w3.org/2000/svg" viewBox="0 0 129.03 76.65"><defs><style>.cls-1{fill:#e03c7c;}</style></defs><title>Ресурс 1</title><g id="Слой_2" data-name="Слой 2"><g id="Слой_1-2" data-name="Слой 1"><path class="cls-1" d="M128.93,70.95c1.21,3.93-.81,6-4.84,6H110c-5.34,0-7-4.34-16.54-13.92-8.37-8.07-11.9-9.08-14-9.08-2.92,0-3.73.81-3.73,4.84V71.45c0,3.43-1.11,5.45-10.08,5.45-14.93,0-31.36-9.08-43.06-25.82C5,26.57.25,8,.25,4.28c0-2.12.81-4,4.84-4H19.21c3.63,0,4.94,1.61,6.35,5.35,6.86,20.17,18.56,37.72,23.3,37.72,1.82,0,2.62-.81,2.62-5.35V17.19c-.61-9.48-5.65-10.29-5.65-13.71A3.49,3.49,0,0,1,49.46.25H71.65c3,0,4,1.51,4,5.14v28c0,3,1.31,4,2.22,4,1.81,0,3.23-1,6.55-4.34C94.64,21.83,101.8,4.28,101.8,4.28a6.08,6.08,0,0,1,6.15-4h14.12c4.24,0,5.14,2.12,4.24,5.14-1.71,8.27-19,32.47-19,32.57-1.51,2.32-2.12,3.53,0,6.25,1.41,2.12,6.35,6.25,9.68,10.19C123.08,61.26,127.62,67,128.93,70.95Z" transform="translate(-0.25 -0.25)"/></g></g></svg>