<?xml version="1.0" encoding="utf-8"?>
<!-- Generator: Adobe Illustrator 17.0.0, SVG Export Plug-In . SVG Version: 6.00 Build 0)  -->
<!DOCTYPE svg PUBLIC "-//W3C//DTD SVG 1.1//EN" "http://www.w3.org/Graphics/SVG/1.1/DTD/svg11.dtd">
<svg version="1.1" id="Слой_1" xmlns="http://www.w3.org/2000/svg" xmlns:xlink="http://www.w3.org/1999/xlink" x="0px" y="0px"
	 width="98.214px" height="90.694px" viewBox="0 0 98.214 90.694" enable-background="new 0 0 98.214 90.694" xml:space="preserve">
<g id="XMLID_9_" display="none">
	<g display="inline">
		<path fill="#6E4C8C" d="M116.674-173.314v346.632c0,9.344-7.655,16.998-17.005,16.998h-533.34c-9.35,0-17.005-7.654-17.005-16.998
			v-346.632c0-9.355,7.655-16.998,17.005-16.998h533.34C109.019-190.312,116.674-182.669,116.674-173.314z"/>
	</g>
	<g display="inline">
	</g>
</g>
<g id="XMLID_8_" display="none">
	<g display="inline">
		<path fill="#7C539B" d="M116.674-176.668v307.263c0,9.344-7.655,16.998-17.005,16.998h-533.34c-9.35,0-17.005-7.654-17.005-16.998
			v-307.263c0-9.355,7.655-16.998,17.005-16.998h533.34C109.019-193.666,116.674-186.022,116.674-176.668z"/>
	</g>
	<g display="inline">
	</g>
</g>
<g id="XMLID_4_" display="none">
	<g display="inline">
		<linearGradient id="SVGID_2_" gradientUnits="userSpaceOnUse" x1="-301.2542" y1="50.8054" x2="-160.4998" y2="50.8054">
			<stop  offset="0" style="stop-color:#42BCE8"/>
			<stop  offset="1" style="stop-color:#23A7DC"/>
		</linearGradient>
		<path fill="url(#SVGID_2_)" d="M-160.5-3.815v109.241c0,6.596-5.407,11.993-12.004,11.993h-116.747
			c-6.607,0-12.004-5.397-12.004-11.993V-3.815c0-6.596,5.397-11.993,12.004-11.993h116.747
			C-165.907-15.808-160.5-10.412-160.5-3.815z"/>
	</g>
	<g display="inline">
		<path fill="none" stroke="#FFFFFF" stroke-width="3" stroke-linecap="round" stroke-miterlimit="10" stroke-dasharray="6" d="
			M-172.503,117.419h-116.747c-6.607,0-12.004-5.397-12.004-11.993V-3.815c0-6.596,5.397-11.993,12.004-11.993h116.747
			c6.596,0,12.004,5.397,12.004,11.993v109.241C-160.5,112.022-165.907,117.419-172.503,117.419z"/>
	</g>
</g>
<g id="XMLID_3_" display="none">
	<g display="inline">
		<linearGradient id="SVGID_3_" gradientUnits="userSpaceOnUse" x1="-8.3417" y1="44.6907" x2="106.2979" y2="44.6907">
			<stop  offset="0" style="stop-color:#20B038"/>
			<stop  offset="1" style="stop-color:#60D66A"/>
		</linearGradient>
		<path fill="url(#SVGID_3_)" d="M106.298,2.432v84.517c0,6.599-5.4,11.999-11.999,11.999H3.657c-6.599,0-11.999-5.4-11.999-11.999
			V2.432c0-6.599,5.4-11.999,11.999-11.999h90.641C100.898-9.567,106.298-4.167,106.298,2.432z"/>
	</g>
	<g display="inline">
		<path fill="none" stroke="#FFFFFF" stroke-width="3" stroke-linecap="round" stroke-miterlimit="10" stroke-dasharray="6" d="
			M94.299,98.948H3.657c-6.599,0-11.999-5.4-11.999-11.999V2.432c0-6.599,5.4-11.999,11.999-11.999h90.641
			c6.599,0,11.999,5.4,11.999,11.999v84.517C106.298,93.548,100.898,98.948,94.299,98.948z"/>
	</g>
</g>
<g id="XMLID_5_" display="none">
	<g display="inline">
		<g>
			<path fill="#7C539B" d="M-164.821-149.067v105.288c0,6.6-5.396,11.996-11.996,11.996h-112.585c-6.6,0-11.996-5.396-11.996-11.996
				v-105.288c0-6.6,5.396-11.996,11.996-11.996h112.585C-170.217-161.063-164.821-155.667-164.821-149.067z"/>
		</g>
		<g>
			
				<path fill="none" stroke="#FFFFFF" stroke-width="3" stroke-linecap="round" stroke-linejoin="bevel" stroke-miterlimit="10" stroke-dasharray="6" d="
				M-176.817-31.783h-112.585c-6.6,0-11.996-5.396-11.996-11.996v-105.288c0-6.6,5.396-11.996,11.996-11.996h112.585
				c6.6,0,11.996,5.396,11.996,11.996v105.288C-164.821-37.179-170.217-31.783-176.817-31.783z"/>
		</g>
	</g>
</g>
<g id="XMLID_2_" display="none">
	<g display="inline">
		<path fill="#5181B8" d="M-16.524-3.483V99.906c0,6.597-5.401,11.998-11.998,11.998h-110.575c-6.604,0-12.006-5.401-12.006-11.998
			V-3.483c0-6.604,5.401-11.998,12.006-11.998h110.575C-21.925-15.481-16.524-10.087-16.524-3.483z"/>
	</g>
	<g display="inline">
		<path fill="none" stroke="#FFFFFF" stroke-width="3" stroke-linecap="round" stroke-miterlimit="10" stroke-dasharray="6" d="
			M-28.522,111.904h-110.575c-6.604,0-12.006-5.401-12.006-11.998V-3.483c0-6.604,5.401-11.998,12.006-11.998h110.575
			c6.597,0,11.998,5.394,11.998,11.998V99.906C-16.524,106.502-21.925,111.904-28.522,111.904z"/>
	</g>
</g>
<g id="XMLID_6_" display="none">
	<g display="inline">
		<path fill="#FFFFFF" d="M-308.671-134.298v92.262c0,6.601-5.397,11.999-11.999,11.999h-98.828
			c-6.594,0-11.999-5.397-11.999-11.999v-92.262c0-6.601,5.404-11.999,11.999-11.999h98.828
			C-314.068-146.297-308.671-140.9-308.671-134.298z"/>
	</g>
	<g display="inline">
		<path fill="none" stroke="#7C539B" stroke-width="5" stroke-linecap="round" stroke-miterlimit="10" stroke-dasharray="6" d="
			M-320.669-30.037h-98.828c-6.594,0-11.999-5.397-11.999-11.999v-92.262c0-6.601,5.404-11.999,11.999-11.999h98.828
			c6.601,0,11.999,5.397,11.999,11.999v92.262C-308.671-35.434-314.068-30.037-320.669-30.037z"/>
	</g>
</g>
<g id="XMLID_7_" display="none">
	<g display="inline">
		<path fill="#FFFFFF" d="M-26.809-139.431v97.306c0,6.599-5.402,12.002-12.002,12.002H-142.96c-6.599,0-12.002-5.402-12.002-12.002
			v-97.306c0-6.599,5.402-11.994,12.002-11.994h104.149C-32.212-151.425-26.809-146.03-26.809-139.431z"/>
	</g>
	<g display="inline">
		<path fill="none" stroke="#7C539B" stroke-width="5" stroke-linecap="round" stroke-miterlimit="10" stroke-dasharray="6" d="
			M-38.811-30.124H-142.96c-6.599,0-12.002-5.402-12.002-12.002v-97.306c0-6.599,5.402-11.994,12.002-11.994h104.149
			c6.599,0,12.002,5.395,12.002,11.994v97.306C-26.809-35.526-32.212-30.124-38.811-30.124z"/>
	</g>
</g>
<g id="XMLID_1_" display="none">
	<g display="inline">
		<path fill="#1DA1F2" d="M103.941-129.457v91.624c0,6.596-5.401,11.998-12.003,11.998H-6.207c-6.602,0-12.003-5.401-12.003-11.998
			v-91.624c0-6.602,5.401-12.003,12.003-12.003h98.145C98.54-141.46,103.941-136.059,103.941-129.457z"/>
	</g>
	<g display="inline">
		<path fill="none" stroke="#FFFFFF" stroke-width="3" stroke-linecap="round" stroke-miterlimit="10" stroke-dasharray="6" d="
			M91.938-25.836H-6.207c-6.602,0-12.003-5.401-12.003-11.998v-91.624c0-6.602,5.401-12.003,12.003-12.003h98.145
			c6.602,0,12.003,5.401,12.003,12.003v91.624C103.941-31.237,98.54-25.836,91.938-25.836z"/>
	</g>
</g>
<g display="none">
	<g display="inline">
		<path fill="#FFFFFF" d="M-203.733,89.039c0.44-1.138,0.88-2.275,1.31-3.423l13.126-66.182c0-4.539-6.242-1.797-6.242-1.797
			l-75.941,29.79c0,0-3.594,1.23-3.31,3.499c0.284,2.27,3.215,3.31,3.215,3.31l19.103,6.431l11.349,5.485l31.208,23.927
			C-206.702,91.479-204.755,90.213-203.733,89.039z"/>
		<path fill="#D2E5F1" d="M-243.52,86.853c0,0-0.911-0.085-2.046-3.679c-1.135-3.594-6.904-22.508-6.904-22.508l45.867-29.128
			c0,0,2.648-1.608,2.553,0c0,0,0.473,0.284-0.946,1.608c-1.419,1.324-36.032,32.438-36.032,32.438"/>
		<path fill="#B5CFE4" d="M-229.155,75.325L-241.5,86.58c0,0-0.965,0.732-2.021,0.273l2.364-20.906"/>
	</g>
</g>
<g id="Base" display="none">
	<g display="inline">
		<path id="SVGID_1_" fill="#5181B8" d="M-102.102-13.182h37.025c33.819,0,41.803,8.046,41.803,41.865v37.025
			c0,33.819-8.046,41.803-41.865,41.803h-37.025c-33.819,0-41.803-8.046-41.803-41.865V28.62
			C-143.967-5.136-135.921-13.182-102.102-13.182z"/>
	</g>
	<g display="inline">
		<defs>
			<path id="SVGID_4_" d="M-102.102-13.182h37.025c33.819,0,41.803,8.046,41.803,41.865v37.025c0,33.819-8.046,41.803-41.865,41.803
				h-37.025c-33.819,0-41.803-8.046-41.803-41.865V28.62C-143.967-5.136-135.921-13.182-102.102-13.182z"/>
		</defs>
		<clipPath id="SVGID_5_">
			<use xlink:href="#SVGID_4_"  overflow="visible"/>
		</clipPath>
		<path clip-path="url(#SVGID_5_)" fill="#5181B8" d="M-147.11-16.326h126.979v126.979H-147.11V-16.326z"/>
	</g>
</g>
<path id="Logo" display="none" fill="#FFFFFF" d="M-46.54,28.369c0.566-1.886,0-3.206-2.64-3.206h-8.801
	c-2.263,0-3.269,1.194-3.835,2.514c0,0-4.463,10.938-10.812,17.978c-2.074,2.074-2.954,2.703-4.086,2.703
	c-0.566,0-1.383-0.629-1.383-2.514V28.369c0-2.263-0.629-3.206-2.514-3.206H-94.44c-1.383,0-2.263,1.069-2.263,2.012
	c0,2.137,3.143,2.64,3.52,8.549v12.949c0,2.829-0.503,3.332-1.634,3.332c-2.954,0-10.246-10.938-14.521-23.51
	c-0.88-2.326-1.697-3.332-3.96-3.332h-8.801c-2.514,0-3.017,1.194-3.017,2.514c0,2.326,2.954,13.892,13.892,29.167
	c7.292,10.435,17.538,16.092,26.842,16.092c5.595,0,6.286-1.257,6.286-3.394v-7.92c0-2.514,0.503-3.017,2.326-3.017
	c1.32,0,3.52,0.629,8.738,5.657c5.972,5.972,6.978,8.675,10.309,8.675h8.801c2.514,0,3.772-1.257,3.017-3.709
	c-0.817-2.452-3.646-6.035-7.418-10.309c-2.074-2.452-5.155-5.029-6.035-6.349c-1.32-1.697-0.943-2.452,0-3.897
	C-58.358,48.61-47.608,33.523-46.54,28.369L-46.54,28.369z"/>
<g display="none">
	<path display="inline" fill="#FFFFFF" d="M-195.109-134.762c-2.62-2.399-13.18-10.07-36.697-10.181c0,0-27.748-1.673-41.275,10.733
		c-7.529,7.529-10.181,18.546-10.449,32.215c-0.284,13.669-0.647,39.254,24.039,46.199h0.016l-0.016,10.591
		c0,0-0.158,4.293,2.667,5.161c3.409,1.058,5.414-2.194,8.681-5.714c1.784-1.926,4.262-4.767,6.124-6.929
		c16.873,1.421,29.863-1.831,31.331-2.304c3.409-1.105,22.697-3.583,25.822-29.169C-181.63-110.534-186.444-127.233-195.109-134.762
		z M-192.252-86.053c-2.652,21.371-18.294,22.729-21.166,23.644c-1.231,0.395-12.627,3.236-26.959,2.289
		c0,0-10.686,12.88-14.016,16.242c-0.521,0.521-1.136,0.742-1.547,0.631c-0.568-0.142-0.726-0.821-0.726-1.815
		c0.016-1.421,0.095-17.599,0.095-17.599c-0.016,0-0.016,0,0,0c-20.866-5.793-19.651-27.59-19.414-39.002s2.383-20.756,8.744-27.038
		c11.443-10.354,35.009-8.807,35.009-8.807c19.903,0.095,29.437,6.077,31.647,8.081
		C-193.262-123.129-189.522-108.087-192.252-86.053z"/>
	<path display="inline" fill="none" stroke="#FFFFFF" stroke-width="2" stroke-linecap="round" stroke-linejoin="round" d="
		M-222.131-102.579c-0.253-5.224-2.904-7.955-7.955-8.223"/>
	<path display="inline" fill="none" stroke="#FFFFFF" stroke-width="2" stroke-linecap="round" stroke-linejoin="round" d="
		M-215.312-100.29c0.11-4.861-1.326-8.918-4.325-12.185s-7.15-5.082-12.485-5.461"/>
	<path display="inline" fill="none" stroke="#FFFFFF" stroke-width="2" stroke-linecap="round" stroke-linejoin="round" d="
		M-208.32-97.559c-0.063-8.444-2.589-15.074-7.56-19.935c-4.972-4.846-11.175-7.308-18.578-7.355"/>
	<path display="inline" fill="#FFFFFF" d="M-229.818-84.759c0,0,1.878,0.158,2.873-1.089l1.957-2.462
		c0.947-1.231,3.236-2.005,5.477-0.758c1.247,0.71,3.488,2.083,4.877,3.109c1.484,1.089,4.53,3.63,4.53,3.63
		c1.452,1.215,1.784,3.015,0.805,4.909c0,0.016-0.016,0.032-0.016,0.032c-1.01,1.784-2.368,3.472-4.088,5.035
		c-0.016,0.016-0.016,0.016-0.032,0.032c-1.405,1.168-2.794,1.847-4.151,2.005c-0.158,0.032-0.363,0.047-0.6,0.032
		c-0.6,0-1.184-0.079-1.768-0.268L-220-70.616c-2.099-0.584-5.587-2.068-11.412-5.272c-3.788-2.083-6.929-4.214-9.581-6.329
		c-1.405-1.105-2.841-2.368-4.309-3.82c-0.047-0.047-0.095-0.095-0.142-0.142c-0.047-0.047-0.095-0.095-0.142-0.142l0,0l0,0
		c-0.047-0.047-0.095-0.095-0.142-0.142c-0.047-0.047-0.095-0.095-0.142-0.142c-1.452-1.468-2.715-2.904-3.82-4.309
		c-2.115-2.652-4.246-5.808-6.329-9.581c-3.204-5.824-4.688-9.312-5.272-11.412l-0.063-0.047c-0.189-0.584-0.284-1.168-0.268-1.768
		c-0.016-0.237,0-0.442,0.032-0.6c0.158-1.357,0.837-2.746,2.005-4.151c0.016-0.016,0.016-0.016,0.032-0.032
		c1.563-1.72,3.236-3.078,5.035-4.088c0.016,0,0.032-0.016,0.032-0.016c1.894-0.979,3.693-0.647,4.909,0.805
		c0.016,0.016,2.541,3.046,3.63,4.53c1.026,1.405,2.415,3.63,3.109,4.877c1.247,2.241,0.474,4.53-0.758,5.477l-2.462,1.957
		c-1.247,1.01-1.089,2.873-1.089,2.873S-243.487-88.247-229.818-84.759z"/>
</g>
<g display="none">
	<g display="inline">
		<path fill="#2D64AF" d="M-321.305,111.096h-100.349c-6.6,0-12-5.4-12-12V2.516c0-6.6,5.4-12,12-12h100.349c6.6,0,12,5.4,12,12
			v96.58C-309.305,105.696-314.705,111.096-321.305,111.096z"/>
		
			<path fill="none" stroke="#FFFFFF" stroke-width="3" stroke-linecap="round" stroke-miterlimit="10" stroke-dasharray="6.0152,6.0152" d="
			M-321.305,111.096h-100.349c-6.6,0-12-5.4-12-12V2.516c0-6.6,5.4-12,12-12h100.349c6.6,0,12,5.4,12,12v96.58
			C-309.305,105.696-314.705,111.096-321.305,111.096z"/>
	</g>
	
		<path id="f" display="inline" fill="#FFFFFF" stroke="#FFFFFF" stroke-width="3" stroke-linecap="round" stroke-miterlimit="10" d="
		M-366.234,97.41V56.742h13.71l2.052-15.918h-15.763V30.686c0-4.598,1.277-7.731,7.87-7.731l8.356-0.004V8.756
		c-1.454-0.193-6.442-0.625-12.246-0.625c-12.116,0-20.412,7.396-20.412,20.979v11.714h-13.659v15.918h13.659V97.41H-366.234z"/>
</g>
<g display="none">
	<path display="inline" fill="#FFFFFF" d="M-359.425-64.343h-26.905c-6.6,0-12-5.4-12-12v-26.904c0-6.6,5.4-12,12-12h26.905
		c6.6,0,12,5.4,12,12v26.904C-347.425-69.743-352.825-64.343-359.425-64.343z"/>
	<path display="inline" fill="#00AFF0" d="M-334.509-82.348c-0.024,0.135-0.041,0.27-0.067,0.405l-0.131-0.771
		C-334.635-82.594-334.575-82.469-334.509-82.348c0.395-2.151,0.603-4.353,0.603-6.554c0-4.881-0.956-9.616-2.843-14.073
		c-1.821-4.306-4.427-8.173-7.75-11.493c-3.318-3.32-7.187-5.926-11.49-7.747c-4.456-1.886-9.191-2.841-14.072-2.841
		c-2.3,0-4.604,0.216-6.846,0.646c-0.005,0.001-0.011,0.001-0.017,0.002c0.126,0.067,0.253,0.126,0.377,0.195l-0.76-0.119
		c0.127-0.024,0.256-0.051,0.383-0.076c-3.076-1.636-6.536-2.509-10.038-2.509c-5.717,0-11.093,2.226-15.135,6.27
		c-4.042,4.043-6.269,9.418-6.269,15.135c0,3.639,0.936,7.216,2.693,10.377c0.023-0.131,0.039-0.263,0.064-0.394l0.131,0.758
		c-0.068-0.119-0.127-0.243-0.195-0.364c-0.356,2.048-0.544,4.141-0.544,6.231c0,4.882,0.956,9.616,2.843,14.074
		c1.819,4.307,4.426,8.172,7.745,11.492c3.322,3.32,7.187,5.929,11.495,7.746c4.456,1.889,9.193,2.846,14.073,2.846
		c2.124,0,4.254-0.194,6.332-0.563c-0.121-0.068-0.245-0.13-0.369-0.201l0.772,0.136c-0.133,0.025-0.268,0.041-0.404,0.065
		c3.202,1.812,6.828,2.774,10.53,2.774c5.716,0,11.089-2.223,15.132-6.268c4.044-4.04,6.269-9.417,6.269-15.134
		C-331.799-75.586-332.74-79.175-334.509-82.348L-334.509-82.348z M-369.917-66.759c-12.845,0-18.591-6.315-18.591-11.048
		c0-2.428,1.792-4.129,4.262-4.129c5.497,0,4.073,7.893,14.329,7.893c5.25,0,8.15-2.851,8.15-5.768c0-1.755-0.866-3.7-4.323-4.552
		l-11.425-2.852c-9.201-2.308-10.871-7.281-10.871-11.957c0-9.708,9.14-13.353,17.724-13.353c7.907,0,17.228,4.37,17.228,10.194
		c0,2.495-2.161,3.947-4.63,3.947c-4.691,0-3.828-6.493-13.278-6.493c-4.689,0-7.286,2.123-7.286,5.162
		c0,3.033,3.703,4.001,6.919,4.734l8.456,1.877c9.263,2.064,11.612,7.472,11.612,12.566
		C-351.64-72.65-357.695-66.759-369.917-66.759z M-364.098-53.508c0.124,0.072,0.247,0.133,0.369,0.201
		c0.136-0.024,0.27-0.04,0.404-0.065L-364.098-53.508z M-334.575-81.943c0.025-0.135,0.042-0.27,0.067-0.405
		c-0.067-0.121-0.126-0.246-0.198-0.366L-334.575-81.943z M-405.609-95.528c-0.025,0.131-0.041,0.263-0.064,0.394
		c0.068,0.121,0.127,0.245,0.195,0.364L-405.609-95.528z M-376.547-124.212c-0.124-0.069-0.251-0.129-0.377-0.195
		c-0.127,0.025-0.256,0.052-0.383,0.076L-376.547-124.212z"/>
</g>
<path display="none" fill="#1DA1F2" d="M50.216-28.298H35.515c-26.508,0-47.998-21.489-47.998-47.998v-14.702
	c0-26.508,21.489-47.998,47.998-47.998h14.702c26.508,0,47.998,21.489,47.998,47.998v14.702
	C98.214-49.787,76.725-28.298,50.216-28.298z"/>
<path display="none" fill="#FFFFFF" d="M31.693-51.642c28.104,0,43.472-23.283,43.472-43.472c0-0.662-0.013-1.32-0.044-1.975
	c2.983-2.157,5.576-4.847,7.622-7.911c-2.738,1.216-5.684,2.036-8.774,2.405c3.154-1.891,5.576-4.884,6.719-8.452
	c-2.953,1.75-6.221,3.023-9.702,3.709c-2.788-2.97-6.759-4.827-11.153-4.827c-8.439,0-15.281,6.843-15.281,15.278
	c0,1.199,0.134,2.365,0.396,3.484c-12.698-0.638-23.958-6.719-31.493-15.963c-1.314,2.257-2.069,4.881-2.069,7.679
	c0,5.301,2.698,9.98,6.799,12.718c-2.506-0.077-4.861-0.766-6.92-1.911c-0.003,0.064-0.003,0.128-0.003,0.195
	c0,7.4,5.267,13.578,12.258,14.979c-1.283,0.349-2.634,0.537-4.028,0.537c-0.984,0-1.942-0.097-2.872-0.276
	c1.945,6.07,7.585,10.488,14.274,10.612c-5.23,4.098-11.818,6.54-18.977,6.54c-1.233,0-2.449-0.071-3.645-0.212
	C15.035-54.171,23.064-51.642,31.693-51.642"/>
<g id="shape_4">
	
		<image overflow="visible" opacity="0.06" width="153" height="150" xlink:href="1BA38F68.png"  transform="matrix(1 0 0 1 -28 -23.6867)">
	</image>
	<g>
		
			<image overflow="visible" opacity="0.15" width="94" height="92" xlink:href="1BA38F69.png"  transform="matrix(1 0 0 1 2 3.3133)">
		</image>
		<g>
			<path fill="#FFFFFF" d="M11.54,82.295l5.289-18.978c-3.262-5.554-4.979-11.855-4.976-18.31
				C11.861,24.814,28.584,8.385,49.135,8.385c9.973,0.004,19.333,3.818,26.372,10.741c7.038,6.923,10.913,16.125,10.91,25.911
				c-0.009,20.192-16.735,36.624-37.282,36.624c-0.001,0,0.001,0,0,0h-0.016c-6.239-0.002-12.37-1.54-17.815-4.458L11.54,82.295z
				 M32.219,70.572l1.132,0.659c4.757,2.774,10.21,4.241,15.772,4.244h0.012c17.079,0,30.979-13.656,30.987-30.441
				c0.002-8.134-3.217-15.783-9.068-21.536c-5.851-5.753-13.63-8.924-21.907-8.927c-17.092,0-30.992,13.655-30.999,30.439
				c-0.002,5.752,1.635,11.353,4.737,16.2l0.738,1.152l-3.131,11.233L32.219,70.572z"/>
		</g>
	</g>
</g>
<linearGradient id="shape_3_1_" gradientUnits="userSpaceOnUse" x1="48.9776" y1="80.9939" x2="48.9776" y2="8.3853">
	<stop  offset="0" style="stop-color:#20B038"/>
	<stop  offset="1" style="stop-color:#60D66A"/>
</linearGradient>
<path id="shape_3" fill="url(#shape_3_1_)" d="M12.836,80.994l5.106-18.644c-3.15-5.456-4.807-11.647-4.805-17.987
	C13.146,24.525,29.291,8.385,49.128,8.385c9.628,0.004,18.665,3.751,25.459,10.552c6.796,6.801,10.536,15.84,10.532,25.453
	C85.111,64.229,68.965,80.37,49.13,80.37c-0.001,0,0.001,0,0,0h-0.016c-6.023-0.002-11.942-1.514-17.198-4.379L12.836,80.994z"/>
<g id="shape_2">
	
		<image overflow="visible" opacity="0.04" width="100" height="100" xlink:href="1BA38F6F.png"  transform="matrix(1 0 0 1 -1 -4.6867)">
	</image>
	<g>
		<g>
			<linearGradient id="SVGID_6_" gradientUnits="userSpaceOnUse" x1="48.9779" y1="82.2953" x2="48.9779" y2="7.0829">
				<stop  offset="0" style="stop-color:#F9F9F9"/>
				<stop  offset="1" style="stop-color:#FFFFFF"/>
			</linearGradient>
			<path fill="url(#SVGID_6_)" d="M11.54,82.295l5.289-19.312c-3.262-5.652-4.979-12.064-4.976-18.633
				C11.861,23.801,28.584,7.083,49.135,7.083c9.973,0.004,19.333,3.886,26.372,10.93c7.038,7.045,10.913,16.409,10.91,26.368
				C86.407,64.929,69.681,81.65,49.135,81.65c-0.001,0,0.001,0,0,0h-0.016c-6.239-0.002-12.37-1.567-17.815-4.537L11.54,82.295z
				 M32.219,70.366l1.132,0.671c4.757,2.823,10.21,4.316,15.772,4.319h0.012c17.079,0,30.979-13.897,30.987-30.977
				c0.002-8.278-3.217-16.061-9.068-21.916c-5.851-5.855-13.63-9.081-21.907-9.085c-17.092,0-30.992,13.895-30.999,30.975
				c-0.002,5.853,1.635,11.553,4.737,16.485l0.738,1.172l-3.131,11.431L32.219,70.366z"/>
		</g>
	</g>
</g>
<g id="shape_1">
	
		<image overflow="visible" opacity="0.06" width="63" height="60" xlink:href="1BA38F6A.png"  transform="matrix(1 0 0 1 21 14.3133)">
	</image>
	<g>
		<path fill-rule="evenodd" clip-rule="evenodd" fill="#FFFFFF" d="M42.837,26.006c-0.698-1.551-1.432-1.582-2.096-1.61
			c-0.543-0.023-1.165-0.022-1.785-0.022c-0.621,0-1.63,0.233-2.484,1.166c-0.854,0.932-3.261,3.186-3.261,7.769
			c0,4.584,3.338,9.012,3.804,9.634c0.466,0.621,6.444,10.327,15.913,14.061c7.869,3.103,9.47,2.486,11.178,2.331
			c1.708-0.155,5.511-2.253,6.288-4.428c0.776-2.175,0.776-4.039,0.543-4.429c-0.233-0.388-0.854-0.621-1.786-1.087
			c-0.932-0.466-5.511-2.72-6.365-3.03c-0.854-0.311-1.475-0.466-2.096,0.467c-0.621,0.932-2.405,3.029-2.949,3.65
			c-0.543,0.623-1.087,0.7-2.019,0.234c-0.932-0.467-3.932-1.45-7.491-4.623c-2.769-2.469-4.639-5.518-5.182-6.451
			c-0.543-0.932-0.058-1.436,0.409-1.901c0.418-0.417,0.932-1.087,1.397-1.631c0.465-0.544,0.62-0.932,0.931-1.553
			c0.311-0.622,0.155-1.166-0.078-1.632C45.475,32.455,43.665,27.848,42.837,26.006z"/>
	</g>
</g>
<radialGradient id="SVGID_7_" cx="-129.9754" cy="25.5902" r="115.5793" gradientTransform="matrix(1.0001 0 0 -1.0001 0.0193 -21.3699)" gradientUnits="userSpaceOnUse">
	<stop  offset="0.09" style="stop-color:#FA8F21"/>
	<stop  offset="0.78" style="stop-color:#D82D7E"/>
</radialGradient>
<path display="none" fill="url(#SVGID_7_)" d="M-112.774-45.29c-5.414-0.246-8.356-1.147-10.312-1.91
	c-2.592-1.009-4.44-2.211-6.386-4.153c-1.945-1.943-3.15-3.791-4.153-6.383c-0.763-1.956-1.664-4.897-1.91-10.312
	c-0.271-5.853-0.325-7.609-0.325-22.436s0.06-16.581,0.322-22.439c0.246-5.414,1.153-8.35,1.91-10.312
	c1.009-2.592,2.213-4.44,4.153-6.388c1.943-1.943,3.791-3.15,6.386-4.153c1.956-0.763,4.897-1.664,10.312-1.91
	c5.855-0.268,7.614-0.322,22.436-0.322c14.828,0,16.581,0.06,22.439,0.322c5.414,0.246,8.35,1.153,10.312,1.91
	c2.592,1.004,4.44,2.211,6.386,4.153c1.945,1.943,3.144,3.794,4.153,6.386c0.763,1.956,1.664,4.897,1.91,10.312
	c0.268,5.858,0.322,7.611,0.322,22.439c0,14.822-0.054,16.581-0.322,22.439c-0.246,5.414-1.153,8.356-1.91,10.312
	c-1.009,2.592-2.211,4.44-4.153,6.383c-1.943,1.943-3.794,3.144-6.386,4.153c-1.956,0.763-4.897,1.664-10.312,1.91
	c-5.853,0.268-7.611,0.322-22.439,0.322C-105.163-44.968-106.921-45.019-112.774-45.29"/>
<radialGradient id="SVGID_8_" cx="-72.811" cy="28.5133" r="101.7109" gradientTransform="matrix(1.0001 0 0 -1.0001 0.0193 -21.3699)" gradientUnits="userSpaceOnUse">
	<stop  offset="0.64" style="stop-color:#8C3AAA;stop-opacity:0"/>
	<stop  offset="1" style="stop-color:#8C3AAA"/>
</radialGradient>
<path display="none" fill="url(#SVGID_8_)" d="M-112.774-45.29c-5.414-0.246-8.356-1.147-10.312-1.91
	c-2.592-1.009-4.44-2.211-6.386-4.153c-1.945-1.943-3.15-3.791-4.153-6.383c-0.763-1.956-1.664-4.897-1.91-10.312
	c-0.271-5.853-0.325-7.609-0.325-22.436s0.06-16.581,0.322-22.439c0.246-5.414,1.153-8.35,1.91-10.312
	c1.009-2.592,2.213-4.44,4.153-6.388c1.943-1.943,3.791-3.15,6.386-4.153c1.956-0.763,4.897-1.664,10.312-1.91
	c5.855-0.268,7.614-0.322,22.436-0.322c14.828,0,16.581,0.06,22.439,0.322c5.414,0.246,8.35,1.153,10.312,1.91
	c2.592,1.004,4.44,2.211,6.386,4.153c1.945,1.943,3.144,3.794,4.153,6.386c0.763,1.956,1.664,4.897,1.91,10.312
	c0.268,5.858,0.322,7.611,0.322,22.439c0,14.822-0.054,16.581-0.322,22.439c-0.246,5.414-1.153,8.356-1.91,10.312
	c-1.009,2.592-2.211,4.44-4.153,6.383c-1.943,1.943-3.794,3.144-6.386,4.153c-1.956,0.763-4.897,1.664-10.312,1.91
	c-5.853,0.268-7.611,0.322-22.439,0.322C-105.163-44.968-106.921-45.019-112.774-45.29"/>
<path display="none" fill="#FFFFFF" d="M-103.676-90.295c0-6.226,5.046-11.275,11.272-11.275s11.275,5.049,11.275,11.275
	S-86.177-79.02-92.403-79.02C-98.63-79.02-103.676-84.069-103.676-90.295 M-109.771-90.295c0,9.592,7.775,17.367,17.367,17.367
	s17.367-7.775,17.367-17.367s-7.775-17.367-17.367-17.367S-109.771-99.888-109.771-90.295 M-78.407-108.351
	c-0.001,2.242,1.816,4.059,4.057,4.06c2.242,0.001,4.059-1.816,4.06-4.057c0.001-2.242-1.816-4.059-4.057-4.06h-0.002
	C-76.589-112.407-78.405-110.592-78.407-108.351 M-106.068-62.764c-3.298-0.15-5.09-0.699-6.281-1.163
	c-1.579-0.615-2.706-1.347-3.89-2.53s-1.918-2.309-2.53-3.888c-0.464-1.191-1.014-2.983-1.163-6.281
	c-0.164-3.565-0.197-4.636-0.197-13.668s0.035-10.1,0.197-13.668c0.15-3.298,0.704-5.087,1.163-6.281
	c0.615-1.579,1.347-2.706,2.53-3.89c1.183-1.185,2.309-1.918,3.89-2.53c1.191-0.464,2.983-1.014,6.281-1.163
	c3.565-0.164,4.636-0.197,13.664-0.197s10.1,0.035,13.668,0.197c3.298,0.15,5.087,0.704,6.281,1.163
	c1.579,0.612,2.706,1.347,3.89,2.53s1.915,2.311,2.53,3.89c0.464,1.191,1.014,2.983,1.163,6.281
	c0.164,3.568,0.197,4.636,0.197,13.668s-0.033,10.1-0.197,13.668c-0.15,3.298-0.702,5.09-1.163,6.281
	c-0.615,1.579-1.347,2.706-2.53,3.888c-1.183,1.182-2.311,1.915-3.89,2.53c-1.191,0.464-2.983,1.014-6.281,1.163
	c-3.565,0.164-4.636,0.197-13.668,0.197S-102.504-62.599-106.068-62.764 M-106.348-123.913c-3.601,0.164-6.061,0.735-8.21,1.571
	c-2.224,0.863-4.109,2.022-5.991,3.901s-3.038,3.765-3.901,5.991c-0.836,2.15-1.407,4.609-1.571,8.21
	c-0.167,3.606-0.205,4.759-0.205,13.944s0.038,10.338,0.205,13.944c0.164,3.601,0.735,6.06,1.571,8.21
	c0.863,2.224,2.019,4.113,3.901,5.991c1.882,1.879,3.765,3.035,5.991,3.901c2.153,0.836,4.609,1.407,8.21,1.571
	c3.608,0.164,4.759,0.205,13.944,0.205s10.338-0.038,13.944-0.205c3.601-0.164,6.06-0.735,8.21-1.571
	c2.224-0.866,4.109-2.022,5.991-3.901c1.882-1.879,3.035-3.768,3.901-5.991c0.836-2.15,1.41-4.609,1.571-8.21
	c0.164-3.609,0.202-4.759,0.202-13.944s-0.038-10.338-0.202-13.944c-0.164-3.601-0.735-6.061-1.571-8.21
	c-0.866-2.224-2.022-4.109-3.901-5.991c-1.879-1.882-3.768-3.038-5.989-3.901c-2.153-0.836-4.612-1.41-8.21-1.571
	c-3.607-0.165-4.759-0.205-13.943-0.205s-10.339,0.038-13.947,0.205"/>
</svg>
