<?xml version="1.0" encoding="utf-8"?>
<!-- Generator: Adobe Illustrator 21.1.0, SVG Export Plug-In . SVG Version: 6.00 Build 0)  -->
<svg version="1.1" id="Слой_1" xmlns="http://www.w3.org/2000/svg" xmlns:xlink="http://www.w3.org/1999/xlink" x="0px" y="0px"
	 viewBox="0 0 412.6 339" style="enable-background:new 0 0 412.6 339;" xml:space="preserve">
<style type="text/css">
	.st0{fill:#DAD1E0;}
	.st1{fill:#FFFFFF;}
</style>
<g id="Слой_1_1_">
	<g>
		<path d="M0,232.2h47.8v4.6H5v26.4h38.5v4.6H5v27h43.3v4.6H0V232.2z"/>
		<path d="M63.9,229.3h4.7v70.1h-4.7V229.3z"/>
		<path d="M83.8,274.8c0-14.2,10-25.5,23.2-25.5c13.7,0,22.5,11.1,22.5,25.6c0,0.9,0,1.2-0.1,1.9H88.8c0.9,12.2,9.6,19.3,19.2,19.3
			c7.6,0,12.8-3.4,16.8-7.7l3.3,2.9c-5,5.4-10.8,9.2-20.3,9.2C94.9,300.5,83.8,290.3,83.8,274.8z M124.4,272.6
			c-0.7-9.9-6.3-19-17.6-19c-9.7,0-17.2,8.2-18,19H124.4z"/>
		<path d="M143.2,250.4h4.7v9.1c3.3-5.8,8.7-10.3,17.7-10.3c12.4,0,19.6,8.4,19.6,20.2v30h-4.7v-29.1c0-10.1-5.7-16.7-15.6-16.7
			c-9.6,0-17,7.3-17,17.5v28.3h-4.7V250.4z"/>
		<path class="st0" d="M215.5,248.5h-20.2v-16.3h58.9v16.3H234v50.9h-18.6v-50.9H215.5z"/>
		<path class="st0" d="M250.4,273.5c0-14.8,12.1-27.2,28.8-27.2c16.6,0,28.6,12.2,28.6,27.2c0,14.8-12.1,27.2-28.8,27.2
			C262.4,300.6,250.4,288.4,250.4,273.5z M290.1,273.5c0-6.3-4.6-11.7-11-11.7c-6.6,0-10.8,5.3-10.8,11.7c0,6.3,4.6,11.7,11,11.7
			C285.9,285.2,290.1,279.9,290.1,273.5z"/>
		<path class="st0" d="M311.3,310.5l5.7-12.8c2.9,1.7,6,2.8,8,2.8c1.8,0,3.1-0.5,4.2-2.1l-20.4-51h19.1l10.4,31.3l9.8-31.3h18.7
			l-19,50.7c-4.5,12.1-9.4,16.9-19.8,16.9C321.6,315,316.1,313.2,311.3,310.5z"/>
		<path class="st0" d="M366.9,292.8l6.8-11c6,3.9,12.5,6,17.9,6c3.2,0,4.6-1,4.6-3s-2.9-3-8.4-4.4c-10.3-2.8-18.4-6.1-18.4-16.8
			c0-11,8.8-17.2,20.8-17.2c7.6,0,15.5,2.2,21.4,6l-6.2,11.5c-5.4-3-11.2-4.8-15.4-4.8c-2.8,0-4.2,1.1-4.2,2.7c0,2,3,3,8.4,4.6
			c10.3,3,18.4,6.4,18.4,16.7c0,11.4-8.5,17.4-21.2,17.4C382.7,300.5,374.1,298,366.9,292.8z"/>
	</g>
	<g>
		<path d="M1.7,320.1h11.9v14.3h-1.4v-13H3.1v13H1.7V320.1z"/>
		<path d="M16.3,334.4l0.3-1.3c0.2,0.1,0.8,0.2,1.1,0.2c1.9,0,3.2-0.8,3.3-12.5v-0.7h9.7v14.3h-1.4v-13h-7v0.4
			c0,11.8-1.8,12.9-4.4,12.9C17.4,334.6,16.7,334.5,16.3,334.4z"/>
		<path d="M40.7,327.8h-3.5v6.6h-1.4v-14.3h1.4v6.5h3.5c0.3-3.7,2.9-6.8,6.9-6.8c4.2,0,6.9,3.4,6.9,7.5c0,4-2.7,7.5-6.9,7.5
			C43.6,334.7,41,331.6,40.7,327.8z M53.1,327.2c0-3.4-2.2-6.2-5.5-6.2c-3.4,0-5.4,2.8-5.4,6.2s2.2,6.2,5.5,6.2
			C51.1,333.4,53.1,330.6,53.1,327.2z"/>
		<path d="M58.8,320.1h1.4v13h7.9v-13h1.4v13h7.9v-13h1.4v14.3h-20V320.1z"/>
		<path d="M82.9,327.2c0-4.1,2.9-7.4,6.8-7.4c4,0,6.6,3.2,6.6,7.5c0,0.3,0,0.3,0,0.6H84.5c0.3,3.6,2.8,5.6,5.6,5.6
			c2.2,0,3.7-1,4.9-2.2l1,0.8c-1.5,1.6-3.2,2.7-5.9,2.7C86.2,334.7,82.9,331.7,82.9,327.2z M94.8,326.5c-0.2-2.9-1.8-5.5-5.1-5.5
			c-2.8,0-5,2.4-5.3,5.5H94.8z"/>
		<path d="M100.3,320.1h6.5c2.8,0,4.6,1.4,4.6,3.6c0,1.9-1.3,2.8-2.4,3.3c1.7,0.4,3.2,1.5,3.2,3.6c0,2.4-2,3.9-5.1,3.9h-6.8
			L100.3,320.1L100.3,320.1z M106.6,326.5c2,0,3.4-1,3.4-2.7c0-1.4-1.2-2.4-3.3-2.4h-5v5.2L106.6,326.5L106.6,326.5z M106.9,333.1
			c2.4,0,3.9-1.1,3.9-2.9c0-1.7-1.5-2.7-4.2-2.7h-5v5.5h5.3V333.1z"/>
		<path d="M116.5,320.1h1.4v5.5h4.3c3,0,5.5,1.3,5.5,4.2c0,2.8-2.1,4.6-5.2,4.6h-5.9L116.5,320.1L116.5,320.1z M122.2,333.1
			c2.4,0,3.9-1.2,3.9-3.3c0-1.9-1.6-3-4.1-3h-4.2v6.3H122.2z M130.4,320.1h1.4v14.3h-1.4V320.1z"/>
		<path d="M136,327.2c0-4.1,2.9-7.4,6.8-7.4c4,0,6.6,3.2,6.6,7.5c0,0.3,0,0.3,0,0.6h-11.8c0.3,3.6,2.8,5.6,5.6,5.6
			c2.2,0,3.7-1,4.9-2.2l1,0.8c-1.5,1.6-3.2,2.7-5.9,2.7C139.3,334.7,136,331.7,136,327.2z M147.9,326.5c-0.2-2.9-1.8-5.5-5.1-5.5
			c-2.8,0-5,2.4-5.3,5.5H147.9z"/>
		<path d="M161.8,320.1h1.4v12.5l9.6-12.5h1.4v14.3h-1.4v-12.5l-9.7,12.5h-1.3V320.1z"/>
		<path d="M179.4,320.1h9.4v1.2h-8v13h-1.4V320.1z"/>
		<path d="M192.3,320.1h1.4v3.2c1.2-1.9,3.1-3.5,5.9-3.5c3.4,0,6.9,2.8,6.9,7.5c0,4.6-3.5,7.5-6.9,7.5c-2.9,0-4.7-1.6-5.9-3.4v7.6
			h-1.4V320.1z M205,327.2c0-3.8-2.6-6.2-5.6-6.2s-5.8,2.5-5.8,6.2s2.9,6.1,5.8,6.1C202.5,333.4,205,331.1,205,327.2z"/>
		<path d="M209.1,338.3l0.5-1.2c0.8,0.4,1.4,0.5,2.4,0.5c1.5,0,2.5-0.9,3.5-3.4l-6.9-14.2h1.6l5.9,12.8l5.2-12.8h1.5l-6.2,14.8
			c-1.3,3-2.7,4.1-4.8,4.1C210.9,338.9,210.1,338.7,209.1,338.3z"/>
		<path d="M226.7,320.1h1.4v13h7.9v-13h1.4v13h7.9v-13h1.4v14.3h-19.9v-14.3H226.7z"/>
		<path d="M251.8,320.1h1.4v9.2l8.8-9.2h1.8l-6.2,6.3l6.4,8h-1.7l-5.7-7l-3.5,3.5v3.5h-1.3V320.1z"/>
		<path d="M267.4,320.1h1.4v12.5l9.7-12.5h1.4v14.3h-1.4v-12.5l-9.7,12.5h-1.4V320.1z"/>
		<path d="M293.4,320.1h1.4v6.4h9.5v-6.4h1.4v14.3h-1.4v-6.7h-9.5v6.7h-1.4V320.1z"/>
		<path d="M309.7,330.1c0-3,2.5-4.6,6.2-4.6c2,0,3.4,0.3,4.7,0.6v-0.6c0-2.9-1.8-4.4-4.7-4.4c-1.7,0-3.2,0.5-4.5,1.1l-0.5-1.2
			c1.6-0.7,3.1-1.2,5.1-1.2c1.9,0,3.5,0.5,4.5,1.6c1,1,1.5,2.3,1.5,4v8.9h-1.3v-2.4c-1,1.4-2.7,2.7-5.5,2.7
			C312.2,334.7,309.7,333.2,309.7,330.1z M320.7,329v-1.6c-1.2-0.3-2.8-0.6-4.8-0.6c-3,0-4.7,1.3-4.7,3.4c0,2.1,1.7,3.3,4.1,3.3
			C318.2,333.4,320.7,331.6,320.7,329z"/>
		<path d="M334,332.5l0.8-1.1c1.5,1.3,3.1,2,4.9,2c2,0,3.9-1.2,3.9-2.9s-1.5-2.7-4-2.7h-2v-1.2h2c2,0,3.6-1,3.6-2.8
			c0-1.5-1.5-2.5-3.4-2.5c-1.4,0-3.1,0.4-4.5,1.5l-0.8-1.1c1.5-1.1,3.4-1.7,5.3-1.7c3,0,4.9,1.6,4.9,3.8c0,1.8-1.1,2.8-2.3,3.3
			c1.6,0.6,2.7,1.6,2.7,3.5c0,2.2-2.1,4.2-5.3,4.2C337.7,334.6,335.7,333.9,334,332.5z"/>
		<path d="M348.1,330.1c0-3,2.5-4.6,6.2-4.6c2,0,3.4,0.3,4.7,0.6v-0.6c0-2.9-1.8-4.4-4.7-4.4c-1.7,0-3.2,0.5-4.5,1.1l-0.5-1.2
			c1.6-0.7,3.1-1.2,5.1-1.2c1.9,0,3.5,0.5,4.5,1.6c1,1,1.5,2.3,1.5,4v8.9h-1.3v-2.4c-1,1.4-2.7,2.7-5.5,2.7
			C350.7,334.7,348.1,333.2,348.1,330.1z M359.1,329v-1.6c-1.2-0.3-2.8-0.6-4.8-0.6c-3,0-4.7,1.3-4.7,3.4c0,2.1,1.7,3.3,4.1,3.3
			C356.7,333.4,359.1,331.6,359.1,329z"/>
		<path d="M365.4,320.1h1.4v9.2l8.8-9.2h1.8l-6.2,6.3l6.4,8h-1.7l-5.7-7l-3.5,3.5v3.5h-1.4v-14.3H365.4z"/>
		<path d="M379.2,330.1c0-3,2.5-4.6,6.2-4.6c2,0,3.4,0.3,4.7,0.6v-0.6c0-2.9-1.8-4.4-4.7-4.4c-1.7,0-3.2,0.5-4.5,1.1l-0.5-1.2
			c1.6-0.7,3.1-1.2,5.1-1.2c1.9,0,3.5,0.5,4.5,1.6c1,1,1.5,2.3,1.5,4v8.9h-1.3v-2.4c-1,1.4-2.7,2.7-5.5,2.7
			C381.8,334.7,379.2,333.2,379.2,330.1z M390.2,329v-1.6c-1.2-0.3-2.8-0.6-4.8-0.6c-3,0-4.7,1.3-4.7,3.4c0,2.1,1.7,3.3,4.1,3.3
			C387.7,333.4,390.2,331.6,390.2,329z"/>
		<path d="M395.1,332.5l0.8-1.1c1.5,1.3,3.1,2,4.9,2c2,0,3.9-1.2,3.9-2.9s-1.5-2.7-4-2.7h-2v-1.2h2c2,0,3.6-1,3.6-2.8
			c0-1.5-1.5-2.5-3.4-2.5c-1.4,0-3.1,0.4-4.5,1.5l-0.8-1.1c1.5-1.1,3.4-1.7,5.3-1.7c3,0,4.9,1.6,4.9,3.8c0,1.8-1.1,2.8-2.3,3.3
			c1.6,0.6,2.7,1.6,2.7,3.5c0,2.2-2.1,4.2-5.3,4.2C398.8,334.6,396.8,333.9,395.1,332.5z"/>
	</g>
	<g>
		<path class="st0" d="M319.7,102.4c13.5,11,6.4,51.9-16.4,75.6c-30.7,31.9-81.5,24.2-99.5,21.4c-9.2-1.4-110.6-16.9-120.3-83.8
			C74.2,51.4,156.4-11,193.8,1.6c36.7,12.4,28.5,96.5,71.8,107.1C289.5,114.5,307.8,92.6,319.7,102.4z"/>
		<g>
			<path class="st1" d="M180.9,178.6c-0.2-0.2-0.3-0.4-0.4-0.6c-0.9-1.8-1.8-3.6-2.9-5.3c-0.6-0.9-0.7-1.1-1.5-2
				c-0.1-0.1-0.5-0.4-0.6-0.5c-0.3-0.2-1.1-0.6-0.5-0.4c-0.6-0.2-1.1-0.5-1.6-0.9c0.1,0.2,0.1,0.3,0.1,0.3s-3-1.5-5-2.5
				c-4.7-2.4-11.1-4.9-16.6-6c-2.3-0.5-4.3-0.2-4.5-0.8c-0.2-0.4-0.2-0.9-0.1-1.3c-4.9,0.1-9.8,0.5-14.7,0.8l0.5,0.7
				c0.6,0.3-4,0.6-5,1.3c-4.5,3-4.7,2.1-10,6.4c0,0,12.7,9.3,30.4,16.5c22.7,9.3,35.3,11.4,35.3,11.4c0.2-2.2-0.8-7.8-1.5-12.3
				C182.1,182.5,181.4,180.2,180.9,178.6z"/>
			<path class="st1" d="M158.1,134.6c-1.6-1-3.5-1.5-5.7-0.6c-5.1,1.9-10.4,7.4-13.2,10.5c-1,1.2-2.1,4-2.7,5.8
				c-0.6,2-2.5,1.8-2.5,1.8s1.9,1.7,2,2.9c0.1,1.6-3.8-1-3.5-0.1l0.5,1.7c0.2,0.2-0.4,0.1-1.3,0c0,0.1,0,0.2,0,0.3
				c0.2,0.1,0.5,0.3,0.7,0.5l0,0c-0.8,1.1,3.1,3.1,4.5,3.1c4.3-0.1,6.1-1,9.7,0.4c0.1-0.6,0.4-1.1,0.9-1.3c0.4-0.2-0.6-0.2-0.6-0.6
				c0.1-1.1,2.3,0,2.3,0s0.5-1.4,0.8-2.1c1.1-2,3.3-3.3,5.4-7.3C158.6,143,162,137,158.1,134.6z"/>
			<path class="st1" d="M171.9,171.1c0.2,0.2,0.3,0.4,0.5,0.6c1.2,1.6,1.4,2.9,3.4,3.6s2.7,7,5,7c-3.1-0.7,2.1-0.1,0.2-5.2
				c-0.4-1.1,2.8-1.4,2.8-1.4c0.6-0.8-2.2-2-1.9-2.4c0.2-0.3,1.1,0,1.2-0.3c0.4-0.9-0.8-1.2-0.8-1.2c2.3-2.1,6.8-5.9,6.7-15.2
				c-0.1-7.4-2.1-12.7-5.5-12.3c-2.2,0.3-7.2,7.1-10,15.9c-2.4,7.8,0.1,9.3-0.3,9c-0.1-0.1-1.1-0.3-1.3,0.1c-0.1,0.2,0.7,1,0.5,1
				c-0.2-0.1-0.8-0.2-1,0C171.2,170.5,171.9,171.1,171.9,171.1L171.9,171.1z"/>
			<g>
				<path d="M126.6,174.9c-0.4-4.5,2-8.9,8.8-6.5c3.5,1.3,3.4,3.6,3.4,4c-0.1,2.1-0.6,3.2-1.8,4c-3,2-4.8,1.7-6.8,1.3
					C127.8,177.4,126.7,175.4,126.6,174.9z"/>
				<path class="st1" d="M130.9,173.3c-0.2-1.3,0.1-2.7,2.7-2.8c0.2,0,1.2-0.1,1.9,0.7c0.7,0.8,0.8,2.5,0,3.3
					c-0.8,0.9-2.5,0.7-3.5,0.2C131.9,174.6,131.1,174.1,130.9,173.3z"/>
			</g>
			<g>
				<path d="M166.6,191c-0.8-2-2.4-4.1,1.9-7.1c2-1.5,5-1,6.7,1.6c1.9,2.9,0.9,4.6-0.3,6.2c-1.4,1.8-4.1,2.8-6.1,1.8
					C167.3,192.8,166.7,191.5,166.6,191z"/>
				<path class="st1" d="M169.9,190.4c-1-0.2-1.6-1-1.8-1.9c-0.3-1.3,0.1-1.8,0.9-2.4c0.3-0.2,0.7-0.6,1.3-0.6
					c1,0.1,1.6,1.2,1.8,1.9c0.1,0.3,0.4,1.6-0.5,2.4C170.9,190.6,170,190.4,169.9,190.4z"/>
			</g>
		</g>
	</g>
</g>
<g id="lines">
</g>
</svg>
