<svg id="Слой_1" data-name="Слой 1" xmlns="http://www.w3.org/2000/svg" viewBox="0 0 412.7 338.96"><defs><style>.cls-1{fill:#dad1e0;}.cls-2{fill:#fff;}</style></defs><title>logo_elentoys1</title><path d="M293.17,561.08H341v4.61H298.16v26.4h38.49v4.61H298.16v27h43.29v4.61H293.17Z" transform="translate(-293.17 -328.86)"/><path d="M357.11,558.2h4.7v70.08h-4.7Z" transform="translate(-293.17 -328.86)"/><path d="M377,603.7c0-14.21,10-25.53,23.23-25.53,13.73,0,22.46,11.13,22.46,25.63a12.21,12.21,0,0,1-.1,1.92H382c.86,12.19,9.6,19.29,19.2,19.29,7.58,0,12.77-3.36,16.8-7.68l3.26,2.88c-5,5.38-10.85,9.22-20.25,9.22C388.12,629.43,377,619.16,377,603.7Zm40.61-2.21c-.67-9.89-6.34-19-17.57-19-9.7,0-17.18,8.16-18,19Z" transform="translate(-293.17 -328.86)"/><path d="M436.4,579.32h4.7v9.12a19.17,19.17,0,0,1,17.66-10.27c12.38,0,19.58,8.45,19.58,20.16v30h-4.7V599.19c0-10.08-5.66-16.7-15.55-16.7-9.6,0-17,7.3-17,17.47v28.32h-4.7Z" transform="translate(-293.17 -328.86)"/><path class="cls-1" d="M508.69,577.4H488.53V561.08h58.94V577.4H527.31v50.88H508.69Z" transform="translate(-293.17 -328.86)"/><path class="cls-1" d="M543.63,602.36c0-14.78,12.1-27.17,28.8-27.17S601,587.38,601,602.36c0,14.78-12.1,27.17-28.8,27.17S543.63,617.33,543.63,602.36Zm39.65,0c0-6.34-4.61-11.71-11-11.71-6.62,0-10.85,5.28-10.85,11.71s4.61,11.71,11,11.71C579.06,614.07,583.28,608.79,583.28,602.36Z" transform="translate(-293.17 -328.86)"/><path class="cls-1" d="M604.5,639.41l5.66-12.77c2.88,1.73,6,2.78,8,2.78a4.55,4.55,0,0,0,4.22-2.11l-20.35-51h19.1l10.37,31.29,9.79-31.29H660L641,627c-4.51,12.1-9.41,16.89-19.77,16.89A33.55,33.55,0,0,1,604.5,639.41Z" transform="translate(-293.17 -328.86)"/><path class="cls-1" d="M660.08,621.75l6.82-11c6,3.94,12.48,6,17.85,6,3.17,0,4.61-1,4.61-3s-2.88-3-8.35-4.42c-10.27-2.78-18.43-6.14-18.43-16.8,0-11,8.83-17.18,20.83-17.18a40.61,40.61,0,0,1,21.41,6l-6.24,11.52c-5.38-3-11.23-4.8-15.36-4.8-2.78,0-4.22,1.06-4.22,2.69,0,2,3,3,8.45,4.61,10.27,3,18.43,6.43,18.43,16.7,0,11.42-8.54,17.38-21.21,17.38A41.89,41.89,0,0,1,660.08,621.75Z" transform="translate(-293.17 -328.86)"/><path d="M294.88,649h11.87v14.28h-1.37v-13h-9.13v13h-1.37Z" transform="translate(-293.17 -328.86)"/><path d="M309.46,663.25l.25-1.26a5.9,5.9,0,0,0,1.09.2c1.9,0,3.25-.84,3.3-12.46V649h9.72v14.28h-1.37v-13h-7v.39c0,11.82-1.76,12.88-4.4,12.88A7,7,0,0,1,309.46,663.25Z" transform="translate(-293.17 -328.86)"/><path d="M333.94,656.7h-3.53v6.55H329V649h1.37v6.47h3.53c.28-3.7,2.91-6.8,6.94-6.8,4.23,0,6.89,3.42,6.89,7.48s-2.69,7.48-6.94,7.48C336.76,663.59,334.19,660.51,333.94,656.7Zm12.35-.59c0-3.44-2.16-6.19-5.46-6.19s-5.4,2.77-5.4,6.19,2.16,6.19,5.46,6.19S346.28,659.53,346.28,656.11Z" transform="translate(-293.17 -328.86)"/><path d="M352,649h1.37v13h7.9V649h1.37v13h7.9V649h1.37v14.28H352Z" transform="translate(-293.17 -328.86)"/><path d="M376.13,656.08c0-4.14,2.91-7.45,6.78-7.45s6.55,3.25,6.55,7.48a3.52,3.52,0,0,1,0,.56H377.59a5.66,5.66,0,0,0,5.6,5.63,6.41,6.41,0,0,0,4.9-2.24l1,.84a7.51,7.51,0,0,1-5.91,2.69C379.38,663.59,376.13,660.59,376.13,656.08Zm11.84-.64c-.2-2.88-1.85-5.54-5.12-5.54-2.83,0-5,2.38-5.26,5.54Z" transform="translate(-293.17 -328.86)"/><path d="M393.46,649H400c2.77,0,4.62,1.37,4.62,3.56a3.4,3.4,0,0,1-2.41,3.28c1.71.45,3.22,1.54,3.22,3.56,0,2.38-2,3.89-5.12,3.89h-6.83Zm6.33,6.38c2,0,3.42-1,3.42-2.74,0-1.43-1.18-2.41-3.33-2.41h-5v5.15Zm.34,6.66c2.38,0,3.86-1.09,3.86-2.86s-1.46-2.66-4.2-2.66h-5V662Z" transform="translate(-293.17 -328.86)"/><path d="M409.7,649h1.37v5.49h4.26c3,0,5.46,1.26,5.46,4.2,0,2.77-2.07,4.59-5.21,4.59H409.7Zm5.66,13c2.41,0,3.95-1.2,3.95-3.3,0-1.93-1.57-3-4.06-3h-4.17V662Zm8.29-13H425v14.28h-1.37Z" transform="translate(-293.17 -328.86)"/><path d="M429.25,656.08c0-4.14,2.91-7.45,6.78-7.45s6.55,3.25,6.55,7.48a3.52,3.52,0,0,1,0,.56H430.7a5.66,5.66,0,0,0,5.6,5.63,6.41,6.41,0,0,0,4.9-2.24l1,.84a7.51,7.51,0,0,1-5.91,2.69C432.5,663.59,429.25,660.59,429.25,656.08Zm11.84-.64c-.2-2.88-1.85-5.54-5.12-5.54-2.83,0-5,2.38-5.26,5.54Z" transform="translate(-293.17 -328.86)"/><path d="M455,649h1.37v12.46L466,649h1.37v14.28H466V650.79l-9.69,12.46H455Z" transform="translate(-293.17 -328.86)"/><path d="M472.62,649h9.44v1.23H474v13h-1.37Z" transform="translate(-293.17 -328.86)"/><path d="M485.5,649h1.37v3.19a6.9,6.9,0,0,1,5.88-3.53,7.5,7.5,0,0,1,0,15,6.87,6.87,0,0,1-5.88-3.42v7.56H485.5Zm12.71,7.14c0-3.75-2.6-6.16-5.6-6.16a6.17,6.17,0,0,0,0,12.32C495.72,662.27,498.21,660,498.21,656.11Z" transform="translate(-293.17 -328.86)"/><path d="M502.33,667.2l.48-1.2a5,5,0,0,0,2.44.53c1.48,0,2.46-.87,3.53-3.36L501.91,649h1.6l5.94,12.77L514.59,649h1.51l-6.19,14.78c-1.26,3-2.72,4.06-4.76,4.06A6.43,6.43,0,0,1,502.33,667.2Z" transform="translate(-293.17 -328.86)"/><path d="M519.88,649h1.37v13h7.9V649h1.37v13h7.9V649h1.37v14.28H519.88Z" transform="translate(-293.17 -328.86)"/><path d="M545,649h1.37v9.16l8.85-9.16H557l-6.24,6.33,6.44,8H555.5l-5.66-7-3.47,3.5v3.47H545Z" transform="translate(-293.17 -328.86)"/><path d="M560.57,649h1.37v12.46L571.63,649H573v14.28h-1.37V650.79l-9.69,12.46h-1.37Z" transform="translate(-293.17 -328.86)"/><path d="M586.6,649H588v6.36h9.49V649h1.37v14.28h-1.37v-6.69H588v6.69H586.6Z" transform="translate(-293.17 -328.86)"/><path d="M602.87,659c0-3,2.55-4.65,6.24-4.65a17.21,17.21,0,0,1,4.73.62v-.62c0-2.88-1.76-4.37-4.7-4.37a9.57,9.57,0,0,0-4.48,1.15l-.5-1.2a11.47,11.47,0,0,1,5.07-1.23,6.17,6.17,0,0,1,4.51,1.57,5.42,5.42,0,0,1,1.46,4v8.9h-1.34v-2.38a6.5,6.5,0,0,1-5.46,2.72C605.45,663.59,602.87,662.07,602.87,659Zm11-1.15v-1.62a18.9,18.9,0,0,0-4.84-.64c-3,0-4.68,1.34-4.68,3.39s1.65,3.28,4.12,3.28C611.39,662.3,613.88,660.51,613.88,657.9Z" transform="translate(-293.17 -328.86)"/><path d="M627.18,661.4l.84-1.12a7.29,7.29,0,0,0,4.93,2c2,0,3.89-1.23,3.89-2.94s-1.48-2.74-4-2.74h-2v-1.23h2c2,0,3.56-1,3.56-2.8,0-1.54-1.51-2.52-3.44-2.52a7.36,7.36,0,0,0-4.45,1.46l-.81-1.09a8.93,8.93,0,0,1,5.29-1.65c3,0,4.93,1.57,4.93,3.81a3.44,3.44,0,0,1-2.3,3.3,3.5,3.5,0,0,1,2.66,3.5c0,2.24-2.13,4.2-5.32,4.2A9.06,9.06,0,0,1,627.18,661.4Z" transform="translate(-293.17 -328.86)"/><path d="M641.34,659c0-3,2.55-4.65,6.24-4.65a17.21,17.21,0,0,1,4.73.62v-.62c0-2.88-1.76-4.37-4.7-4.37a9.57,9.57,0,0,0-4.48,1.15l-.5-1.2a11.47,11.47,0,0,1,5.07-1.23,6.17,6.17,0,0,1,4.51,1.57,5.42,5.42,0,0,1,1.46,4v8.9h-1.34v-2.38a6.5,6.5,0,0,1-5.46,2.72C643.92,663.59,641.34,662.07,641.34,659Zm11-1.15v-1.62a18.9,18.9,0,0,0-4.84-.64c-3,0-4.68,1.34-4.68,3.39s1.65,3.28,4.12,3.28C649.86,662.3,652.35,660.51,652.35,657.9Z" transform="translate(-293.17 -328.86)"/><path d="M658.59,649H660v9.16l8.85-9.16h1.82l-6.24,6.33,6.44,8h-1.74l-5.66-7-3.47,3.5v3.47h-1.37Z" transform="translate(-293.17 -328.86)"/><path d="M672.42,659c0-3,2.55-4.65,6.24-4.65a17.21,17.21,0,0,1,4.73.62v-.62c0-2.88-1.76-4.37-4.7-4.37a9.57,9.57,0,0,0-4.48,1.15l-.5-1.2a11.47,11.47,0,0,1,5.07-1.23,6.17,6.17,0,0,1,4.51,1.57,5.42,5.42,0,0,1,1.46,4v8.9H683.4v-2.38a6.5,6.5,0,0,1-5.46,2.72C675,663.59,672.42,662.07,672.42,659Zm11-1.15v-1.62a18.9,18.9,0,0,0-4.84-.64c-3,0-4.68,1.34-4.68,3.39s1.65,3.28,4.12,3.28C680.94,662.3,683.43,660.51,683.43,657.9Z" transform="translate(-293.17 -328.86)"/><path d="M688.33,661.4l.84-1.12a7.29,7.29,0,0,0,4.93,2c2,0,3.89-1.23,3.89-2.94s-1.48-2.74-4-2.74h-2v-1.23h2c2,0,3.56-1,3.56-2.8,0-1.54-1.51-2.52-3.44-2.52a7.36,7.36,0,0,0-4.45,1.46l-.81-1.09a8.93,8.93,0,0,1,5.29-1.65c3,0,4.93,1.57,4.93,3.81a3.44,3.44,0,0,1-2.3,3.3,3.5,3.5,0,0,1,2.66,3.5c0,2.24-2.13,4.2-5.32,4.2A9.06,9.06,0,0,1,688.33,661.4Z" transform="translate(-293.17 -328.86)"/><path class="cls-1" d="M612.93,431.29c13.47,11,6.42,51.87-16.38,75.6C565.89,538.81,515,531.06,497,528.31c-9.23-1.41-110.63-16.86-120.33-83.79-9.3-64.2,72.89-126.62,110.25-114,36.69,12.37,28.54,96.52,71.82,107.1C582.71,443.45,601,421.5,612.93,431.29Z" transform="translate(-293.17 -328.86)"/><path class="cls-2" d="M475.43,512.23c-.21-1.32-1.87-6.52-1.87-6.52s.53.32.66.33a2.29,2.29,0,0,0,1.19-.34c.36-.29,1,.34,1,.34.79-.61-1.5-2.56-1.06-2.88s1,.28,1.2.11c-1.34-3.37-3.48-5.82-7.11-6.7a5.44,5.44,0,0,1-1.13-.41c.07.41.19.54.1.41s-.93-.64-1.23-.35.34,1.21.18,1.08-.71-.41-.93-.27.25,1,.25,1-3-1.46-5-2.45a71,71,0,0,0-16.59-6c-2.34-.47-4.28-.2-4.51-.78,0,0,0-.06,0-.09h-.17a4.55,4.55,0,0,1-3.92-2,66.55,66.55,0,0,0-8-.54,1.62,1.62,0,0,1,.18.26c.66,1.46-3.89.36-3.37,1.07l1.47-.26c.65.35-4.44,2.23-5.47,2.94-4.47,3-4.69,2.07-10,6.41a159.56,159.56,0,0,0,30.38,16.5c22.71,9.29,35.35,11.39,35.35,11.39C477.14,522.41,476.16,516.79,475.43,512.23Z" transform="translate(-293.17 -328.86)"/><path class="cls-2" d="M437,457.79a6.21,6.21,0,0,0-5.41,2c-3.67,4-6,11.28-7.13,15.33a19.08,19.08,0,0,0,.2,6.38,2.39,2.39,0,0,1-1.4,2.75s2.48.61,3.12,1.67c.83,1.37-3.82.8-3.23,1.45l1.18,1.3c.32.12-.49.35-1.54.64a4.82,4.82,0,0,1,.53.08h.09a5.48,5.48,0,0,1,1.09,0c4.51-2.26,10-2.13,15.14-1.74a5.07,5.07,0,0,1,.17-.51c-.67,0-1.14,0-1.27-.27a2,2,0,0,1,0-2c.29-.38-.64.14-.82-.25-.43-1,2.07-1,2.07-1a15.24,15.24,0,0,1-.17-2.22c.13-2.28,1.47-4.41,1.54-8.94C441.33,465.11,441.66,458.17,437,457.79Z" transform="translate(-293.17 -328.86)"/><path class="cls-2" d="M489.76,480.11c-2.07-.86-9.72,2.65-16.46,9-5.93,5.59-4.42,8.13-4.65,7.68-.06-.11-.79-.8-1.14-.57s.1,1.25,0,1.1-.62-.54-.86-.44.06,1,.06,1l-.91-.68a5.81,5.81,0,0,1-.19.62c-.07.19-.12.38-.18.57a17.71,17.71,0,0,1,7.43,7A11.48,11.48,0,0,1,475,507c-.13-.86-1.1-2.22-.73-2.39s.94.51,1.18.33c.77-.58-.15-1.41-.15-1.41,3.06-.67,8.87-1.84,13.3-10C492.12,487,493,481.43,489.76,480.11Z" transform="translate(-293.17 -328.86)"/><path d="M419.84,503.85c-.41-4.5,2-8.9,8.76-6.46,3.5,1.26,3.44,3.62,3.42,4-.08,2.06-.62,3.24-1.78,4a7.79,7.79,0,0,1-6.84,1.3A4.66,4.66,0,0,1,419.84,503.85Z" transform="translate(-293.17 -328.86)"/><path class="cls-2" d="M424.14,502.18c-.23-1.29.13-2.72,2.74-2.81a2.28,2.28,0,0,1,1.86.68,2.77,2.77,0,0,1,0,3.28c-.82.88-2.51.75-3.46.24A2.17,2.17,0,0,1,424.14,502.18Z" transform="translate(-293.17 -328.86)"/><path d="M459.75,519.9c-.81-2-2.36-4.11,1.87-7.11,2-1.45,5-1,6.66,1.59,1.93,2.92.94,4.58-.32,6.21-1.43,1.84-4.15,2.76-6.14,1.77A4.52,4.52,0,0,1,459.75,519.9Z" transform="translate(-293.17 -328.86)"/><path class="cls-2" d="M463.08,519.28a2.32,2.32,0,0,1-1.77-1.86,2,2,0,0,1,.88-2.35,2,2,0,0,1,1.33-.61c1,.06,1.57,1.21,1.76,1.93a2.48,2.48,0,0,1-.46,2.4A2.13,2.13,0,0,1,463.08,519.28Z" transform="translate(-293.17 -328.86)"/></svg>